<svg xmlns="http://www.w3.org/2000/svg" width="106.632" height="102.411" viewBox="0 0 106.632 102.411">
  <g id="Group_1424" data-name="Group 1424" transform="translate(-485.55 -227.5)">
    <g id="Group_613" data-name="Group 613" transform="translate(-1116.145 -1143.024)">
      <path id="Path_1846" data-name="Path 1846" d="M112.206,39.95A52.988,52.988,0,0,1,59.35,93.057" transform="translate(1595.671 1379.429)" fill="none" stroke="#81bd41" stroke-miterlimit="10" stroke-width="0.9"/>
      <path id="Path_1847" data-name="Path 1847" d="M86.966,93.057A52.974,52.974,0,0,1,34.11,39.95" transform="translate(1568.034 1379.429)" fill="none" stroke="#9aca67" stroke-miterlimit="10" stroke-width="0.9"/>
      <path id="Path_1848" data-name="Path 1848" d="M36.02,65.484A48.865,48.865,0,1,0,84.9,16.63,48.875,48.875,0,0,0,36.02,65.484" transform="translate(1570.125 1354.395)" fill="#81bd41"/>
      <path id="Path_1849" data-name="Path 1849" d="M84.885,114.359a48.865,48.865,0,1,1,0-97.729" transform="translate(1570.115 1353.895)" fill="#b3d78d"/>
    </g>
    <path id="Path_2930" data-name="Path 2930" d="M309.321,226.1a2.348,2.348,0,0,0-3.347-.213l-31.071,27.2a2.3,2.3,0,0,0-.76,1.306l-2.492,11.749a2.459,2.459,0,0,0,.523,2.042,2.4,2.4,0,0,0,1.8.831h.142l12.2-.689a2.322,2.322,0,0,0,1.424-.593l31.048-27.2a2.369,2.369,0,0,0,.807-1.638,2.265,2.265,0,0,0-.594-1.71ZM285.2,263.629l-8.283.474,1.684-7.976,28.674-25.113,6.575,7.5Zm0,0" transform="translate(243.394 28.714)" fill="#fff"/>
  </g>
</svg>
