<svg xmlns="http://www.w3.org/2000/svg" width="106.632" height="102.411" viewBox="0 0 106.632 102.411">
  <g id="Group_1423" data-name="Group 1423" transform="translate(-733.55 -227.5)">
    <g id="Group_1420" data-name="Group 1420">
      <path id="Path_1846" data-name="Path 1846" d="M112.206,39.95A52.988,52.988,0,0,1,59.35,93.057" transform="translate(727.526 236.404)" fill="none" stroke="#81bd41" stroke-miterlimit="10" stroke-width="0.9"/>
      <path id="Path_1847" data-name="Path 1847" d="M86.966,93.057A52.974,52.974,0,0,1,34.11,39.95" transform="translate(699.89 236.404)" fill="none" stroke="#9aca67" stroke-miterlimit="10" stroke-width="0.9"/>
      <path id="Path_1848" data-name="Path 1848" d="M133.749,65.484A48.865,48.865,0,1,1,84.874,16.63a48.875,48.875,0,0,1,48.875,48.854" transform="translate(701.98 211.37)" fill="#81bd41"/>
      <path id="Path_1849" data-name="Path 1849" d="M84.885,114.359a48.865,48.865,0,1,1,0-97.729" transform="translate(701.97 210.87)" fill="#b3d78d"/>
    </g>
    <g id="view" transform="translate(757 165.165)">
      <g id="Group_1390" data-name="Group 1390" transform="translate(0 92.835)">
        <g id="Group_1389" data-name="Group 1389" transform="translate(0 0)">
          <path id="Path_2927" data-name="Path 2927" d="M59.619,110.789C59.083,110.056,46.311,92.835,30,92.835S.916,110.056.381,110.788a1.98,1.98,0,0,0,0,2.335c.535.733,13.308,17.954,29.619,17.954s29.083-17.221,29.619-17.953A1.978,1.978,0,0,0,59.619,110.789ZM30,127.121c-12.015,0-22.422-11.43-25.5-15.166,3.077-3.74,13.461-15.164,25.5-15.164,12.015,0,22.42,11.428,25.5,15.166C52.425,115.7,42.041,127.121,30,127.121Z" transform="translate(0 -92.835)" fill="#fff"/>
        </g>
      </g>
      <g id="Group_1392" data-name="Group 1392" transform="translate(18.132 100.088)">
        <g id="Group_1391" data-name="Group 1391" transform="translate(0 0)">
          <path id="Path_2928" data-name="Path 2928" d="M166.59,154.725a11.868,11.868,0,1,0,11.868,11.868A11.882,11.882,0,0,0,166.59,154.725Zm0,19.78a7.912,7.912,0,1,1,7.912-7.912A7.921,7.921,0,0,1,166.59,174.505Z" transform="translate(-154.722 -154.725)" fill="#fff"/>
        </g>
      </g>
    </g>
  </g>
</svg>
