<svg xmlns="http://www.w3.org/2000/svg" width="20" height="18.221" viewBox="0 0 20 18.221">
  <path id="Path_2925" data-name="Path 2925" d="M287.321,225.626a.978.978,0,0,0-1.395-.089L272.98,236.871a.956.956,0,0,0-.317.544l-1.038,4.9a1.025,1.025,0,0,0,.218.851,1,1,0,0,0,.752.346h.059l5.084-.287a.968.968,0,0,0,.593-.247l12.937-11.334a.987.987,0,0,0,.336-.682.944.944,0,0,0-.247-.713Zm-10.049,15.637-3.451.2.7-3.323,11.947-10.464,2.74,3.125Zm0,0" transform="translate(-271.606 -225.287)" fill="#81bd41"/>
</svg>
