<?xml version="1.0" encoding="utf-8"?>
<!-- Generator: Adobe Illustrator 24.0.0, SVG Export Plug-In . SVG Version: 6.00 Build 0)  -->
<svg version="1.1" id="Layer_1" xmlns="http://www.w3.org/2000/svg" xmlns:xlink="http://www.w3.org/1999/xlink" x="0px" y="0px"
	 viewBox="0 0 117.3 242.5" style="enable-background:new 0 0 117.3 242.5;" xml:space="preserve">
<style type="text/css">
	.st0{fill-rule:evenodd;clip-rule:evenodd;fill:#FFFFFF;}
	.st1{fill-rule:evenodd;clip-rule:evenodd;fill:#22252D;}
	.st2{fill-rule:evenodd;clip-rule:evenodd;fill:#00808A;}
	.st3{fill-rule:evenodd;clip-rule:evenodd;fill:#BFBFBF;}
	.st4{font-family:'Tajawal-Light';}
	.st5{font-size:4.98px;}
	.st6{fill:#07706D;}
	.st7{fill:#85BD48;}
	.st8{fill:#3C3C3B;}
</style>
<path class="st0" d="M-0.4,134.5h117.6v89.7c0,10.2-8.2,18.4-18.4,18.4H18c-10.2,0-18.4-8.2-18.4-18.4V134.5z"/>
<path class="st0" d="M18.1,0h80.8c10.2,0,18.4,8.2,18.4,18.4v120H-0.3v-120C-0.3,8.2,8,0,18.1,0z"/>
<path class="st1" d="M17.4,0h82c9.8,0,17.8,8,17.8,17.8v206.9c0,9.8-8,17.8-17.8,17.8h-82c-9.8,0-17.8-8-17.8-17.8V17.8
	C-0.4,8,7.5,0,17.4,0z M17.4,7.9c-6.5,0-11.8,5.3-11.8,11.8v203.3c0,6.5,5.3,11.7,11.8,11.7h81.9c6.5,0,11.8-5.3,11.8-11.7V19.6
	c0-6.5-5.3-11.8-11.8-11.8H81.7v4.7c0,3.7-3,6.7-6.7,6.7H47c-3.7,0-6.7-3-6.7-6.7V7.9H17.4z"/>
<ellipse transform="matrix(7.088878e-02 -0.9975 0.9975 7.088878e-02 -164.6399 248.7644)" class="st2" cx="51.2" cy="212.8" rx="1.8" ry="1.8"/>
<path class="st3" d="M56.6,212.8c0-1,0.8-1.8,1.8-1.8c1,0,1.8,0.8,1.8,1.8c0,1-0.8,1.8-1.8,1.8C57.4,214.6,56.6,213.8,56.6,212.8z"
	/>
<ellipse transform="matrix(7.088878e-02 -0.9975 0.9975 7.088878e-02 -151.3722 263.0084)" class="st3" cx="65.5" cy="212.8" rx="1.8" ry="1.8"/>
<path d="M27.4,159.6c0,0.8-0.2,1.5-0.7,2c-0.4,0.5-1,0.7-1.6,0.7c-0.4,0-0.9-0.1-1.3-0.3v-1.2c0.4,0.2,0.7,0.3,1.1,0.3
	c0.4,0,0.7-0.1,0.9-0.4c0.2-0.2,0.3-0.6,0.3-1v-3.4l1.3-0.7V159.6z M29.3,160.2v-6.1l1.3-0.7v6.8H29.3z M35.1,159h0.9v1.3H35
	c-0.2,0-0.5,0-0.7-0.1c-0.1,0.7-0.4,1.2-0.8,1.6c-0.4,0.3-0.9,0.5-1.5,0.5c-0.4,0-0.9-0.1-1.3-0.3v-1.2c0.4,0.2,0.7,0.3,1.1,0.3
	c0.4,0,0.7-0.1,0.9-0.4c0.2-0.2,0.3-0.6,0.3-1v-3.4l0.9-0.5l0.5-0.2v0l0,0v2.6c0,0.3,0.1,0.5,0.2,0.6C34.7,158.9,34.8,159,35.1,159z
	 M35.4,160.2V159h1.8v1.3H35.4z M36.7,160.2V159h1.8v1.3H36.7z M37.9,160.2V159h1.8v1.3H37.9z M39.2,160.2V159H41v1.3H39.2z
	 M40.4,160.2V159h1.8v1.3H40.4z M41.7,160.2V159h1.8v1.3H41.7z M42.8,160.2V159h1.8v1.3H42.8z M44.1,160.2V159h1.8v1.3H44.1z
	 M45.3,160.2V159h1.8v1.3H45.3z M46.5,160.2V159h1.8v1.3H46.5z M47.7,160.2V159h1.8v1.3H47.7z M48.9,160.2V159h1.7
	c-0.2-0.3-0.3-0.7-0.3-1.2c0-0.8,0.2-1.4,0.6-1.8c0.4-0.4,0.9-0.6,1.5-0.6c0.6,0,1.1,0.2,1.4,0.6c0.3,0.3,0.5,0.8,0.5,1.3v0.9
	c0,0.6-0.2,1.1-0.5,1.4c-0.3,0.4-0.8,0.5-1.4,0.5H48.9z M52.2,154c0,0.5-0.2,0.7-0.7,0.7c-0.2,0-0.4-0.1-0.5-0.2
	c-0.1-0.1-0.2-0.3-0.2-0.5c0-0.5,0.2-0.7,0.7-0.7c0.2,0,0.4,0.1,0.5,0.2C52.2,153.6,52.2,153.7,52.2,154L52.2,154z M52.9,157.3
	c0-0.5-0.2-0.7-0.6-0.7c-0.5,0-0.8,0.4-0.8,1.1c0,0.8,0.3,1.2,0.8,1.2c0.4,0,0.6-0.2,0.6-0.7V157.3z M53.9,154
	c0,0.5-0.2,0.7-0.7,0.7c-0.2,0-0.4-0.1-0.5-0.2c-0.1-0.1-0.2-0.3-0.2-0.5c0-0.5,0.2-0.7,0.7-0.7c0.2,0,0.4,0.1,0.5,0.2
	C53.8,153.6,53.9,153.7,53.9,154L53.9,154z M62.9,159h0.9v1.3h-1.1c-0.7,0-1.2-0.2-1.5-0.7c-0.3,0.2-0.7,0.3-1.1,0.3
	c-0.6,0-1.2-0.2-1.5-0.7c-0.3-0.4-0.5-0.9-0.5-1.4c0-0.7,0.2-1.3,0.7-1.7c0.4-0.4,0.8-0.5,1.3-0.5c0.3,0,0.5,0,0.7,0.1v-0.3l1.3-0.7
	v3.5c0,0.3,0.1,0.5,0.2,0.6C62.4,158.9,62.6,159,62.9,159z M60.2,153.6c0,0.5-0.2,0.7-0.7,0.7c-0.2,0-0.4-0.1-0.5-0.2
	c-0.1-0.1-0.2-0.3-0.2-0.5c0-0.5,0.2-0.7,0.7-0.7c0.2,0,0.4,0.1,0.5,0.2C60.1,153.2,60.2,153.4,60.2,153.6L60.2,153.6z M60.8,157
	c-0.2-0.2-0.4-0.2-0.6-0.2c-0.2,0-0.4,0.1-0.6,0.3c-0.1,0.2-0.2,0.4-0.2,0.7c0,0.3,0.1,0.6,0.2,0.7c0.1,0.2,0.3,0.3,0.6,0.3
	c0.3,0,0.5-0.1,0.6-0.3c0-0.1,0-0.1,0-0.3V157z M61.8,153.6c0,0.5-0.2,0.7-0.7,0.7c-0.2,0-0.4-0.1-0.5-0.2c-0.1-0.1-0.2-0.3-0.2-0.5
	c0-0.5,0.2-0.7,0.7-0.7c0.2,0,0.4,0.1,0.5,0.2C61.7,153.2,61.8,153.4,61.8,153.6L61.8,153.6z M63.2,160.2V159H65v1.3H63.2z
	 M64.4,160.2V159h1.8v1.3H64.4z M65.6,160.2V159h1.8v1.3H65.6z M66.8,160.2V159h1.8v1.3H66.8z M68,160.2V159h1.8v1.3H68z
	 M69.2,160.2V159h1.8v1.3H69.2z M80.5,158.3c0,0.5,0.2,0.7,0.7,0.7h0.9v1.3h-1.1c-0.5,0-0.9-0.1-1.3-0.4c-0.3,0.3-0.8,0.4-1.3,0.4
	H74c-0.5,0-0.9-0.1-1.3-0.4c-0.3,0.3-0.8,0.4-1.3,0.4h-1.1V159h0.9c0.3,0,0.5-0.1,0.6-0.2c0.1-0.1,0.2-0.3,0.2-0.6v-1.4l1.3-0.7v2.1
	c0,0.4,0.2,0.7,0.5,0.7c0.3-1,0.8-1.9,1.5-2.5c0.7-0.7,1.5-1.1,2.5-1.1c0.8,0,1.5,0.3,2,0.9c0.4,0.5,0.6,1.1,0.6,1.8V158.3
	L80.5,158.3z M78.5,159c0.3,0,0.4-0.1,0.5-0.2c0.1-0.1,0.1-0.3,0.1-0.6v-0.1c0-0.4-0.1-0.8-0.4-1c-0.2-0.3-0.5-0.4-0.9-0.4
	c-0.5,0-1.1,0.2-1.5,0.6s-0.8,1-1.1,1.7H78.5z M85.3,159h0.9v1.3h-1.1c-0.5,0-0.9-0.1-1.3-0.4c-0.3,0.3-0.8,0.4-1.3,0.4h-1.1V159
	h0.9c0.3,0,0.5-0.1,0.6-0.2c0.1-0.1,0.2-0.3,0.2-0.6v-1.9l1.3-0.7v2.6c0,0.3,0.1,0.5,0.2,0.6C84.8,158.9,85,159,85.3,159z
	 M84.3,153.8c0,0.5-0.2,0.7-0.7,0.7c-0.2,0-0.4-0.1-0.5-0.2c-0.1-0.1-0.2-0.3-0.2-0.5c0-0.2,0.1-0.4,0.2-0.5
	c0.1-0.1,0.3-0.2,0.5-0.2c0.2,0,0.4,0.1,0.5,0.2C84.2,153.4,84.3,153.6,84.3,153.8L84.3,153.8z M87.3,157.3c0-0.6,0.2-1.1,0.6-1.5
	c0.3-0.3,0.8-0.5,1.3-0.5c0.7,0,1.2,0.3,1.6,0.8c0.3,0.4,0.5,1,0.5,1.6c0,0.8-0.2,1.4-0.6,1.8c-0.4,0.4-0.8,0.6-1.4,0.6
	c-0.6,0-1-0.1-1.4-0.4c-0.3,0.2-0.7,0.4-1.2,0.4h-1.1V159h0.9c0.3,0,0.5-0.1,0.6-0.2c0.1-0.1,0.2-0.3,0.2-0.6V157.3z M88.6,158.4
	c0,0.4,0.2,0.6,0.6,0.6c0.5,0,0.8-0.4,0.8-1.2c0-0.8-0.3-1.1-0.8-1.1c-0.4,0-0.6,0.2-0.6,0.7V158.4z"/>
<path d="M33.7,171.3c0,0.4,0.2,0.6,0.6,0.6h0.2v0.2h-0.2c-0.3,0-0.6-0.1-0.7-0.4c-0.1,0.2-0.4,0.4-0.7,0.4h-0.2V172h0.2
	c0.4,0,0.6-0.2,0.6-0.6v-1.1l0.2-0.1V171.3L33.7,171.3z M33.4,169.2c0,0.1-0.1,0.2-0.2,0.2c-0.1,0-0.2-0.1-0.2-0.2
	c0-0.1,0.1-0.2,0.2-0.2C33.4,169,33.4,169.1,33.4,169.2L33.4,169.2z M33.9,169.2c0,0.1-0.1,0.2-0.2,0.2c-0.1,0-0.2-0.1-0.2-0.2
	c0-0.1,0.1-0.2,0.2-0.2C33.9,169,33.9,169.1,33.9,169.2L33.9,169.2z M36.1,172h1.1v0.2H36c-0.1,0-0.2,0-0.3,0c-0.1,0-0.2,0-0.3,0
	h-1.2V172h1.1c-0.1-0.1-0.3-0.2-0.4-0.4c-0.1-0.2-0.1-0.3-0.1-0.5c0-0.3,0.1-0.6,0.3-0.8c0.2-0.2,0.4-0.2,0.6-0.2
	c0.3,0,0.5,0.1,0.7,0.3c0.1,0.2,0.2,0.4,0.2,0.7c0,0.2,0,0.4-0.1,0.5C36.4,171.7,36.3,171.9,36.1,172z M35.7,171.9L35.7,171.9
	c0.2-0.1,0.4-0.2,0.5-0.4c0.1-0.2,0.2-0.3,0.2-0.5c0-0.2-0.1-0.4-0.2-0.6c-0.1-0.1-0.3-0.2-0.5-0.2c-0.2,0-0.4,0.1-0.5,0.2
	c-0.1,0.1-0.2,0.3-0.2,0.6c0,0.2,0.1,0.4,0.2,0.5C35.4,171.7,35.5,171.9,35.7,171.9L35.7,171.9z M35.6,169.2c0,0.1-0.1,0.2-0.2,0.2
	c-0.1,0-0.2-0.1-0.2-0.2c0-0.1,0.1-0.2,0.2-0.2C35.6,169,35.6,169.1,35.6,169.2L35.6,169.2z M36.1,169.2c0,0.1-0.1,0.2-0.2,0.2
	c-0.1,0-0.2-0.1-0.2-0.2c0-0.1,0.1-0.2,0.2-0.2C36.1,169,36.1,169.1,36.1,169.2L36.1,169.2z M38,171.3c0,0.4,0.2,0.6,0.6,0.6h0.2
	v0.2h-0.2c-0.3,0-0.6-0.1-0.7-0.4c-0.1,0.2-0.4,0.4-0.7,0.4H37V172h0.2c0.4,0,0.6-0.2,0.6-0.6v-2.2L38,169V171.3L38,171.3z
	 M39.8,171.3c0.2-0.4,0.4-0.7,0.7-0.9c0.3-0.2,0.6-0.4,1-0.4c0.4,0,0.7,0.1,0.9,0.4c0.2,0.2,0.3,0.5,0.3,0.8v0.2
	c0,0.5-0.2,0.8-0.7,0.8h-3.3V172h0.9v-2.9l0.2-0.1V171.3z M42.3,171.4v-0.2c0-0.3-0.1-0.5-0.3-0.7c-0.2-0.2-0.4-0.2-0.6-0.2
	c-0.4,0-0.8,0.2-1.1,0.6c-0.2,0.3-0.4,0.7-0.5,1.1h2.1c0.2,0,0.3,0,0.4-0.1C42.3,171.8,42.3,171.6,42.3,171.4z M43.1,168.7l0.1-0.1
	h0.1c0-0.1,0-0.1,0-0.2c0-0.1,0-0.2,0.1-0.2c0.1-0.1,0.1-0.1,0.2-0.1c0.1,0,0.1,0,0.2,0.1v0.2c-0.1,0-0.1-0.1-0.2-0.1
	c-0.1,0-0.1,0-0.1,0.1c0,0-0.1,0.1-0.1,0.1c0,0.1,0,0.1,0.1,0.2h0.4l-0.1,0.1H43.1z M43.4,172.2v-3.1l0.2-0.1v3.2H43.4z M46.5,172.2
	c-0.3,0-0.5-0.1-0.7-0.3c-0.1-0.2-0.2-0.4-0.2-0.6c0-0.6,0.3-1,0.9-1.2c0.6,0.2,0.9,0.6,0.9,1.2c0,0.3-0.1,0.5-0.3,0.7
	C47,172.1,46.8,172.2,46.5,172.2L46.5,172.2z M46.5,172L46.5,172c0.3,0,0.4-0.1,0.5-0.2c0.1-0.1,0.2-0.3,0.2-0.5
	c0-0.5-0.2-0.8-0.7-1c-0.4,0.2-0.7,0.5-0.7,1c0,0.2,0.1,0.4,0.2,0.5C46.1,171.9,46.3,172,46.5,172z M46.4,169.2
	c0,0.1-0.1,0.2-0.2,0.2c-0.1,0-0.2-0.1-0.2-0.2c0-0.1,0.1-0.2,0.2-0.2C46.3,169,46.4,169.1,46.4,169.2L46.4,169.2z M46.9,169.2
	c0,0.1-0.1,0.2-0.2,0.2c-0.1,0-0.2-0.1-0.2-0.2c0-0.1,0.1-0.2,0.2-0.2C46.8,169,46.9,169.1,46.9,169.2L46.9,169.2z M48.8,171.3
	c0,0.4,0.2,0.6,0.6,0.6h0.2v0.2h-0.2c-0.2,0-0.4-0.1-0.6-0.2c0,0.4-0.1,0.6-0.3,0.9c-0.2,0.2-0.4,0.3-0.7,0.3c-0.2,0-0.4,0-0.5-0.1
	v-0.2c0.2,0.1,0.3,0.1,0.5,0.1c0.3,0,0.5-0.1,0.6-0.3c0.1-0.2,0.2-0.4,0.2-0.6v-1.8l0.2-0.1V171.3L48.8,171.3z M51.5,171.3
	c0,0.4,0.2,0.6,0.6,0.6h0.2v0.2H52c-0.3,0-0.6-0.1-0.7-0.4c-0.1,0.2-0.4,0.4-0.7,0.4h-1.3V172h1.3c0.4,0,0.6-0.2,0.6-0.7v-0.1
	c0-0.3-0.1-0.5-0.3-0.7c-0.2-0.1-0.4-0.2-0.6-0.2c-0.2,0-0.4,0-0.5,0.1v-0.2l1.2-1.3h0.2l-1.1,1.2c0.1,0,0.1,0,0.2,0
	c0.4,0,0.6,0.1,0.9,0.3C51.4,170.7,51.5,170.9,51.5,171.3L51.5,171.3L51.5,171.3z M53,171.3c0,0.4,0.2,0.6,0.6,0.6h0.2v0.2h-0.2
	c-0.3,0-0.6-0.1-0.7-0.4c-0.1,0.2-0.4,0.4-0.7,0.4h-0.2V172h0.2c0.4,0,0.6-0.2,0.6-0.6v-1.1l0.2-0.1V171.3L53,171.3z M52.7,169.2
	c0,0.1-0.1,0.2-0.2,0.2c-0.1,0-0.2-0.1-0.2-0.2c0-0.1,0.1-0.2,0.2-0.2C52.7,169,52.7,169.1,52.7,169.2L52.7,169.2z M53.2,169.2
	c0,0.1-0.1,0.2-0.2,0.2c-0.1,0-0.2-0.1-0.2-0.2c0-0.1,0.1-0.2,0.2-0.2C53.2,169,53.2,169.1,53.2,169.2L53.2,169.2z M54.6,171.3
	c0,0.4,0.2,0.6,0.6,0.6h0.2v0.2h-0.2c-0.3,0-0.6-0.1-0.7-0.4c-0.1,0.2-0.4,0.4-0.7,0.4h-0.2V172h0.2c0.4,0,0.6-0.2,0.6-0.6v-1.1
	l0.2-0.1V171.3L54.6,171.3z M54.3,172.9c0-0.1,0.1-0.2,0.2-0.2c0.1,0,0.2,0.1,0.2,0.2c0,0.1-0.1,0.2-0.2,0.2
	C54.3,173.1,54.3,173,54.3,172.9L54.3,172.9z M56,170.9c0-0.3,0.1-0.5,0.2-0.6c0.1-0.1,0.3-0.2,0.6-0.2c0.3,0,0.5,0.1,0.7,0.3
	c0.1,0.2,0.2,0.4,0.2,0.7c0,0.4-0.1,0.6-0.3,0.8c-0.2,0.2-0.4,0.3-0.6,0.3c-0.3,0-0.6-0.1-0.7-0.4c-0.1,0.2-0.4,0.4-0.7,0.4h-0.2
	V172h0.2c0.4,0,0.6-0.2,0.6-0.6V170.9z M55.3,169.4l0.1-0.2l0.4-0.1c-0.1-0.1-0.1-0.1-0.1-0.2c0-0.1,0-0.1,0.1-0.2
	c0-0.1,0.1-0.1,0.2-0.1c0.1,0,0.1,0,0.2,0.1c0,0.1,0.1,0.1,0.1,0.2c0,0.2-0.1,0.3-0.3,0.4L55.3,169.4z M55.9,168.9
	c0,0.1,0,0.2,0.1,0.2c0.1-0.1,0.1-0.1,0.1-0.2c0-0.1,0-0.2-0.1-0.2C55.9,168.7,55.9,168.8,55.9,168.9L55.9,168.9z M56.2,171.3
	c0,0.4,0.2,0.6,0.6,0.6c0.2,0,0.3-0.1,0.5-0.2c0.1-0.2,0.2-0.4,0.2-0.6c0-0.3-0.1-0.5-0.2-0.7c-0.1-0.1-0.3-0.2-0.5-0.2
	c-0.4,0-0.6,0.2-0.6,0.7V171.3z M61,171.3c0,0.4,0.2,0.6,0.6,0.6h0.2v0.2h-0.2c-0.4,0-0.6-0.2-0.8-0.5c-0.2,0.2-0.4,0.3-0.7,0.3
	c-0.3,0-0.5-0.1-0.7-0.3c-0.1-0.2-0.2-0.4-0.2-0.7c0-0.3,0.1-0.6,0.3-0.8c0.2-0.2,0.4-0.2,0.6-0.2c0.3,0,0.5,0.1,0.6,0.2v-0.3
	l0.2-0.1V171.3L61,171.3z M60.8,170.6c-0.2-0.2-0.4-0.3-0.6-0.3c-0.2,0-0.3,0.1-0.5,0.2c-0.1,0.1-0.2,0.3-0.2,0.6
	c0,0.2,0.1,0.4,0.2,0.6c0.1,0.1,0.3,0.2,0.5,0.2c0.2,0,0.5-0.1,0.6-0.3c0-0.1,0-0.1,0-0.2V170.6z M60.3,169.2c0,0.1-0.1,0.2-0.2,0.2
	c-0.1,0-0.2-0.1-0.2-0.2c0-0.1,0.1-0.2,0.2-0.2C60.2,169,60.3,169.1,60.3,169.2L60.3,169.2z M60.8,169.2c0,0.1-0.1,0.2-0.2,0.2
	c-0.1,0-0.2-0.1-0.2-0.2c0-0.1,0.1-0.2,0.2-0.2C60.7,169,60.8,169.1,60.8,169.2L60.8,169.2z M62.6,171.3c0,0.4,0.2,0.6,0.6,0.6h0.2
	v0.2h-0.2c-0.3,0-0.6-0.1-0.7-0.4c-0.1,0.2-0.4,0.4-0.7,0.4h-0.2V172h0.2c0.4,0,0.6-0.2,0.6-0.6v-1.1l0.2-0.1V171.3L62.6,171.3z
	 M62,172.9c0-0.1,0.1-0.2,0.2-0.2c0.1,0,0.2,0.1,0.2,0.2c0,0.1-0.1,0.2-0.2,0.2C62,173.1,62,173,62,172.9L62,172.9z M62.5,172.9
	c0-0.1,0.1-0.2,0.2-0.2c0.1,0,0.2,0.1,0.2,0.2c0,0.1-0.1,0.2-0.2,0.2C62.5,173.1,62.5,173,62.5,172.9L62.5,172.9z M63.1,172.2V172
	h0.2c0.4,0,0.6-0.2,0.6-0.6v-1.1l0.2-0.1v1.3c0,0.3-0.1,0.5-0.2,0.6c-0.1,0.1-0.3,0.2-0.6,0.2H63.1z M64.2,169.2
	c0,0.1-0.1,0.2-0.2,0.2c-0.1,0-0.2-0.1-0.2-0.2c0-0.1,0.1-0.2,0.2-0.2C64.2,169,64.2,169.1,64.2,169.2L64.2,169.2z M66.4,172
	c-0.1,0.1-0.4,0.2-0.6,0.2c-0.3,0-0.5-0.1-0.7-0.3c-0.1-0.2-0.2-0.4-0.2-0.7c0-0.3,0.1-0.6,0.3-0.8c0.2-0.2,0.4-0.3,0.6-0.3
	c0.2,0,0.4,0.1,0.6,0.2s0.2,0.4,0.2,0.6v1.1c0,0.4-0.1,0.6-0.3,0.9c-0.2,0.2-0.4,0.3-0.7,0.3c-0.2,0-0.4,0-0.5-0.1v-0.2
	c0.2,0.1,0.3,0.1,0.5,0.1c0.3,0,0.5-0.1,0.6-0.3C66.4,172.4,66.4,172.2,66.4,172L66.4,172z M66.4,170.9c0-0.4-0.2-0.7-0.6-0.7
	c-0.2,0-0.4,0.1-0.5,0.2c-0.1,0.2-0.2,0.4-0.2,0.6c0,0.3,0.1,0.5,0.2,0.6c0.1,0.1,0.3,0.2,0.4,0.2c0.3,0,0.5-0.1,0.6-0.3V170.9z
	 M68.1,171.3c0,0.4,0.2,0.6,0.6,0.6h0.2v0.2h-0.2c-0.2,0-0.4-0.1-0.6-0.2c0,0.4-0.1,0.6-0.3,0.9c-0.2,0.2-0.4,0.3-0.7,0.3
	c-0.2,0-0.4,0-0.5-0.1v-0.2c0.2,0.1,0.3,0.1,0.5,0.1c0.3,0,0.5-0.1,0.6-0.3c0.1-0.2,0.2-0.4,0.2-0.6v-1.8l0.2-0.1V171.3L68.1,171.3z
	 M69.7,171.3c0,0.4,0.2,0.6,0.6,0.6h0.2v0.2h-0.2c-0.3,0-0.6-0.1-0.7-0.4c-0.1,0.2-0.4,0.4-0.7,0.4h-0.2V172h0.2
	c0.4,0,0.6-0.2,0.6-0.6v-1.1l0.2-0.1V171.3L69.7,171.3z M69.4,169.2c0,0.1-0.1,0.2-0.2,0.2c-0.1,0-0.2-0.1-0.2-0.2
	c0-0.1,0.1-0.2,0.2-0.2C69.4,169,69.4,169.1,69.4,169.2L69.4,169.2z M69.9,169.2c0,0.1-0.1,0.2-0.2,0.2c-0.1,0-0.2-0.1-0.2-0.2
	c0-0.1,0.1-0.2,0.2-0.2C69.9,169,69.9,169.1,69.9,169.2L69.9,169.2z M72.4,171.3c0,0.4,0.2,0.6,0.6,0.6h0.2v0.2h-0.2
	c-0.3,0-0.6-0.1-0.7-0.4c-0.1,0.2-0.4,0.4-0.7,0.4h-1.3V172h1.3c0.4,0,0.6-0.2,0.6-0.7v-0.1c0-0.3-0.1-0.5-0.3-0.7
	c-0.2-0.1-0.4-0.2-0.6-0.2c-0.2,0-0.4,0-0.5,0.1v-0.2l1.2-1.3h0.2l-1.1,1.2c0.1,0,0.1,0,0.2,0c0.4,0,0.6,0.1,0.9,0.3
	C72.3,170.7,72.4,170.9,72.4,171.3L72.4,171.3L72.4,171.3z M72.8,172.2V172h0.2c0.4,0,0.6-0.2,0.6-0.6v-2.2l0.2-0.1v2.4
	c0,0.3-0.1,0.5-0.2,0.6c-0.1,0.1-0.3,0.2-0.6,0.2H72.8z M74.5,173.3l0.1-0.1h0.1c0-0.1,0-0.1,0-0.2c0-0.1,0-0.2,0.1-0.2
	c0.1-0.1,0.1-0.1,0.2-0.1c0.1,0,0.1,0,0.2,0.1v0.2c-0.1,0-0.1-0.1-0.2-0.1c-0.1,0-0.1,0-0.1,0.1c0,0-0.1,0.1-0.1,0.1
	c0,0.1,0,0.1,0.1,0.2h0.4l-0.1,0.1H74.5z M74.8,172.2v-3.1l0.2-0.1v3.2H74.8z M78.5,171.3c0,0.4,0.2,0.6,0.6,0.6h0.2v0.2h-0.2
	c-0.4,0-0.6-0.2-0.8-0.5c-0.2,0.2-0.4,0.3-0.7,0.3c-0.3,0-0.5-0.1-0.7-0.3c-0.1-0.2-0.2-0.4-0.2-0.7c0-0.3,0.1-0.6,0.3-0.8
	c0.2-0.2,0.4-0.2,0.6-0.2c0.3,0,0.5,0.1,0.6,0.2v-0.3l0.2-0.1V171.3L78.5,171.3z M78.3,170.6c-0.2-0.2-0.4-0.3-0.6-0.3
	c-0.2,0-0.3,0.1-0.5,0.2c-0.1,0.1-0.2,0.3-0.2,0.6c0,0.2,0.1,0.4,0.2,0.6c0.1,0.1,0.3,0.2,0.5,0.2c0.2,0,0.5-0.1,0.6-0.3
	c0-0.1,0-0.1,0-0.2V170.6z M77.8,169.2c0,0.1-0.1,0.2-0.2,0.2c-0.1,0-0.2-0.1-0.2-0.2c0-0.1,0.1-0.2,0.2-0.2
	C77.7,169,77.8,169.1,77.8,169.2L77.8,169.2z M78.3,169.2c0,0.1-0.1,0.2-0.2,0.2c-0.1,0-0.2-0.1-0.2-0.2c0-0.1,0.1-0.2,0.2-0.2
	C78.2,169,78.3,169.1,78.3,169.2L78.3,169.2z M83.5,171.3c0,0.4,0.2,0.6,0.6,0.6h0.2v0.2h-0.2c-0.3,0-0.6-0.1-0.7-0.4
	c-0.1,0.2-0.4,0.4-0.7,0.4h-2c-0.3,0-0.6-0.1-0.7-0.4c-0.1,0.2-0.4,0.4-0.7,0.4H79V172h0.2c0.4,0,0.6-0.2,0.6-0.6v-0.7l0.2-0.1v0.9
	c0,0.3,0.1,0.5,0.4,0.6c0.1-0.5,0.3-1,0.6-1.3c0.3-0.4,0.7-0.6,1.2-0.6c0.4,0,0.7,0.1,0.9,0.4c0.2,0.2,0.3,0.5,0.3,0.8V171.3
	L83.5,171.3z M82.6,172c0.4,0,0.6-0.2,0.6-0.7v-0.1c0-0.3-0.1-0.5-0.3-0.7c-0.2-0.2-0.4-0.2-0.6-0.2c-0.4,0-0.8,0.2-1.1,0.6
	c-0.2,0.3-0.4,0.7-0.5,1.1h0H82.6z M85.1,171.3c0,0.4,0.2,0.6,0.6,0.6h0.2v0.2h-0.2c-0.3,0-0.6-0.1-0.7-0.4
	c-0.1,0.2-0.4,0.4-0.7,0.4H84V172h0.2c0.4,0,0.6-0.2,0.6-0.6v-1.1l0.2-0.1V171.3L85.1,171.3z M85.1,169.2c0,0.1-0.1,0.2-0.2,0.2
	c-0.1,0-0.2-0.1-0.2-0.2c0-0.1,0.1-0.2,0.2-0.2C85,169,85.1,169.1,85.1,169.2L85.1,169.2z M86.5,170.9c0-0.3,0.1-0.5,0.2-0.6
	c0.1-0.1,0.3-0.2,0.6-0.2c0.3,0,0.5,0.1,0.7,0.3c0.1,0.2,0.2,0.4,0.2,0.7c0,0.4-0.1,0.6-0.3,0.8c-0.2,0.2-0.4,0.3-0.6,0.3
	c-0.3,0-0.6-0.1-0.7-0.4c-0.1,0.2-0.4,0.4-0.7,0.4h-0.2V172h0.2c0.4,0,0.6-0.2,0.6-0.6V170.9z M86.7,171.3c0,0.4,0.2,0.6,0.6,0.6
	c0.2,0,0.3-0.1,0.5-0.2c0.1-0.2,0.2-0.4,0.2-0.6c0-0.3-0.1-0.5-0.2-0.7c-0.1-0.1-0.3-0.2-0.5-0.2c-0.4,0-0.6,0.2-0.6,0.7V171.3z"/>
<path d="M29.3,172.2c-0.3,0-0.5-0.1-0.6-0.2c-0.1-0.2-0.2-0.4-0.2-0.6v-2.2l0.2-0.1v2.4c0,0.4,0.2,0.6,0.6,0.6h0.2v0.2H29.3z
	 M32.1,171.3c0,0.4,0.2,0.6,0.6,0.6h0.2v0.2h-0.2c-0.3,0-0.6-0.1-0.7-0.4c-0.1,0.2-0.4,0.4-0.7,0.4h-0.4c-0.1,0-0.2,0-0.3,0
	c-0.1,0-0.2,0-0.3,0h-0.9V172h0.9c-0.2-0.2-0.4-0.4-0.4-0.7c0-0.2,0-0.3,0.1-0.5c0.1-0.3,0.2-0.6,0.4-0.7c0.2-0.1,0.4-0.2,0.6-0.2
	c0.3,0,0.6,0.1,0.8,0.3c0.2,0.2,0.3,0.5,0.3,0.8V171.3L32.1,171.3z M30,171.2c0,0.4,0.2,0.6,0.5,0.7c0.3-0.1,0.5-0.3,0.5-0.7
	c0-0.2,0-0.3-0.1-0.4c-0.1-0.1-0.2-0.2-0.4-0.2c-0.2,0-0.3,0.1-0.4,0.2C30,170.9,30,171,30,171.2L30,171.2z M31.2,172
	c0.4,0,0.6-0.2,0.6-0.7V171c0-0.3-0.1-0.6-0.3-0.8c-0.2-0.1-0.4-0.2-0.6-0.2c-0.3,0-0.6,0.1-0.7,0.4c0.1,0,0.2,0,0.3,0
	c0.2,0,0.4,0.1,0.5,0.2c0.1,0.1,0.2,0.3,0.2,0.6c0,0.3-0.1,0.6-0.4,0.7H31.2z"/>
<path d="M81.4,177.3c0,0.4,0.2,0.6,0.6,0.6h0.2v0.2H82c-0.4,0-0.6-0.2-0.8-0.5c-0.2,0.2-0.4,0.3-0.7,0.3c-0.3,0-0.5-0.1-0.7-0.3
	c-0.1-0.2-0.2-0.4-0.2-0.7c0-0.3,0.1-0.6,0.3-0.8c0.2-0.2,0.4-0.2,0.6-0.2c0.3,0,0.5,0.1,0.6,0.2v-0.3l0.2-0.1V177.3L81.4,177.3z
	 M81.2,176.6c-0.2-0.2-0.4-0.3-0.6-0.3c-0.2,0-0.3,0.1-0.5,0.2c-0.1,0.1-0.2,0.3-0.2,0.6c0,0.2,0.1,0.4,0.2,0.6
	c0.1,0.1,0.3,0.2,0.5,0.2c0.2,0,0.5-0.1,0.6-0.3c0-0.1,0-0.1,0-0.2V176.6z M80.7,175.2c0,0.1-0.1,0.2-0.2,0.2
	c-0.1,0-0.2-0.1-0.2-0.2c0-0.1,0.1-0.2,0.2-0.2C80.6,175,80.7,175.1,80.7,175.2L80.7,175.2z M81.2,175.2c0,0.1-0.1,0.2-0.2,0.2
	c-0.1,0-0.2-0.1-0.2-0.2c0-0.1,0.1-0.2,0.2-0.2C81.1,175,81.2,175.1,81.2,175.2L81.2,175.2z M82.7,176.2c0.1,0,0.1,0,0.2,0
	c0.4,0,0.6,0.1,0.9,0.3c0.2,0.2,0.3,0.4,0.3,0.8v0.1c0,0.3-0.1,0.5-0.2,0.6c-0.1,0.1-0.3,0.2-0.6,0.2h-1.3V178h1.3
	c0.4,0,0.6-0.2,0.6-0.7v-0.1c0-0.3-0.1-0.5-0.3-0.7c-0.2-0.1-0.4-0.2-0.6-0.2c-0.2,0-0.4,0-0.5,0.1v-0.2l1.2-1.3h0.2L82.7,176.2z
	 M85.4,177.3c0,0.4,0.2,0.6,0.6,0.6h0.2v0.2H86c-0.2,0-0.4-0.1-0.6-0.2c0,0.4-0.1,0.6-0.3,0.9c-0.2,0.2-0.4,0.3-0.7,0.3
	c-0.2,0-0.4,0-0.5-0.1v-0.2c0.2,0.1,0.3,0.1,0.5,0.1c0.3,0,0.5-0.1,0.6-0.3c0.1-0.2,0.2-0.4,0.2-0.6v-1.8l0.2-0.1V177.3L85.4,177.3z
	 M85.9,178.2V178h0.4c0.4,0,0.6-0.2,0.6-0.6v-0.7l0.2-0.1v0.9c0,0.4,0.2,0.6,0.6,0.6h0.1c0.4,0,0.6-0.2,0.6-0.6v-0.9l0.2-0.1v1.1
	c0,0.4,0.2,0.6,0.6,0.6h0.1c0.4,0,0.6-0.2,0.6-0.6v-1.1l0.2-0.1v1.3c0,0.3-0.1,0.5-0.2,0.6c-0.1,0.1-0.3,0.2-0.6,0.2h-0.2
	c-0.3,0-0.6-0.1-0.7-0.4c-0.1,0.2-0.4,0.4-0.7,0.4h-0.2c-0.3,0-0.6-0.1-0.7-0.4c-0.1,0.2-0.4,0.4-0.7,0.4H85.9z M88.4,175.4
	c0,0.1-0.1,0.2-0.2,0.2c-0.1,0-0.2-0.1-0.2-0.2c0-0.1,0.1-0.2,0.2-0.2C88.4,175.2,88.4,175.3,88.4,175.4L88.4,175.4z M88.7,175
	c0,0.1,0,0.1-0.1,0.1c-0.1,0-0.1,0-0.1-0.1c0-0.1,0-0.1,0.1-0.1C88.6,174.8,88.7,174.9,88.7,175L88.7,175z M88.9,175.4
	c0,0.1-0.1,0.2-0.2,0.2c-0.1,0-0.2-0.1-0.2-0.2c0-0.1,0.1-0.2,0.2-0.2C88.9,175.2,88.9,175.3,88.9,175.4L88.9,175.4z"/>
<path d="M43.4,177.3c0,0.4,0.2,0.6,0.6,0.6h0.2v0.2H44c-0.4,0-0.6-0.2-0.8-0.5c-0.2,0.2-0.4,0.3-0.7,0.3c-0.3,0-0.5-0.1-0.7-0.3
	c-0.1-0.2-0.2-0.4-0.2-0.7c0-0.3,0.1-0.6,0.3-0.8c0.2-0.2,0.4-0.2,0.6-0.2c0.3,0,0.5,0.1,0.6,0.2v-0.3l0.2-0.1V177.3L43.4,177.3z
	 M43.1,176.6c-0.2-0.2-0.4-0.3-0.6-0.3c-0.2,0-0.3,0.1-0.5,0.2c-0.1,0.1-0.2,0.3-0.2,0.6c0,0.2,0.1,0.4,0.2,0.6
	c0.1,0.1,0.3,0.2,0.5,0.2c0.2,0,0.5-0.1,0.6-0.3c0-0.1,0-0.1,0-0.2V176.6z M42.6,175.2c0,0.1-0.1,0.2-0.2,0.2
	c-0.1,0-0.2-0.1-0.2-0.2c0-0.1,0.1-0.2,0.2-0.2C42.6,175,42.6,175.1,42.6,175.2L42.6,175.2z M43.1,175.2c0,0.1-0.1,0.2-0.2,0.2
	c-0.1,0-0.2-0.1-0.2-0.2c0-0.1,0.1-0.2,0.2-0.2C43.1,175,43.1,175.1,43.1,175.2L43.1,175.2z M44.7,176.2c0.1,0,0.1,0,0.2,0
	c0.4,0,0.6,0.1,0.9,0.3c0.2,0.2,0.3,0.4,0.3,0.8v0.1c0,0.3-0.1,0.5-0.2,0.6c-0.1,0.1-0.3,0.2-0.6,0.2h-1.3V178h1.3
	c0.4,0,0.6-0.2,0.6-0.7v-0.1c0-0.3-0.1-0.5-0.3-0.7c-0.2-0.1-0.4-0.2-0.6-0.2c-0.2,0-0.4,0-0.5,0.1v-0.2l1.2-1.3h0.2L44.7,176.2z
	 M47.3,177.3c0,0.4,0.2,0.6,0.6,0.6h0.2v0.2h-0.2c-0.2,0-0.4-0.1-0.6-0.2c0,0.4-0.1,0.6-0.3,0.9c-0.2,0.2-0.4,0.3-0.7,0.3
	c-0.2,0-0.4,0-0.5-0.1v-0.2c0.2,0.1,0.3,0.1,0.5,0.1c0.3,0,0.5-0.1,0.6-0.3c0.1-0.2,0.2-0.4,0.2-0.6v-1.8l0.2-0.1V177.3L47.3,177.3z
	 M48.9,177.3c0,0.4,0.2,0.6,0.6,0.6h0.2v0.2h-0.2c-0.3,0-0.6-0.1-0.7-0.4c-0.1,0.2-0.4,0.4-0.7,0.4h-0.2V178h0.2
	c0.4,0,0.6-0.2,0.6-0.6v-1.1l0.2-0.1V177.3L48.9,177.3z M48.6,175.2c0,0.1-0.1,0.2-0.2,0.2c-0.1,0-0.2-0.1-0.2-0.2
	c0-0.1,0.1-0.2,0.2-0.2C48.6,175,48.6,175.1,48.6,175.2L48.6,175.2z M49.1,175.2c0,0.1-0.1,0.2-0.2,0.2c-0.1,0-0.2-0.1-0.2-0.2
	c0-0.1,0.1-0.2,0.2-0.2C49.1,175,49.1,175.1,49.1,175.2L49.1,175.2z M49.5,178.2V178h0.4c0.4,0,0.6-0.2,0.6-0.6v-0.7l0.2-0.1v0.9
	c0,0.4,0.2,0.6,0.6,0.6h0.1c0.4,0,0.6-0.2,0.6-0.6v-0.9l0.2-0.1v1.1c0,0.4,0.2,0.6,0.6,0.6H53c0.4,0,0.6-0.2,0.6-0.6v-1.1l0.2-0.1
	v1.3c0,0.4,0.2,0.6,0.6,0.6h0.4v0.2h-0.4c-0.3,0-0.6-0.1-0.7-0.4c-0.1,0.2-0.4,0.4-0.7,0.4h-0.2c-0.3,0-0.6-0.1-0.7-0.4
	c-0.1,0.2-0.4,0.4-0.7,0.4h-0.2c-0.3,0-0.6-0.1-0.7-0.4c-0.1,0.2-0.4,0.4-0.7,0.4H49.5z M52,175.4c0,0.1-0.1,0.2-0.2,0.2
	c-0.1,0-0.2-0.1-0.2-0.2c0-0.1,0.1-0.2,0.2-0.2C52,175.2,52,175.3,52,175.4L52,175.4z M52.2,175c0,0.1,0,0.1-0.1,0.1
	c-0.1,0-0.1,0-0.1-0.1c0-0.1,0-0.1,0.1-0.1C52.2,174.8,52.2,174.9,52.2,175L52.2,175z M52.5,175.4c0,0.1-0.1,0.2-0.2,0.2
	c-0.1,0-0.2-0.1-0.2-0.2c0-0.1,0.1-0.2,0.2-0.2C52.5,175.2,52.5,175.3,52.5,175.4L52.5,175.4z M57.2,177.3c0,0.4,0.2,0.6,0.6,0.6H58
	v0.2h-0.2c-0.3,0-0.6-0.1-0.7-0.4c-0.2,0.3-0.4,0.5-0.8,0.5c-0.4,0-0.6-0.2-0.8-0.5c-0.1,0.3-0.4,0.4-0.7,0.4h-0.2V178h0.2
	c0.4,0,0.6-0.2,0.6-0.6v-0.2c0-0.4,0.1-0.7,0.3-0.9c0.2-0.2,0.4-0.3,0.6-0.3c0.3,0,0.5,0.1,0.7,0.3c0.1,0.2,0.2,0.5,0.2,0.8V177.3
	L57.2,177.3z M55.6,177.2c0,0.6,0.2,0.9,0.7,0.9c0.2,0,0.4-0.1,0.5-0.2c0.1-0.2,0.2-0.4,0.2-0.7c0-0.3-0.1-0.5-0.2-0.7
	c-0.1-0.1-0.3-0.2-0.5-0.2c-0.2,0-0.4,0.1-0.5,0.2C55.7,176.6,55.6,176.9,55.6,177.2L55.6,177.2z M57.7,178.2V178h0.2
	c0.4,0,0.6-0.2,0.6-0.6v-2.2l0.2-0.1v2.4c0,0.3-0.1,0.5-0.2,0.6c-0.1,0.1-0.3,0.2-0.6,0.2H57.7z M59.7,178.2v-3.1l0.2-0.1v3.2H59.7z
	 M62.8,178.2c-0.2,0-0.4-0.1-0.6-0.2c-0.1-0.1-0.2-0.4-0.2-0.6v-0.7l0.2-0.1v0.8c0,0.4,0.2,0.7,0.6,0.7h1.7c0.4,0,0.6-0.2,0.6-0.7
	v-1.1l0.2-0.1v1.3c0,0.3-0.1,0.5-0.3,0.6c-0.1,0.1-0.3,0.2-0.6,0.2H62.8z M63.4,175.7c0,0.1-0.1,0.2-0.2,0.2c-0.1,0-0.2-0.1-0.2-0.2
	c0-0.1,0.1-0.2,0.2-0.2C63.4,175.5,63.4,175.6,63.4,175.7L63.4,175.7z M64,175.7c0,0.1-0.1,0.2-0.2,0.2c-0.1,0-0.2-0.1-0.2-0.2
	c0-0.1,0.1-0.2,0.2-0.2C63.9,175.5,64,175.6,64,175.7L64,175.7z M66.9,178.2c-0.3,0-0.5-0.1-0.6-0.2c-0.1-0.2-0.2-0.4-0.2-0.6v-2.2
	l0.2-0.1v2.4c0,0.4,0.2,0.6,0.6,0.6h0.2v0.2H66.9z M67.9,177.3c0,0.4,0.2,0.6,0.6,0.6h0.2v0.2h-0.2c-0.3,0-0.6-0.1-0.7-0.4
	c-0.1,0.2-0.4,0.4-0.7,0.4h-0.2V178h0.2c0.4,0,0.6-0.2,0.6-0.6v-1.1l0.2-0.1V177.3L67.9,177.3z M67.3,178.9c0-0.1,0.1-0.2,0.2-0.2
	c0.1,0,0.2,0.1,0.2,0.2c0,0.1-0.1,0.2-0.2,0.2C67.3,179.1,67.3,179,67.3,178.9L67.3,178.9z M67.8,178.9c0-0.1,0.1-0.2,0.2-0.2
	c0.1,0,0.2,0.1,0.2,0.2c0,0.1-0.1,0.2-0.2,0.2C67.8,179.1,67.8,179,67.8,178.9L67.8,178.9z M69.5,177.3c0,0.4,0.2,0.6,0.6,0.6h0.2
	v0.2h-0.2c-0.3,0-0.6-0.1-0.7-0.4c-0.1,0.2-0.4,0.4-0.7,0.4h-0.2V178h0.2c0.4,0,0.6-0.2,0.6-0.6v-1.1l0.2-0.1V177.3L69.5,177.3z
	 M69.5,175.2c0,0.1-0.1,0.2-0.2,0.2c-0.1,0-0.2-0.1-0.2-0.2c0-0.1,0.1-0.2,0.2-0.2C69.5,175,69.5,175.1,69.5,175.2L69.5,175.2z
	 M72,178h1.1v0.2h-1.2c-0.1,0-0.2,0-0.3,0c-0.1,0-0.2,0-0.3,0h-1.2V178h1.1c-0.1-0.1-0.3-0.2-0.4-0.4c-0.1-0.2-0.1-0.3-0.1-0.5
	c0-0.3,0.1-0.6,0.3-0.8c0.2-0.2,0.4-0.2,0.6-0.2c0.3,0,0.5,0.1,0.7,0.3c0.1,0.2,0.2,0.4,0.2,0.7c0,0.2,0,0.4-0.1,0.5
	C72.2,177.7,72.1,177.9,72,178z M71.6,177.9L71.6,177.9c0.2-0.1,0.4-0.2,0.5-0.4c0.1-0.2,0.2-0.3,0.2-0.5c0-0.2-0.1-0.4-0.2-0.6
	c-0.1-0.1-0.3-0.2-0.5-0.2c-0.2,0-0.4,0.1-0.5,0.2c-0.1,0.1-0.2,0.3-0.2,0.6c0,0.2,0.1,0.4,0.2,0.5
	C71.2,177.7,71.4,177.9,71.6,177.9L71.6,177.9z M71.5,175.2c0,0.1-0.1,0.2-0.2,0.2c-0.1,0-0.2-0.1-0.2-0.2c0-0.1,0.1-0.2,0.2-0.2
	C71.4,175,71.5,175.1,71.5,175.2L71.5,175.2z M72,175.2c0,0.1-0.1,0.2-0.2,0.2c-0.1,0-0.2-0.1-0.2-0.2c0-0.1,0.1-0.2,0.2-0.2
	C71.9,175,72,175.1,72,175.2L72,175.2z M73.9,177.3c0,0.4,0.2,0.6,0.6,0.6h0.2v0.2h-0.2c-0.3,0-0.6-0.1-0.7-0.4
	c-0.1,0.2-0.4,0.4-0.7,0.4h-0.2V178H73c0.4,0,0.6-0.2,0.6-0.6v-1.1l0.2-0.1V177.3L73.9,177.3z M73.6,175.2c0,0.1-0.1,0.2-0.2,0.2
	c-0.1,0-0.2-0.1-0.2-0.2c0-0.1,0.1-0.2,0.2-0.2C73.6,175,73.6,175.1,73.6,175.2L73.6,175.2z M74.1,175.2c0,0.1-0.1,0.2-0.2,0.2
	c-0.1,0-0.2-0.1-0.2-0.2c0-0.1,0.1-0.2,0.2-0.2C74.1,175,74.1,175.1,74.1,175.2L74.1,175.2z M74.4,178.2V178h0.2
	c0.4,0,0.6-0.2,0.6-0.6v-2.2l0.2-0.1v2.4c0,0.3-0.1,0.5-0.2,0.6c-0.1,0.1-0.3,0.2-0.6,0.2H74.4z M76.4,178.2v-3.1l0.2-0.1v3.2H76.4z
	"/>
<text transform="matrix(1 0 0 1 39.1757 178.1801)" class="st4 st5"> &quot;</text>
<path d="M31.2,178.2l0.1-0.2h1c0.2,0,0.3,0,0.4-0.1c0.1-0.1,0.1-0.2,0.1-0.5c0-0.5-0.2-0.9-0.7-1.2l0.1-0.2c0.5,0.3,0.8,0.7,0.8,1.3
	c0,0.4,0.2,0.6,0.6,0.6h0.2v0.2h-0.2c-0.3,0-0.5-0.1-0.7-0.3c-0.1,0.2-0.3,0.3-0.6,0.3H31.2z"/>
<path d="M36.8,178H37v0.2h-0.2c-0.3,0-0.5,0-0.7-0.1c-0.2-0.1-0.3-0.2-0.5-0.3c-0.4,0.3-0.9,0.4-1.5,0.4h-0.6V178h0.6
	c0.8,0,1.4-0.3,1.8-0.8c-0.3-0.6-0.7-0.9-1.2-0.9c-0.3,0-0.6,0.1-0.8,0.4v-0.2c0.3-0.3,0.5-0.4,0.8-0.4c0.5,0,1,0.3,1.3,1v0.2
	c-0.1,0.1-0.2,0.3-0.4,0.4c0.1,0.1,0.2,0.2,0.4,0.3C36.4,177.9,36.6,178,36.8,178z"/>
<path d="M35.2,175.2c0,0.1-0.1,0.2-0.2,0.2c-0.1,0-0.2-0.1-0.2-0.2c0-0.1,0.1-0.2,0.2-0.2C35.1,175,35.2,175.1,35.2,175.2
	L35.2,175.2z"/>
<path d="M37.5,176.2c0.1,0,0.1,0,0.2,0c0.4,0,0.6,0.1,0.9,0.3c0.2,0.2,0.3,0.4,0.3,0.8v0.1c0,0.3-0.1,0.5-0.2,0.6
	c-0.1,0.1-0.3,0.2-0.6,0.2h-1.3V178H38c0.4,0,0.6-0.2,0.6-0.7v-0.1c0-0.3-0.1-0.5-0.3-0.7c-0.2-0.1-0.4-0.2-0.6-0.2
	c-0.2,0-0.4,0-0.5,0.1v-0.2l1.2-1.3h0.2L37.5,176.2z"/>
<path d="M27.8,177.3c0,0.4,0.2,0.6,0.6,0.6h0.2v0.2h-0.2c-0.4,0-0.6-0.2-0.8-0.5c-0.2,0.2-0.4,0.3-0.7,0.3c-0.3,0-0.5-0.1-0.7-0.3
	c-0.1-0.2-0.2-0.4-0.2-0.7c0-0.3,0.1-0.6,0.3-0.8c0.2-0.2,0.4-0.2,0.6-0.2c0.3,0,0.5,0.1,0.6,0.2v-0.3l0.2-0.1V177.3L27.8,177.3z
	 M27.5,176.6c-0.2-0.2-0.4-0.3-0.6-0.3c-0.2,0-0.3,0.1-0.5,0.2c-0.1,0.1-0.2,0.3-0.2,0.6c0,0.2,0.1,0.4,0.2,0.6
	c0.1,0.1,0.3,0.2,0.5,0.2c0.2,0,0.5-0.1,0.6-0.3c0-0.1,0-0.1,0-0.2V176.6z M27,175.2c0,0.1-0.1,0.2-0.2,0.2c-0.1,0-0.2-0.1-0.2-0.2
	c0-0.1,0.1-0.2,0.2-0.2C27,175,27,175.1,27,175.2L27,175.2z M27.5,175.2c0,0.1-0.1,0.2-0.2,0.2c-0.1,0-0.2-0.1-0.2-0.2
	c0-0.1,0.1-0.2,0.2-0.2C27.5,175,27.5,175.1,27.5,175.2L27.5,175.2z M29.1,176.9c0-0.3,0.1-0.5,0.2-0.6c0.1-0.1,0.3-0.2,0.6-0.2
	c0.3,0,0.5,0.1,0.7,0.3c0.1,0.2,0.2,0.4,0.2,0.7c0,0.4-0.1,0.6-0.3,0.8c-0.2,0.2-0.4,0.3-0.6,0.3c-0.3,0-0.6-0.1-0.7-0.4
	c-0.1,0.2-0.4,0.4-0.7,0.4h-0.2V178h0.2c0.4,0,0.6-0.2,0.6-0.6V176.9z M29.4,177.3c0,0.4,0.2,0.6,0.6,0.6c0.2,0,0.3-0.1,0.5-0.2
	c0.1-0.2,0.2-0.4,0.2-0.6c0-0.3-0.1-0.5-0.2-0.7c-0.1-0.1-0.3-0.2-0.5-0.2c-0.4,0-0.6,0.2-0.6,0.7V177.3z"/>
<path d="M26.6,184.2V184h0.2c0.4,0,0.6-0.2,0.6-0.6v-2.2l0.2-0.1v2.4c0,0.3-0.1,0.5-0.2,0.6c-0.1,0.1-0.3,0.2-0.6,0.2H26.6z
	 M28.3,185.3l0.1-0.1h0.1c0-0.1,0-0.1,0-0.2c0-0.1,0-0.2,0.1-0.2c0.1-0.1,0.1-0.1,0.2-0.1c0.1,0,0.1,0,0.2,0.1v0.2
	c-0.1,0-0.1-0.1-0.2-0.1c-0.1,0-0.1,0-0.1,0.1c0,0-0.1,0.1-0.1,0.1c0,0.1,0,0.1,0.1,0.2h0.4l-0.1,0.1H28.3z M28.6,184.2v-3.1
	l0.2-0.1v3.2H28.6z M31.6,184.2c-0.2,0-0.4-0.1-0.6-0.2c-0.1-0.1-0.2-0.4-0.2-0.6v-0.7l0.2-0.1v0.8c0,0.4,0.2,0.7,0.6,0.7h1.5
	c-0.2-0.2-0.3-0.5-0.3-0.9c0-0.4,0.1-0.6,0.3-0.8c0.2-0.2,0.4-0.3,0.6-0.3c0.2,0,0.4,0.1,0.6,0.2c0.1,0.1,0.2,0.4,0.2,0.6v0.5
	c0,0.3-0.1,0.5-0.3,0.6c-0.1,0.1-0.3,0.2-0.6,0.2H31.6z M34.4,182.9c0-0.4-0.2-0.7-0.6-0.7c-0.2,0-0.4,0.1-0.5,0.2
	c-0.1,0.2-0.2,0.4-0.2,0.6c0,0.3,0.1,0.5,0.2,0.6c0.1,0.2,0.3,0.2,0.4,0.2c0.4,0,0.6-0.2,0.6-0.7V182.9z M34,181.2
	c0,0.1-0.1,0.2-0.2,0.2c-0.1,0-0.2-0.1-0.2-0.2c0-0.1,0.1-0.2,0.2-0.2C33.9,181,34,181.1,34,181.2L34,181.2z M35,184.2l0.1-0.2h1
	c0.2,0,0.3,0,0.4-0.1c0.1-0.1,0.1-0.2,0.1-0.5c0-0.5-0.2-0.9-0.7-1.2L36,182c0.5,0.3,0.8,0.7,0.8,1.3c0,0.4,0.2,0.6,0.6,0.6h0.2v0.2
	h-0.2c-0.3,0-0.5-0.1-0.7-0.3c-0.1,0.2-0.3,0.3-0.6,0.3H35z M40.1,183.3c0,0.4,0.2,0.6,0.6,0.6h0.2v0.2h-0.2c-0.3,0-0.6-0.1-0.7-0.4
	c-0.1,0.2-0.4,0.4-0.7,0.4h-0.4c-0.1,0-0.2,0-0.3,0c-0.1,0-0.2,0-0.3,0h-0.9V184h0.9c-0.2-0.2-0.4-0.4-0.4-0.7c0-0.2,0-0.3,0.1-0.5
	c0.1-0.3,0.2-0.6,0.4-0.7c0.2-0.1,0.4-0.2,0.6-0.2c0.3,0,0.6,0.1,0.8,0.3c0.2,0.2,0.3,0.5,0.3,0.8V183.3L40.1,183.3z M38,183.2
	c0,0.4,0.2,0.6,0.5,0.7c0.3-0.1,0.5-0.3,0.5-0.7c0-0.2,0-0.3-0.1-0.4c-0.1-0.1-0.2-0.2-0.4-0.2c-0.2,0-0.3,0.1-0.4,0.2
	C38.1,182.9,38,183,38,183.2L38,183.2z M39.3,184c0.4,0,0.6-0.2,0.6-0.7V183c0-0.3-0.1-0.6-0.3-0.8c-0.2-0.1-0.4-0.2-0.6-0.2
	c-0.3,0-0.6,0.1-0.7,0.4c0.1,0,0.2,0,0.3,0c0.2,0,0.4,0.1,0.5,0.2c0.1,0.1,0.2,0.3,0.2,0.6c0,0.3-0.1,0.6-0.4,0.7H39.3z M40.6,184.2
	V184h0.2c0.4,0,0.6-0.2,0.6-0.6v-1.1l0.2-0.1v1.3c0,0.3-0.1,0.5-0.2,0.6c-0.1,0.1-0.3,0.2-0.6,0.2H40.6z M41.2,181.2
	c0,0.1-0.1,0.2-0.2,0.2c-0.1,0-0.2-0.1-0.2-0.2c0-0.1,0.1-0.2,0.2-0.2C41.2,181,41.2,181.1,41.2,181.2L41.2,181.2z M41.7,181.2
	c0,0.1-0.1,0.2-0.2,0.2c-0.1,0-0.2-0.1-0.2-0.2c0-0.1,0.1-0.2,0.2-0.2C41.7,181,41.7,181.1,41.7,181.2L41.7,181.2z M44.5,184.2
	c-0.2,0-0.4-0.1-0.6-0.2c-0.1-0.1-0.2-0.4-0.2-0.6v-0.7l0.2-0.1v0.8c0,0.4,0.2,0.7,0.6,0.7h1.7c0.4,0,0.6-0.2,0.6-0.7v-1.1l0.2-0.1
	v1.3c0,0.3-0.1,0.5-0.3,0.6c-0.1,0.1-0.3,0.2-0.6,0.2H44.5z M45.2,181.7c0,0.1-0.1,0.2-0.2,0.2c-0.1,0-0.2-0.1-0.2-0.2
	c0-0.1,0.1-0.2,0.2-0.2C45.2,181.5,45.2,181.6,45.2,181.7L45.2,181.7z M45.7,181.7c0,0.1-0.1,0.2-0.2,0.2c-0.1,0-0.2-0.1-0.2-0.2
	c0-0.1,0.1-0.2,0.2-0.2C45.7,181.5,45.7,181.6,45.7,181.7L45.7,181.7z M47.8,184.2v-3.1l0.2-0.1v3.2H47.8z M50.3,184
	c-0.1,0.1-0.4,0.2-0.6,0.2c-0.3,0-0.5-0.1-0.7-0.3c-0.1-0.2-0.2-0.4-0.2-0.7c0-0.3,0.1-0.6,0.3-0.8c0.2-0.2,0.4-0.3,0.6-0.3
	c0.2,0,0.4,0.1,0.6,0.2s0.2,0.4,0.2,0.6v1.1c0,0.4-0.1,0.6-0.3,0.9c-0.2,0.2-0.4,0.3-0.7,0.3c-0.2,0-0.4,0-0.5-0.1v-0.2
	c0.2,0.1,0.3,0.1,0.5,0.1c0.3,0,0.5-0.1,0.6-0.3C50.2,184.4,50.3,184.2,50.3,184L50.3,184z M50.3,182.9c0-0.4-0.2-0.7-0.6-0.7
	c-0.2,0-0.4,0.1-0.5,0.2c-0.1,0.2-0.2,0.4-0.2,0.6c0,0.3,0.1,0.5,0.2,0.6c0.1,0.1,0.3,0.2,0.4,0.2c0.3,0,0.5-0.1,0.6-0.3V182.9z
	 M51,184.2l0.1-0.2h1c0.2,0,0.3,0,0.4-0.1c0.1-0.1,0.1-0.2,0.1-0.5c0-0.5-0.2-0.9-0.7-1.2L52,182c0.5,0.3,0.8,0.8,0.8,1.4
	c0,0.5-0.2,0.8-0.7,0.8H51z M53.3,180.7l0.1-0.1h0.1c0-0.1,0-0.1,0-0.2c0-0.1,0-0.2,0.1-0.2c0.1-0.1,0.1-0.1,0.2-0.1
	c0.1,0,0.1,0,0.2,0.1v0.2c-0.1,0-0.1-0.1-0.2-0.1c-0.1,0-0.1,0-0.1,0.1c0,0-0.1,0.1-0.1,0.1c0,0.1,0,0.1,0.1,0.2h0.4l-0.1,0.1H53.3z
	 M53.6,184.2v-3.1l0.2-0.1v3.2H53.6z M56.7,184.2c-0.2,0-0.4-0.1-0.6-0.2c-0.1-0.1-0.2-0.4-0.2-0.6v-0.7l0.2-0.1v0.8
	c0,0.4,0.2,0.7,0.6,0.7h1.7c0.4,0,0.6-0.2,0.6-0.7v-1.1l0.2-0.1v1.3c0,0.3-0.1,0.5-0.3,0.6c-0.1,0.1-0.3,0.2-0.6,0.2H56.7z
	 M57.4,181.7c0,0.1-0.1,0.2-0.2,0.2c-0.1,0-0.2-0.1-0.2-0.2c0-0.1,0.1-0.2,0.2-0.2C57.3,181.5,57.4,181.6,57.4,181.7L57.4,181.7z
	 M57.9,181.7c0,0.1-0.1,0.2-0.2,0.2c-0.1,0-0.2-0.1-0.2-0.2c0-0.1,0.1-0.2,0.2-0.2C57.8,181.5,57.9,181.6,57.9,181.7L57.9,181.7z
	 M60,184.2v-3.1l0.2-0.1v3.2H60z M60.7,184.2l0.1-0.2h1c0.2,0,0.3,0,0.4-0.1c0.1-0.1,0.1-0.2,0.1-0.5c0-0.5-0.2-0.9-0.7-1.2l0.1-0.2
	c0.5,0.3,0.8,0.8,0.8,1.4c0,0.5-0.2,0.8-0.7,0.8H60.7z M61.9,181.2c0,0.1-0.1,0.2-0.2,0.2c-0.1,0-0.2-0.1-0.2-0.2
	c0-0.1,0.1-0.2,0.2-0.2C61.9,181,61.9,181.1,61.9,181.2L61.9,181.2z M65.8,183.3c0,0.4,0.2,0.6,0.6,0.6h0.2v0.2h-0.2
	c-0.4,0-0.6-0.2-0.8-0.5c-0.2,0.2-0.4,0.3-0.7,0.3c-0.3,0-0.5-0.1-0.7-0.3c-0.1-0.2-0.2-0.4-0.2-0.7c0-0.3,0.1-0.6,0.3-0.8
	c0.2-0.2,0.4-0.2,0.6-0.2c0.3,0,0.5,0.1,0.6,0.2v-0.3l0.2-0.1V183.3L65.8,183.3z M65.6,182.6c-0.2-0.2-0.4-0.3-0.6-0.3
	c-0.2,0-0.3,0.1-0.5,0.2c-0.1,0.1-0.2,0.3-0.2,0.6c0,0.2,0.1,0.4,0.2,0.6c0.1,0.1,0.3,0.2,0.5,0.2c0.2,0,0.5-0.1,0.6-0.3
	c0-0.1,0-0.1,0-0.2V182.6z M65.1,181.2c0,0.1-0.1,0.2-0.2,0.2c-0.1,0-0.2-0.1-0.2-0.2c0-0.1,0.1-0.2,0.2-0.2
	C65,181,65.1,181.1,65.1,181.2L65.1,181.2z M65.6,181.2c0,0.1-0.1,0.2-0.2,0.2c-0.1,0-0.2-0.1-0.2-0.2c0-0.1,0.1-0.2,0.2-0.2
	C65.5,181,65.6,181.1,65.6,181.2L65.6,181.2z M67.4,183.3c0,0.4,0.2,0.6,0.6,0.6h0.2v0.2H68c-0.3,0-0.6-0.1-0.7-0.4
	c-0.1,0.2-0.4,0.4-0.7,0.4h-0.2V184h0.2c0.4,0,0.6-0.2,0.6-0.6v-1.1l0.2-0.1V183.3L67.4,183.3z M66.7,184.9c0-0.1,0.1-0.2,0.2-0.2
	c0.1,0,0.2,0.1,0.2,0.2c0,0.1-0.1,0.2-0.2,0.2C66.8,185.1,66.7,185,66.7,184.9L66.7,184.9z M67.2,184.9c0-0.1,0.1-0.2,0.2-0.2
	c0.1,0,0.2,0.1,0.2,0.2c0,0.1-0.1,0.2-0.2,0.2C67.3,185.1,67.2,185,67.2,184.9L67.2,184.9z M67.9,184.2V184h0.2
	c0.4,0,0.6-0.2,0.6-0.6v-1.1l0.2-0.1v1.3c0,0.3-0.1,0.5-0.2,0.6c-0.1,0.1-0.3,0.2-0.6,0.2H67.9z M68.9,184.9c0,0.1-0.1,0.2-0.2,0.2
	c-0.1,0-0.2-0.1-0.2-0.2c0-0.1,0.1-0.2,0.2-0.2C68.8,184.7,68.9,184.8,68.9,184.9L68.9,184.9z M70.7,184.2c-0.3,0-0.5-0.1-0.6-0.2
	c-0.1-0.2-0.2-0.4-0.2-0.6v-2.2l0.2-0.1v2.4c0,0.4,0.2,0.6,0.6,0.6H71v0.2H70.7z M73.9,184h0.2v0.2h-0.2c-0.3,0-0.5,0-0.7-0.1
	c-0.2-0.1-0.3-0.2-0.5-0.3c-0.4,0.3-0.9,0.4-1.5,0.4h-0.6V184h0.6c0.8,0,1.4-0.3,1.8-0.8c-0.3-0.6-0.7-0.9-1.2-0.9
	c-0.3,0-0.6,0.1-0.8,0.4v-0.2c0.3-0.3,0.5-0.4,0.8-0.4c0.5,0,1,0.3,1.3,1v0.2c-0.1,0.1-0.2,0.3-0.4,0.4c0.1,0.1,0.2,0.2,0.4,0.3
	C73.5,183.9,73.7,184,73.9,184z M73.8,184.2V184h0.4c0.4,0,0.6-0.2,0.6-0.6v-0.7l0.2-0.1v0.9c0,0.4,0.2,0.6,0.6,0.6h0.1
	c0.4,0,0.6-0.2,0.6-0.6v-0.9l0.2-0.1v1.1c0,0.4,0.2,0.6,0.6,0.6h0.1c0.4,0,0.6-0.2,0.6-0.6v-1.1l0.2-0.1v1.3c0,0.3-0.1,0.5-0.2,0.6
	c-0.1,0.1-0.3,0.2-0.6,0.2h-0.2c-0.3,0-0.6-0.1-0.7-0.4c-0.1,0.2-0.4,0.4-0.7,0.4h-0.2c-0.3,0-0.6-0.1-0.7-0.4
	c-0.1,0.2-0.4,0.4-0.7,0.4H73.8z M81.7,183.3c0,0.4,0.2,0.6,0.6,0.6h0.2v0.2h-0.2c-0.4,0-0.6-0.2-0.8-0.5c-0.2,0.2-0.4,0.3-0.7,0.3
	c-0.3,0-0.5-0.1-0.7-0.3c-0.1-0.2-0.2-0.4-0.2-0.7c0-0.3,0.1-0.6,0.3-0.8c0.2-0.2,0.4-0.2,0.6-0.2c0.3,0,0.5,0.1,0.6,0.2v-0.3
	l0.2-0.1V183.3L81.7,183.3z M81.5,182.6c-0.2-0.2-0.4-0.3-0.6-0.3c-0.2,0-0.3,0.1-0.5,0.2c-0.1,0.1-0.2,0.3-0.2,0.6
	c0,0.2,0.1,0.4,0.2,0.6c0.1,0.1,0.3,0.2,0.5,0.2c0.2,0,0.5-0.1,0.6-0.3c0-0.1,0-0.1,0-0.2V182.6z M81,181.2c0,0.1-0.1,0.2-0.2,0.2
	c-0.1,0-0.2-0.1-0.2-0.2c0-0.1,0.1-0.2,0.2-0.2C80.9,181,81,181.1,81,181.2L81,181.2z M81.5,181.2c0,0.1-0.1,0.2-0.2,0.2
	c-0.1,0-0.2-0.1-0.2-0.2c0-0.1,0.1-0.2,0.2-0.2C81.4,181,81.5,181.1,81.5,181.2L81.5,181.2z M83.3,183.3c0,0.4,0.2,0.6,0.6,0.6h0.2
	v0.2h-0.2c-0.3,0-0.6-0.1-0.7-0.4c-0.1,0.2-0.4,0.4-0.7,0.4h-0.2V184h0.2c0.4,0,0.6-0.2,0.6-0.6v-1.1l0.2-0.1V183.3L83.3,183.3z
	 M82.7,184.9c0-0.1,0.1-0.2,0.2-0.2c0.1,0,0.2,0.1,0.2,0.2c0,0.1-0.1,0.2-0.2,0.2C82.7,185.1,82.7,185,82.7,184.9L82.7,184.9z
	 M83.2,184.9c0-0.1,0.1-0.2,0.2-0.2c0.1,0,0.2,0.1,0.2,0.2c0,0.1-0.1,0.2-0.2,0.2C83.2,185.1,83.2,185,83.2,184.9L83.2,184.9z
	 M87.1,184h0.2v0.2h-0.2c-0.3,0-0.5,0-0.7-0.1c-0.2-0.1-0.3-0.2-0.5-0.3c-0.4,0.3-0.9,0.4-1.5,0.4h-0.6V184h0.6
	c0.8,0,1.4-0.3,1.8-0.8c-0.3-0.6-0.7-0.9-1.2-0.9c-0.3,0-0.6,0.1-0.8,0.4v-0.2c0.3-0.3,0.5-0.4,0.8-0.4c0.5,0,1,0.3,1.3,1v0.2
	c-0.1,0.1-0.2,0.3-0.4,0.4c0.1,0.1,0.2,0.2,0.4,0.3C86.6,183.9,86.8,184,87.1,184z M85.1,184.9c0-0.1,0.1-0.2,0.2-0.2
	c0.1,0,0.2,0.1,0.2,0.2c0,0.1-0.1,0.2-0.2,0.2C85.1,185.1,85.1,185,85.1,184.9L85.1,184.9z M87.9,182.9c0-0.3,0.1-0.5,0.2-0.6
	c0.1-0.1,0.3-0.2,0.6-0.2c0.3,0,0.5,0.1,0.7,0.3c0.1,0.2,0.2,0.4,0.2,0.7c0,0.4-0.1,0.6-0.3,0.8c-0.2,0.2-0.4,0.3-0.6,0.3
	c-0.3,0-0.6-0.1-0.7-0.4c-0.1,0.2-0.4,0.4-0.7,0.4H87V184h0.2c0.4,0,0.6-0.2,0.6-0.6V182.9z M88.1,183.3c0,0.4,0.2,0.6,0.6,0.6
	c0.2,0,0.3-0.1,0.5-0.2c0.1-0.2,0.2-0.4,0.2-0.6c0-0.3-0.1-0.5-0.2-0.7c-0.1-0.1-0.3-0.2-0.5-0.2c-0.4,0-0.6,0.2-0.6,0.7V183.3z
	 M91,183.3c0,0.4,0.2,0.6,0.6,0.6h0.2v0.2h-0.2c-0.2,0-0.4-0.1-0.6-0.2c0,0.4-0.1,0.6-0.3,0.9c-0.2,0.2-0.4,0.3-0.7,0.3
	c-0.2,0-0.4,0-0.5-0.1v-0.2c0.2,0.1,0.3,0.1,0.5,0.1c0.3,0,0.5-0.1,0.6-0.3c0.1-0.2,0.2-0.4,0.2-0.6v-1.8l0.2-0.1V183.3L91,183.3z
	 M91.5,184.2V184h0.2c0.4,0,0.6-0.2,0.6-0.6v-1.1l0.2-0.1v1.3c0,0.3-0.1,0.5-0.2,0.6c-0.1,0.1-0.3,0.2-0.6,0.2H91.5z M92.4,184.9
	c0,0.1-0.1,0.2-0.2,0.2c-0.1,0-0.2-0.1-0.2-0.2c0-0.1,0.1-0.2,0.2-0.2C92.4,184.7,92.4,184.8,92.4,184.9L92.4,184.9z"/>
<path d="M26.9,184.2c0,0.3-0.2,0.5-0.4,0.7c-0.3,0.2-0.6,0.3-1,0.3c-0.5,0-0.9-0.1-1.1-0.4c-0.2-0.2-0.3-0.5-0.3-0.8
	c0-0.3,0.1-0.5,0.2-0.8l0.2,0c-0.2,0.2-0.3,0.5-0.3,0.8c0,0.3,0.1,0.6,0.3,0.8c0.2,0.2,0.5,0.3,0.9,0.3c0.4,0,0.7-0.1,0.9-0.3
	c0.2-0.1,0.3-0.3,0.3-0.5h-0.5l0.1-0.2h0.7L26.9,184.2L26.9,184.2z"/>
<path d="M28.9,189.3c0,0.4,0.2,0.6,0.6,0.6h0.2v0.2h-0.2c-0.4,0-0.6-0.2-0.8-0.5c-0.2,0.2-0.4,0.3-0.7,0.3c-0.3,0-0.5-0.1-0.7-0.3
	c-0.1-0.2-0.2-0.4-0.2-0.7c0-0.3,0.1-0.6,0.3-0.8c0.2-0.2,0.4-0.2,0.6-0.2c0.3,0,0.5,0.1,0.6,0.2v-0.3l0.2-0.1V189.3L28.9,189.3z
	 M28.6,188.6c-0.2-0.2-0.4-0.3-0.6-0.3c-0.2,0-0.3,0.1-0.5,0.2c-0.1,0.1-0.2,0.3-0.2,0.6c0,0.2,0.1,0.4,0.2,0.6
	c0.1,0.1,0.3,0.2,0.5,0.2c0.2,0,0.5-0.1,0.6-0.3c0-0.1,0-0.1,0-0.2V188.6z M28.1,187.2c0,0.1-0.1,0.2-0.2,0.2
	c-0.1,0-0.2-0.1-0.2-0.2c0-0.1,0.1-0.2,0.2-0.2C28.1,187,28.1,187.1,28.1,187.2L28.1,187.2z M28.6,187.2c0,0.1-0.1,0.2-0.2,0.2
	c-0.1,0-0.2-0.1-0.2-0.2c0-0.1,0.1-0.2,0.2-0.2C28.6,187,28.6,187.1,28.6,187.2L28.6,187.2z M30.4,189.3c0,0.4,0.2,0.6,0.6,0.6h0.2
	v0.2H31c-0.3,0-0.6-0.1-0.7-0.4c-0.1,0.2-0.4,0.4-0.7,0.4h-0.2V190h0.2c0.4,0,0.6-0.2,0.6-0.6v-1.1l0.2-0.1V189.3L30.4,189.3z
	 M29.8,190.9c0-0.1,0.1-0.2,0.2-0.2c0.1,0,0.2,0.1,0.2,0.2c0,0.1-0.1,0.2-0.2,0.2C29.9,191.1,29.8,191,29.8,190.9L29.8,190.9z
	 M30.3,190.9c0-0.1,0.1-0.2,0.2-0.2c0.1,0,0.2,0.1,0.2,0.2c0,0.1-0.1,0.2-0.2,0.2C30.4,191.1,30.3,191,30.3,190.9L30.3,190.9z
	 M31.8,188.9c0-0.3,0.1-0.5,0.2-0.6c0.1-0.1,0.3-0.2,0.6-0.2c0.3,0,0.5,0.1,0.7,0.3c0.1,0.2,0.2,0.4,0.2,0.7c0,0.4-0.1,0.6-0.3,0.8
	c-0.2,0.2-0.4,0.3-0.6,0.3c-0.3,0-0.6-0.1-0.7-0.4c-0.1,0.2-0.4,0.4-0.7,0.4H31V190h0.2c0.4,0,0.6-0.2,0.6-0.6V188.9z M32,189.3
	c0,0.4,0.2,0.6,0.6,0.6c0.2,0,0.3-0.1,0.5-0.2c0.1-0.2,0.2-0.4,0.2-0.6c0-0.3-0.1-0.5-0.2-0.7c-0.1-0.1-0.3-0.2-0.5-0.2
	c-0.4,0-0.6,0.2-0.6,0.7V189.3z M35.9,190h0.6v0.2h-0.6c0,0.3-0.1,0.5-0.3,0.7c-0.2,0.2-0.4,0.2-0.6,0.2c-0.2,0-0.4,0-0.5-0.1v-0.2
	c0.2,0.1,0.3,0.1,0.5,0.1c0.2,0,0.4-0.1,0.6-0.2c0.1-0.1,0.2-0.3,0.2-0.5v0c-0.1,0-0.2,0-0.4,0c-0.7,0-1.1-0.4-1.1-1.1
	c0-0.4,0.1-0.6,0.3-0.8c0.2-0.2,0.4-0.3,0.6-0.3c0.2,0,0.4,0.1,0.6,0.2s0.2,0.4,0.2,0.6V190z M35.7,188.9c0-0.4-0.2-0.7-0.6-0.7
	c-0.2,0-0.4,0.1-0.5,0.2c-0.1,0.2-0.2,0.4-0.2,0.6c0,0.5,0.3,0.8,0.8,0.9c0.1,0,0.2,0,0.4,0V188.9z M38.3,189.3
	c0,0.4,0.2,0.6,0.6,0.6h0.2v0.2h-0.2c-0.3,0-0.6-0.1-0.7-0.4c-0.1,0.2-0.4,0.4-0.7,0.4h-1.3V190h1.3c0.4,0,0.6-0.2,0.6-0.7v-0.1
	c0-0.3-0.1-0.5-0.3-0.7c-0.2-0.1-0.4-0.2-0.6-0.2c-0.2,0-0.4,0-0.5,0.1v-0.2l1.2-1.3h0.2l-1.1,1.2c0.1,0,0.1,0,0.2,0
	c0.4,0,0.6,0.1,0.9,0.3C38.2,188.7,38.3,188.9,38.3,189.3L38.3,189.3L38.3,189.3z M42.1,190h0.2v0.2h-0.2c-0.3,0-0.5,0-0.7-0.1
	c-0.2-0.1-0.3-0.2-0.5-0.3c-0.4,0.3-0.9,0.4-1.5,0.4h-0.6V190h0.6c0.8,0,1.4-0.3,1.8-0.8c-0.3-0.6-0.7-0.9-1.2-0.9
	c-0.3,0-0.6,0.1-0.8,0.4v-0.2c0.3-0.3,0.5-0.4,0.8-0.4c0.5,0,1,0.3,1.3,1v0.2c-0.1,0.1-0.2,0.3-0.4,0.4c0.1,0.1,0.2,0.2,0.4,0.3
	C41.6,189.9,41.8,190,42.1,190z M42,190.2V190h0.2c0.4,0,0.6-0.2,0.6-0.6v-2.2l0.2-0.1v2.4c0,0.3-0.1,0.5-0.2,0.6
	c-0.1,0.1-0.3,0.2-0.6,0.2H42z M44,190.2v-3.1l0.2-0.1v3.2H44z M46.9,190.2c-0.2,0-0.4-0.1-0.6-0.2c-0.1-0.1-0.2-0.4-0.2-0.6v-0.7
	l0.2-0.1v0.8c0,0.4,0.2,0.7,0.6,0.7h1.7c0.4,0,0.6-0.2,0.6-0.7v-1.1l0.2-0.1v1.3c0,0.3-0.1,0.5-0.3,0.6c-0.1,0.1-0.3,0.2-0.6,0.2
	H46.9z M47.6,187.7c0,0.1-0.1,0.2-0.2,0.2c-0.1,0-0.2-0.1-0.2-0.2c0-0.1,0.1-0.2,0.2-0.2C47.6,187.5,47.6,187.6,47.6,187.7
	L47.6,187.7z M48.1,187.7c0,0.1-0.1,0.2-0.2,0.2c-0.1,0-0.2-0.1-0.2-0.2c0-0.1,0.1-0.2,0.2-0.2C48.1,187.5,48.1,187.6,48.1,187.7
	L48.1,187.7z M51,190.2c-0.3,0-0.5-0.1-0.6-0.2c-0.1-0.2-0.2-0.4-0.2-0.6v-2.2l0.2-0.1v2.4c0,0.4,0.2,0.6,0.6,0.6h0.2v0.2H51z
	 M53.8,189.3c0,0.4,0.2,0.6,0.6,0.6h0.2v0.2h-0.2c-0.3,0-0.6-0.1-0.7-0.4c-0.1,0.2-0.4,0.4-0.7,0.4h-0.4c-0.1,0-0.2,0-0.3,0
	c-0.1,0-0.2,0-0.3,0H51V190h0.9c-0.2-0.2-0.4-0.4-0.4-0.7c0-0.2,0-0.3,0.1-0.5c0.1-0.3,0.2-0.6,0.4-0.7c0.2-0.1,0.4-0.2,0.6-0.2
	c0.3,0,0.6,0.1,0.8,0.3c0.2,0.2,0.3,0.5,0.3,0.8V189.3L53.8,189.3z M51.7,189.2c0,0.4,0.2,0.6,0.5,0.7c0.3-0.1,0.5-0.3,0.5-0.7
	c0-0.2,0-0.3-0.1-0.4c-0.1-0.1-0.2-0.2-0.4-0.2c-0.2,0-0.3,0.1-0.4,0.2C51.7,188.9,51.7,189,51.7,189.2L51.7,189.2z M52.9,190
	c0.4,0,0.6-0.2,0.6-0.7V189c0-0.3-0.1-0.6-0.3-0.8c-0.2-0.1-0.4-0.2-0.6-0.2c-0.3,0-0.6,0.1-0.7,0.4c0.1,0,0.2,0,0.3,0
	c0.2,0,0.4,0.1,0.5,0.2c0.1,0.1,0.2,0.3,0.2,0.6c0,0.3-0.1,0.6-0.4,0.7H52.9z M57.5,190h0.2v0.2h-0.2c-0.3,0-0.5,0-0.7-0.1
	c-0.2-0.1-0.3-0.2-0.5-0.3c-0.4,0.3-0.9,0.4-1.5,0.4h-0.6V190h0.6c0.8,0,1.4-0.3,1.8-0.8c-0.3-0.6-0.7-0.9-1.2-0.9
	c-0.3,0-0.6,0.1-0.8,0.4v-0.2c0.3-0.3,0.5-0.4,0.8-0.4c0.5,0,1,0.3,1.3,1v0.2c-0.1,0.1-0.2,0.3-0.4,0.4c0.1,0.1,0.2,0.2,0.4,0.3
	C57.1,189.9,57.3,190,57.5,190z M55.5,190.9c0-0.1,0.1-0.2,0.2-0.2c0.1,0,0.2,0.1,0.2,0.2c0,0.1-0.1,0.2-0.2,0.2
	C55.6,191.1,55.5,191,55.5,190.9L55.5,190.9z M57.5,190.2V190h0.2c0.4,0,0.6-0.2,0.6-0.6v-2.2l0.2-0.1v2.4c0,0.3-0.1,0.5-0.2,0.6
	c-0.1,0.1-0.3,0.2-0.6,0.2H57.5z M59.5,190.2v-3.1l0.2-0.1v3.2H59.5z M64.1,190c0,0.4-0.1,0.7-0.4,0.9c-0.2,0.2-0.5,0.3-0.9,0.3
	c-0.4,0-0.7-0.1-1-0.4c-0.2-0.2-0.3-0.5-0.3-0.8c0-0.3,0.1-0.5,0.2-0.8l0.2,0c-0.2,0.2-0.3,0.5-0.3,0.8c0,0.3,0.1,0.6,0.3,0.8
	c0.2,0.2,0.4,0.3,0.7,0.3c0.3,0,0.6-0.1,0.8-0.3c0.2-0.2,0.2-0.4,0.2-0.7v-2.9l0.2-0.1V190z M65.8,190.2c-0.3,0-0.5-0.1-0.6-0.2
	c-0.1-0.2-0.2-0.4-0.2-0.6v-2.2l0.2-0.1v2.4c0,0.4,0.2,0.6,0.6,0.6H66v0.2H65.8z M68.4,189.3c0,0.4,0.2,0.6,0.6,0.6h0.2v0.2H69
	c-0.3,0-0.6-0.1-0.7-0.4c-0.2,0.3-0.4,0.5-0.8,0.5c-0.4,0-0.6-0.2-0.8-0.5c-0.1,0.3-0.4,0.4-0.7,0.4h-0.2V190H66
	c0.4,0,0.6-0.2,0.6-0.6v-0.2c0-0.4,0.1-0.7,0.3-0.9c0.2-0.2,0.4-0.3,0.6-0.3c0.3,0,0.5,0.1,0.7,0.3c0.1,0.2,0.2,0.5,0.2,0.8V189.3
	L68.4,189.3z M66.8,189.2c0,0.6,0.2,0.9,0.7,0.9c0.2,0,0.4-0.1,0.5-0.2c0.1-0.2,0.2-0.4,0.2-0.7c0-0.3-0.1-0.5-0.2-0.7
	c-0.1-0.1-0.3-0.2-0.5-0.2c-0.2,0-0.4,0.1-0.5,0.2C66.9,188.6,66.8,188.9,66.8,189.2L66.8,189.2z M71.5,190v0.2h-2.6V190h1
	c-0.3-0.2-0.4-0.5-0.4-0.9c0-0.3,0.1-0.6,0.3-0.8c0.2-0.2,0.4-0.2,0.6-0.2c0.3,0,0.6,0.1,0.8,0.4v0.3c-0.2-0.3-0.4-0.4-0.8-0.4
	c-0.2,0-0.4,0.1-0.5,0.2c-0.1,0.2-0.2,0.3-0.2,0.6c0,0.3,0.1,0.5,0.2,0.7c0.2,0.2,0.4,0.2,0.6,0.2H71.5z M71.9,186.7l0.1-0.1h0.1
	c0-0.1,0-0.1,0-0.2c0-0.1,0-0.2,0.1-0.2c0.1-0.1,0.1-0.1,0.2-0.1c0.1,0,0.1,0,0.2,0.1v0.2c-0.1,0-0.1-0.1-0.2-0.1
	c-0.1,0-0.1,0-0.1,0.1c0,0-0.1,0.1-0.1,0.1c0,0.1,0,0.1,0.1,0.2h0.4l-0.1,0.1H71.9z M72.2,190.2v-3.1l0.2-0.1v3.2H72.2z M75.2,190.2
	c-0.3,0-0.5-0.1-0.7-0.3c-0.1-0.2-0.2-0.4-0.2-0.6c0-0.6,0.3-1,0.9-1.2c0.6,0.2,0.9,0.6,0.9,1.2c0,0.3-0.1,0.5-0.3,0.7
	C75.7,190.1,75.5,190.2,75.2,190.2L75.2,190.2z M75.2,190L75.2,190c0.3,0,0.4-0.1,0.5-0.2c0.1-0.1,0.2-0.3,0.2-0.5
	c0-0.5-0.2-0.8-0.7-1c-0.4,0.2-0.7,0.5-0.7,1c0,0.2,0.1,0.4,0.2,0.5C74.9,189.9,75,190,75.2,190z M75.1,187.2c0,0.1-0.1,0.2-0.2,0.2
	c-0.1,0-0.2-0.1-0.2-0.2c0-0.1,0.1-0.2,0.2-0.2C75.1,187,75.1,187.1,75.1,187.2L75.1,187.2z M75.6,187.2c0,0.1-0.1,0.2-0.2,0.2
	c-0.1,0-0.2-0.1-0.2-0.2c0-0.1,0.1-0.2,0.2-0.2C75.6,187,75.6,187.1,75.6,187.2L75.6,187.2z M76.6,190.2l0.1-0.2h1
	c0.2,0,0.3,0,0.4-0.1c0.1-0.1,0.1-0.2,0.1-0.5c0-0.5-0.2-0.9-0.7-1.2l0.1-0.2c0.5,0.3,0.8,0.7,0.8,1.3c0,0.4,0.2,0.6,0.6,0.6h0.2
	v0.2h-0.2c-0.3,0-0.5-0.1-0.7-0.3c-0.1,0.2-0.3,0.3-0.6,0.3H76.6z M78.9,190.2V190h0.2c0.4,0,0.6-0.2,0.6-0.6v-1.1l0.2-0.1v1.3
	c0,0.3-0.1,0.5-0.2,0.6c-0.1,0.1-0.3,0.2-0.6,0.2H78.9z M80,187.2c0,0.1-0.1,0.2-0.2,0.2c-0.1,0-0.2-0.1-0.2-0.2
	c0-0.1,0.1-0.2,0.2-0.2C79.9,187,80,187.1,80,187.2L80,187.2z M81.7,190.2c-0.3,0-0.5-0.1-0.6-0.2c-0.1-0.2-0.2-0.4-0.2-0.6v-2.2
	l0.2-0.1v2.4c0,0.4,0.2,0.6,0.6,0.6h0.2v0.2H81.7z M81.6,190.2V190H82c0.4,0,0.6-0.2,0.6-0.6v-0.7l0.2-0.1v0.9
	c0,0.4,0.2,0.6,0.6,0.6h0.1c0.4,0,0.6-0.2,0.6-0.6v-0.9l0.2-0.1v1.1c0,0.4,0.2,0.6,0.6,0.6h0.1c0.4,0,0.6-0.2,0.6-0.6v-1.1l0.2-0.1
	v1.3c0,0.4,0.2,0.6,0.6,0.6H87v0.2h-0.4c-0.3,0-0.6-0.1-0.7-0.4c-0.1,0.2-0.4,0.4-0.7,0.4H85c-0.3,0-0.6-0.1-0.7-0.4
	c-0.1,0.2-0.4,0.4-0.7,0.4h-0.2c-0.3,0-0.6-0.1-0.7-0.4c-0.1,0.2-0.4,0.4-0.7,0.4H81.6z M87.6,188.9c0-0.3,0.1-0.5,0.2-0.6
	c0.1-0.1,0.3-0.2,0.6-0.2c0.3,0,0.5,0.1,0.7,0.3c0.1,0.2,0.2,0.4,0.2,0.7c0,0.4-0.1,0.6-0.3,0.8c-0.2,0.2-0.4,0.3-0.6,0.3
	c-0.3,0-0.6-0.1-0.7-0.4c-0.1,0.2-0.4,0.4-0.7,0.4h-0.2V190H87c0.4,0,0.6-0.2,0.6-0.6V188.9z M86.9,187.4l0.1-0.2l0.4-0.1
	c-0.1-0.1-0.1-0.1-0.1-0.2c0-0.1,0-0.1,0.1-0.2c0-0.1,0.1-0.1,0.2-0.1c0.1,0,0.1,0,0.2,0.1c0,0.1,0.1,0.1,0.1,0.2
	c0,0.2-0.1,0.3-0.3,0.4L86.9,187.4z M87.4,186.9c0,0.1,0,0.2,0.1,0.2c0.1-0.1,0.1-0.1,0.1-0.2c0-0.1,0-0.2-0.1-0.2
	C87.5,186.7,87.4,186.8,87.4,186.9L87.4,186.9z M87.8,189.3c0,0.4,0.2,0.6,0.6,0.6c0.2,0,0.3-0.1,0.5-0.2c0.1-0.2,0.2-0.4,0.2-0.6
	c0-0.3-0.1-0.5-0.2-0.7c-0.1-0.1-0.3-0.2-0.5-0.2c-0.4,0-0.6,0.2-0.6,0.7V189.3z"/>
<path d="M45.2,195.3c0,0.4,0.2,0.6,0.6,0.6H46v0.2h-0.2c-0.4,0-0.6-0.2-0.8-0.5c-0.2,0.2-0.4,0.3-0.7,0.3c-0.3,0-0.5-0.1-0.7-0.3
	c-0.1-0.2-0.2-0.4-0.2-0.7c0-0.3,0.1-0.6,0.3-0.8c0.2-0.2,0.4-0.2,0.6-0.2c0.3,0,0.5,0.1,0.6,0.2v-0.3l0.2-0.1V195.3L45.2,195.3z
	 M44.9,194.6c-0.2-0.2-0.4-0.3-0.6-0.3c-0.2,0-0.3,0.1-0.5,0.2c-0.1,0.1-0.2,0.3-0.2,0.6c0,0.2,0.1,0.4,0.2,0.6
	c0.1,0.1,0.3,0.2,0.5,0.2c0.2,0,0.5-0.1,0.6-0.3c0-0.1,0-0.1,0-0.2V194.6z M44.4,193.2c0,0.1-0.1,0.2-0.2,0.2
	c-0.1,0-0.2-0.1-0.2-0.2c0-0.1,0.1-0.2,0.2-0.2C44.4,193,44.4,193.1,44.4,193.2L44.4,193.2z M44.9,193.2c0,0.1-0.1,0.2-0.2,0.2
	c-0.1,0-0.2-0.1-0.2-0.2c0-0.1,0.1-0.2,0.2-0.2C44.9,193,44.9,193.1,44.9,193.2L44.9,193.2z M46.8,195.3c0,0.4,0.2,0.6,0.6,0.6h0.2
	v0.2h-0.2c-0.3,0-0.6-0.1-0.7-0.4c-0.1,0.2-0.4,0.4-0.7,0.4h-0.2V196h0.2c0.4,0,0.6-0.2,0.6-0.6v-1.1l0.2-0.1V195.3L46.8,195.3z
	 M46.1,196.9c0-0.1,0.1-0.2,0.2-0.2c0.1,0,0.2,0.1,0.2,0.2c0,0.1-0.1,0.2-0.2,0.2C46.2,197.1,46.1,197,46.1,196.9L46.1,196.9z
	 M46.6,196.9c0-0.1,0.1-0.2,0.2-0.2c0.1,0,0.2,0.1,0.2,0.2c0,0.1-0.1,0.2-0.2,0.2C46.7,197.1,46.6,197,46.6,196.9L46.6,196.9z
	 M48.1,194.9c0-0.3,0.1-0.5,0.2-0.6c0.1-0.1,0.3-0.2,0.6-0.2c0.3,0,0.5,0.1,0.7,0.3c0.1,0.2,0.2,0.4,0.2,0.7c0,0.4-0.1,0.6-0.3,0.8
	c-0.2,0.2-0.4,0.3-0.6,0.3c-0.3,0-0.6-0.1-0.7-0.4c-0.1,0.2-0.4,0.4-0.7,0.4h-0.2V196h0.2c0.4,0,0.6-0.2,0.6-0.6V194.9z M48.4,195.3
	c0,0.4,0.2,0.6,0.6,0.6c0.2,0,0.3-0.1,0.5-0.2c0.1-0.2,0.2-0.4,0.2-0.6c0-0.3-0.1-0.5-0.2-0.7c-0.1-0.1-0.3-0.2-0.5-0.2
	c-0.4,0-0.6,0.2-0.6,0.7V195.3z M52.2,196h0.6v0.2h-0.6c0,0.3-0.1,0.5-0.3,0.7c-0.2,0.2-0.4,0.2-0.6,0.2c-0.2,0-0.4,0-0.5-0.1v-0.2
	c0.2,0.1,0.3,0.1,0.5,0.1c0.2,0,0.4-0.1,0.6-0.2c0.1-0.1,0.2-0.3,0.2-0.5v0c-0.1,0-0.2,0-0.4,0c-0.7,0-1.1-0.4-1.1-1.1
	c0-0.4,0.1-0.6,0.3-0.8c0.2-0.2,0.4-0.3,0.6-0.3c0.2,0,0.4,0.1,0.6,0.2s0.2,0.4,0.2,0.6V196z M52,194.9c0-0.4-0.2-0.7-0.6-0.7
	c-0.2,0-0.4,0.1-0.5,0.2c-0.1,0.2-0.2,0.4-0.2,0.6c0,0.5,0.3,0.8,0.8,0.9c0.1,0,0.2,0,0.4,0V194.9z M54.7,195.3
	c0,0.4,0.2,0.6,0.6,0.6h0.2v0.2h-0.2c-0.3,0-0.6-0.1-0.7-0.4c-0.1,0.2-0.4,0.4-0.7,0.4h-1.3V196h1.3c0.4,0,0.6-0.2,0.6-0.7v-0.1
	c0-0.3-0.1-0.5-0.3-0.7c-0.2-0.1-0.4-0.2-0.6-0.2c-0.2,0-0.4,0-0.5,0.1v-0.2l1.2-1.3h0.2l-1.1,1.2c0.1,0,0.1,0,0.2,0
	c0.4,0,0.6,0.1,0.9,0.3C54.6,194.7,54.7,194.9,54.7,195.3L54.7,195.3L54.7,195.3z M58.4,196h0.2v0.2h-0.2c-0.3,0-0.5,0-0.7-0.1
	c-0.2-0.1-0.3-0.2-0.5-0.3c-0.4,0.3-0.9,0.4-1.5,0.4h-0.6V196h0.6c0.8,0,1.4-0.3,1.8-0.8c-0.3-0.6-0.7-0.9-1.2-0.9
	c-0.3,0-0.6,0.1-0.8,0.4v-0.2c0.3-0.3,0.5-0.4,0.8-0.4c0.5,0,1,0.3,1.3,1v0.2c-0.1,0.1-0.2,0.3-0.4,0.4c0.1,0.1,0.2,0.2,0.4,0.3
	C57.9,195.9,58.1,196,58.4,196z M58.3,196.2V196h0.2c0.4,0,0.6-0.2,0.6-0.6v-2.2l0.2-0.1v2.4c0,0.3-0.1,0.5-0.2,0.6
	c-0.1,0.1-0.3,0.2-0.6,0.2H58.3z M60.3,196.2v-3.1l0.2-0.1v3.2H60.3z M63.9,195.3c0,0.4,0.2,0.6,0.6,0.6h0.2v0.2h-0.2
	c-0.4,0-0.6-0.2-0.8-0.5c-0.2,0.2-0.4,0.3-0.7,0.3c-0.3,0-0.5-0.1-0.7-0.3c-0.1-0.2-0.2-0.4-0.2-0.7c0-0.3,0.1-0.6,0.3-0.8
	c0.2-0.2,0.4-0.2,0.6-0.2c0.3,0,0.5,0.1,0.6,0.2v-0.3l0.2-0.1V195.3L63.9,195.3z M63.7,194.6c-0.2-0.2-0.4-0.3-0.6-0.3
	c-0.2,0-0.3,0.1-0.5,0.2c-0.1,0.1-0.2,0.3-0.2,0.6c0,0.2,0.1,0.4,0.2,0.6c0.1,0.1,0.3,0.2,0.5,0.2c0.2,0,0.5-0.1,0.6-0.3
	c0-0.1,0-0.1,0-0.2V194.6z M65.5,195.3c0,0.4,0.2,0.6,0.6,0.6h0.2v0.2h-0.2c-0.3,0-0.6-0.1-0.7-0.4c-0.1,0.2-0.4,0.4-0.7,0.4h-0.2
	V196h0.2c0.4,0,0.6-0.2,0.6-0.6v-1.1l0.2-0.1V195.3L65.5,195.3z M65.2,196.9c0-0.1,0.1-0.2,0.2-0.2c0.1,0,0.2,0.1,0.2,0.2
	c0,0.1-0.1,0.2-0.2,0.2C65.2,197.1,65.2,197,65.2,196.9L65.2,196.9z M66.1,196.2V196h0.4c0.4,0,0.6-0.2,0.6-0.6v-0.7l0.2-0.1v0.9
	c0,0.4,0.2,0.6,0.6,0.6H68c0.4,0,0.6-0.2,0.6-0.6v-0.9l0.2-0.1v1.1c0,0.4,0.2,0.6,0.6,0.6h0.1c0.4,0,0.6-0.2,0.6-0.6v-1.1l0.2-0.1
	v1.3c0,0.3-0.1,0.5-0.2,0.6c-0.1,0.1-0.3,0.2-0.6,0.2h-0.2c-0.3,0-0.6-0.1-0.7-0.4c-0.1,0.2-0.4,0.4-0.7,0.4h-0.2
	c-0.3,0-0.6-0.1-0.7-0.4c-0.1,0.2-0.4,0.4-0.7,0.4H66.1z M68.6,193.4c0,0.1-0.1,0.2-0.2,0.2c-0.1,0-0.2-0.1-0.2-0.2
	c0-0.1,0.1-0.2,0.2-0.2C68.6,193.2,68.6,193.3,68.6,193.4L68.6,193.4z M68.9,193c0,0.1,0,0.1-0.1,0.1c-0.1,0-0.1,0-0.1-0.1
	c0-0.1,0-0.1,0.1-0.1C68.8,192.8,68.9,192.9,68.9,193L68.9,193z M69.1,193.4c0,0.1-0.1,0.2-0.2,0.2c-0.1,0-0.2-0.1-0.2-0.2
	c0-0.1,0.1-0.2,0.2-0.2C69.1,193.2,69.1,193.3,69.1,193.4L69.1,193.4z M72.7,196c-0.1,0.1-0.4,0.2-0.6,0.2c-0.3,0-0.5-0.1-0.7-0.3
	c-0.1-0.2-0.2-0.4-0.2-0.7c0-0.3,0.1-0.6,0.3-0.8c0.2-0.2,0.4-0.3,0.6-0.3c0.2,0,0.4,0.1,0.6,0.2s0.2,0.4,0.2,0.6v1.1
	c0,0.4-0.1,0.6-0.3,0.9c-0.2,0.2-0.4,0.3-0.7,0.3c-0.2,0-0.4,0-0.5-0.1v-0.2c0.2,0.1,0.3,0.1,0.5,0.1c0.3,0,0.5-0.1,0.6-0.3
	C72.7,196.4,72.7,196.2,72.7,196L72.7,196z M72.7,194.9c0-0.4-0.2-0.7-0.6-0.7c-0.2,0-0.4,0.1-0.5,0.2c-0.1,0.2-0.2,0.4-0.2,0.6
	c0,0.3,0.1,0.5,0.2,0.6c0.1,0.1,0.3,0.2,0.4,0.2c0.3,0,0.5-0.1,0.6-0.3V194.9z"/>
<g>
	<path id="Path_2848" class="st6" d="M82.3,58.2v4c-0.2,0.2-0.6,0.8-1.2,2.7c0,0,0,0-0.1,0l0,0c-0.3-0.2-1.9-1.2-4.5-0.3
		c0,0,0,0,0,0.1c0,0,0,0,0,0c0.6,0.2,1.2,0.6,1.7,1.1c0,0,0,0,0,0.1h0c-1,0-6.5,0.1-10.7,6.8c0,0,0,0.1,0,0.1h0c1-0.7,4.8-3.2,8.1-3
		c0,0,0,0,0,0c0,0,0,0,0,0c-1.2,0.5-6.4,3.5-7.6,11.8c0,0,0,0,0,0.1c0,0,0,0,0,0c0.7-1.3,3.7-6.2,7.9-8c0,0,0.1,0,0.1,0v0
		c-0.8,1-3.9,5.4-3.2,12.7c0,0,0,0,0.1,0s0,0,0,0c0.4-1.4,2.3-6.9,5.3-10.3c0,0,0,0,0.1,0c0,0,0,0,0,0c-0.2,1.3-1.1,7.5,0,12.3
		c0,0,0,0,0.1,0s0,0,0,0c0.1-1.8,0.9-9.1,2.6-11.3l0,0h0l0.4,4.4h-0.6l0.5,6h-0.6l0.3,5.9c-9.8-0.6-17.2-9-16.6-18.8
		C65.2,65.5,73,58.2,82.3,58.2z"/>
	<path id="Path_2849" class="st7" d="M82.3,58.2v4c0.2,0.2,0.6,0.8,1.2,2.7c0,0,0,0,0.1,0l0,0c0.3-0.2,1.9-1.3,4.5-0.4
		c0,0,0,0,0,0.1c0,0,0,0,0,0c-0.6,0.2-1.2,0.6-1.7,1.1c0,0,0,0,0,0.1h0c1,0,6.5,0.1,10.8,6.7c0,0,0,0.1,0,0.1s0,0-0.1,0
		c-1-0.7-4.9-3.2-8.2-2.9c0,0,0,0,0,0.1c0,0,0,0,0,0c1.2,0.5,6.5,3.4,7.7,11.7c0,0,0,0.1,0,0.1c0,0,0,0-0.1,0
		c-0.7-1.3-3.8-6.2-7.9-7.9c0,0-0.1,0-0.1,0v0c0.8,1,4,5.4,3.3,12.6c0,0,0,0-0.1,0s0,0,0,0c-0.4-1.4-2.3-6.9-5.4-10.2c0,0,0,0-0.1,0
		l0,0c0.2,1.3,1.1,7.4,0.1,12.3c0,0,0,0-0.1,0s0,0,0,0c-0.2-1.8-1-9-2.6-11.3l0,0h0l-0.3,4.4h0.6l-0.4,6h0.6l-0.2,5.9
		c9.8-0.6,17.2-9.1,16.5-18.9C99.5,65.4,91.7,58.1,82.3,58.2z"/>
	<path id="Path_2850" class="st8" d="M57,65.1v3.3c0,1.1-0.9,2-2,2l0,0l-4.5,0l0-10.2h-1.6c-0.3,0-0.6,0.3-0.6,0.6l0,9.5h-4.8v-1.4
		c0-3.1-2.6-5.7-5.7-5.7l0,0h-0.7v1.6c0,0.3,0.3,0.6,0.6,0.6h0c1.9,0,3.4,1.5,3.4,3.4l0,0v1.3h-5.8c-0.3,0-0.6,0.3-0.6,0.6v1.6h6.4
		h1l6,0h1.1H55c2.3,0,4.2-1.9,4.2-4.2l0,0v-3.9h-1.6C57.3,64.5,57,64.8,57,65.1z"/>
	<path id="Path_2851" class="st8" d="M33,70.5l-10.1,0h-1.7c-1.1,0-2-0.9-2-2v-3.3c0-0.3-0.3-0.6-0.6-0.6l0,0H17v3.9
		c0,2.3,1.9,4.2,4.2,4.2l0,0h3.4l9,0v-1.6C33.6,70.8,33.3,70.5,33,70.5L33,70.5L33,70.5z"/>
	<circle id="Ellipse_24" class="st8" cx="53.8" cy="74.8" r="1.2"/>
	<circle id="Ellipse_25" class="st8" cx="27.2" cy="74.9" r="1.2"/>
	<circle id="Ellipse_26" class="st8" cx="24.6" cy="74.9" r="1.2"/>
	<path id="Path_2852" class="st8" d="M53,82.7v2.8h4.8v0.4c0,0.3-0.2,0.5-0.5,0.5l0,0l-21.6,0.1v-3h-0.9c-0.2,0-0.3,0.1-0.3,0.3l0,0
		v4.2c0,0.2-0.1,0.3-0.2,0.4L31,90.1c-0.2,0.1-0.2,0.3-0.1,0.5l0.4,0.8l3.5-1.9c0.6-0.3,0.9-0.9,0.9-1.6v-0.2l21.6-0.1
		c1,0,1.8-0.8,1.8-1.8v-5h-4.3C53.8,80.9,53,81.7,53,82.7L53,82.7z M57.9,84.1h-3.5v-1.4c0-0.3,0.2-0.5,0.5-0.5h3L57.9,84.1z"/>
	<path id="Path_2853" class="st8" d="M32.5,87.4v-8.8h-0.9c-0.2,0-0.3,0.1-0.4,0.3l0,0l0,8.8h0.9C32.3,87.7,32.5,87.6,32.5,87.4
		L32.5,87.4L32.5,87.4z"/>
	<path id="Path_2854" class="st8" d="M27.7,88.4l-3.2,1.7c-0.2,0.1-0.2,0.3-0.1,0.5l0.4,0.8l3.5-1.9c0.6-0.3,0.9-0.9,0.9-1.6v-4.5
		h-0.9c-0.2,0-0.3,0.1-0.3,0.3v4.2C28,88.1,27.9,88.3,27.7,88.4z"/>
	<path id="Path_2855" class="st8" d="M26,85.9l0-7.3H25c-0.2,0-0.3,0.1-0.3,0.3l0,0l0,6.9c0,0.3-0.2,0.5-0.5,0.5l0,0l-7,0
		c-0.2,0-0.3,0.1-0.3,0.3v0.9l7.3,0C25.2,87.8,26,86.9,26,85.9C26,86,26,85.9,26,85.9L26,85.9z"/>
	<path id="Path_2856" class="st8" d="M20.4,85.2l2-2l-2-2l-0.3,0.3c-0.1,0.1-0.1,0.4,0,0.5l0,0l1.2,1.2l-1.2,1.2
		c-0.1,0.1-0.1,0.4,0,0.5L20.4,85.2z"/>
	<path id="Path_2857" class="st8" d="M57.2,79.8c0.3,0,0.6-0.3,0.6-0.6c0-0.3-0.3-0.6-0.6-0.6c-0.3,0-0.6,0.3-0.6,0.6l0,0
		C56.5,79.5,56.8,79.8,57.2,79.8z"/>
	<path id="Path_2858" class="st8" d="M55.2,79.8c0.3,0,0.6-0.3,0.6-0.6c0-0.3-0.3-0.6-0.6-0.6c-0.3,0-0.6,0.3-0.6,0.6l0,0
		C54.6,79.6,54.9,79.8,55.2,79.8z"/>
</g>
</svg>
