<svg id="XMLID_1_" xmlns="http://www.w3.org/2000/svg" width="1918.67" height="363.123" viewBox="0 0 1918.67 363.123">
  <path id="XMLID_612_" d="M140.7,26.848H115.719a1.829,1.829,0,1,1,0-3.658H140.7a1.829,1.829,0,1,1,0,3.658" transform="translate(5.907 34.131)" fill="#fff"/>
  <path id="XMLID_611_" d="M110.879,205.019a1.825,1.825,0,0,1-1.829-1.829V75.027h-.89a2.948,2.948,0,0,1-2.941-2.941V54.911a2.948,2.948,0,0,1,2.941-2.941H173.8a2.932,2.932,0,0,1,2.941,2.941V72.087a2.948,2.948,0,0,1-2.941,2.941h-.914V202.449a1.829,1.829,0,0,1-3.658,0V71.345h3.831V55.652h-64.18V71.345h3.831v131.82a1.846,1.846,0,0,1-1.829,1.854" transform="translate(-6.849 76.476)" fill="#fff"/>
  <path id="XMLID_610_" d="M126.909,179.217a1.825,1.825,0,0,1-1.829-1.829V69.589a1.829,1.829,0,1,1,3.658,0v107.8a1.825,1.825,0,0,1-1.829,1.829" transform="translate(22.371 99.708)" fill="#fff"/>
  <path id="XMLID_609_" d="M114.529,178.846a1.825,1.825,0,0,1-1.829-1.829V69.589a1.829,1.829,0,1,1,3.658,0V177.017a1.825,1.825,0,0,1-1.829,1.829" transform="translate(4.156 99.708)" fill="#fff"/>
  <path id="XMLID_608_" d="M168.775,71.418H108.6a1.829,1.829,0,0,1,0-3.658h60.177a1.829,1.829,0,0,1,0,3.658" transform="translate(-4.569 99.708)" fill="#fff"/>
  <path id="XMLID_607_" d="M168.775,63.478H108.6a1.829,1.829,0,0,1,0-3.658h60.177a1.829,1.829,0,0,1,0,3.658" transform="translate(-4.569 88.026)" fill="#fff"/>
  <path id="XMLID_606_" d="M129.509,83.1a1.825,1.825,0,0,1-1.829-1.829V61.649a1.829,1.829,0,1,1,3.658,0V81.271a1.825,1.825,0,0,1-1.829,1.829" transform="translate(26.196 88.026)" fill="#fff"/>
  <path id="XMLID_605_" d="M124.619,83.1a1.825,1.825,0,0,1-1.829-1.829V61.649a1.829,1.829,0,1,1,3.658,0V81.271a1.825,1.825,0,0,1-1.829,1.829" transform="translate(19.002 88.026)" fill="#fff"/>
  <path id="XMLID_604_" d="M117.259,83.1a1.825,1.825,0,0,1-1.829-1.829V61.649a1.829,1.829,0,1,1,3.658,0V81.271a1.825,1.825,0,0,1-1.829,1.829" transform="translate(8.173 88.026)" fill="#fff"/>
  <path id="XMLID_603_" d="M112.369,83.1a1.825,1.825,0,0,1-1.829-1.829V61.649a1.829,1.829,0,0,1,3.658,0V81.271a1.825,1.825,0,0,1-1.829,1.829" transform="translate(0.978 88.026)" fill="#fff"/>
  <path id="XMLID_600_" d="M126.963,63.246h0a12.234,12.234,0,1,1,8.65-3.583,12.278,12.278,0,0,1-8.65,3.583m0-20.784a8.551,8.551,0,1,0,0,17.1h0a8.588,8.588,0,0,0,6.055-2.5,8.532,8.532,0,0,0,0-12.109,8.588,8.588,0,0,0-6.055-2.5" transform="translate(7.143 57.069)" fill="#fff"/>
  <path id="XMLID_597_" d="M150.157,73.9H111.95V36.04h38.207Zm-34.549-3.658H146.5V39.722H115.608Z" transform="translate(3.053 53.038)" fill="#fff"/>
  <path id="XMLID_596_" d="M167.248,132.124a1.825,1.825,0,0,1-1.829-1.829V92.755h-9.762V79.781h-5.116l.643-2.323A16.879,16.879,0,0,0,148.367,62.7l-1.557-2.051,1.952-.643V57.416h-2.323L142.46,22.4l1.063-.593a11.008,11.008,0,0,0,3.9-3.707c.222-.371.4-.667.568-.989l.124-.247c.124-.3.272-.593.371-.914l.247-.766c.025-.1.074-.222.1-.321a15.72,15.72,0,0,0,.247-1.582l.049-.667c0-.148.025-.321.025-.47l-.025-.321c0-.173-.025-.371-.025-.544-.025-.321-.074-.643-.124-.964l-.074-.47c-.074-.346-.173-.667-.272-.989l-.074-.222A10.284,10.284,0,0,0,148,7.3c-.074-.148-.148-.272-.222-.4l-.42-.692c-.173-.247-.346-.47-.519-.717l-.247-.3a7.036,7.036,0,0,0-.568-.643c-.272-.3-.568-.568-.865-.84a7.352,7.352,0,0,1,1.359,2.447,8.467,8.467,0,0,1,.42,2.595,8.656,8.656,0,0,1-.2,1.779,2.839,2.839,0,0,1-.049.346c-.074.272-.173.544-.272.816l-.074.2c-.148.42-.272.692-.4.964a9.553,9.553,0,0,1-.667,1.063c-.2.272-.346.47-.519.667a7.565,7.565,0,0,1-.89.89c-.2.173-.445.346-.667.519a9.552,9.552,0,0,1-1.063.667,7.092,7.092,0,0,1-.914.371,8.485,8.485,0,0,1-1.038.346,7.661,7.661,0,0,1-.964.148l-.247.025a6.565,6.565,0,0,1-1.705,0l.049-1.853-.3,1.8a6.18,6.18,0,0,1-.939-.148,6.6,6.6,0,0,1-.989-.321,7.919,7.919,0,0,1-.989-.42,9.864,9.864,0,0,1-1.087-.667l-.667-.519a10.322,10.322,0,0,1-.914-.89c-.173-.2-.321-.42-.47-.618a11.909,11.909,0,0,1-.717-1.112,9.089,9.089,0,0,1-.371-.865l-.124-.3a5.262,5.262,0,0,1-.272-.816l-.074-.371a9.06,9.06,0,0,1-.2-1.73,8.208,8.208,0,0,1,.4-2.5,14.3,14.3,0,0,1,1.013-2.175c-.173.148-.321.3-.494.47-.2.222-.4.445-.568.667l-.247.3a6.994,6.994,0,0,0-.494.692,1.84,1.84,0,0,0-.173.3l-.247.42-.222.371a10.493,10.493,0,0,0-.519,1.211l-.1.346c-.1.321-.2.667-.272,1.013-.025.148-.049.272-.074.42a7.543,7.543,0,0,0-.124,1.013,4,4,0,0,0-.025.544l-.025.272a3.167,3.167,0,0,0,.025.519l.049.667a9.144,9.144,0,0,0,.247,1.433l.049.247a2.094,2.094,0,0,1,.074.222l.247.766c.124.321.247.618.4.914l.1.247c.173.321.321.643.519.939a11.192,11.192,0,0,0,3.979,3.781l1.063.593L129.807,57.44h-2.323v2.595l1.952.643-1.557,2.051a17.129,17.129,0,0,0-3.064,6.673,16.87,16.87,0,0,0,.247,8.081l.643,2.323h-5.116V92.78h-9.762V130.32a1.829,1.829,0,1,1-3.658,0V92.039a2.932,2.932,0,0,1,2.941-2.941h.964v-.568a2.948,2.948,0,0,1,2.941-2.941h1.31a2.983,2.983,0,0,1,1.606.47V79.04a2.943,2.943,0,0,1,2.916-2.941h1.162a20.543,20.543,0,0,1,3.04-14.383,2.761,2.761,0,0,1-.247-1.186V56.674a2.942,2.942,0,0,1,2.718-2.941l3.336-29.409a14.82,14.82,0,0,1-4.2-4.3,10.44,10.44,0,0,1-.741-1.335l-.148-.321a10.872,10.872,0,0,1-.519-1.236l-.148-.445-.124-.4a6.806,6.806,0,0,1-.2-.667l-.049-.247a13.722,13.722,0,0,1-.3-1.8,2.4,2.4,0,0,1-.025-.42l-.025-.346c-.025-.247-.049-.494-.049-.741a1.869,1.869,0,0,1,.025-.371c.025-.321.025-.568.049-.791.025-.445.1-.865.148-1.285.049-.222.074-.42.124-.618a12.207,12.207,0,0,1,.371-1.359c.074-.222.1-.346.148-.47a13.111,13.111,0,0,1,.692-1.606,4.968,4.968,0,0,1,.346-.618l.124-.2c.2-.321.272-.47.371-.618.2-.3.445-.618.667-.914l.321-.4c.247-.3.494-.593.741-.865.346-.371.717-.717,1.087-1.063a3.723,3.723,0,0,1,4.671-.148,3.674,3.674,0,0,1,.791,4.671,8.72,8.72,0,0,0-.964,1.928,4.882,4.882,0,0,0-.2,1.359,6.128,6.128,0,0,0,.124,1.038l.049.272a2.32,2.32,0,0,0,.1.247l.1.272a4.5,4.5,0,0,0,.222.593,4.123,4.123,0,0,0,.4.593,3.26,3.26,0,0,0,.3.4,3.573,3.573,0,0,0,.544.519c.124.1.247.2.4.3a4.045,4.045,0,0,0,.643.4,2.945,2.945,0,0,0,.494.2,2.839,2.839,0,0,0,.643.222c.148.025.321.049.47.074l.371.049a3.473,3.473,0,0,0,.717,0l.222-.025c.321-.025.494-.049.667-.074a2.2,2.2,0,0,0,.47-.173,5.123,5.123,0,0,0,.667-.272,4.315,4.315,0,0,0,.618-.4c.124-.1.272-.2.4-.3a3.435,3.435,0,0,0,.519-.519c.1-.124.173-.222.272-.346a7.821,7.821,0,0,0,.445-.667,3.012,3.012,0,0,0,.173-.42l.173-.42c.049-.1.074-.2.124-.321a.793.793,0,0,1,.025-.2,4.476,4.476,0,0,0,.124-1.038,5.2,5.2,0,0,0-.222-1.433,9.207,9.207,0,0,0-.939-1.829A3.645,3.645,0,0,1,142.93.773,3.723,3.723,0,0,1,147.6.921c.371.321.741.692,1.112,1.063.247.272.519.568.741.84l.3.4c.222.3.47.618.667.939a4.3,4.3,0,0,1,.272.445l.222.346c.124.2.247.42.371.643a13.658,13.658,0,0,1,.692,1.606c.049.124.074.247.124.346.173.568.3,1.013.4,1.483.025.173.074.346.1.519a10.545,10.545,0,0,1,.173,1.384c.025.247.025.494.049.741a3.171,3.171,0,0,1,.025.445c0,.247-.025.494-.025.741l-.025.2c0,.272-.025.42-.025.544a13.877,13.877,0,0,1-.321,1.9,6.023,6.023,0,0,1-.222.816l-.074.222c-.1.321-.148.47-.2.618a10.507,10.507,0,0,1-.519,1.211l-.173.321a12.126,12.126,0,0,1-.692,1.236,14.71,14.71,0,0,1-4.2,4.35L149.7,53.709a2.941,2.941,0,0,1,2.718,2.941V60.5a2.76,2.76,0,0,1-.247,1.186,20.542,20.542,0,0,1,3.04,14.383h1.161a2.948,2.948,0,0,1,2.941,2.941v7.019a2.983,2.983,0,0,1,1.606-.47h1.31a2.948,2.948,0,0,1,2.941,2.941l.074.568.914.025a2.922,2.922,0,0,1,2.891,2.941V130.32a1.783,1.783,0,0,1-1.8,1.8" transform="translate(-3.98 0.005)" fill="#fff"/>
  <rect id="XMLID_595_" width="11.689" height="11.689" transform="translate(125.845 108.07) rotate(-45)" fill="#fff"/>
  <path id="XMLID_594_" d="M182.272,56.54h-7.389V54.711a8.738,8.738,0,0,0-8.724-8.724,1.829,1.829,0,0,1,0-3.658,12.379,12.379,0,0,1,12.233,10.553h.321A12.423,12.423,0,0,1,190.971,42.33a1.829,1.829,0,0,1,0,3.658,8.722,8.722,0,0,0-8.724,8.724V56.54Z" transform="translate(80.12 62.292)" fill="#fff"/>
  <path id="XMLID_593_" d="M403.777,230.158a1.825,1.825,0,0,1-1.829-1.829V140.919l-3.633-6.9a4.412,4.412,0,0,1-.2-.519,4.54,4.54,0,0,1-.148-.989v-9.811a3.807,3.807,0,0,1,3.806-3.806h2.916V95.768L401.8,90.257a2.529,2.529,0,0,1-.2-.568,4.543,4.543,0,0,1-.148-.989V80.668a3.781,3.781,0,0,1,3.781-3.781h3.855V63.023a27.331,27.331,0,0,1,6.178-18.041,14.962,14.962,0,0,1,2.422-2.422c.618-.519,1.755-1.532,1.779-1.9A1.9,1.9,0,0,1,421.4,38.9a1.778,1.778,0,0,1,1.755,1.755c0,2.026-1.631,3.435-3.064,4.671a13.366,13.366,0,0,0-1.878,1.853c-2.446,3.287-5.461,7.365-5.461,15.866V80.594h-7.513l-.124,8.155.074.2L408.35,94.9v27.7h-6.574l-.123,9.935.1.222,3.855,7.29v88.3a1.836,1.836,0,0,1-1.829,1.8" transform="translate(423.88 57.243)" fill="#fff"/>
  <path id="XMLID_592_" d="M405.52,35.03c0,1.9,3.089,3.534,4.72,4.275" transform="translate(434.988 51.552)" fill="#fff"/>
  <path id="XMLID_591_" d="M411.329,42.223a1.727,1.727,0,0,1-.766-.173c-3.88-1.8-5.783-3.732-5.783-5.931a1.829,1.829,0,1,1,3.658,0c.025.222.741,1.285,3.633,2.62a1.826,1.826,0,0,1,.89,2.422,1.75,1.75,0,0,1-1.631,1.063" transform="translate(433.9 50.463)" fill="#fff"/>
  <path id="XMLID_590_" d="M407.43,39.305c1.631-.741,4.72-2.372,4.72-4.275" transform="translate(437.799 51.552)" fill="#fff"/>
  <path id="XMLID_589_" d="M408.516,42.223a1.827,1.827,0,0,1-.766-3.485c2.916-1.335,3.608-2.422,3.633-2.62a1.829,1.829,0,1,1,3.657,0c0,2.2-1.9,4.152-5.783,5.931a1.557,1.557,0,0,1-.741.173" transform="translate(436.713 50.463)" fill="#fff"/>
  <line id="XMLID_588_" y1="7.043" transform="translate(845.228 90.857)" fill="#fff"/>
  <path id="XMLID_587_" d="M408.519,46.721a1.825,1.825,0,0,1-1.829-1.829V37.849a1.829,1.829,0,0,1,3.658,0v7.043a1.825,1.825,0,0,1-1.829,1.829" transform="translate(436.71 53.008)" fill="#fff"/>
  <path id="XMLID_586_" d="M425.225,230.2a1.825,1.825,0,0,1-1.829-1.829V140.046l3.954-7.463.025-9.861-6.722-.124V94.92l3.287-6.277-.049-7.884-6.8-.124V63.089c0-8.5-3.04-12.579-5.462-15.866a14.859,14.859,0,0,0-1.878-1.853c-1.433-1.236-3.064-2.644-3.064-4.671a1.829,1.829,0,1,1,3.658,0c.025.371,1.186,1.359,1.8,1.9a16.036,16.036,0,0,1,2.422,2.422,27.188,27.188,0,0,1,6.2,18.041V76.928h2.99a3.781,3.781,0,0,1,3.781,3.781v8.032a3.07,3.07,0,0,1-.1.816l-.074.272a3.072,3.072,0,0,1-.148.445l-.124.272-2.792,5.239v23.132h2.916a3.807,3.807,0,0,1,3.806,3.806v9.811a3.07,3.07,0,0,1-.1.816l-.074.247a2.832,2.832,0,0,1-.173.47l-.1.222-3.534,6.648v87.386a1.852,1.852,0,0,1-1.829,1.878" transform="translate(436.71 57.202)" fill="#fff"/>
  <line id="XMLID_585_" y1="23.947" transform="translate(844.685 154.049)" fill="#fff"/>
  <path id="XMLID_584_" d="M408.3,89.195a1.825,1.825,0,0,1-1.829-1.829V63.419a1.829,1.829,0,1,1,3.658,0V87.366a1.824,1.824,0,0,1-1.829,1.829" transform="translate(436.386 90.63)" fill="#fff"/>
  <line id="XMLID_583_" y1="23.947" transform="translate(836.134 154.049)" fill="#fff"/>
  <path id="XMLID_582_" d="M404.839,89.195a1.825,1.825,0,0,1-1.829-1.829V63.419a1.829,1.829,0,1,1,3.657,0V87.366a1.841,1.841,0,0,1-1.829,1.829" transform="translate(431.295 90.63)" fill="#fff"/>
  <line id="XMLID_581_" y1="23.947" transform="translate(852.346 154.049)" fill="#fff"/>
  <path id="XMLID_580_" d="M411.4,89.195a1.825,1.825,0,0,1-1.829-1.829V63.419a1.829,1.829,0,0,1,3.658,0V87.366a1.841,1.841,0,0,1-1.829,1.829" transform="translate(440.947 90.63)" fill="#fff"/>
  <line id="XMLID_579_" y2="61.808" transform="translate(834.453 199.175)" fill="#fff"/>
  <path id="XMLID_578_" d="M404.159,145.3a1.825,1.825,0,0,1-1.829-1.829V81.689a1.829,1.829,0,1,1,3.657,0v61.783a1.825,1.825,0,0,1-1.829,1.829" transform="translate(430.295 117.511)" fill="#fff"/>
  <line id="XMLID_577_" y1="61.808" transform="translate(855.559 199.175)" fill="#fff"/>
  <path id="XMLID_576_" d="M412.7,145.3a1.825,1.825,0,0,1-1.829-1.829V81.689a1.829,1.829,0,0,1,3.658,0v61.783A1.825,1.825,0,0,1,412.7,145.3" transform="translate(442.86 117.511)" fill="#fff"/>
  <line id="XMLID_575_" x1="0.198" y2="63.538" transform="translate(844.784 199.175)" fill="#fff"/>
  <path id="XMLID_574_" d="M408.339,147.045h0a1.825,1.825,0,0,1-1.829-1.829l.2-63.538a1.825,1.825,0,0,1,1.829-1.829h0a1.825,1.825,0,0,1,1.829,1.829l-.173,63.562a1.841,1.841,0,0,1-1.853,1.8" transform="translate(436.445 117.496)" fill="#fff"/>
  <path id="XMLID_573_" d="M404.159,130.933a1.825,1.825,0,0,1-1.829-1.829V115.561l.618-.544c.124-.1,10.33-9.267,10.33-9.267l2.447,2.718s-7.488,6.722-9.737,8.724V129.1a1.825,1.825,0,0,1-1.829,1.829" transform="translate(430.295 155.604)" fill="#fff"/>
  <path id="XMLID_572_" d="M419.1,132.069a1.825,1.825,0,0,1-1.829-1.829V117.661l-10.132-8.872a1.839,1.839,0,1,1,2.422-2.768l11.393,9.959v14.235a1.883,1.883,0,0,1-1.853,1.854" transform="translate(436.454 155.333)" fill="#fff"/>
  <path id="XMLID_571_" d="M398.72,74.88h42.185" transform="translate(424.983 110.184)" fill="#fff"/>
  <path id="XMLID_570_" d="M441.994,77.8H399.809a1.829,1.829,0,0,1,0-3.658h42.185a1.829,1.829,0,0,1,0,3.658" transform="translate(423.894 109.095)" fill="#fff"/>
  <path id="XMLID_569_" d="M399.5,78.46h38.306" transform="translate(426.131 115.451)" fill="#fff"/>
  <path id="XMLID_568_" d="M438.9,81.378H400.6a1.829,1.829,0,0,1,0-3.658H438.9a1.829,1.829,0,0,1,0,3.658" transform="translate(425.057 114.362)" fill="#fff"/>
  <line id="XMLID_567_" x2="33.017" transform="translate(828.226 148.464)" fill="#fff"/>
  <path id="XMLID_566_" d="M434.641,62.988H401.649a1.829,1.829,0,0,1,0-3.658h32.992a1.829,1.829,0,0,1,0,3.658" transform="translate(426.602 87.305)" fill="#fff"/>
  <line id="XMLID_565_" x2="35.241" transform="translate(827.163 141.445)" fill="#fff"/>
  <path id="XMLID_564_" d="M436.45,60.148H401.209a1.829,1.829,0,1,1,0-3.658H436.45a1.829,1.829,0,0,1,0,3.658" transform="translate(425.954 83.126)" fill="#fff"/>
  <path id="XMLID_563_" d="M409.091,61.21c-1.9,0-4.671-1.483-4.671-3.781v-6.87a1.829,1.829,0,1,1,3.657,0v6.6a2.132,2.132,0,0,0,1.013.4,1.875,1.875,0,0,0,.939-.4,1.838,1.838,0,0,1,3.657.247c0,2.348-2.669,3.806-4.6,3.806" transform="translate(433.37 71.709)" fill="#fff"/>
  <path id="XMLID_562_" d="M411.262,61.21c-1.928,0-4.572-1.433-4.572-3.781v-6.87a1.829,1.829,0,1,1,3.658,0v6.623a1.759,1.759,0,0,0,.914.371,2.13,2.13,0,0,0,1.013-.4v-6.6a1.829,1.829,0,0,1,3.658,0v6.87c0,2.3-2.768,3.781-4.671,3.781" transform="translate(436.71 71.709)" fill="#fff"/>
  <path id="XMLID_561_" d="M409.69,49.46" transform="translate(441.124 72.783)" fill="#fff"/>
  <path id="XMLID_560_" d="M410.764,52.365a1.9,1.9,0,0,1-1.285-.544,1.772,1.772,0,0,1-.519-1.285,1.813,1.813,0,0,1,.519-1.285,1.875,1.875,0,0,1,2.57-.025,1.841,1.841,0,0,1-1.285,3.139" transform="translate(440.05 71.707)" fill="#fff"/>
  <path id="XMLID_559_" d="M571.724,195.763H557.144V119.152H350.418v74.757a1.829,1.829,0,1,1-3.658,0V115.642a2.373,2.373,0,0,1,2.372-2.372h.692a2.379,2.379,0,0,1,2.373,2.224h1.755a2.379,2.379,0,0,1,2.372-2.224h.692a2.379,2.379,0,0,1,2.372,2.224h1.755a2.379,2.379,0,0,1,2.372-2.224h.692a2.379,2.379,0,0,1,2.372,2.224h1.73a2.379,2.379,0,0,1,2.372-2.224h.692a2.379,2.379,0,0,1,2.372,2.224h1.73a2.379,2.379,0,0,1,2.372-2.224h.717a2.379,2.379,0,0,1,2.372,2.224h1.73a2.379,2.379,0,0,1,2.372-2.224h.692a2.379,2.379,0,0,1,2.372,2.224h1.755a2.379,2.379,0,0,1,2.372-2.224h.717a2.379,2.379,0,0,1,2.372,2.224h1.755a2.379,2.379,0,0,1,2.372-2.224h.692a2.379,2.379,0,0,1,2.372,2.224h1.73a2.379,2.379,0,0,1,2.372-2.224h.692a2.379,2.379,0,0,1,2.373,2.224h1.73a2.379,2.379,0,0,1,2.372-2.224h.717a2.379,2.379,0,0,1,2.372,2.224h1.73a2.379,2.379,0,0,1,2.372-2.224h.692a2.379,2.379,0,0,1,2.372,2.224h1.755a2.38,2.38,0,0,1,2.373-2.224h.692a2.379,2.379,0,0,1,2.372,2.224h1.755a2.379,2.379,0,0,1,2.372-2.224h.692a2.379,2.379,0,0,1,2.372,2.224h1.73a2.379,2.379,0,0,1,2.372-2.224h.692a2.379,2.379,0,0,1,2.372,2.224h1.73a2.379,2.379,0,0,1,2.372-2.224h.717a2.379,2.379,0,0,1,2.372,2.224h1.73a2.379,2.379,0,0,1,2.372-2.224h.692a2.379,2.379,0,0,1,2.372,2.224h1.73a2.379,2.379,0,0,1,2.372-2.224h.692a2.379,2.379,0,0,1,2.372,2.224h1.755a2.379,2.379,0,0,1,2.372-2.224h.692a2.379,2.379,0,0,1,2.372,2.224h1.755a2.379,2.379,0,0,1,2.372-2.224h.692a2.379,2.379,0,0,1,2.372,2.224h1.73a2.379,2.379,0,0,1,2.372-2.224h.692a2.379,2.379,0,0,1,2.372,2.224h1.73a2.379,2.379,0,0,1,2.372-2.224h.692a2.379,2.379,0,0,1,2.372,2.224h1.73a2.379,2.379,0,0,1,2.372-2.224h.692A2.379,2.379,0,0,1,503,115.494h1.755a2.379,2.379,0,0,1,2.372-2.224h.692a2.38,2.38,0,0,1,2.373,2.224h1.754a2.38,2.38,0,0,1,2.373-2.224h.692a2.379,2.379,0,0,1,2.372,2.224h1.73a2.379,2.379,0,0,1,2.372-2.224h.692a2.379,2.379,0,0,1,2.372,2.224h1.73a2.379,2.379,0,0,1,2.373-2.224h.692a2.379,2.379,0,0,1,2.372,2.224h1.73a2.379,2.379,0,0,1,2.372-2.224h.692a2.379,2.379,0,0,1,2.372,2.224h1.755a2.379,2.379,0,0,1,2.372-2.224h.717a2.379,2.379,0,0,1,2.372,2.224h1.755a2.379,2.379,0,0,1,2.373-2.224h.692a2.379,2.379,0,0,1,2.372,2.224h1.73a2.379,2.379,0,0,1,2.373-2.224h.692a2.373,2.373,0,0,1,2.372,2.372V192.08h10.923c1.013,0,16.632.816,16.632,1.829.347,1.013-15.272,1.853-16.285,1.853" transform="translate(348.534 166.668)" fill="#fff"/>
  <line id="XMLID_558_" y2="31.41" transform="translate(858.327 329.191)" fill="#fff"/>
  <path id="XMLID_557_" d="M413.819,167.528a1.825,1.825,0,0,1-1.829-1.829v-31.41a1.829,1.829,0,1,1,3.658,0V165.7a1.825,1.825,0,0,1-1.829,1.829" transform="translate(444.508 194.902)" fill="#fff"/>
  <line id="XMLID_556_" y2="31.41" transform="translate(835.294 329.191)" fill="#fff"/>
  <path id="XMLID_555_" d="M404.5,167.528a1.825,1.825,0,0,1-1.829-1.829v-31.41a1.829,1.829,0,1,1,3.657,0V165.7a1.841,1.841,0,0,1-1.829,1.829" transform="translate(430.795 194.902)" fill="#fff"/>
  <line id="XMLID_554_" y2="31.41" transform="translate(812.385 329.191)" fill="#fff"/>
  <path id="XMLID_553_" d="M395.229,167.528A1.825,1.825,0,0,1,393.4,165.7v-31.41a1.829,1.829,0,1,1,3.658,0V165.7a1.841,1.841,0,0,1-1.829,1.829" transform="translate(417.156 194.902)" fill="#fff"/>
  <line id="XMLID_552_" y2="31.41" transform="translate(789.278 329.191)" fill="#fff"/>
  <path id="XMLID_551_" d="M385.879,167.528a1.825,1.825,0,0,1-1.829-1.829v-31.41a1.829,1.829,0,0,1,3.658,0V165.7a1.841,1.841,0,0,1-1.829,1.829" transform="translate(403.399 194.902)" fill="#fff"/>
  <line id="XMLID_550_" y2="31.41" transform="translate(880.988 329.191)" fill="#fff"/>
  <path id="XMLID_549_" d="M422.989,167.528a1.825,1.825,0,0,1-1.829-1.829v-31.41a1.829,1.829,0,1,1,3.658,0V165.7a1.84,1.84,0,0,1-1.829,1.829" transform="translate(458 194.902)" fill="#fff"/>
  <line id="XMLID_548_" y2="31.41" transform="translate(904.046 329.191)" fill="#fff"/>
  <path id="XMLID_547_" d="M432.319,167.528a1.825,1.825,0,0,1-1.829-1.829v-31.41a1.829,1.829,0,1,1,3.657,0V165.7a1.84,1.84,0,0,1-1.829,1.829" transform="translate(471.727 194.902)" fill="#fff"/>
  <line id="XMLID_546_" y2="31.41" transform="translate(766.64 329.191)" fill="#fff"/>
  <path id="XMLID_545_" d="M376.719,167.528a1.825,1.825,0,0,1-1.829-1.829v-31.41a1.829,1.829,0,1,1,3.658,0V165.7a1.841,1.841,0,0,1-1.829,1.829" transform="translate(389.922 194.902)" fill="#fff"/>
  <line id="XMLID_544_" y2="31.41" transform="translate(743.855 329.191)" fill="#fff"/>
  <path id="XMLID_543_" d="M367.5,167.528a1.825,1.825,0,0,1-1.829-1.829v-31.41a1.829,1.829,0,0,1,3.658,0V165.7a1.841,1.841,0,0,1-1.829,1.829" transform="translate(376.356 194.902)" fill="#fff"/>
  <line id="XMLID_542_" y2="31.41" transform="translate(720.229 329.191)" fill="#fff"/>
  <path id="XMLID_541_" d="M357.939,167.528a1.825,1.825,0,0,1-1.829-1.829v-31.41a1.829,1.829,0,1,1,3.658,0V165.7a1.824,1.824,0,0,1-1.829,1.829" transform="translate(362.29 194.902)" fill="#fff"/>
  <path id="XMLID_540_" d="M558.907,130.382h-4.053V126.9a.416.416,0,0,0-.123-.3l-.049-.049a.4.4,0,0,0-.272-.1h-1.236a.487.487,0,0,0-.321.124.416.416,0,0,0-.123.3v3.485h-8.353v-3.485a.416.416,0,0,0-.123-.3l-.049-.049a.4.4,0,0,0-.272-.1H542.7a.422.422,0,0,0-.42.42v3.485h-8.353v-3.485a.417.417,0,0,0-.123-.3l-.049-.049a.4.4,0,0,0-.272-.1h-1.236a.417.417,0,0,0-.3.124.423.423,0,0,0-.148.3v3.485h-8.353v-3.485a.416.416,0,0,0-.124-.3l-.049-.049a.4.4,0,0,0-.272-.1h-1.236a.422.422,0,0,0-.42.42v3.485h-8.353V126.8a.417.417,0,0,0-.123-.3l-.05-.049a.4.4,0,0,0-.272-.1H511.31a.422.422,0,0,0-.42.42v3.485h-8.353v-3.485a.416.416,0,0,0-.124-.3l-.049-.025a.4.4,0,0,0-.272-.1h-1.236a.421.421,0,0,0-.42.42v3.485h-8.353v-3.485a.416.416,0,0,0-.124-.3l-.049-.049a.4.4,0,0,0-.272-.1H490.4a.422.422,0,0,0-.42.42v3.485H481.63v-3.485a.417.417,0,0,0-.124-.3l-.049-.049a.4.4,0,0,0-.272-.1h-1.236a.487.487,0,0,0-.321.124.416.416,0,0,0-.124.3v3.485h-8.353v-3.485a.417.417,0,0,0-.123-.3l-.049-.049a.4.4,0,0,0-.272-.1h-1.236a.422.422,0,0,0-.42.42v3.485H460.7V126.7a.416.416,0,0,0-.123-.3l-.049-.049a.4.4,0,0,0-.272-.1h-1.236a.416.416,0,0,0-.3.124.423.423,0,0,0-.148.3v3.485H450.22v-3.485a.417.417,0,0,0-.124-.3l-.049-.049a.4.4,0,0,0-.272-.1h-1.236a.416.416,0,0,0-.3.124.422.422,0,0,0-.148.3v3.485h-8.353v-3.485a.416.416,0,0,0-.124-.3l-.049-.049a.4.4,0,0,0-.272-.1h-1.236a.422.422,0,0,0-.42.42v3.485h-8.353v-3.485a.416.416,0,0,0-.124-.3l-.049-.025a.4.4,0,0,0-.272-.1h-1.236a.422.422,0,0,0-.42.42v3.485h-8.353v-3.485a.417.417,0,0,0-.124-.3l-.049-.025a.4.4,0,0,0-.272-.1h-1.236a.37.37,0,0,0-.3.124.416.416,0,0,0-.124.3v3.485h-8.353v-3.485a.416.416,0,0,0-.124-.3l-.049-.049a.4.4,0,0,0-.272-.1H406.7a.422.422,0,0,0-.42.42v3.485h-8.353V126.6a.416.416,0,0,0-.124-.3l-.049-.049a.4.4,0,0,0-.272-.1h-1.236a.422.422,0,0,0-.42.42v3.485H387.5v-3.485a.416.416,0,0,0-.123-.3l-.049-.049a.4.4,0,0,0-.272-.1h-1.236a.422.422,0,0,0-.42.42v3.485h-8.353v-3.485a.416.416,0,0,0-.124-.3l-.049-.049a.4.4,0,0,0-.272-.1h-1.236a.422.422,0,0,0-.42.42v3.485h-8.353v-3.485a.416.416,0,0,0-.124-.3l-.049-.049a.4.4,0,0,0-.272-.1h-1.236a.422.422,0,0,0-.42.42v3.485h-8.353V126.5a.416.416,0,0,0-.124-.3l-.049-.025a.4.4,0,0,0-.272-.1h-1.236a.422.422,0,0,0-.42.42v3.485H348.65a1.829,1.829,0,0,1,0-3.658h1.73a4.206,4.206,0,0,1,1.186-2.718,4.039,4.039,0,0,1,2.892-1.211h1.236a4,4,0,0,1,2.892,1.211l.544.667a4.291,4.291,0,0,1,.667,2.051h1.038a4.206,4.206,0,0,1,1.186-2.718,4.039,4.039,0,0,1,2.891-1.211h1.236a4,4,0,0,1,2.892,1.211l.544.667a4.292,4.292,0,0,1,.667,2.051h1.038a4.206,4.206,0,0,1,1.186-2.718,4.039,4.039,0,0,1,2.892-1.211H376.6a4,4,0,0,1,2.892,1.211l.544.667a4.291,4.291,0,0,1,.667,2.051h1.038a4.205,4.205,0,0,1,1.186-2.718,4.039,4.039,0,0,1,2.891-1.211h1.236a4,4,0,0,1,2.892,1.211l.544.667a4.291,4.291,0,0,1,.667,2.051h.989a4.206,4.206,0,0,1,1.186-2.718,4.1,4.1,0,0,1,2.916-1.211h1.236a4,4,0,0,1,2.892,1.211l.544.667a4.292,4.292,0,0,1,.667,2.051h1.038a4.206,4.206,0,0,1,1.186-2.718A4.04,4.04,0,0,1,406.7,122.4h1.236a4,4,0,0,1,2.891,1.211l.544.667a4.291,4.291,0,0,1,.667,2.051h1.038a4.206,4.206,0,0,1,1.186-2.718,4.054,4.054,0,0,1,2.916-1.211h1.236a4,4,0,0,1,2.891,1.211l.544.667a4.291,4.291,0,0,1,.667,2.051h1.038a4.205,4.205,0,0,1,1.186-2.718,4.1,4.1,0,0,1,2.916-1.211h1.236a4,4,0,0,1,2.891,1.211l.544.667a4.291,4.291,0,0,1,.667,2.051h1.013a4.206,4.206,0,0,1,1.186-2.718,4.1,4.1,0,0,1,2.916-1.211h1.236a4,4,0,0,1,2.892,1.211l.544.667a4.293,4.293,0,0,1,.667,2.051h1.038a4.206,4.206,0,0,1,1.186-2.718,4.039,4.039,0,0,1,2.891-1.211H449.8a4,4,0,0,1,2.891,1.211l.544.667a4.291,4.291,0,0,1,.667,2.051h1.038a4.206,4.206,0,0,1,1.186-2.718,4.039,4.039,0,0,1,2.892-1.211h1.236a4,4,0,0,1,2.891,1.211l.544.667a4.29,4.29,0,0,1,.667,2.051H465.4a4.206,4.206,0,0,1,1.186-2.718A4.1,4.1,0,0,1,469.5,122.4h1.236a4,4,0,0,1,2.891,1.211l.544.667a4.29,4.29,0,0,1,.667,2.051h1.038a4.205,4.205,0,0,1,1.186-2.718,4.054,4.054,0,0,1,2.916-1.211h1.236a4,4,0,0,1,2.891,1.211l.544.667a4.292,4.292,0,0,1,.667,2.051h1.038a4.205,4.205,0,0,1,1.186-2.718,4.039,4.039,0,0,1,2.891-1.211h1.236a4,4,0,0,1,2.892,1.211l.544.667a4.294,4.294,0,0,1,.667,2.051h1.038a4.206,4.206,0,0,1,1.186-2.718,4.1,4.1,0,0,1,2.916-1.211h1.236a4,4,0,0,1,2.891,1.211l.544.667a4.291,4.291,0,0,1,.667,2.051h1.013a4.206,4.206,0,0,1,1.186-2.718,4.1,4.1,0,0,1,2.916-1.211H512.6a4,4,0,0,1,2.891,1.211l.544.667a4.289,4.289,0,0,1,.667,2.051h1.038a4.206,4.206,0,0,1,1.186-2.718,4.04,4.04,0,0,1,2.891-1.211h1.236a4,4,0,0,1,2.891,1.211l.544.667a4.292,4.292,0,0,1,.667,2.051h1.038a4.205,4.205,0,0,1,1.186-2.718,4.039,4.039,0,0,1,2.891-1.211h1.236a4,4,0,0,1,2.892,1.211l.544.667a4.291,4.291,0,0,1,.667,2.051h1.038a4.206,4.206,0,0,1,1.186-2.718,4.1,4.1,0,0,1,2.916-1.211h1.236a4,4,0,0,1,2.891,1.211l.544.667a4.291,4.291,0,0,1,.667,2.051h1.038a4.206,4.206,0,0,1,1.186-2.718,4.054,4.054,0,0,1,2.916-1.211h1.236a4,4,0,0,1,2.891,1.211l.544.667a4.291,4.291,0,0,1,.667,2.051h.371a1.825,1.825,0,0,1,1.829,1.829c-.029,1.408-.869,2.224-1.857,2.224" transform="translate(348.623 180.101)" fill="#fff"/>
  <path id="XMLID_539_" d="M350.019,173.84a1.825,1.825,0,0,1-1.829-1.829V138.154a9.984,9.984,0,1,1,19.968,0v.124h3.04v-.124a9.984,9.984,0,1,1,19.968,0v.124h3.262v-.124a9.984,9.984,0,1,1,19.968,0v.124h3.064v-.124a9.984,9.984,0,1,1,19.968,0v.124h2.718v-.124a9.984,9.984,0,0,1,19.968,0v.124h3.04v-.124a9.984,9.984,0,1,1,19.968,0v.124h3.262v-.124a9.984,9.984,0,1,1,19.968,0v.124h2.62v-.124a9.984,9.984,0,0,1,19.968,0v.124h2.718v-.124a9.984,9.984,0,0,1,19.968,0v.124h5.19a1.829,1.829,0,1,1,0,3.658h-8.847v-3.781a6.327,6.327,0,1,0-12.653,0v3.781H525.285v-3.781a6.326,6.326,0,1,0-12.653,0v3.781h-9.96v-3.781a6.327,6.327,0,1,0-12.653,0v3.781h-10.6v-3.781a6.327,6.327,0,0,0-12.653,0v3.781H456.41v-3.781a6.327,6.327,0,1,0-12.653,0v3.781H433.723v-3.781a6.327,6.327,0,1,0-12.653,0v3.781h-10.4v-3.781a6.327,6.327,0,0,0-12.653,0v3.781H387.435v-3.781a6.327,6.327,0,0,0-12.653,0v3.781H364.427v-3.781a6.327,6.327,0,1,0-12.653,0v33.857a1.734,1.734,0,0,1-1.755,1.829" transform="translate(350.637 188.591)" fill="#fff"/>
  <path id="XMLID_538_" d="M433.027,119.35a1.825,1.825,0,0,1-1.829-1.829v-8.279H363.607v8.279a1.829,1.829,0,1,1-3.657,0V105.56h74.906v11.961a1.825,1.825,0,0,1-1.829,1.829" transform="translate(367.94 155.324)" fill="#fff"/>
  <path id="XMLID_537_" d="M429.661,114a1.825,1.825,0,0,1-1.829-1.829v-6.129H364.468v6.129a1.829,1.829,0,1,1-3.658,0V102.38h70.7v9.786A1.879,1.879,0,0,1,429.661,114" transform="translate(369.206 150.645)" fill="#fff"/>
  <path id="XMLID_536_" d="M427.98,110.251a1.825,1.825,0,0,1-1.829-1.829v-5.215H364.887v5.215a1.829,1.829,0,1,1-3.657,0V99.55h68.579v8.872a1.84,1.84,0,0,1-1.829,1.829" transform="translate(369.823 146.481)" fill="#fff"/>
  <line id="XMLID_535_" x1="79.774" transform="translate(725.444 274.279)" fill="#fff"/>
  <path id="XMLID_534_" d="M439.823,113.9H360.049a1.829,1.829,0,0,1,0-3.658h79.774a1.829,1.829,0,1,1,0,3.658" transform="translate(365.395 162.21)" fill="#fff"/>
  <path id="XMLID_533_" d="M362.531,133.62c-.544-.568-.643-.667-.445-5.165.741-16.088,10.9-22.563,20.734-28.84,2.076-1.31,4.2-2.669,6.252-4.127l.074-.049a5.309,5.309,0,0,1,2.1-3.658,3.646,3.646,0,0,1-.494-1.853,3.707,3.707,0,0,1,1.26-2.793,3.4,3.4,0,0,1-.988-2.4,3.474,3.474,0,0,1,1.112-2.545V80.339a1.829,1.829,0,1,1,3.658,0v4.177l-.593.2.593.2v4.6l-1.359.371,1.359.371v3.9l-1.582.222a1.718,1.718,0,0,0-1.458,1.656v1.335L391.173,98.5c-2.125,1.483-4.3,2.867-6.4,4.226-9.861,6.277-18.387,11.714-19.029,25.9-.074,1.8-.074,3.336-.074,3.559l-1.829.173Z" transform="translate(370.945 115.525)" fill="#fff"/>
  <path id="XMLID_532_" d="M407.775,133.606l-1.335-1.26-1.829-.173c.025-.222.025-1.755-.074-3.559-.643-14.185-9.169-19.622-19.029-25.9-2.1-1.335-4.275-2.718-6.4-4.226L377.6,97.426V96.017a1.658,1.658,0,0,0-1.458-1.656l-1.582-.222V90.358l1.359-.371-1.359-.371v-4.7l.593-.2-.593-.2V80.349a1.829,1.829,0,0,1,3.658,0V82.2a3.474,3.474,0,0,1,1.112,2.545,3.4,3.4,0,0,1-.989,2.4,3.723,3.723,0,0,1,.766,4.646,5.376,5.376,0,0,1,2.1,3.732c2.051,1.433,4.152,2.793,6.228,4.1,9.836,6.277,19.993,12.752,20.734,28.84.247,4.473.124,4.572-.4,5.14" transform="translate(389.436 115.539)" fill="#fff"/>
  <path id="XMLID_531_" d="M368.231,113.769v-3.583a2.194,2.194,0,0,0-.618-1.507,2.089,2.089,0,0,0-1.507-.618,2.11,2.11,0,0,0-2.125,2.125v3.583" transform="translate(373.87 159.002)" fill="#fff" fill-rule="evenodd"/>
  <path id="XMLID_530_" d="M369.319,116.668a1.825,1.825,0,0,1-1.829-1.829v-3.583a.313.313,0,0,0-.1-.222.425.425,0,0,0-.42,0,.469.469,0,0,0-.074.222v3.583a1.829,1.829,0,1,1-3.658,0v-3.583a3.926,3.926,0,0,1,1.162-2.793,4.045,4.045,0,0,1,5.61,0,3.969,3.969,0,0,1,1.161,2.793v3.583a1.878,1.878,0,0,1-1.854,1.829" transform="translate(372.781 157.932)" fill="#fff"/>
  <path id="XMLID_529_" d="M373.461,113.769v-3.583a2.195,2.195,0,0,0-.618-1.507,2.089,2.089,0,0,0-1.508-.618,2.194,2.194,0,0,0-1.507.618,2.089,2.089,0,0,0-.618,1.507v3.583" transform="translate(381.565 159.002)" fill="#fff" fill-rule="evenodd"/>
  <path id="XMLID_528_" d="M374.549,116.668a1.825,1.825,0,0,1-1.829-1.829v-3.583a.313.313,0,0,0-.1-.222.425.425,0,0,0-.42,0,.469.469,0,0,0-.074.222v3.583a1.829,1.829,0,1,1-3.658,0v-3.583a3.926,3.926,0,0,1,1.161-2.793,4.045,4.045,0,0,1,5.61,0,3.969,3.969,0,0,1,1.162,2.793v3.583a1.878,1.878,0,0,1-1.854,1.829" transform="translate(380.476 157.932)" fill="#fff"/>
  <path id="XMLID_527_" d="M378.691,113.769v-3.583a2.195,2.195,0,0,0-.618-1.507,2.089,2.089,0,0,0-1.508-.618,2.194,2.194,0,0,0-1.507.618,2.089,2.089,0,0,0-.618,1.507v3.583" transform="translate(389.26 159.002)" fill="#fff" fill-rule="evenodd"/>
  <path id="XMLID_526_" d="M379.779,116.668a1.825,1.825,0,0,1-1.829-1.829v-3.583a.314.314,0,0,0-.1-.222.425.425,0,0,0-.42,0,.47.47,0,0,0-.074.222v3.583a1.829,1.829,0,1,1-3.657,0v-3.583a3.925,3.925,0,0,1,1.161-2.793,4.045,4.045,0,0,1,5.61,0,3.969,3.969,0,0,1,1.162,2.793v3.583a1.862,1.862,0,0,1-1.854,1.829" transform="translate(388.171 157.932)" fill="#fff"/>
  <path id="XMLID_525_" d="M383.921,113.769v-3.583a2.194,2.194,0,0,0-.618-1.507,2.089,2.089,0,0,0-1.508-.618,2.195,2.195,0,0,0-1.507.618,2.089,2.089,0,0,0-.618,1.507v3.583" transform="translate(396.955 159.002)" fill="#fff" fill-rule="evenodd"/>
  <path id="XMLID_524_" d="M385.009,116.668a1.825,1.825,0,0,1-1.829-1.829v-3.583a.313.313,0,0,0-.1-.222.425.425,0,0,0-.42,0,.345.345,0,0,0-.074.222v3.583a1.829,1.829,0,1,1-3.658,0v-3.583a3.925,3.925,0,0,1,1.162-2.793,4.044,4.044,0,0,1,5.61,0,3.969,3.969,0,0,1,1.162,2.793v3.583a1.862,1.862,0,0,1-1.854,1.829" transform="translate(395.866 157.932)" fill="#fff"/>
  <path id="XMLID_523_" d="M389.151,113.769v-3.583a2.195,2.195,0,0,0-.618-1.507,2.089,2.089,0,0,0-1.507-.618,2.11,2.11,0,0,0-2.125,2.125v3.583" transform="translate(404.65 159.002)" fill="#fff" fill-rule="evenodd"/>
  <path id="XMLID_522_" d="M390.254,116.668a1.825,1.825,0,0,1-1.829-1.829v-3.583a.3.3,0,0,0-.1-.222.425.425,0,0,0-.42,0,.313.313,0,0,0-.1.222v3.583a1.829,1.829,0,1,1-3.658,0v-3.583a3.969,3.969,0,0,1,1.161-2.793,4.045,4.045,0,0,1,5.61,0,3.969,3.969,0,0,1,1.162,2.793v3.583a1.825,1.825,0,0,1-1.829,1.829" transform="translate(403.546 157.932)" fill="#fff"/>
  <path id="XMLID_521_" d="M387.244,111.008a1.8,1.8,0,0,0-2.125,0,1.825,1.825,0,0,1-1.829-1.829v-1.9a2.822,2.822,0,0,1,.865-2.051,2.987,2.987,0,0,1,4.1,0,2.9,2.9,0,0,1,.84,2.051v1.9a1.862,1.862,0,0,1-1.854,1.829" transform="translate(402.281 153.632)" fill="#fff"/>
  <path id="XMLID_520_" d="M382.774,111.008a1.805,1.805,0,0,0-2.125,0,1.825,1.825,0,0,1-1.829-1.829v-1.9a2.9,2.9,0,0,1,.84-2.051,2.987,2.987,0,0,1,4.1,0,2.9,2.9,0,0,1,.84,2.051v1.9a1.841,1.841,0,0,1-1.829,1.829" transform="translate(395.704 153.632)" fill="#fff"/>
  <path id="XMLID_519_" d="M378.294,111.008a1.8,1.8,0,0,0-2.125,0,1.825,1.825,0,0,1-1.829-1.829v-1.9a2.9,2.9,0,0,1,.84-2.051,2.987,2.987,0,0,1,4.1,0,2.9,2.9,0,0,1,.84,2.051v1.9a1.825,1.825,0,0,1-1.829,1.829" transform="translate(389.113 153.632)" fill="#fff"/>
  <path id="XMLID_518_" d="M373.814,111.008a1.8,1.8,0,0,0-2.125,0,1.825,1.825,0,0,1-1.829-1.829v-1.9a2.923,2.923,0,0,1,.865-2.051,2.987,2.987,0,0,1,4.1,0,2.9,2.9,0,0,1,.84,2.051v1.9a1.862,1.862,0,0,1-1.853,1.829" transform="translate(382.521 153.632)" fill="#fff"/>
  <path id="XMLID_517_" d="M369.334,111.008a1.8,1.8,0,0,0-2.125,0,1.825,1.825,0,0,1-1.829-1.829v-1.9a2.9,2.9,0,0,1,.84-2.051,2.987,2.987,0,0,1,4.1,0,2.9,2.9,0,0,1,.84,2.051v1.9a1.825,1.825,0,0,1-1.829,1.829" transform="translate(375.93 153.632)" fill="#fff"/>
  <path id="XMLID_516_" d="M377.96,83.8a4.788,4.788,0,0,1-4.77-4.77,1.829,1.829,0,1,1,3.657,0,1.087,1.087,0,1,0,2.175,0,1.829,1.829,0,0,1,3.658,0,4.7,4.7,0,0,1-4.72,4.77" transform="translate(387.42 113.597)" fill="#fff"/>
  <line id="XMLID_515_" y2="7.735" transform="translate(800.967 275.786)" fill="#fff"/>
  <path id="XMLID_514_" d="M390.609,122.228a1.825,1.825,0,0,1-1.829-1.829v-7.711a1.829,1.829,0,1,1,3.657,0V120.4a1.825,1.825,0,0,1-1.829,1.829" transform="translate(410.358 163.122)" fill="#fff"/>
  <line id="XMLID_513_" y2="7.735" transform="translate(729.719 275.786)" fill="#fff"/>
  <path id="XMLID_512_" d="M361.779,122.228a1.825,1.825,0,0,1-1.829-1.829v-7.711a1.829,1.829,0,1,1,3.657,0V120.4a1.825,1.825,0,0,1-1.829,1.829" transform="translate(367.94 163.122)" fill="#fff"/>
  <path id="XMLID_511_" d="M390.672,73.645h-7.389V71.817a8.717,8.717,0,0,0-8.724-8.7,1.829,1.829,0,0,1,0-3.658,12.379,12.379,0,0,1,12.233,10.553h.321A12.423,12.423,0,0,1,399.371,59.46a1.829,1.829,0,1,1,0,3.658,8.717,8.717,0,0,0-8.724,8.7v1.829Z" transform="translate(386.744 87.496)" fill="#fff"/>
  <rect id="XMLID_510_" width="8.724" height="8.724" transform="matrix(0.707, -0.707, 0.707, 0.707, 900.794, 281.768)" fill="#fff"/>
  <rect id="XMLID_509_" width="8.724" height="8.724" transform="translate(820.62 281.802) rotate(-45)" fill="#fff"/>
  <rect id="XMLID_508_" width="8.724" height="8.724" transform="matrix(0.707, -0.707, 0.707, 0.707, 740.412, 281.78)" fill="#fff"/>
  <rect id="XMLID_507_" width="8.724" height="8.724" transform="translate(886.15 318.597) rotate(-45)" fill="#fff"/>
  <rect id="XMLID_506_" width="8.724" height="8.724" transform="translate(839.042 126.668) rotate(-45)" fill="#fff"/>
  <rect id="XMLID_505_" width="8.724" height="8.724" transform="translate(863.013 318.582) rotate(-45)" fill="#fff"/>
  <rect id="XMLID_504_" width="8.724" height="8.724" transform="translate(841.091 318.58) rotate(-45)" fill="#fff"/>
  <rect id="XMLID_503_" width="8.724" height="8.724" transform="translate(817.618 318.59) rotate(-45)" fill="#fff"/>
  <rect id="XMLID_502_" width="8.724" height="8.724" transform="translate(794.611 318.592) rotate(-45)" fill="#fff"/>
  <rect id="XMLID_501_" width="8.724" height="8.724" transform="translate(772.293 318.586) rotate(-45)" fill="#fff"/>
  <rect id="XMLID_500_" width="8.724" height="8.724" transform="translate(749.088 318.588) rotate(-45)" fill="#fff"/>
  <rect id="XMLID_499_" width="8.724" height="8.724" transform="matrix(0.707, -0.707, 0.707, 0.707, 725.65, 318.616)" fill="#fff"/>
  <path id="XMLID_498_" d="M366.659,323.311a1.825,1.825,0,0,1-1.829-1.829V30.262H286.217v291.2a1.829,1.829,0,1,1-3.657,0V26.58h85.928V321.458a1.846,1.846,0,0,1-1.829,1.854" transform="translate(254.075 39.119)" fill="#fff"/>
  <path id="XMLID_497_" d="M322.258,130c-12.876,0-22.662-16.879-29.977-51.576a439.168,439.168,0,0,1-7.117-49.229,1.834,1.834,0,0,1,3.658-.272,446.522,446.522,0,0,0,7.043,48.759c6.7,31.855,15.817,48.66,26.32,48.66,10.6-.049,19.523-17,25.9-48.957a436.053,436.053,0,0,0,6.5-48.833,1.833,1.833,0,0,1,3.658.247,447.583,447.583,0,0,1-6.574,49.3c-6.945,34.846-16.583,51.824-29.409,51.9" transform="translate(257.897 39.497)" fill="#fff"/>
  <path id="XMLID_496_" d="M338.168,79.578h-46.56a1.829,1.829,0,1,1,0-3.658h46.56a1.829,1.829,0,1,1,0,3.658" transform="translate(264.698 111.714)" fill="#fff"/>
  <path id="XMLID_495_" d="M338.168,88.548h-46.56a1.829,1.829,0,1,1,0-3.658h46.56a1.829,1.829,0,1,1,0,3.658" transform="translate(264.698 124.912)" fill="#fff"/>
  <path id="XMLID_494_" d="M338.168,97.508h-46.56a1.829,1.829,0,1,1,0-3.658h46.56a1.829,1.829,0,1,1,0,3.658" transform="translate(264.698 138.095)" fill="#fff"/>
  <path id="XMLID_493_" d="M338.168,106.478h-46.56a1.829,1.829,0,1,1,0-3.658h46.56a1.829,1.829,0,1,1,0,3.658" transform="translate(264.698 151.293)" fill="#fff"/>
  <path id="XMLID_492_" d="M338.168,115.448h-46.56a1.829,1.829,0,1,1,0-3.658h46.56a1.829,1.829,0,1,1,0,3.658" transform="translate(264.698 164.49)" fill="#fff"/>
  <path id="XMLID_491_" d="M338.168,124.408h-46.56a1.829,1.829,0,1,1,0-3.658h46.56a1.829,1.829,0,1,1,0,3.658" transform="translate(264.698 177.673)" fill="#fff"/>
  <path id="XMLID_490_" d="M291.609,133.378a1.829,1.829,0,1,1,0-3.658h46.56a1.829,1.829,0,1,1,0,3.658Z" transform="translate(264.698 190.871)" fill="#fff"/>
  <path id="XMLID_489_" d="M291.609,142.348a1.829,1.829,0,1,1,0-3.658h46.56a1.829,1.829,0,1,1,0,3.658Z" transform="translate(264.698 204.069)" fill="#fff"/>
  <rect id="XMLID_488_" width="10.627" height="10.627" transform="translate(571.458 189.444) rotate(-45)" fill="#fff"/>
  <rect id="XMLID_487_" width="10.627" height="10.627" transform="translate(571.449 211.591) rotate(-45)" fill="#fff"/>
  <rect id="XMLID_486_" width="10.627" height="10.627" transform="translate(610.203 68.112) rotate(-45)" fill="#fff"/>
  <rect id="XMLID_485_" width="10.627" height="10.627" transform="translate(533.96 68.103) rotate(-45)" fill="#fff"/>
  <rect id="XMLID_484_" width="10.627" height="10.627" transform="translate(571.458 233.755) rotate(-45)" fill="#fff"/>
  <rect id="XMLID_483_" width="10.627" height="10.627" transform="translate(571.448 255.901) rotate(-45)" fill="#fff"/>
  <rect id="XMLID_482_" width="10.627" height="10.627" transform="translate(571.456 278.066) rotate(-45)" fill="#fff"/>
  <rect id="XMLID_481_" width="10.627" height="10.627" transform="translate(571.448 300.212) rotate(-45)" fill="#fff"/>
  <rect id="XMLID_480_" width="10.627" height="10.627" transform="translate(571.456 322.376) rotate(-45)" fill="#fff"/>
  <rect id="XMLID_479_" width="10.627" height="10.627" transform="translate(571.447 344.523) rotate(-45)" fill="#fff"/>
  <path id="XMLID_478_" d="M217.079,265.842h0a1.825,1.825,0,0,1-1.829-1.829v-3.658c0-3.237.049-6.45.1-9.638l.074-3.756c.049-2,.1-4.028.173-6.03l.074-2.521c.074-2.57.2-5.116.3-7.661l.025-.692c.124-2.842.3-5.635.445-8.427l.124-1.755c.148-2.2.272-4.374.445-6.549l.049-.791c.025-.519.074-1.013.124-1.532l.3-3.707c.173-2.15.346-4.251.544-6.351.222-2.521.445-4.918.692-7.266l.1-.816c.222-2.274.469-4.547.717-6.771l.05-.939c.247-2.249.519-4.473.766-6.673l.074-.593c.544-4.6,1.137-9.045,1.73-13.32l.1-.692c.272-2,.568-3.954.84-5.882l.2-1.359c.247-1.755.519-3.485.791-5.215l.3-1.9c.173-1.162.371-2.323.568-3.46l.272-1.631c.1-.519.173-.989.247-1.433l.222-1.31c.222-1.359.47-2.718.692-4.053.445-2.62.914-5.14,1.359-7.612.1-.47.173-.914.247-1.335l1.236-6.45c.42-2.076.816-4.078,1.211-6.03.025-.124.074-.346.124-.593.2-.989.42-2.051.643-3.064l2.15-9.762c.3-1.26.568-2.545.865-3.756a4.067,4.067,0,0,1,.1-.47l.914-3.88c.025-.148.074-.346.124-.568.247-1.013.494-2.026.717-2.99l.321-1.285c.321-1.31.618-2.5.914-3.583.667-2.62,1.236-4.7,1.631-6.154L243.1,65.64,246.71,77.5s.124.42.371,1.236l1.507,5.536c.42,1.582.89,3.41,1.409,5.511l.272,1.112c.247,1.013.519,2.1.791,3.237l1.038,4.325c.049.173.1.4.148.618.222.89.445,1.9.692,2.966l2.4,10.948c.2.964.371,1.8.544,2.669.049.173.074.4.124.618.371,1.854.791,3.855,1.211,5.931l1.508,7.785c.47,2.5.914,5.017,1.384,7.636l.914,5.289c.074.519.148.964.247,1.433l1.137,7.043c.272,1.73.544,3.485.791,5.239l.2,1.335c.3,1.928.568,3.88.84,5.857l.1.717c.618,4.473,1.211,8.921,1.73,13.271l.074.667c.272,2.175.519,4.4.766,6.648l.1.914c.247,2.249.494,4.5.717,6.8l.074.816c.222,2.372.47,4.77.692,7.191.2,2.2.371,4.325.544,6.45l.3,3.658c.049.544.074,1.063.124,1.582l.025.445c.173,2.372.321,4.745.47,7.142l.1,1.384c.173,2.793.321,5.585.469,8.427l.049,1.137c.1,2.372.2,4.77.3,7.167l.1,2.891c.049,1.9.124,3.781.148,5.684l.074,3.9c.049,3.188.1,6.351.1,9.589v1.829H383.349a1.829,1.829,0,0,1,0,3.658H267.617v-5.486c0-3.188-.049-6.351-.1-9.515l-.074-3.88c-.049-1.9-.1-3.781-.148-5.659l-.1-2.867q-.111-3.6-.3-7.117l-.049-1.137c-.148-2.793-.3-5.585-.445-8.353l-.1-1.384c-.148-2.4-.3-4.77-.469-7.117l-.025-.47c-.025-.519-.074-1.013-.1-1.532l-.3-3.658c-.173-2.125-.346-4.251-.544-6.327-.222-2.5-.445-4.893-.692-7.241l-.074-.816c-.222-2.274-.47-4.522-.717-6.747l-.1-.914c-.247-2.249-.494-4.448-.766-6.623l-.074-.667c-.519-4.325-1.112-8.773-1.73-13.222l-.1-.717c-.272-1.977-.544-3.9-.84-5.832l-.2-1.335c-.272-1.755-.519-3.485-.791-5.214l-1.137-6.994c-.074-.445-.173-.939-.247-1.458l-.914-5.239c-.445-2.595-.914-5.116-1.359-7.587l-1.483-7.76c-.42-2.051-.816-4.053-1.211-5.956l-.123-.568c-.173-.865-.346-1.705-.519-2.545l-2.422-11.022c-.222-1.013-.445-2.026-.692-2.966-.049-.222-.074-.4-.124-.544l-1.038-4.35c-.272-1.112-.519-2.2-.791-3.213l-.272-1.112c-.519-2.076-.989-3.88-1.409-5.462l-1.507-5.511c-.2-.741-.321-1.137-.321-1.137l-.025-.049-.741,2.57c-.4,1.409-.939,3.46-1.631,6.079-.272,1.087-.568,2.249-.914,3.534l-.272,1.112c-.272,1.112-.519,2.125-.766,3.139l-1.063,4.424a2.518,2.518,0,0,1-.1.371c-.3,1.285-.593,2.545-.865,3.806L235.836,108a2.332,2.332,0,0,1-.074.4l-1.038,4.869c-.222,1.013-.42,2.051-.643,3.064-.049.2-.074.371-.1.494-.42,2-.816,4-1.236,6.079l-1.236,6.425c-.074.42-.173.89-.247,1.359-.445,2.447-.89,4.967-1.359,7.562-.222,1.31-.47,2.669-.692,4.028l-.222,1.285c-.074.445-.148.939-.247,1.458l-.247,1.606c-.2,1.137-.371,2.3-.544,3.435l-.3,1.9c-.272,1.705-.544,3.435-.791,5.19l-.2,1.359c-.272,1.928-.568,3.855-.84,5.857l-.1.692c-.593,4.251-1.162,8.7-1.73,13.246l-.074.593c-.272,2.2-.519,4.4-.766,6.648l-.1.914c-.247,2.224-.494,4.473-.717,6.747l-.074.816c-.222,2.348-.445,4.745-.667,7.142-.2,2.175-.371,4.275-.544,6.4l-.3,3.707c-.049.494-.074.989-.1,1.483l-.049.791q-.222,3.225-.445,6.524l-.1,1.755c-.173,2.743-.321,5.536-.445,8.353l-.025.667c-.124,2.545-.222,5.091-.321,7.636l-.074,2.521c-.049,2-.124,4-.173,6.005l-.074,3.707c-.049,3.188-.1,6.376-.1,9.589v3.658a1.781,1.781,0,0,1-1.779,1.878" transform="translate(155.04 96.589)" fill="#fff"/>
  <path id="XMLID_475_" d="M231.239,103.369a7.809,7.809,0,1,1,7.809-7.809,7.826,7.826,0,0,1-7.809,7.809m0-11.961a4.139,4.139,0,1,0,4.152,4.152,4.14,4.14,0,0,0-4.152-4.152" transform="translate(167.075 129.12)" fill="#fff"/>
  <path id="XMLID_474_" d="M242.577,87.038H224.289a1.829,1.829,0,0,1,0-3.658h18.288a1.829,1.829,0,0,1,0,3.658" transform="translate(165.648 122.69)" fill="#fff"/>
  <path id="XMLID_473_" d="M253.542,101.418H221.069a1.829,1.829,0,1,1,0-3.658h32.473a1.829,1.829,0,1,1,0,3.658" transform="translate(160.911 143.848)" fill="#fff"/>
  <path id="XMLID_472_" d="M262.1,114.878H218.849a1.829,1.829,0,1,1,0-3.658H262.1a1.829,1.829,0,1,1,0,3.658" transform="translate(157.644 163.652)" fill="#fff"/>
  <path id="XMLID_471_" d="M266.877,129.288H217.649a1.829,1.829,0,0,1,0-3.658h49.229a1.829,1.829,0,1,1,0,3.658" transform="translate(155.879 184.853)" fill="#fff"/>
  <rect id="XMLID_470_" width="10.627" height="10.627" transform="translate(369.47 277.092) rotate(-45)" fill="#fff"/>
  <rect id="XMLID_469_" width="10.627" height="10.627" transform="translate(411.438 277.104) rotate(-45)" fill="#fff"/>
  <rect id="XMLID_468_" width="10.627" height="10.627" transform="translate(390.775 168.621) rotate(-45)" fill="#fff"/>
  <path id="XMLID_467_" d="M428.6,249.687H351.347V82.872H348.11v2.5h-2.891v2.694h-3.682v2.15h-4.4v2.669H297.67v-2.2H293.1v-2.62h-3.163V85.517l-.272-.272h-2.422V83.07h-2.817V171.3h-6.079l-.025-2.99h-1.829l-.049-1.68h-1.829v-2.175H271.5v-1.186h-1.508V160.6h-2.125v-1.483h-.3v1.532l-1.705.049v1.829l-2.793.025v1.829h-1.557V166.4h-1.705v1.359H256.5l-.914.914h-6.178v-.47H248.1v-1.755h-2.323v-2.4H242.98V162.3h-1.087v-1.483h-2.521v-2.026H237.2v1.31h-1.853v1.705h-2.57V164.6h-1.26v1.829h-1.878v1.829h-2.5v1.013h-6.549v-1.285h-1.063v-1.779h-2.348v-2.026H215V162.5h-2.4v-2.076h-2.323v-1.878h-1.409v1.779h-1.9v1.829h-3.015v2.323h-1.186v1.631h-1.68v1.656h-2.644v1.31h-6.6v-1.458H190.39v-1.557h-2.051v-1.779h-2.521v-2.372h-1.755V160.3h-2.5V158.52h-1.335V159.8h-2.026v1.705H175.29v2.768h-1.409v1.508H172.7v1.73h-2.2v1.557H163.4v-1.458h-1.557v-1.285h-3.015v-2.348h-1.557v-2.15H155.2v-1.458h-2.15V158.3h-1.359v1.335h-1.458v2.051l-3.064.025v1.829h-1.582v2.422h-1.433v1.532H141.73v1.557h-7.463V167.96H133.2v-1.779h-2.348v-2.026h-2.175v-1.68h-2.4V160.4h-2.323V158.52h-1.384V160.3h-1.9v1.829h-3.015v2.323h-1.186v1.631h-1.68v1.656h-2.644v1.31h-6.6v-1.458h-1.483v-1.557h-2.051v-1.779h-2.5v-2.372H97.765v-1.606h-2.5v-1.779H73.3a1.829,1.829,0,1,1,0-3.658H98.926v1.8h2.5v1.606h1.755v2.372h2.5V162.4h2.051v1.557h1.483v.148h1.9v-1.656h1.656v-1.631h1.186v-2.323h3.015v-1.829h1.9v-1.779h8.724v1.878h2.323v2.076h2.4V160.5h2.175v2.026h2.348V164.3H137.9v1.087h.124v-1.557h2.521V162.3h1.433v-2.422l1.582-.025v-1.829h3.04v-2.051h1.458v-1.359h8.7v2.076h2.125v1.458h2.076v2.15h1.557v2.348h3.015v1.285l3.509-.1V162.1h1.186V160.6h1.409v-2.768h2.916v-1.705h2.026v-1.285h8.674v1.8h2.5v1.606H189.5v2.372H192V162.4h2.051v1.557h1.483v.148h1.9v-1.656h1.656v-1.631h1.186v-2.323h3.015v-1.829h1.928v-1.779h8.724v1.878h2.323v2.076h2.4V160.5h2.175v2.026h2.348V164.3h1.063v.272h1.73v-1.829h1.853v-1.829h1.26v-2.793h2.545v-1.705h1.854v-1.31h9.49v2.026H245.5v1.483h1.087V160.4h2.793v2.4h2.274v1.779h1.31v.47h.988l.914-.914h1.162V162.77h1.705v-2.026l1.557-.025V158.89l2.793-.049v-1.829h1.705V155.48h7.636v1.483h2.125v2.644h1.507v1.186h3.114l.049,2.175h1.829l.025,1.681h.568V76.768h6.574v2.644H290.8v2.2h.3l2.422,2.422V84.4h3.188v2.62h4.572V89.2h32.127V86.555h4.4V84.4h3.682V81.711h2.891v-2.5h3.682V76.62h6.9V246.029h73.571a1.825,1.825,0,0,1,1.829,1.829,1.733,1.733,0,0,1-1.755,1.829" transform="translate(-56.506 112.744)" fill="#fff"/>
  <rect id="XMLID_466_" width="3.658" height="93.787" transform="translate(15.013 267.606)" fill="#fff"/>
  <path id="XMLID_465_" d="M373,0h18.671V5.387H373Z" transform="translate(-373 357.735)" fill="#fff"/>
  <path id="XMLID_462_" d="M134.687,146.884H118.08V123.11h16.607Zm-12.95-3.658h9.267V126.768h-9.267Z" transform="translate(12.072 181.146)" fill="#fff"/>
  <path id="XMLID_459_" d="M169.99,173.148H146.76V128.64h23.23Zm-19.573-3.682h15.915V132.273H150.418Z" transform="translate(54.269 189.282)" fill="#fff"/>
  <path id="XMLID_456_" d="M118,155.613H98.11v-23.4H118Zm-16.212-3.682h12.554V135.843H101.792Z" transform="translate(-17.31 194.535)" fill="#fff"/>
  <path id="XMLID_453_" d="M111.863,138.61H98.37V117.9h13.493Zm-9.836-3.658h6.178V121.558h-6.178Z" transform="translate(-16.928 173.48)" fill="#fff"/>
  <path id="XMLID_450_" d="M98.491,138.61H84.8V117.9H98.491v20.71Zm-10.034-3.658h6.376V121.558H88.458Z" transform="translate(-36.894 173.48)" fill="#fff"/>
  <rect id="XMLID_449_" width="10.627" height="10.627" transform="translate(88.205 269.228) rotate(-45)" fill="#fff"/>
  <rect id="XMLID_448_" width="10.627" height="10.627" transform="translate(116.678 269.238) rotate(-45)" fill="#fff"/>
  <rect id="XMLID_447_" width="10.627" height="10.627" transform="translate(59.27 269.238) rotate(-45)" fill="#fff"/>
  <rect id="XMLID_446_" width="10.627" height="10.627" transform="translate(146.013 269.239) rotate(-45)" fill="#fff"/>
  <rect id="XMLID_445_" width="10.627" height="10.627" transform="translate(174.578 269.232) rotate(-45)" fill="#fff"/>
  <rect id="XMLID_444_" width="10.627" height="10.627" transform="translate(219.905 192.485) rotate(-45)" fill="#fff"/>
  <rect id="XMLID_443_" width="10.627" height="10.627" transform="translate(287.1 192.486) rotate(-45)" fill="#fff"/>
  <path id="XMLID_442_" d="M841.086,94.375H833.7V92.547a8.715,8.715,0,0,0-16.409-4.078,1.824,1.824,0,1,1-3.213-1.73,12.374,12.374,0,0,1,23.156,4h.321a12.374,12.374,0,0,1,23.156-4,1.826,1.826,0,0,1-.741,2.471,1.862,1.862,0,0,1-2.5-.741,8.716,8.716,0,0,0-16.41,4.078v1.829Z" transform="translate(1035.77 117.997)" fill="#fff"/>
  <path id="XMLID_441_" d="M649.074,45.88h-7.389V44.051a8.731,8.731,0,0,0-16.434-4.1,1.805,1.805,0,0,1-2.471.741,1.826,1.826,0,0,1-.741-2.471,12.374,12.374,0,0,1,23.156,4h.321a12.374,12.374,0,0,1,23.156-4,1.825,1.825,0,0,1-3.213,1.73,8.715,8.715,0,0,0-16.409,4.1V45.88Z" transform="translate(753.239 46.608)" fill="#fff"/>
  <path id="XMLID_440_" d="M968.537,191.7H737.345V128.139H732.7v-8.427H708.554v8.427h-4.646V191.7h-78.02a1.829,1.829,0,1,1,0-3.658h74.362V124.457H704.9V116.03h31.484v8.427h4.646v63.587h227.51a1.829,1.829,0,1,1,0,3.658" transform="translate(756.531 170.729)" fill="#fff"/>
  <path id="XMLID_439_" d="M664.609,137.608a1.825,1.825,0,0,1-1.829-1.829v-30.1a1.829,1.829,0,1,1,3.657,0v30.1a1.825,1.825,0,0,1-1.829,1.829" transform="translate(813.5 152.808)" fill="#fff"/>
  <rect id="XMLID_145_" width="10.627" height="10.627" transform="translate(1470.59 258.499) rotate(-45)" fill="#fff"/>
  <path id="XMLID_144_" d="M589.939,306.715a1.825,1.825,0,0,1-1.829-1.829V120.031c0-.47,0-.914-.025-1.359-.049-2.323-.124-4.523,1.508-6.178,2.051-2.1,6.4-3.04,14.111-3.04V68.85c-7.711,0-12.085-.964-14.111-3.04-1.631-1.656-1.557-3.855-1.508-6.178,0-.445.025-.89.025-1.359V46.139H483.623V58.273c0,.4,0,.791.025,1.186.074,2.471.124,4.7-1.508,6.327-2.051,2.1-6.4,3.04-14.136,3.04V109.4c7.735,0,12.085.964,14.136,3.04,1.631,1.656,1.557,3.855,1.508,6.178-.025.544-.025.964-.025,1.359V306.666H432.689a1.829,1.829,0,0,1,0-3.658h47.276V120.031c0-.42,0-.865.025-1.285.049-2.175.025-3.188-.47-3.682-.717-.717-3.163-1.952-11.665-1.952a3.523,3.523,0,0,1-3.509-3.509V68.7a3.507,3.507,0,0,1,3.509-3.509c8.5,0,10.973-1.211,11.665-1.952.494-.494.519-1.508.47-3.509-.025-.593-.025-1.013-.025-1.458v-16.9a3.509,3.509,0,0,1,7.019,0v1.112h13.864V41.369a3.509,3.509,0,0,1,7.019,0v1.112H521.73V41.369a3.509,3.509,0,0,1,7.019,0v1.112h14.26V41.369a3.509,3.509,0,0,1,7.019,0v1.112h13.864V41.369a3.509,3.509,0,0,1,7.019,0v1.112h13.864V41.369a3.509,3.509,0,0,1,7.019,0v16.9c0,.494-.025.964-.025,1.458-.049,2.026-.025,3.015.445,3.509.717.717,3.163,1.952,11.665,1.952a3.523,3.523,0,0,1,3.509,3.509v40.9a3.523,3.523,0,0,1-3.509,3.509c-8.5,0-10.948,1.211-11.665,1.952-.469.494-.494,1.508-.445,3.534,0,.47.025.964.025,1.458V304.911a1.892,1.892,0,0,1-1.854,1.8" transform="translate(472.272 55.716)" fill="#fff"/>
  <path id="XMLID_143_" d="M478.749,303.949a1.825,1.825,0,0,1-1.829-1.829v-185c0-3.04,0-6.5,2.1-9.292,1.829-2.471,4.745-3.855,9.07-4.325V69.248c-11.146-1.236-11.146-8.724-11.146-13.741V41.569a1.829,1.829,0,0,1,3.658,0V55.507c0,5.462,0,9.762,9.391,10.231l1.755.074v41.123l-1.755.074c-4.127.2-6.673,1.137-8.032,2.966-1.359,1.854-1.359,4.4-1.359,7.117V302.071a1.905,1.905,0,0,1-1.854,1.878" transform="translate(540.041 58.482)" fill="#fff"/>
  <path id="XMLID_142_" d="M487.369,303.964a1.825,1.825,0,0,1-1.829-1.829V117.206c0-2.793,0-5.437,1.705-7.365,1.878-2.125,5.585-3.139,11.665-3.139V66.1c-6.08-.025-9.787-1.013-11.665-3.163-1.705-1.952-1.705-4.621-1.705-7.439V41.559a1.829,1.829,0,1,1,3.657,0V55.5c0,2.2,0,4.1.791,4.992.766.865,2.966,1.928,9.07,1.928a3.523,3.523,0,0,1,3.509,3.509v40.9a3.523,3.523,0,0,1-3.509,3.509c-6.1,0-8.3,1.038-9.07,1.9-.791.914-.791,2.793-.791,4.943v184.9a1.836,1.836,0,0,1-1.829,1.878" transform="translate(552.723 58.467)" fill="#fff"/>
  <path id="XMLID_139_" d="M490.551,303.949a1.825,1.825,0,0,1-1.829-1.829v-184.9c0-2.743,0-5.338-1.359-7.192s-3.9-2.817-8.057-2.99l-1.755-.074V65.812l1.755-.074c3.9-.148,6.475-.914,7.859-2.323,1.606-1.631,1.582-3.954,1.532-6.673l-.025-1.236V41.569a1.829,1.829,0,1,1,3.657,0V56.693c.049,3.064.1,6.549-2.595,9.292-1.854,1.878-4.6,2.941-8.575,3.312v34.228c4.325.47,7.241,1.878,9.07,4.374,2.076,2.817,2.076,6.277,2.076,9.342V302.12a1.733,1.733,0,0,1-1.755,1.829m-20.907,0a1.825,1.825,0,0,1-1.829-1.829V117.265c0-5.264,0-9.836-11.615-10.231l-1.779-.074V65.788l1.779-.049c5.066-.173,8.328-1.162,9.984-3.015,1.631-1.853,1.631-4.473,1.631-7.216V41.569a1.829,1.829,0,0,1,3.658,0V55.507c0,3.163,0,6.747-2.546,9.638-2.15,2.447-5.61,3.781-10.824,4.177v34.154c13.37,1.063,13.37,8.7,13.37,13.79V302.12a1.857,1.857,0,0,1-1.829,1.829" transform="translate(506.936 58.482)" fill="#fff"/>
  <rect id="XMLID_138_" width="10.627" height="10.627" transform="translate(990.002 98.181) rotate(-45)" fill="#fff"/>
  <rect id="XMLID_137_" width="10.627" height="10.627" transform="translate(1011.035 98.188) rotate(-45)" fill="#fff"/>
  <rect id="XMLID_136_" width="10.627" height="10.627" transform="translate(1032.43 98.171) rotate(-45)" fill="#fff"/>
  <rect id="XMLID_135_" width="10.627" height="10.627" transform="translate(1053.462 98.183) rotate(-45)" fill="#fff"/>
  <rect id="XMLID_134_" width="10.627" height="10.627" transform="translate(969.14 98.171) rotate(-45)" fill="#fff"/>
  <rect id="XMLID_133_" width="10.627" height="10.627" transform="translate(946.502 98.178) rotate(-45)" fill="#fff"/>
  <path id="XMLID_132_" d="M606.339,122.144a1.825,1.825,0,0,1-1.829-1.829V59.249a1.829,1.829,0,1,1,3.658,0v61.066a1.809,1.809,0,0,1-1.829,1.829" transform="translate(727.766 84.495)" fill="#fff"/>
  <path id="XMLID_131_" d="M601.649,112.822a1.825,1.825,0,0,1-1.829-1.829V87.985c0-4.325,4.868-8.7,8.427-11.887.717-.643,1.334-1.186,1.779-1.656,1.779-1.779,1.409-4.893,1.409-4.943a1.866,1.866,0,0,1,1.582-2.051,1.838,1.838,0,0,1,2.051,1.582c.025.2.593,4.943-2.447,7.982-.494.494-1.161,1.087-1.928,1.779-2.521,2.274-7.191,6.475-7.191,9.169v23.008a1.884,1.884,0,0,1-1.854,1.853" transform="translate(720.866 99.229)" fill="#fff"/>
  <path id="XMLID_130_" d="M595.539,114.681a1.825,1.825,0,0,1-1.829-1.829v-9.885c0-5.684,17.6-14.408,27.9-18.683a1.83,1.83,0,0,1,.667-3.534h.025c5.931.074,7.191.914,7.439,2.4.3,1.853-1.73,2.57-2.4,2.817-13.963,4.992-29.557,14.26-30,17.027v9.836a1.81,1.81,0,0,1-1.8,1.853" transform="translate(711.876 118.821)" fill="#fff"/>
  <path id="XMLID_129_" d="M608.649,118.195a1.825,1.825,0,0,1-1.829-1.829V82.929a1.829,1.829,0,0,1,3.658,0v33.437a1.825,1.825,0,0,1-1.829,1.829" transform="translate(731.165 119.335)" fill="#fff"/>
  <path id="XMLID_128_" d="M592.219,133.572a1.825,1.825,0,0,1-1.829-1.829v-25.9a8.036,8.036,0,0,1,2.743-5.758,1.835,1.835,0,0,1,2.595.049,1.857,1.857,0,0,1-.049,2.595,4.73,4.73,0,0,0-1.607,3.114v25.9a1.862,1.862,0,0,1-1.853,1.829" transform="translate(706.992 146.514)" fill="#fff"/>
  <path id="XMLID_127_" d="M621.529,132.772a1.825,1.825,0,0,1-1.829-1.829V99.237a1.655,1.655,0,0,0-.148-.89,1.134,1.134,0,0,0-.321-.049c-.593,0-6.524.4-12.628,1.038a1.847,1.847,0,0,1-2.026-1.631,1.814,1.814,0,0,1,1.631-2c6.005-.643,12.159-1.063,13.024-1.063,2,0,4.152,1.211,4.152,4.621v31.707a1.841,1.841,0,0,1-1.853,1.8" transform="translate(727.849 139.257)" fill="#fff"/>
  <path id="XMLID_126_" d="M587.679,157.194a1.825,1.825,0,0,1-1.829-1.829V130.158a9.9,9.9,0,0,1,3.583-7.933c6.574-6.154,16.311-8.131,27.58-10.429l3.237-.667c12.035-2.5,35.587-2.916,38.034-2.3,3.065.766,3.04,3.287,3.015,5.511v32.226a1.829,1.829,0,1,1-3.657,0V114.317a10.176,10.176,0,0,0-.074-1.878.974.974,0,0,1-.148-.049c-1.829-.346-24.268-.2-36.4,2.323l-3.262.667c-10.726,2.175-19.969,4.078-25.8,9.515a6.235,6.235,0,0,0-2.422,5.264v25.208a1.862,1.862,0,0,1-1.853,1.829" transform="translate(700.312 159.764)" fill="#fff"/>
  <path id="XMLID_125_" d="M594.9,118.911a1.861,1.861,0,0,1-1.458-.717l-2.175-2.867V96.3a1.829,1.829,0,1,1,3.658,0v17.769l1.433,1.878a1.846,1.846,0,0,1-.346,2.57,1.8,1.8,0,0,1-1.112.4" transform="translate(708.286 139.007)" fill="#fff"/>
  <path id="XMLID_124_" d="M596.453,119.305a1.826,1.826,0,0,1-1.458-.717L592.87,115.8V95.309a1.829,1.829,0,1,1,3.657,0V114.56l1.359,1.8a1.846,1.846,0,0,1-.346,2.57,1.7,1.7,0,0,1-1.087.371" transform="translate(710.64 137.55)" fill="#fff"/>
  <path id="XMLID_123_" d="M598.951,119.849a1.789,1.789,0,0,1-1.507-.791l-2.274-3.312v-21.7a1.829,1.829,0,1,1,3.657,0V114.61l1.631,2.4a1.848,1.848,0,0,1-.469,2.545,2.009,2.009,0,0,1-1.038.3" transform="translate(714.024 135.697)" fill="#fff"/>
  <path id="XMLID_122_" d="M601.226,120.2a1.82,1.82,0,0,1-1.532-.84l-2.224-3.46V92.969a1.829,1.829,0,1,1,3.657,0v21.846l1.631,2.545a1.866,1.866,0,0,1-.544,2.545,1.6,1.6,0,0,1-.989.3" transform="translate(717.408 134.108)" fill="#fff"/>
  <path id="XMLID_121_" d="M603.826,120.182a1.894,1.894,0,0,1-1.557-.84l-2.2-3.435v-23.9a1.829,1.829,0,1,1,3.657,0v22.835l1.631,2.545a1.812,1.812,0,0,1-1.532,2.793" transform="translate(721.234 132.695)" fill="#fff"/>
  <path id="XMLID_118_" d="M594.424,129.543a1.9,1.9,0,0,1-1.507-.766l-3.287-4.572V105.843l.717-.544c.618-.47,15.075-11.615,32.72-15.5a.091.091,0,0,0,.074-.025l2.175-.47v1.853l4.844,9.861v27.283l-8.526-12.6v-21.8c-13.765,3.559-25.43,11.615-28.371,13.741v15.372l2.595,3.633a1.823,1.823,0,0,1-.42,2.545,1.622,1.622,0,0,1-1.013.346m30.916-14.976,1.186,1.755V101.84l-1.186-2.422Z" transform="translate(705.873 131.415)" fill="#fff"/>
  <path id="XMLID_117_" d="M609.939,120.253a1.825,1.825,0,0,1-1.829-1.829V105.079a1.829,1.829,0,1,1,3.657,0v13.345a1.84,1.84,0,0,1-1.829,1.829" transform="translate(733.063 151.925)" fill="#fff"/>
  <path id="XMLID_116_" d="M608.049,120.856a1.825,1.825,0,0,1-1.829-1.829V104.719a1.829,1.829,0,0,1,3.658,0v14.309a1.825,1.825,0,0,1-1.829,1.829" transform="translate(730.282 151.396)" fill="#fff"/>
  <path id="XMLID_115_" d="M600.879,120.112a1.825,1.825,0,0,1-1.829-1.829V106.149a1.829,1.829,0,0,1,3.658,0v12.134a1.809,1.809,0,0,1-1.829,1.829" transform="translate(719.733 153.5)" fill="#fff"/>
  <path id="XMLID_114_" d="M599.008,121.1a1.825,1.825,0,0,1-1.828-1.829V106.449a1.829,1.829,0,1,1,3.658,0v12.826a1.809,1.809,0,0,1-1.829,1.829" transform="translate(716.982 153.941)" fill="#fff"/>
  <path id="XMLID_113_" d="M594.709,120.2a1.824,1.824,0,0,1-1.829-1.829v-9.317a1.829,1.829,0,1,1,3.657,0v9.317a1.824,1.824,0,0,1-1.829,1.829" transform="translate(710.655 157.781)" fill="#fff"/>
  <path id="XMLID_112_" d="M677.335,166.186a1.825,1.825,0,0,1-1.829-1.829V126.991c-4.028-.025-14.581.049-28.494,1.063-14.012,1.013-46.535,3.361-62.524,13.889v.346a1.829,1.829,0,1,1-3.657,0v-2.274l.791-.544c14.655-10.256,42.507-13.444,65.144-15.075,17.991-1.285,30.5-1.063,30.62-1.038l1.8.049v40.975a1.858,1.858,0,0,1-1.853,1.8" transform="translate(692.925 181.466)" fill="#fff"/>
  <path id="XMLID_111_" d="M668.975,170.853a1.825,1.825,0,0,1-1.829-1.829V134.4l-56.915-.494v36.946h-47.1a1.829,1.829,0,1,1,0-3.658H606.55v-37l64.254.544V169a1.846,1.846,0,0,1-1.829,1.854" transform="translate(664.191 191.577)" fill="#fff"/>
  <path id="XMLID_110_" d="M654.027,158.641a1.825,1.825,0,0,1-1.829-1.829V142.7c-7.117.914-30.99,3.88-46.164,4.448a1.88,1.88,0,0,1-1.9-1.779,1.826,1.826,0,0,1,1.755-1.9c17.719-.643,47.573-4.646,47.894-4.7l2.076-.272v18.288a1.846,1.846,0,0,1-1.829,1.854" transform="translate(727.206 203.789)" fill="#fff"/>
  <path id="XMLID_109_" d="M611.029,136.635a1.825,1.825,0,0,1-1.829-1.829V119.039a1.829,1.829,0,0,1,3.658,0v15.767a1.825,1.825,0,0,1-1.829,1.829" transform="translate(734.667 172.465)" fill="#fff"/>
  <path id="XMLID_108_" d="M593.1,137.852a1.825,1.825,0,0,1-1.829-1.829V121.739a1.829,1.829,0,0,1,3.658,0v14.284a1.825,1.825,0,0,1-1.829,1.829" transform="translate(708.286 176.437)" fill="#fff"/>
  <path id="XMLID_107_" d="M611.029,154.039a1.825,1.825,0,0,1-1.829-1.829v-17.1a1.829,1.829,0,1,1,3.658,0v17.1a1.841,1.841,0,0,1-1.829,1.829" transform="translate(734.667 196.109)" fill="#fff"/>
  <path id="XMLID_106_" d="M609.029,154.375a1.825,1.825,0,0,1-1.829-1.829V135.1a1.829,1.829,0,1,1,3.657,0v17.448a1.825,1.825,0,0,1-1.829,1.829" transform="translate(731.724 196.094)" fill="#fff"/>
  <path id="XMLID_105_" d="M618.8,153.215a1.825,1.825,0,0,1-1.829-1.829V134.359a1.829,1.829,0,1,1,3.657,0v17.027a1.809,1.809,0,0,1-1.829,1.829" transform="translate(746.099 195.005)" fill="#fff"/>
  <path id="XMLID_104_" d="M603.249,91.329A1.825,1.825,0,0,1,601.42,89.5V82.309a1.829,1.829,0,0,1,3.658,0V89.5a1.809,1.809,0,0,1-1.829,1.829" transform="translate(723.22 118.423)" fill="#fff"/>
  <path id="XMLID_101_" d="M607.78,63.947a4.238,4.238,0,1,1,4.251-4.251,4.25,4.25,0,0,1-4.251,4.251m0-4.819a.568.568,0,0,0,0,1.137.575.575,0,0,0,.569-.568.559.559,0,0,0-.569-.568" transform="translate(726.325 81.626)" fill="#fff"/>
  <rect id="XMLID_100_" width="10.528" height="10.528" transform="translate(1326.713 141.362) rotate(-45)" fill="#fff"/>
  <rect id="XMLID_99_" width="10.528" height="10.528" transform="translate(1352.362 270.22) rotate(-45)" fill="#fff"/>
  <rect id="XMLID_98_" width="10.528" height="10.528" transform="translate(1280.773 286.117) rotate(-45.02)" fill="#fff"/>
  <path id="XMLID_95_" d="M762.134,183.9H711.669l10.923-9.885h2.842V168.9L722,167.939,710.31,122.566h8.155l.469,1.112c.741,1.705,3.584,6.6,6.648,6.6,2.768,0,5.363-5.19,6.178-7.686l.42-1.26h9.391l.42,1.26c.667,2,3.213,7.686,6.178,7.686,3.089,0,5.907-4.893,6.648-6.6l.469-1.112h8.155l-11.689,45.373-3.435.964v5.116h2.817Zm-40.95-3.682h31.435l-2.817-2.545h-5.091V166.11l4.078-1.137,9.984-38.75H757.71c-1.26,2.422-4.572,7.711-9.49,7.711-5.041,0-8.081-6.154-9.218-8.946h-4.176c-1.112,2.793-4.152,8.946-9.193,8.946-4.918,0-8.23-5.289-9.49-7.711h-1.063l9.984,38.75,4.078,1.137v11.566h-5.091Z" transform="translate(883.432 178.527)" fill="#fff"/>
  <path id="XMLID_92_" d="M729.8,153.158H722.06L723.271,134l7.365-6.475,4.3,6.623Zm-3.806-3.682H727l4-14.729-1.112-1.705-3.04,2.669Z" transform="translate(900.72 187.649)" fill="#fff"/>
  <path id="XMLID_89_" d="M727.84,153.158h-7.735l-5.165-19,4.3-6.623L726.6,134Zm-4.918-3.682h1.013l-.865-13.741-3.04-2.669-1.112,1.705Z" transform="translate(890.244 187.649)" fill="#fff"/>
  <path id="XMLID_88_" d="M723.459,151.251a1.825,1.825,0,0,1-1.829-1.829v-8.3a1.829,1.829,0,1,1,3.658,0v8.3a1.825,1.825,0,0,1-1.829,1.829" transform="translate(900.087 204.952)" fill="#fff"/>
  <path id="XMLID_87_" d="M720.859,151.251a1.825,1.825,0,0,1-1.829-1.829v-8.3a1.829,1.829,0,1,1,3.657,0v8.3a1.825,1.825,0,0,1-1.829,1.829" transform="translate(896.262 204.952)" fill="#fff"/>
  <path id="XMLID_84_" d="M820.483,274.662h-2.916a1.851,1.851,0,0,1-1.31-.544,1.886,1.886,0,0,1-.519-1.335l.47-18.658-.1-7.661-2.076-19.449v-.2l-.025-25.282L808.6,154.58a28.953,28.953,0,0,1-1.408-6.673l-.124-.914c-.741-.964-.939-2.595-1.112-4.2-.049-.544-.148-1.31-.222-1.656a7.174,7.174,0,0,1-.89-2.2,15.87,15.87,0,0,0-.593-1.829,6.261,6.261,0,0,1-1.434-1.853c-.2-.346-.445-.766-.568-.791a1.811,1.811,0,0,1-1.458-1.557,141.557,141.557,0,0,1-.988-14.284c-.1-2.867-.2-5.659-.4-8.3l-.123.124a1.843,1.843,0,0,1-1.631.321c-4.868-1.359-5.709-6.2-6.45-10.454-.4-2.224-.791-4.547-1.73-6.005a1.635,1.635,0,0,1-.222-.47,1.863,1.863,0,0,1-1.137-1.359c-.247-1.458-.4-2.793-.544-4.053-.593,3.781-1.335,7.587-3.608,10.108a1.77,1.77,0,0,1-1.557.593,4.644,4.644,0,0,1-1.854-.667c-.346-.2-.4-.222-.519-.222a2,2,0,0,1-1.977-1.507c-.148-.816-.321-1.606-.47-2.348-1.483,2.274-2.249,5.486-2.99,8.6a37.136,37.136,0,0,1-2.249,7.315,1.719,1.719,0,0,1-1.705,1.063l-2.5-.049a1.844,1.844,0,0,1-1.607-1.038,14.936,14.936,0,0,1-.915-2.5c-.049.025-.1.025-.148.049a5.093,5.093,0,0,1-4.523-.667,9.586,9.586,0,0,1-2.274,4.177,1.8,1.8,0,0,1-1.829.47,8.4,8.4,0,0,1-4.028-2.57,3.458,3.458,0,0,1-1.928,2.323,1.914,1.914,0,0,1-1.384.049,3.043,3.043,0,0,1-.568-.272c-.865,3.015-2.471,9.836-4.745,20.364-.346,1.532-.568,2.545-.593,2.644-.148.494-.42,1.137-.717,1.878a22.962,22.962,0,0,0-1.31,3.732,1.88,1.88,0,0,1-1.9,1.458c-4.967-.321-6.253-4.053-7.068-7.093a2.636,2.636,0,0,1-.543.371,60.426,60.426,0,0,0-5.017,6.154,5.145,5.145,0,0,1-5.017,3.954,6.942,6.942,0,0,1-4.473-1.779c-.2.643-.4,1.26-.568,1.9a111.823,111.823,0,0,1-3.88,11.368,1.767,1.767,0,0,1-1.26,1.063,1.831,1.831,0,0,1-1.236.84,4.289,4.289,0,0,0-.544,2.2,1.847,1.847,0,0,1-.519,1.681,9.344,9.344,0,0,1-1.656,3.336l-.148.2a1.857,1.857,0,0,1-2.3.643,1.78,1.78,0,0,1-.889-.914c-.025.049-.074.124-.1.173a1.8,1.8,0,0,1-1.211.816,3.9,3.9,0,0,1-3.089-.519,33.249,33.249,0,0,0-.89,8.056,1.7,1.7,0,0,1-.3.964,10.723,10.723,0,0,0-.741,3.559c-.272,2.669-.667,6.252-3.534,7.612a7.033,7.033,0,0,1-.692.964c-.346.4-.321.42-.321.593a1.808,1.808,0,0,1-.643,1.409,1.667,1.667,0,0,1-1.087.42,3.767,3.767,0,0,1-.865.741c0,.222-.025.445-.025.667a10.82,10.82,0,0,1-.692,4.028,1.808,1.808,0,0,1-1.31,1.112,6.124,6.124,0,0,1-1.112.124,4.214,4.214,0,0,1-2.965-1.26c-.272-.247-.346-.3-.42-.321a1.826,1.826,0,0,1-1.507-1.359c-.173,1.335-.4,2.669-.618,3.954a2.1,2.1,0,0,1-.865,1.928,34.222,34.222,0,0,0,.42,3.756,31.286,31.286,0,0,1,.469,5.14,1.821,1.821,0,0,1-1.779,1.779h0a5.212,5.212,0,0,1-4.053-1.681c-2.027-2.274-2.125-6.2-1.829-9.317a2.614,2.614,0,0,0-.89-.717,1.753,1.753,0,0,1-.766-.816,34.709,34.709,0,0,1-2.471,5.61,1.839,1.839,0,0,1-1.211.84,13.856,13.856,0,0,1-2.471.321,3.6,3.6,0,0,1-3.756-3.163,6.724,6.724,0,0,1-.222-1.013,30.712,30.712,0,0,1-1.162,3.139,11.741,11.741,0,0,1-1.656,5.585,2.172,2.172,0,0,1-1.779.964,1.963,1.963,0,0,1-1.433-.618,3.168,3.168,0,0,1-1.112-2.348,1.865,1.865,0,0,1-.544-.989,4.225,4.225,0,0,0-.173-.643,11.829,11.829,0,0,1-.593-4.2c-.05-.964.025-2.15.074-3.312a16.343,16.343,0,0,0-.1-4.473,1.541,1.541,0,0,1-.074-.47c0-3.534.494-8.18,2.817-10.5a4.937,4.937,0,0,1,3.534-1.483h.223a1.875,1.875,0,0,1,.89.272l.2.124a4.81,4.81,0,0,1,1.433,1.211,4.732,4.732,0,0,1,3.46.741c.124-1.755.371-3.237,1.162-4.028a45.326,45.326,0,0,1,1.31-4.6c.841-2.644,2.1-6.623,1.928-8.007a1.913,1.913,0,0,1,.074-.84c.049-.4.148-1.335.222-2.249.445-4.869.988-10.256,1.977-12.974l.05-2.471a1.731,1.731,0,0,1,.42-1.112,6.441,6.441,0,0,1,6.574-1.631v-.148a1.691,1.691,0,0,1,.741-1.409,5.415,5.415,0,0,1,1.409-.717c.148-.049.321-.124.445-.173a1.837,1.837,0,0,1,3.138-.717c.148.025.371.049.544.074.272.025.593.074.914.124a71.019,71.019,0,0,0,.865-11.072,1.807,1.807,0,0,1,.643-1.409,1.65,1.65,0,0,1,.84-.4,2.179,2.179,0,0,1,.494-.593,1.98,1.98,0,0,1,.865-.47,2.338,2.338,0,0,1,.742-.049,2.643,2.643,0,0,1,.741-.42,2.047,2.047,0,0,1,.766-.1,8.874,8.874,0,0,1,2.768.741,1.885,1.885,0,0,1,.791.667,20.228,20.228,0,0,0,1.063-5.041,17.108,17.108,0,0,1,1.408-5.783c.124-1.236.593-4.374,1.878-13.123.544-3.707,1.113-7.562,1.532-10.577a1.88,1.88,0,0,1-.4-1.285,17.8,17.8,0,0,1,1.038-4.325,22.892,22.892,0,0,0,.791-2.793c.272-1.359.4-2.743.544-4.226a30.338,30.338,0,0,1,1.137-6.747,1.885,1.885,0,0,1,.791-1.013,5.975,5.975,0,0,1,8.3,2.125,1.921,1.921,0,0,1,.272,1.038,56.928,56.928,0,0,0,.815,11.838,1.875,1.875,0,0,1-.025.643,29.846,29.846,0,0,0,.222,9.885,120.875,120.875,0,0,0,4.943-17.6,1.8,1.8,0,0,1,1.038-1.335c.3-.124.618-.247.939-.346a3.351,3.351,0,0,0,.692-.272,1.754,1.754,0,0,1,2.323-.321c.469.3.989.593,1.532.865a16.578,16.578,0,0,1,4.177,2.916c2.15-5.931,5.807-18.312,7.784-26.369-.445-3.707,1.434-9.638,4.671-11.862a1.851,1.851,0,0,1,1.137-.321,6.8,6.8,0,0,0,1.878-.3,6.042,6.042,0,0,1,3.682-.049c2-2.051,3.262-5.066,4.548-8.254a37.689,37.689,0,0,1,3.929-7.785,1.946,1.946,0,0,1,1.508-.741,1.941,1.941,0,0,0,.766-.222,5.069,5.069,0,0,1,2.718-.519,1.766,1.766,0,0,1,1.112.544,4.045,4.045,0,0,0,.618.47c.074-.222.148-.47.247-.692.989-2.793,2.125-5.981,5.388-7.216a1.85,1.85,0,0,1,.964-.1,2.632,2.632,0,0,0,1.112-.074,6.268,6.268,0,0,1,1.8-.173,2.164,2.164,0,0,1,1.9.618,1.8,1.8,0,0,1,1.557-.148,7.822,7.822,0,0,1,3.534,2.545,1.938,1.938,0,0,1,.42,1.038,9.8,9.8,0,0,1,0,1.211c2.249.2,3.386,1.853,4.226,3.064a4.31,4.31,0,0,0,1.408,1.532,1.84,1.84,0,0,1,1.137,1.656c0,.42.024.643.889.791a1.845,1.845,0,0,1,1.557,1.73,3.051,3.051,0,0,0,.2.3c.049.074.123.173.173.247a3.617,3.617,0,0,0,1.013-.1,1.776,1.776,0,0,1,2.372,0c2.447,2.1,3.386,5.264,4.325,8.353l.148.519.371-.074a4,4,0,0,0,.89-.247,1.714,1.714,0,0,1,2.3-.568c3.237,1.631,2.174,4.6,1.68,6.005-.05.124-.074.222-.124.346,3.213.272,4.325,3.855,5.066,6.277.075.222.124.445.2.643a3.552,3.552,0,0,1,2.051,1.186,6.156,6.156,0,0,1,1.26,3.707,11.473,11.473,0,0,1,1.285.247,1.835,1.835,0,0,1,1.285,1.26A47.984,47.984,0,0,1,818.9,71.964c.074,1.236.173,2.471.3,3.756a4.7,4.7,0,0,1,3.286,1.186,1.815,1.815,0,0,1,.4,1.878,8.43,8.43,0,0,0-.272,1.409,8.615,8.615,0,0,1-.667,2.694,32.139,32.139,0,0,1,.371,8.921,36.322,36.322,0,0,0,.173,7.908,5.457,5.457,0,0,0,.371.914,5.591,5.591,0,0,1,.643,3.41,15.506,15.506,0,0,1,.148,5.684c-.05.667-.148,1.557-.124,1.9a.024.024,0,0,0,.025.025,2.369,2.369,0,0,1-.1,1.9,1.829,1.829,0,0,1-.371.47l.766,102.98-.4,44.731-1.236,11.245a1.694,1.694,0,0,1-1.731,1.681m-2.793-47.919,2.076,19.523.123,7.908-.247,9.712.247-2.3.371-44.509-.766-103.4a2.051,2.051,0,0,1,.222-1.532,1.952,1.952,0,0,1,.247-.371,22.019,22.019,0,0,1,.123-2.323c.1-1.112.346-3.732-.024-4.374a1.84,1.84,0,0,1-.346-1.384,1.963,1.963,0,0,1,.247-.667,9.5,9.5,0,0,0-.371-.89,9.029,9.029,0,0,1-.618-1.73,38.414,38.414,0,0,1-.222-8.773c.148-3.213.321-6.252-.445-8.477a1.824,1.824,0,0,1,.469-1.9,6.2,6.2,0,0,0,.3-1.532c.025-.124.025-.247.05-.346h-1.285a2.044,2.044,0,0,1-2-1.606c-.247-1.928-.37-3.756-.494-5.536a51.385,51.385,0,0,0-1.038-8.378,5.3,5.3,0,0,0-.89.124,1.836,1.836,0,0,1-2.224-2.051c.3-2.076-.148-2.941-.272-3.015a2.179,2.179,0,0,1-2.274-1.063c-.247-.593-.47-1.335-.717-2.1-.42-1.384-1.137-3.707-1.953-3.707a1.757,1.757,0,0,0-.815.247,1.823,1.823,0,0,1-1.483.049,1.905,1.905,0,0,1-1.038-1.063,6.364,6.364,0,0,1,.37-4.448,3.3,3.3,0,0,0,.2-.593,6.141,6.141,0,0,1-.865.2,4.71,4.71,0,0,0-1.409.42,1.9,1.9,0,0,1-1.557.1,1.8,1.8,0,0,1-1.088-1.112c-.272-.766-.519-1.582-.741-2.372a18.208,18.208,0,0,0-2.447-5.808,9.09,9.09,0,0,1-3.039.1,1.843,1.843,0,0,1-1.656-1.384,3.342,3.342,0,0,0-.2-.272,6.255,6.255,0,0,1-.568-.89A3.984,3.984,0,0,1,787,32.3a8.2,8.2,0,0,1-2.026-2.274c-1.088-1.582-1.359-1.68-2.348-1.409a1.8,1.8,0,0,1-1.706-.4,1.588,1.588,0,0,1-.321-.371,2.186,2.186,0,0,1-1.038-2.669,1.845,1.845,0,0,1,.445-.766,3.868,3.868,0,0,0-.618-.494,3.678,3.678,0,0,1-2.249.173,2.14,2.14,0,0,1-1.31-.84,3.373,3.373,0,0,0-.568.1,6.628,6.628,0,0,1-1.878.173c-1.434.791-2.1,2.694-2.867,4.844a23.7,23.7,0,0,1-1.582,3.756,1.828,1.828,0,0,1-3.386-.519c-.025-.173-.223-.321-.766-.692-.148-.1-.321-.222-.494-.346a3.9,3.9,0,0,0-.445.173,6.989,6.989,0,0,1-1.236.445,37.935,37.935,0,0,0-3.064,6.351c-1.631,3.954-3.287,8.032-6.673,10.627a1.821,1.821,0,0,1-2.422-.173c-.247-.247-.346-.247-.445-.247a5.023,5.023,0,0,0-1.137.222,10.683,10.683,0,0,1-2.273.42,11.437,11.437,0,0,0-2.669,8.3,2,2,0,0,1-.025.766c-.074.321-7.735,31.04-11.047,32.152a1.888,1.888,0,0,1-1.73-.3,1.82,1.82,0,0,1-.692-1.606c.173-1.705-1.384-2.694-3.954-4.1l-.667-.371c-.247.1-.469.2-.692.272a148.663,148.663,0,0,1-6.771,22.39,1.849,1.849,0,0,1-1.631,1.211,1.906,1.906,0,0,1-1.755-1.038c-2-4.251-2.941-11.912-2.051-16.929a62.249,62.249,0,0,1-.84-11.665,2.2,2.2,0,0,0-2.4-.766,34.115,34.115,0,0,0-.766,5.264c-.148,1.508-.3,3.04-.593,4.6a27.249,27.249,0,0,1-.914,3.237c-.272.84-.544,1.631-.717,2.372a2.1,2.1,0,0,1,.371,1.483c-.445,3.163-1.087,7.513-1.705,11.689-.84,5.783-1.8,12.357-1.878,13.2a1.825,1.825,0,0,1-.321,1.013c-.543.816-.816,2.842-1.063,4.646a21.38,21.38,0,0,1-1.433,6.154c-.222,1.532-1.26,7.34-4.325,7.34-.1,0-.272-.025-.371-.025a1.863,1.863,0,0,1-1.483-1.359,20.555,20.555,0,0,1-.568-4.621.348.348,0,0,1-.1.074,1.7,1.7,0,0,1-1.186.321c-.074,0-.148-.025-.222-.025l-.025.025c-.124,8.328-1.854,16.113-3.534,23.675l-.42,1.928a1.815,1.815,0,0,1-1.952,1.433,1.863,1.863,0,0,1-1.681-1.779c-.148-4.646,0-8.279,1.162-12.085a1.976,1.976,0,0,1-.371-.074,5.312,5.312,0,0,1-1.384.717,12.937,12.937,0,0,1-.494,1.779,8.759,8.759,0,0,0-.346,1.211,1.831,1.831,0,0,1-1.8,1.508h-.05a1.851,1.851,0,0,1-1.779-1.582c-.025-.247-.1-.692-1.063-.692a3.165,3.165,0,0,0-1.384.346l-.05,1.952a1.855,1.855,0,0,1-.124.643c-.939,2.323-1.557,9.045-1.828,12.258-.1,1.087-.173,1.928-.3,2.57.173,2.051-.766,5.19-2.1,9.342a32.845,32.845,0,0,0-1.285,4.646,1.908,1.908,0,0,1-.618,1.409,1.1,1.1,0,0,1-.272.2,32.427,32.427,0,0,0-.247,3.46c-.123,2.916-.222,5.931-1.31,7.809a1.8,1.8,0,0,1-1.705.914,1.875,1.875,0,0,1-1.581-1.137,24.347,24.347,0,0,1-1.26-6.8v-.049a.692.692,0,0,0-.272-.049,6.062,6.062,0,0,0-1.458.321l-.2.049a1.817,1.817,0,0,1-1.68-.4,1.784,1.784,0,0,1-.618-1.483,1.293,1.293,0,0,0-.618.346c-1.087,1.087-1.73,3.954-1.73,7.711a20.181,20.181,0,0,1,.173,5.363,26.774,26.774,0,0,0-.074,3.089,7.57,7.57,0,0,0,.025,1.087,2.334,2.334,0,0,1,.247-.42c.049-.049.074-.1.123-.124.223-.544.618-1.73.939-2.694a54.95,54.95,0,0,1,2.619-6.771,1.845,1.845,0,0,1,1.68-.964,1.824,1.824,0,0,1,1.607,1.063,14.492,14.492,0,0,1,.914,4.918,18.071,18.071,0,0,0,.4,3.139,3.323,3.323,0,0,0,.123.42,6.96,6.96,0,0,0,1.063-.1c1.73-3.386,4.1-11.245,4.1-12.554a1.905,1.905,0,0,1,1.408-1.829,1.813,1.813,0,0,1,2.051.89c.346.667.47,1.8.717,5.635.074.989.148,2.249.222,2.966a5.286,5.286,0,0,1,1.681,1.878,1.97,1.97,0,0,1,.741-.84c.445-2.422.766-5.017,1.063-7.538.741-5.808,1.482-11.838,3.682-16.484a1.834,1.834,0,0,1,3.484.939c-.173,2.3-.3,3.979-.4,5.462-.1,1.334-.173,2.545-.272,3.929a1.97,1.97,0,0,1,0,3.015c-.2.148-.222.173-.025,1.087a6.881,6.881,0,0,1,.2,1.211,3.47,3.47,0,0,1,.371.741,1.841,1.841,0,0,1-.123,1.31,4.327,4.327,0,0,1-.3.494,4.328,4.328,0,0,1,.173,1.087c.247.173.445.346.642.494.025-.4.049-.816.074-1.31.025-.643.049-1.384.123-2.224a1.779,1.779,0,0,1,.742-1.285,1.556,1.556,0,0,1,1.087-.346,3.519,3.519,0,0,1,.964-.791,4.956,4.956,0,0,1,.89-1.384,1.715,1.715,0,0,0,.321-.445,1.831,1.831,0,0,1,1.31-1.359c1.186-.3,1.458-2.1,1.755-4.794a13.386,13.386,0,0,1,1.013-4.671c.1-3.88.4-8.18,2.15-11.2a1.847,1.847,0,0,1,1.952-.865,4.074,4.074,0,0,1,2.125,1.186l.074.074a27.866,27.866,0,0,0,1.483-5.907c.222-1.26.47-2.595.791-3.831a1.855,1.855,0,0,1,1.087-1.26,3.832,3.832,0,0,1,1.384-.272,5.943,5.943,0,0,1,2.817.914,2.069,2.069,0,0,1,.791.741h.025a1.013,1.013,0,0,1,.272-.025c1.088-2.891,2.051-6.005,2.966-9.02q.89-3,1.854-5.931a1.833,1.833,0,0,1,3.559.4,3.4,3.4,0,0,0,3.163,2.817c.494,0,1.211-.148,1.532-1.483a1.663,1.663,0,0,1,.247-.568c.05-.074,3.51-5.264,6.005-7.192a7.029,7.029,0,0,0-.024-1.013c-.074-1.334-.173-3.534,1.829-4.275a1.829,1.829,0,0,1,2.1.643,15.8,15.8,0,0,1,2.249,5.56c.692,2.669,1.186,4.078,2.471,4.671.321-.964.692-1.878,1.038-2.669.247-.593.469-1.112.593-1.508.049-.148.222-1.038.519-2.4,3.855-17.769,5.066-22.044,5.783-23.156a1.774,1.774,0,0,1,1.508-.84h0a3.932,3.932,0,0,1,1.532.3c.024-.321.024-.643.024-.89.05-1.433.1-3.064,1.063-4.2a1.828,1.828,0,0,1,1.829-.618,1.746,1.746,0,0,1,1.359,1.359c.618,2.57,1.557,4.127,3.015,4.967a11.376,11.376,0,0,0,.939-2.644,23.167,23.167,0,0,1,.89-2.718,1.806,1.806,0,0,1,1.755-1.112,1.828,1.828,0,0,1,1.68,1.26,3.129,3.129,0,0,0,1.161,1.631,9.146,9.146,0,0,1,.865-3.485c.173-.346.272-.568-.222-2.595a1.862,1.862,0,0,1,1.013-2.1,1.841,1.841,0,0,1,2.249.568l1.68,2.3a1.87,1.87,0,0,1,.148,1.928c-.816,1.557-.3,4.621.494,6.8h.05a45.422,45.422,0,0,0,1.532-5.536c.939-3.929,1.9-7.982,4.325-10.923a5.721,5.721,0,0,1,1.013-3.485A1.8,1.8,0,0,1,778,87.212a1.833,1.833,0,0,1,1.433,1.137,40.789,40.789,0,0,1,1.9,6.6c.222.074.4.173.568.247,1.186-2.051,1.68-5.19,2.15-8.2.47-3.089.964-6.277,2.249-8.823a1.84,1.84,0,0,1,3.411.3A42.6,42.6,0,0,1,791,86.372c.123,1.384.272,2.793.494,4.3a2.822,2.822,0,0,1,1.68,1.384,1.806,1.806,0,0,1,.025,1.631,25.731,25.731,0,0,1,1.582,6.1c.618,3.485,1.137,5.857,2.669,6.994a.024.024,0,0,1,.025-.025,4.574,4.574,0,0,1,2.62-2.916,1.905,1.905,0,0,1,1.557.148,1.8,1.8,0,0,1,.865,1.285,118.539,118.539,0,0,1,.939,13.32c.148,4.226.3,8.6.816,12.876a5.638,5.638,0,0,1,1.73,2.051,3.527,3.527,0,0,0,.544.791,1.994,1.994,0,0,1,.717.717A13.454,13.454,0,0,1,808.374,138a8.873,8.873,0,0,0,.321,1.038c.593.717.716,1.779.889,3.41a18.4,18.4,0,0,0,.322,2.175,1.852,1.852,0,0,1,.667,1.162l.247,1.705a25.611,25.611,0,0,0,1.211,5.931,1.963,1.963,0,0,1,.148.544l1.507,12.653,3.954,34.673a.616.616,0,0,1,.025.2Z" transform="translate(801.259 28.853)" fill="#fff"/>
  <rect id="XMLID_83_" width="11.689" height="11.689" transform="translate(1612.022 301.66) rotate(-45)" fill="#fff"/>
  <path id="XMLID_82_" d="M352.3,309.54h802.318a1.825,1.825,0,0,1-1.829-1.829c.049-17.077.049-52.985.049-84.667,0-21.6-.025-41.592,0-53.133a32.923,32.923,0,0,0-12.381-26.542c-6.5-5.387-13.221-10.75-19.721-15.915q-4.893-3.892-9.762-7.809c-3.583-2.867-7.142-5.783-10.652-8.625l-4.374-3.534a1.862,1.862,0,0,1-.618-1.878c1.829-7.315,7.587-16.212,14.334-22.143,6.228-5.462,10.8-7.463,22.786-9.737,4.5-10.182,11.887-15.841,22.044-16.8l.049-.148c.321-.964.618-1.878.964-2.793.173-.494.346-.964.519-1.458a37.366,37.366,0,0,1,1.656-4.226c4.028-8.2,10.577-12.357,19.474-12.357h.049c8.872.025,15.4,4.251,19.4,12.554a51.739,51.739,0,0,1,2.372,6.3c.223.667.445,1.335.667,2.026,4.547.766,9.268,1.9,13.271,5.091a30.687,30.687,0,0,1,8.8,11.887c6.3.914,12.851,2.4,18.56,6.351a48.387,48.387,0,0,1,11.022,10.627,53.372,53.372,0,0,1,7.809,14.037,1.9,1.9,0,0,1-.47,1.977c-.4.346-.741.717-1.112,1.063-.815.791-1.606,1.532-2.471,2.249q-20.055,16.162-40.159,32.251a34.853,34.853,0,0,0-10.182,12.554,32.558,32.558,0,0,0-3.262,14.062c.1,28.247.1,106.489.025,136.936h144.6v3.658H1199.644a1.857,1.857,0,0,1-1.853-1.829c.074-29.038.074-109.924-.025-138.765a35.6,35.6,0,0,1,3.608-15.619,38.442,38.442,0,0,1,11.22-13.864q20.129-16.088,40.134-32.251c.741-.593,1.458-1.285,2.224-2.026a2.463,2.463,0,0,1,.272-.247A51.037,51.037,0,0,0,1248.354,93a44.739,44.739,0,0,0-10.182-9.836c-5.066-3.534-10.849-4.893-17.967-5.882a1.878,1.878,0,0,1-1.458-1.112,28.037,28.037,0,0,0-8.131-11.418c-3.608-2.891-8.032-3.781-12.629-4.523a1.817,1.817,0,0,1-1.433-1.186c-.371-1.063-.716-2.1-1.062-3.114a50.759,50.759,0,0,0-2.2-5.857c-3.386-7.043-8.65-10.478-16.113-10.478h-.05c-7.489,0-12.777,3.361-16.187,10.305a38.231,38.231,0,0,0-1.483,3.806c-.173.494-.346,1.013-.544,1.507-.321.865-.618,1.755-.939,2.694l-.445,1.31a1.874,1.874,0,0,1-1.631,1.236c-9.712.544-16.409,5.635-20.487,15.569a1.8,1.8,0,0,1-1.359,1.087c-12.06,2.249-16.163,3.929-22.019,9.07-5.906,5.19-10.973,12.727-12.9,19.177l3.435,2.793c3.509,2.867,7.068,5.758,10.651,8.625q4.856,3.929,9.762,7.809c6.524,5.19,13.246,10.553,19.771,15.965a36.467,36.467,0,0,1,13.716,29.359c-.025,11.541,0,31.509,0,53.133,0,31.682.025,67.591-.025,84.667a1.841,1.841,0,0,1-1.829,1.829" transform="translate(572.602 52.891)" fill="#fff"/>
  <path id="XMLID_81_" d="M781.3,235.253a1.825,1.825,0,0,1-1.829-1.829V88.259a1.829,1.829,0,1,1,3.657,0V233.4a1.846,1.846,0,0,1-1.829,1.853" transform="translate(985.189 127.178)" fill="#fff"/>
  <path id="XMLID_80_" d="M781.135,238.861a1.825,1.825,0,0,1-1.829-1.829V92.509a10.434,10.434,0,0,0-.371-2.595,12.012,12.012,0,0,0-.618,2.595v144.5a1.829,1.829,0,0,1-3.658,0V92.385c.025-.346.445-5.14,3.509-7.933a1.848,1.848,0,0,1,2.892.544,19.968,19.968,0,0,1,1.9,7.488v144.5a1.852,1.852,0,0,1-1.829,1.878" transform="translate(978.112 123.57)" fill="#fff"/>
  <path id="XMLID_79_" d="M774.77,238.852a1.825,1.825,0,0,1-1.829-1.829V92.376h0a11.91,11.91,0,0,0-.593-2.471,10.454,10.454,0,0,0-.371,2.595V237a1.829,1.829,0,1,1-3.657,0V92.5a19.97,19.97,0,0,1,1.9-7.488,1.756,1.756,0,0,1,1.285-.989,1.788,1.788,0,0,1,1.582.445c3.089,2.768,3.484,7.587,3.509,7.785v144.77a1.841,1.841,0,0,1-1.829,1.829" transform="translate(968.783 123.579)" fill="#fff"/>
  <path id="XMLID_78_" d="M767.629,235.253a1.825,1.825,0,0,1-1.829-1.829V88.259a1.829,1.829,0,0,1,3.658,0V233.4a1.846,1.846,0,0,1-1.829,1.853" transform="translate(965.076 127.178)" fill="#fff"/>
  <path id="XMLID_75_" d="M804.294,72.966a.483.483,0,0,1-.2-.025l-4.547-.519a1.813,1.813,0,0,1-1.458-1.087c-.1-.2-2.175-4.967-2.62-6.178a3.4,3.4,0,0,1-.025-2.521l-.321-.593a1.884,1.884,0,0,1,0-1.705,1.075,1.075,0,0,1,.1-.173,15.342,15.342,0,0,1-.321-2.076,1.886,1.886,0,0,1,.964-1.779,1.843,1.843,0,0,1,2,.173c1.384,1.063,2.669,3.682,3.262,5.041l.321.124a1.87,1.87,0,0,1,1.137,1.186l.247.791a5.7,5.7,0,0,1,1.582,2.249l1.508,4.3a1.724,1.724,0,0,1,.247.939,1.871,1.871,0,0,1-1.878,1.853Zm-3.287-4.053.568.074-.618-1.779a3.127,3.127,0,0,0-.371-.618,1.836,1.836,0,0,1-.939-.84c.445,1.013.964,2.249,1.359,3.163" transform="translate(1007.888 82.541)" fill="#fff"/>
  <path id="XMLID_72_" d="M795.715,72.362h-.074l-9.465-.4a1.792,1.792,0,0,1-1.705-1.409c-.124-.494-1.137-4.844-1.359-6.03a2.815,2.815,0,0,1,.469-2.175,2.655,2.655,0,0,1,.494-.544l-.1-.568a1.864,1.864,0,0,1,.4-1.508,1.43,1.43,0,0,1,.568-.445,6.722,6.722,0,0,1,.717-3.435,1.8,1.8,0,0,1,2.471-.692,10.03,10.03,0,0,1,4.078,4.523h.568a1.825,1.825,0,0,1,1.829,1.829v1.063a4.512,4.512,0,0,1,1.755,2.644l1.063,4.547a1.936,1.936,0,0,1,.173.766,1.825,1.825,0,0,1-1.829,1.829h-.049m-8.007-4,5.684.222-.593-2.545a1.1,1.1,0,0,0-.223-.42,1.691,1.691,0,0,1-1.606-1.779v-.47a1.824,1.824,0,0,1-1.73-1.359,5.443,5.443,0,0,0-.346-.84,1.728,1.728,0,0,1-.346.89,1.7,1.7,0,0,1-.593.519,1.832,1.832,0,0,1-1.087,1.952c.173.939.544,2.57.84,3.831" transform="translate(990.469 80.822)" fill="#fff"/>
  <path id="XMLID_69_" d="M748.485,72.936a1.921,1.921,0,0,1-1.433-.667,1.758,1.758,0,0,1-.3-1.73l1.532-4.547a5.871,5.871,0,0,1,1.557-2.323l.223-.791a1.763,1.763,0,0,1,1.112-1.211l.272-.1c.618-1.433,1.829-3.979,3.138-5.042a1.8,1.8,0,0,1,2-.2,1.821,1.821,0,0,1,.964,1.779,19.665,19.665,0,0,1-.3,2.1,1.089,1.089,0,0,1,.1.173,1.834,1.834,0,0,1,.025,1.681l-.321.618a3.67,3.67,0,0,1-.025,2.521c-.445,1.236-2.446,5.981-2.521,6.178a1.8,1.8,0,0,1-1.483,1.112l-4.374.519c-.025-.074-.1-.074-.173-.074m3.633-6.4a2.628,2.628,0,0,0-.371.692l-.593,1.73.445-.049c.346-.84.766-1.878,1.161-2.817a2.463,2.463,0,0,1-.642.445" transform="translate(936.893 82.571)" fill="#fff"/>
  <path id="XMLID_66_" d="M769.559,71.871H758.586a1.825,1.825,0,0,1-1.829-1.829V67.2c-.1-1.73.346-3.831,1.73-4.893V61.64a1.825,1.825,0,0,1,1.829-1.829h.939c.667-1.582,2.125-4.028,4.671-4.7a1.836,1.836,0,0,1,2.125.989,10.5,10.5,0,0,1,.816,3.361h.1a1.825,1.825,0,0,1,1.829,1.829v1.112a1.491,1.491,0,0,1,.2.2,3.542,3.542,0,0,1,.741,2.793l-.346,4.745a1.855,1.855,0,0,1-1.828,1.73m-9.169-3.682h7.439l.223-3.089V65.05a1.829,1.829,0,0,1-.939-1.606v-.321h-.148a1.758,1.758,0,0,1-1.384-.643,1.833,1.833,0,0,1-.42-1.458,6.154,6.154,0,0,0,.049-.939,8.346,8.346,0,0,0-.939,2.051,1.831,1.831,0,0,1-1.779,1.335h-.4a1.848,1.848,0,0,1-1.408,1.779,4.222,4.222,0,0,0-.3,1.878v1.063Z" transform="translate(951.753 81.016)" fill="#fff"/>
  <path id="XMLID_63_" d="M784.459,72.454H771.386a1.825,1.825,0,0,1-1.829-1.829V65.954a4.212,4.212,0,0,1,1.9-3.855v-.741a1.825,1.825,0,0,1,1.829-1.829h.643a6.647,6.647,0,0,1,3.213-4.448,1.78,1.78,0,0,1,1.581,0c1.928.914,2.793,2.966,3.213,4.448h.642a1.825,1.825,0,0,1,1.829,1.829V62.1a4.212,4.212,0,0,1,1.9,3.855v4.671a1.862,1.862,0,0,1-1.854,1.829M773.215,68.8h9.416V65.658c.025-.445-.3-.519-.519-.568A1.848,1.848,0,0,1,780.7,63.31v-.1h-.3a1.846,1.846,0,0,1-1.829-1.656,6.951,6.951,0,0,0-.667-2.274,6.616,6.616,0,0,0-.667,2.274,1.828,1.828,0,0,1-1.829,1.656h-.3v.1a1.821,1.821,0,0,1-1.409,1.779c-.2.049-.543.124-.494.618Z" transform="translate(970.586 80.78)" fill="#fff"/>
  <path id="XMLID_62_" d="M900.2,69.513a1.2,1.2,0,0,1-.3-.025c-7.982-1.335-28.222-2.916-79.28-2.916-48.784,0-69.246,1.458-77.8,2.669a1.835,1.835,0,1,1-.519-3.633c8.674-1.236,29.31-2.718,78.316-2.718,51.329,0,71.767,1.606,79.9,2.966a1.836,1.836,0,0,1,1.507,2.1,1.893,1.893,0,0,1-1.829,1.557" transform="translate(928.192 92.543)" fill="#fff"/>
  <path id="XMLID_61_" d="M765.9,48.635a1.833,1.833,0,0,1-.173-3.658,251.6,251.6,0,0,1,42.754-.2,1.831,1.831,0,0,1,1.68,1.977,1.788,1.788,0,0,1-1.977,1.681,249.53,249.53,0,0,0-42.136.2H765.9" transform="translate(962.525 64.711)" fill="#fff"/>
  <path id="XMLID_60_" d="M843.646,56.306h-.173c-47.326-4.671-74.634-1.483-86.3-.124a1.829,1.829,0,1,1-.42-3.633c11.788-1.359,39.368-4.6,87.089.124a1.832,1.832,0,0,1,1.656,2,1.888,1.888,0,0,1-1.854,1.631" transform="translate(949.383 73.869)" fill="#fff"/>
  <path id="XMLID_59_" d="M782.439,53.21a1.669,1.669,0,0,1-.865-.222,1.81,1.81,0,0,1-2.52-1.359,63.666,63.666,0,0,0-1.681-7.241,1.941,1.941,0,0,1-.049-.84l.074-.371c-.4-1.359-.593-2.323.049-3.139a1.956,1.956,0,0,1,1.581-.717c1.409.074,2.15,1.73,2.471,2.842l.494.643a1.4,1.4,0,0,1,.3.568,66.6,66.6,0,0,1,1.952,7.661,1.828,1.828,0,0,1-1.433,2.15c-.124,0-.247.025-.371.025" transform="translate(981.601 57.863)" fill="#fff"/>
  <path id="XMLID_58_" d="M774.059,53.058a1.825,1.825,0,0,1-1.829-1.829V44.013a1.737,1.737,0,0,1,.494-1.236l.4-.42c.272-2.669,1.458-3.237,2.471-3.237.989,0,2.2.593,2.472,3.237l.4.42a1.824,1.824,0,0,1,.494,1.236v7.216a1.825,1.825,0,0,1-1.829,1.829,1.853,1.853,0,0,1-1.532-.816,1.819,1.819,0,0,1-1.532.816" transform="translate(974.536 57.569)" fill="#fff"/>
  <path id="XMLID_57_" d="M769.04,52.749a2.464,2.464,0,0,1-.4-.049,1.831,1.831,0,0,1-1.409-2.175,58.1,58.1,0,0,1,1.977-7.093,1.673,1.673,0,0,1,.346-.568l.494-.568c.371-1.063,1.137-2.545,2.471-2.595a1.945,1.945,0,0,1,1.582.741c.643.84.4,1.829.05,2.941l.049.272a1.652,1.652,0,0,1-.049.914,54.706,54.706,0,0,0-1.681,6.6,1.832,1.832,0,0,1-2.15,1.458,2.07,2.07,0,0,1-.371-.1,2,2,0,0,1-.914.222" transform="translate(967.124 58.423)" fill="#fff"/>
  <rect id="XMLID_56_" width="11.689" height="11.689" transform="translate(1741.488 90.631) rotate(-45)" fill="#fff"/>
  <rect id="XMLID_55_" width="10.528" height="10.528" transform="translate(1821.034 160.266) rotate(-45)" fill="#fff"/>
  <rect id="XMLID_54_" width="10.528" height="10.528" transform="translate(1663.312 160.257) rotate(-45)" fill="#fff"/>
  <path id="XMLID_53_" d="M820.419,189.726A1.778,1.778,0,0,1,818.59,188V119.121a1.832,1.832,0,0,1,3.658,0V188a1.778,1.778,0,0,1-1.829,1.731" transform="translate(1042.747 172.73)" fill="#fff"/>
  <path id="XMLID_52_" d="M848.116,133.7a1.8,1.8,0,0,1-1.755-1.359,16.154,16.154,0,0,0-31.188,0,1.832,1.832,0,0,1-3.534-.964,19.811,19.811,0,0,1,38.256,0,1.833,1.833,0,0,1-1.285,2.249,1.992,1.992,0,0,1-.494.074" transform="translate(1032.423 171.744)" fill="#fff"/>
  <path id="XMLID_51_" d="M841.9,122.994a1.817,1.817,0,0,1-1.186-.445,16.222,16.222,0,0,0-19.622-.964,1.83,1.83,0,1,1-2.076-3.015,19.859,19.859,0,0,1,24.071,1.162,1.864,1.864,0,0,1,.222,2.595,1.826,1.826,0,0,1-1.409.667" transform="translate(1042.201 169.3)" fill="#fff"/>
  <path id="XMLID_50_" d="M819.776,128.894a1.9,1.9,0,0,1-.371-.049A1.819,1.819,0,0,1,818,126.67,19.854,19.854,0,0,1,836.309,111a1.8,1.8,0,0,1,1.928,1.73,1.828,1.828,0,0,1-1.73,1.928,16.171,16.171,0,0,0-14.927,12.777,1.868,1.868,0,0,1-1.8,1.458" transform="translate(1041.808 163.327)" fill="#fff"/>
  <path id="XMLID_49_" d="M811.961,122.984a1.83,1.83,0,0,1-1.186-3.237,19.823,19.823,0,0,1,24.071-1.162,1.83,1.83,0,0,1-2.076,3.015,16.186,16.186,0,0,0-19.622.964,1.885,1.885,0,0,1-1.186.42" transform="translate(1030.297 169.31)" fill="#fff"/>
  <path id="XMLID_48_" d="M830.947,128.894a1.82,1.82,0,0,1-1.779-1.458,16.2,16.2,0,0,0-14.927-12.777,1.828,1.828,0,0,1-1.73-1.928,1.8,1.8,0,0,1,1.928-1.73,19.827,19.827,0,0,1,18.313,15.668,1.819,1.819,0,0,1-1.409,2.175,1.156,1.156,0,0,1-.4.049" transform="translate(1033.8 163.327)" fill="#fff"/>
  <path id="XMLID_47_" d="M315.85,145.16h80.565a1.829,1.829,0,0,1,0,3.658H315.85" transform="translate(303.055 213.588)" fill="#fff"/>
  <path id="XMLID_46_" d="M557.856,148.828H496.469a1.829,1.829,0,0,1,0-3.658h61.388" transform="translate(566.112 213.603)" fill="#fff"/>
  <path id="XMLID_42_" d="M623.451,207.268V105.943a1.434,1.434,0,0,0-1.433-1.433h-100.9a1.435,1.435,0,0,0-1.434,1.433V207.268m95.962-61.659h7.809m-61.585,37.96H541.823v-37.96h20.042Z" transform="translate(602.954 153.779)" fill="none" stroke="#fff" stroke-linecap="round" stroke-miterlimit="10" stroke-width="1.102"/>
  <line id="XMLID_41_" x2="103.771" transform="translate(1122.634 285.671)" fill="none" stroke="#fff" stroke-linecap="round" stroke-miterlimit="10" stroke-width="1.218"/>
  <line id="XMLID_40_" x1="12.357" transform="translate(1198.776 345.205)" fill="none" stroke="#fff" stroke-linecap="round" stroke-miterlimit="10" stroke-width="1.218"/>
  <line id="XMLID_39_" x1="12.357" transform="translate(1191.164 351.458)" fill="none" stroke="#fff" stroke-linecap="round" stroke-miterlimit="10" stroke-width="1.218"/>
  <line id="XMLID_38_" x1="12.381" transform="translate(1175.941 351.458)" fill="none" stroke="#fff" stroke-linecap="round" stroke-miterlimit="10" stroke-width="1.218"/>
  <line id="XMLID_37_" x1="12.357" transform="translate(1160.742 351.458)" fill="none" stroke="#fff" stroke-linecap="round" stroke-miterlimit="10" stroke-width="1.218"/>
  <line id="XMLID_36_" x1="12.357" transform="translate(1145.519 351.458)" fill="none" stroke="#fff" stroke-linecap="round" stroke-miterlimit="10" stroke-width="1.218"/>
  <line id="XMLID_35_" x1="9.564" transform="translate(1125.501 345.205)" fill="none" stroke="#fff" stroke-linecap="round" stroke-miterlimit="10" stroke-width="1.218"/>
  <line id="XMLID_34_" x1="12.357" transform="translate(1137.907 345.205)" fill="none" stroke="#fff" stroke-linecap="round" stroke-miterlimit="10" stroke-width="1.218"/>
  <line id="XMLID_33_" x1="12.357" transform="translate(1183.552 345.205)" fill="none" stroke="#fff" stroke-linecap="round" stroke-miterlimit="10" stroke-width="1.218"/>
  <line id="XMLID_32_" x1="12.381" transform="translate(1168.329 345.205)" fill="none" stroke="#fff" stroke-linecap="round" stroke-miterlimit="10" stroke-width="1.218"/>
  <line id="XMLID_31_" x1="12.357" transform="translate(1153.13 345.205)" fill="none" stroke="#fff" stroke-linecap="round" stroke-miterlimit="10" stroke-width="1.218"/>
  <rect id="XMLID_30_" width="20.042" height="37.959" transform="translate(1144.753 299.412)" fill="none" stroke="#fff" stroke-linecap="round" stroke-miterlimit="10" stroke-width="1.218"/>
  <line id="XMLID_29_" x1="9.564" transform="translate(1213.974 345.205)" fill="none" stroke="#fff" stroke-linecap="round" stroke-miterlimit="10" stroke-width="1.218"/>
  <line id="XMLID_28_" x2="10.726" transform="translate(1122.634 299.387)" fill="none" stroke="#fff" stroke-linecap="round" stroke-miterlimit="10" stroke-width="1.218"/>
  <line id="XMLID_27_" x1="17.151" transform="translate(1125.501 351.458)" fill="none" stroke="#fff" stroke-linecap="round" stroke-miterlimit="10" stroke-width="1.218"/>
  <line id="XMLID_26_" x1="12.357" transform="translate(1137.907 358.106)" fill="none" stroke="#fff" stroke-linecap="round" stroke-miterlimit="10" stroke-width="1.218"/>
  <line id="XMLID_25_" x1="12.357" transform="translate(1153.13 358.106)" fill="none" stroke="#fff" stroke-linecap="round" stroke-miterlimit="10" stroke-width="1.218"/>
  <line id="XMLID_24_" x1="12.381" transform="translate(1168.329 358.106)" fill="none" stroke="#fff" stroke-linecap="round" stroke-miterlimit="10" stroke-width="1.218"/>
  <line id="XMLID_23_" x1="12.357" transform="translate(1183.552 358.106)" fill="none" stroke="#fff" stroke-linecap="round" stroke-miterlimit="10" stroke-width="1.218"/>
  <line id="XMLID_22_" x1="12.357" transform="translate(1198.776 358.106)" fill="none" stroke="#fff" stroke-linecap="round" stroke-miterlimit="10" stroke-width="1.218"/>
  <line id="XMLID_21_" x1="17.151" transform="translate(1206.387 351.458)" fill="none" stroke="#fff" stroke-linecap="round" stroke-miterlimit="10" stroke-width="1.218"/>
  <line id="XMLID_20_" x1="9.564" transform="translate(1125.501 358.106)" fill="none" stroke="#fff" stroke-linecap="round" stroke-miterlimit="10" stroke-width="1.218"/>
  <line id="XMLID_19_" x1="9.564" transform="translate(1213.974 358.106)" fill="none" stroke="#fff" stroke-linecap="round" stroke-miterlimit="10" stroke-width="1.218"/>
  <path id="XMLID_18_" d="M556.486,120.77a1.174,1.174,0,0,1,0,2.348,1.174,1.174,0,1,1,0-2.348Z" transform="translate(655.363 177.703)" fill="none" stroke="#fff" stroke-linecap="round" stroke-miterlimit="10" stroke-width="1.218"/>
  <path id="XMLID_17_" d="M540.016,120.77a1.174,1.174,0,0,1,0,2.348,1.174,1.174,0,1,1,0-2.348Z" transform="translate(631.13 177.703)" fill="none" stroke="#fff" stroke-linecap="round" stroke-miterlimit="10" stroke-width="1.218"/>
  <path id="XMLID_16_" d="M526.666,120.77a1.174,1.174,0,0,1,0,2.348,1.174,1.174,0,1,1,0-2.348Z" transform="translate(611.488 177.703)" fill="none" stroke="#fff" stroke-linecap="round" stroke-miterlimit="10" stroke-width="1.218"/>
  <line id="XMLID_15_" x2="27.802" transform="translate(1176.558 299.387)" fill="none" stroke="#fff" stroke-linecap="round" stroke-miterlimit="10" stroke-width="1.218"/>
</svg>
