<svg xmlns="http://www.w3.org/2000/svg" width="129" height="81" viewBox="0 0 129 81">
  <path id="active_users_card" data-name="active users card" d="M129,81H93.869V66.526c0-7.85-3.877-14.593-11.523-20.042a41.686,41.686,0,0,1,5.48-.278,73.18,73.18,0,0,1,16.863,2.227,57.465,57.465,0,0,1,16.722,6.82,20.084,20.084,0,0,1,5.691,5.323,10.53,10.53,0,0,1,1.9,5.95V81ZM82.066,81H0V66.526a10.53,10.53,0,0,1,1.9-5.95,20.084,20.084,0,0,1,5.691-5.323,57.475,57.475,0,0,1,16.723-6.82,73.177,73.177,0,0,1,16.862-2.227A71.431,71.431,0,0,1,57.9,48.433a55.411,55.411,0,0,1,16.582,6.82,20.089,20.089,0,0,1,5.691,5.323,10.529,10.529,0,0,1,1.9,5.95V81Zm5.761-46.206a17.145,17.145,0,0,1-8.712-2.366,17.815,17.815,0,0,1-6.464-6.4,16.776,16.776,0,0,1,0-17.258,17.806,17.806,0,0,1,6.464-6.4,17.224,17.224,0,0,1,17.425,0A17.811,17.811,0,0,1,103,8.768a16.781,16.781,0,0,1,0,17.258,17.82,17.82,0,0,1-6.464,6.4A17.146,17.146,0,0,1,87.827,34.794Zm-46.653,0a17.14,17.14,0,0,1-8.712-2.366A17.825,17.825,0,0,1,26,26.026,16.781,16.781,0,0,1,26,8.768a17.817,17.817,0,0,1,6.465-6.4A17.14,17.14,0,0,1,41.173,0a16.766,16.766,0,0,1,8.642,2.366A17.6,17.6,0,0,1,56.139,8.7a17.007,17.007,0,0,1,2.318,8.7,17.007,17.007,0,0,1-2.318,8.7,17.607,17.607,0,0,1-6.324,6.332A16.766,16.766,0,0,1,41.173,34.794Z" fill="rgba(233,233,233,0.85)" opacity="0.701"/>
</svg>
