<svg xmlns="http://www.w3.org/2000/svg" viewBox="0 0 399.57 170.18"><defs><style>.cls-1{fill:#07706e;}.cls-2{fill:#85bc46;}.cls-3{fill:#3d3d3c;}.cls-4{fill:#b3b4b4;}</style></defs><title>Asset 8</title><g id="Layer_2" data-name="Layer 2"><g id="Layer_5" data-name="Layer 5"><path class="cls-1" d="M314.41,0l.07,19.18c-1,.89-3.08,3.8-5.79,13a.34.34,0,0,1-.52.19c-1.69-1.28-9.1-6-21.44-1.64a.33.33,0,0,0,0,.62c1.71.7,5.72,2.57,8,5.13a.33.33,0,0,1-.27.54c-4.72-.14-31.26.64-51.58,32.89a.34.34,0,0,0,.48.45c5-3.57,23.19-15.49,39.12-14.26a.33.33,0,0,1,.12.63c-5.72,2.68-31,16.7-36.64,56.44a.33.33,0,0,0,.62.21c3.55-6.31,17.87-29.95,37.77-38.39a.33.33,0,0,1,.39.52c-3.85,4.76-19,26-15.59,60.94a.33.33,0,0,0,.64.06c2.06-6.74,10.76-33.28,25.35-49.39a.32.32,0,0,1,.57.26c-.95,6.07-5.2,35.85.08,59.2a.34.34,0,0,0,.66-.05c.8-8.78,4.46-43.63,12.2-54.31a.31.31,0,0,1,.26-.14l.29,0L311,113.39H308l2.4,28.56h-2.78l1.54,28.21A85.19,85.19,0,0,1,314.41,0Z"/><path class="cls-2" d="M314.42,0l.08,19.18c1,.88,3.11,3.77,5.89,13a.34.34,0,0,0,.52.19c1.68-1.29,9-6.1,21.43-1.8a.33.33,0,0,1,0,.62c-1.69.71-5.69,2.62-7.94,5.18a.33.33,0,0,0,.27.54c4.72-.17,31.27.4,51.83,32.5a.33.33,0,0,1-.47.45c-5.08-3.53-23.31-15.31-39.23-14a.33.33,0,0,0-.12.62c5.74,2.64,31.11,16.46,37.07,56.16a.33.33,0,0,1-.62.22c-3.59-6.28-18.09-29.82-38.06-38.11a.34.34,0,0,0-.38.53c3.89,4.73,19.24,25.82,16.06,60.81a.33.33,0,0,1-.64.07C358,129.44,349.1,103,334.39,87a.32.32,0,0,0-.57.27c1,6.05,5.47,35.8.37,59.19a.33.33,0,0,1-.65-.05c-.88-8.76-4.8-43.58-12.62-54.21a.37.37,0,0,0-.27-.13l-.28,0-1.62,21.34h2.93l-2.18,28.58,2.77,0L321,170.14A85.2,85.2,0,0,0,314.42,0Z"/><path class="cls-3" d="M192.74,33.45l.06,15.91a9.56,9.56,0,0,1-9.53,9.6L161.56,59l-.19-48.85-7.64,0a3,3,0,0,0-3,3L151,59.08l-23.14.09,0-6.58A27.18,27.18,0,0,0,100.5,25.52l-3.26,0,0,7.63a3,3,0,0,0,3,3h.3a16.56,16.56,0,0,1,16.62,16.5l0,6.58-27.68.11a3,3,0,0,0-3,3l0,7.64,30.66-.12,4.82,0L151,69.69l5.3,0,27-.11a20.17,20.17,0,0,0,20.1-20.24l-.08-18.89-7.63,0A3,3,0,0,0,192.74,33.45Z"/><path class="cls-3" d="M77.34,59.36,29,59.55l-8.21,0a9.56,9.56,0,0,1-9.6-9.53L11.09,34.2a3,3,0,0,0-3-3l-7.64,0L.55,50.09a20.17,20.17,0,0,0,20.24,20.1l8.21,0,8.42,0L80.35,70l0-7.64A3,3,0,0,0,77.34,59.36Z"/><circle class="cls-3" cx="177.28" cy="80.19" r="5.79" transform="translate(-0.31 0.68) rotate(-0.22)"/><circle class="cls-3" cx="49.57" cy="80.68" r="5.79" transform="translate(-41.53 106.54) rotate(-74.28)"/><circle class="cls-3" cx="37.03" cy="80.73" r="5.79" transform="translate(-50.71 94.51) rotate(-74.28)"/><path class="cls-4" d="M198.7,97.85A1.74,1.74,0,0,0,197,99.2l6.26,6.22,0-7.59Z"/><path class="cls-4" d="M197.13,141.62l4.54,0a1.74,1.74,0,0,0,1.74-1.75l-.12-30.75-6.27,5Z"/><path class="cls-4" d="M157.13,118l.05,13.1,23.2-.09v1.87a2.45,2.45,0,0,1-2.45,2.47l-75.13.32-7.56-15.26a2.46,2.46,0,0,1,1.14-3.31l24-11.51a4.49,4.49,0,0,0,2.32-2.59,4.54,4.54,0,0,0-.19-3.47L121.72,98,93.66,111.46a8.76,8.76,0,0,0-4.06,11.76l2.53,5.09-3.6,6.22a2.46,2.46,0,0,1-2.12,1.23l-9.08,0a2.45,2.45,0,0,1-2.47-2.45l-.13-33.24A1.74,1.74,0,0,0,73,98.37l-4.54,0,.13,35a8.76,8.76,0,0,0,8.78,8.71l9.08,0A8.8,8.8,0,0,0,94,137.68l1.51-2.6L98.9,142l79.06-.33a8.76,8.76,0,0,0,8.71-8.78l-.09-23.73-20.74.08A8.76,8.76,0,0,0,157.13,118Zm6.29,0a2.46,2.46,0,0,1,2.45-2.47l14.45,0,0,9.27-16.91.07Z"/><path class="cls-4" d="M52.93,123.08l.08,20a2.49,2.49,0,0,1-1.28,2.17l-15.25,8.34a1.74,1.74,0,0,0-.69,2.36L38,160l16.77-9.18a8.72,8.72,0,0,0,4.55-7.71l-.08-21.78H54.67A1.75,1.75,0,0,0,52.93,123.08Z"/><path class="cls-4" d="M43.7,133.46l-.14-35-4.54,0a1.73,1.73,0,0,0-1.73,1.75l.12,33.25A2.46,2.46,0,0,1,35,136l-33.22.12A1.75,1.75,0,0,0,0,137.83l0,4.55,35-.14A8.75,8.75,0,0,0,43.7,133.46Z"/><path class="cls-4" d="M15.52,128.58l1.55,1.54,9.68-9.74L17,110.7l-1.54,1.55a1.75,1.75,0,0,0,0,2.47l5.72,5.68-5.68,5.72a1.75,1.75,0,0,0,0,2.46Z"/><circle class="cls-4" cx="172.88" cy="101.09" r="3.14" transform="translate(-0.39 0.66) rotate(-0.22)"/></g></g></svg>