<svg xmlns="http://www.w3.org/2000/svg" viewBox="0 0 800 419.07"><defs><style>.cls-1{fill:#07716e;}.cls-2{fill:#7dc058;}.cls-3{fill:#fff;}.cls-4{fill:#989898;}</style></defs><title>Asset 4</title><g id="Layer_2" data-name="Layer 2"><g id="Layer_1-2" data-name="Layer 1"><path class="cls-1" d="M768.8,128.16a15.6,15.6,0,0,0-15.6,15.6v65.13a7.72,7.72,0,0,1-.61,3,7.84,7.84,0,0,1-2.85,3.45,7.58,7.58,0,0,1-4.34,1.32H688.47V128.16h-31.2a15.6,15.6,0,0,0-15.6,15.6v72.93H576.94V128.16H545.73a15.61,15.61,0,0,0-15.6,15.6v72.93H443a7.72,7.72,0,0,1-3-.6,8,8,0,0,1-3.45-2.85,7.61,7.61,0,0,1-1.32-4.35V15.6A15.61,15.61,0,0,0,419.58,0H388.37V208.89A54.6,54.6,0,0,0,443,263.5H745.4A54.6,54.6,0,0,0,800,208.89V128.16Z"/><path class="cls-2" d="M238.3,254.17a54.65,54.65,0,0,0,24.05-45.28V0h-31.2a15.6,15.6,0,0,0-15.6,15.6V208.89a7.54,7.54,0,0,1-1.34,4.34,7.86,7.86,0,0,1-3.44,2.87,8,8,0,0,1-3,.59H15.6A15.61,15.61,0,0,0,0,232.29V263.5H207.75A54.82,54.82,0,0,0,238.3,254.17Z"/><path class="cls-1" d="M300.74,143.76V262.08a7.81,7.81,0,0,1-4.08,6.86l-85.07,46.11a15.59,15.59,0,0,0-6.28,21.15l14.87,27.44L319,310.08a54.57,54.57,0,0,0,28.58-48V128.16h-31.2A15.61,15.61,0,0,0,300.74,143.76Z"/><polygon class="cls-3" points="220.18 363.64 220.18 363.64 220.18 363.64 220.18 363.64"/><path class="cls-1" d="M98.46,173l13.21,13.21,57.84-57.84L111.67,70.57,98.46,83.78a12.51,12.51,0,0,0,0,17.7l26.92,26.92L98.46,155.33A12.51,12.51,0,0,0,98.46,173Z"/><path class="cls-2" d="M694.73,81.59v0c0,.07,0,.15,0,.28a25.77,25.77,0,0,0,51.53.45c0-.21,0-.39,0-.53a1.86,1.86,0,0,0,0-.22v0h0v-.19h0v-.23h0A25.77,25.77,0,0,0,694.75,81h0s0,.15,0,.38h0v.13h0Z"/><path class="cls-3" d="M738.74,63.3v0s0,0,0,0Z"/><path class="cls-3" d="M738.78,99.77l0,0h0Z"/><path class="cls-3" d="M702.26,63.34l0,0,0,0Z"/><path class="cls-3" d="M702.3,99.82l0,0,0,0Z"/><path class="cls-3" d="M628.8,63.3v0s0,0,0,0Z"/><path class="cls-3" d="M592.32,63.34l0,0,0,0Z"/><path class="cls-2" d="M584.79,81.59v0c0,.07,0,.15,0,.28a25.77,25.77,0,0,0,51.53.39c0-.33,0-.57,0-.69h0v0h0v-.29h0A25.77,25.77,0,0,0,584.81,81h0s0,.16,0,.39h0v.13h0Z"/><path class="cls-3" d="M592.36,99.81l0,0a0,0,0,0,1,0,0Z"/><path class="cls-3" d="M628.84,99.78h0l0,0Z"/><path class="cls-3" d="M647.29,7.58s0,0,0,0l0,0Z"/><path class="cls-3" d="M683.77,7.54l0,0h0Z"/><path class="cls-2" d="M639.76,25.82v0c0,.08,0,.16,0,.28a25.77,25.77,0,0,0,51.53.45c0-.21,0-.39,0-.53a1.7,1.7,0,0,0,0-.21v0h0V25.6h0v-.23h0a25.77,25.77,0,0,0-51.54-.13h0s0,.16,0,.38h0v.13h0Z"/><path class="cls-3" d="M683.81,44l0,0v0Z"/><path class="cls-3" d="M647.33,44.05s0,0,0,0l0,0Z"/><path class="cls-4" d="M791.07,298.22a3.44,3.44,0,0,0-3.34,2.65L800,313.13V298.22Z"/><path class="cls-4" d="M787.65,384.22h8.93A3.43,3.43,0,0,0,800,380.8V320.36l-12.35,9.86Z"/><path class="cls-4" d="M709.23,337.55v25.74h45.58V367a4.84,4.84,0,0,1-4.83,4.84H590.4l-14.74-30a4.84,4.84,0,0,1,2.27-6.5l47.18-22.43a8.93,8.93,0,0,0,4.23-11.9l-1.47-3.09-55.24,26.26a17.19,17.19,0,0,0-8.06,23.08l4.91,10-7.11,12.2a4.85,4.85,0,0,1-4.18,2.4H540.35a4.84,4.84,0,0,1-4.84-4.84V301.67a3.43,3.43,0,0,0-3.42-3.43h-8.93V367a17.21,17.21,0,0,0,17.19,17.19h17.84A17.26,17.26,0,0,0,573,375.64l3-5.09,6.68,13.62H750A17.21,17.21,0,0,0,767.17,367V320.36H726.42A17.21,17.21,0,0,0,709.23,337.55Zm12.35,0a4.84,4.84,0,0,1,4.84-4.84h28.39v18.23H721.58Z"/><path class="cls-4" d="M492.5,346.65v39.4A4.84,4.84,0,0,1,490,390.3l-30,16.28a3.43,3.43,0,0,0-1.38,4.64l4.26,7.85,33-17.91a17.18,17.18,0,0,0,9-15.11V343.23h-8.93A3.42,3.42,0,0,0,492.5,346.65Z"/><path class="cls-4" d="M474.28,367V298.22h-8.93a3.42,3.42,0,0,0-3.42,3.42V367a4.84,4.84,0,0,1-4.84,4.84H391.8a3.43,3.43,0,0,0-3.43,3.42v8.93h68.72A17.21,17.21,0,0,0,474.28,367Z"/><path class="cls-4" d="M419,357.18l3,3,19.09-19.08L422,322.06l-3,3a3.43,3.43,0,0,0,0,4.85l11.2,11.2L419,352.34a3.42,3.42,0,0,0,0,4.84Z"/><circle class="cls-4" cx="740.31" cy="304.39" r="6.18"/></g></g></svg>