<svg id="bold-icon" xmlns="http://www.w3.org/2000/svg" width="24" height="24" viewBox="0 0 24 24">
  <g id="icon_arrow" data-name="icon / arrow">
    <rect id="Rectangle" width="24" height="24" fill="rgba(204,204,204,0.7)"/>
  </g>
  <path id="B" d="M3.856,11.886H0V0H3.419a6.8,6.8,0,0,1,1.76.2A3.354,3.354,0,0,1,6.409.794a2.431,2.431,0,0,1,.726.953,3.244,3.244,0,0,1,.239,1.277,2.567,2.567,0,0,1-.163.907,2.772,2.772,0,0,1-.474.806,3.062,3.062,0,0,1-.76.642A3.66,3.66,0,0,1,4.948,5.8a3.884,3.884,0,0,1,2.159.932,2.526,2.526,0,0,1,.756,1.907A3.33,3.33,0,0,1,7.594,10a2.772,2.772,0,0,1-.781,1.025,3.587,3.587,0,0,1-1.26.642A5.984,5.984,0,0,1,3.856,11.886Zm-3-5.7V11.2H3.839a3.6,3.6,0,0,0,2.369-.677,2.366,2.366,0,0,0,.8-1.9,2.328,2.328,0,0,0-.215-1.012,2.126,2.126,0,0,0-.617-.765,2.882,2.882,0,0,0-.991-.482,4.873,4.873,0,0,0-1.336-.168Zm0-5.51v4.88H3.436a4.2,4.2,0,0,0,1.407-.21A2.8,2.8,0,0,0,5.8,4.8a2.163,2.163,0,0,0,.55-.781,2.4,2.4,0,0,0,.176-.9A2.215,2.215,0,0,0,5.766,1.3,3.71,3.71,0,0,0,3.419.68Z" transform="translate(8.5 6.5)" fill="#363636" stroke="#363636" stroke-miterlimit="10" stroke-width="0.5"/>
</svg>
