<svg xmlns="http://www.w3.org/2000/svg" xmlns:xlink="http://www.w3.org/1999/xlink" width="37" height="37" viewBox="0 0 37 37">
  <defs>
    <clipPath id="clip-path">
      <rect width="37" height="37" fill="none"/>
    </clipPath>
  </defs>
  <g id="draft_activity_votes" data-name="draft activity / votes" clip-path="url(#clip-path)">
    <g id="draft_activity_votes-2" data-name="draft activity / votes" opacity="0.172" clip-path="url(#clip-path)">
      <rect id="Rectangle" width="37" height="37" fill="#d8d8d8" opacity="0"/>
      <path id="_" data-name="" d="M19.349,25.437H17.3a18.185,18.185,0,0,1-6.051-1.36l-.084-.03-.024-.009a10.549,10.549,0,0,0-2.488-.72,1.064,1.064,0,0,1-1.018-1.061V11.643a1.09,1.09,0,0,1,.97-1.059c.654-.056,2.459-2.494,2.814-2.982a22.8,22.8,0,0,1,1.6-1.988,4.869,4.869,0,0,0,.962-2.477l.024-.123a4.993,4.993,0,0,1,1.049-2.7A1,1,0,0,1,15.772,0c3.561,0,3.561,2.971,3.561,4.24a6.738,6.738,0,0,1-.891,3.18c-.05.1-.1.192-.146.277a2.71,2.71,0,0,0-.314.782h4.4a3.159,3.159,0,0,1,3.051,3.18,4,4,0,0,1-.874,2.466,4.619,4.619,0,0,1,.239,1.259,3.615,3.615,0,0,1-.685,2.269,3.668,3.668,0,0,1,0,1.938,3.431,3.431,0,0,1-.857,1.557,4.109,4.109,0,0,1-.78,3A3.869,3.869,0,0,1,19.349,25.437ZM5.6,23.318H1.018A1.054,1.054,0,0,1,0,22.257v-10.6A1.04,1.04,0,0,1,1.018,10.6H5.6a1.04,1.04,0,0,1,1.018,1.059v10.6A1.054,1.054,0,0,1,5.6,23.318Zm-2.543-4.24a1.04,1.04,0,0,0-1.018,1.059A1.028,1.028,0,0,0,3.053,21.2a1.06,1.06,0,0,0,0-2.119Z" transform="translate(6.938 6.938)" fill="#9d9d9d"/>
    </g>
  </g>
</svg>
