<svg xmlns="http://www.w3.org/2000/svg" xmlns:xlink="http://www.w3.org/1999/xlink" width="129" height="129" viewBox="0 0 129 129">
  <defs>
    <clipPath id="clip-path">
      <rect width="129" height="129" fill="none"/>
    </clipPath>
  </defs>
  <g id="draft_activity_" data-name="draft activity /" clip-path="url(#clip-path)">
    <g id="draft_activity_votes" data-name="draft activity / votes" opacity="0.172" clip-path="url(#clip-path)">
      <rect id="Rectangle" width="129" height="129" fill="#d8d8d8" opacity="0"/>
      <path id="_" data-name="" d="M67.461,88.686H60.307c-7.795,0-15.17-2.63-21.1-4.742l-.294-.1-.083-.03c-3.473-1.261-6.753-2.452-8.675-2.51a3.71,3.71,0,0,1-3.548-3.7V40.591A3.8,3.8,0,0,1,29.99,36.9c2.281-.194,8.572-8.7,9.81-10.4A79.509,79.509,0,0,1,45.4,19.57c2.071-2.154,2.723-5.449,3.354-8.635l.085-.428c.584-3.261,1.246-6.956,3.657-9.411a3.469,3.469,0,0,1,2.5-1.1C67.4,0,67.4,10.358,67.4,14.781c0,4.846-1.722,8.307-3.106,11.088-.175.364-.344.67-.509.966a9.447,9.447,0,0,0-1.1,2.727H78.048c5.766,0,10.638,5.077,10.638,11.088a13.94,13.94,0,0,1-3.048,8.6,16.106,16.106,0,0,1,.834,4.39,12.6,12.6,0,0,1-2.387,7.909,12.789,12.789,0,0,1,0,6.756,11.961,11.961,0,0,1-2.99,5.428c.331,4.3-.585,7.821-2.721,10.456C76,87.114,72.332,88.628,67.461,88.686ZM19.512,81.3H3.548A3.676,3.676,0,0,1,0,77.6V40.65a3.627,3.627,0,0,1,3.548-3.693H19.512A3.627,3.627,0,0,1,23.06,40.65V77.6A3.676,3.676,0,0,1,19.512,81.3ZM10.645,66.518A3.627,3.627,0,0,0,7.1,70.211,3.584,3.584,0,0,0,10.645,73.9a3.7,3.7,0,0,0,0-7.387Z" transform="translate(24.188 24.188)" fill="#9d9d9d"/>
    </g>
  </g>
</svg>
