<svg xmlns="http://www.w3.org/2000/svg" viewBox="0 0 800 404.91"><defs><style>.cls-1{fill:#07716e;}.cls-2{fill:#7dc158;}.cls-3{fill:#999;}</style></defs><title>Asset 1</title><g id="Layer_2" data-name="Layer 2"><g id="Layer_1-2" data-name="Layer 1"><path class="cls-1" d="M768.8,128.16a15.6,15.6,0,0,0-15.6,15.6v65.13a7.72,7.72,0,0,1-.61,3,7.84,7.84,0,0,1-2.85,3.45,7.58,7.58,0,0,1-4.34,1.32H688.47V128.16h-31.2a15.6,15.6,0,0,0-15.6,15.6v72.93H576.94V128.16H545.73a15.61,15.61,0,0,0-15.6,15.6v72.93H443a7.72,7.72,0,0,1-3-.6,8,8,0,0,1-3.45-2.85,7.61,7.61,0,0,1-1.32-4.35V15.6A15.6,15.6,0,0,0,419.58,0H388.37V208.89A54.6,54.6,0,0,0,443,263.5H745.4A54.6,54.6,0,0,0,800,208.89V128.16Z"/><path class="cls-2" d="M262.35,0V208.89a54.58,54.58,0,0,1-54.6,54.61H0V232.29a15.6,15.6,0,0,1,15.6-15.6H207.75a8,8,0,0,0,3-.59,7.86,7.86,0,0,0,3.44-2.87,7.54,7.54,0,0,0,1.34-4.34V15.6A15.59,15.59,0,0,1,231.15,0Z"/><path class="cls-1" d="M220.18,363.64,319,310.08a54.57,54.57,0,0,0,28.58-48V128.16h-31.2a15.61,15.61,0,0,0-15.6,15.6V262.08a7.81,7.81,0,0,1-4.08,6.86l-85.07,46.11a15.6,15.6,0,0,0-6.28,21.16l14.87,27.43Z"/><path class="cls-2" d="M746.31,81.57h0v-.19h0v-.23h0A25.77,25.77,0,0,0,694.75,81h0s0,.15,0,.38h0v.13h0v.09c0,.07,0,.15,0,.28a25.77,25.77,0,0,0,51.53.45c0-.21,0-.39,0-.53a1.86,1.86,0,0,0,0-.22v0Zm0,.25h0Z"/><path class="cls-2" d="M738.74,63.3v0l0,0Z"/><path class="cls-2" d="M738.78,99.77l0,0h0Z"/><path class="cls-2" d="M702.26,63.34l0,0,0,0Z"/><path class="cls-2" d="M702.3,99.82l0,0a0,0,0,0,1,0,0Z"/><path class="cls-2" d="M628.8,63.3v0l0,0Z"/><path class="cls-2" d="M592.32,63.34l0,0,0,0Z"/><path class="cls-2" d="M636.36,81.27h0A25.77,25.77,0,0,0,584.81,81h0s0,.16,0,.39h0v.13h0v.09c0,.07,0,.15,0,.28a25.77,25.77,0,0,0,51.53.39c0-.33,0-.57,0-.69h0v0h0Z"/><path class="cls-2" d="M592.36,99.81l0,0,0,0Z"/><path class="cls-2" d="M628.84,99.78h0l0,0Z"/><path class="cls-2" d="M647.29,7.58l0,0,0,0Z"/><path class="cls-2" d="M683.77,7.54l0,0h0Z"/><path class="cls-2" d="M691.34,25.75V25.6h0v-.23h0a25.77,25.77,0,0,0-51.54-.13h0s0,.16,0,.38h0v.13h0v.09c0,.08,0,.16,0,.28a25.77,25.77,0,0,0,51.53.45c0-.21,0-.39,0-.53a1.7,1.7,0,0,0,0-.21v0h0Zm0,.3h0Z"/><path class="cls-2" d="M683.81,44l0,0v0Z"/><path class="cls-2" d="M647.33,44.05l0,0,0,0Z"/><path class="cls-3" d="M499.1,337.63a6.18,6.18,0,1,0-6.18-6.17A6.18,6.18,0,0,0,499.1,337.63Z"/><path class="cls-3" d="M424.12,337.63a6.18,6.18,0,1,0-6.17-6.17A6.18,6.18,0,0,0,424.12,337.63Z"/><path class="cls-3" d="M410,337.63a6.18,6.18,0,1,0-6.18-6.17A6.18,6.18,0,0,0,410,337.63Z"/><path class="cls-3" d="M618.3,337.63a6.18,6.18,0,1,0-6.17-6.17A6.18,6.18,0,0,0,618.3,337.63Z"/><path class="cls-3" d="M604.22,337.63a6.18,6.18,0,1,0-6.18-6.17A6.18,6.18,0,0,0,604.22,337.63Z"/><path class="cls-3" d="M576.58,392.56a6.18,6.18,0,1,0,6.18,6.18A6.18,6.18,0,0,0,576.58,392.56Z"/><path class="cls-3" d="M511.23,346.09V372.8H486.42a3.63,3.63,0,0,1-3.63-3.63v-74a3.53,3.53,0,0,0-3.53-3.53h-8.82v77.54a16,16,0,0,0,16,16h37.16V342.56h-8.82A3.53,3.53,0,0,0,511.23,346.09Z"/><path class="cls-3" d="M448.08,346.09v23.08a3.63,3.63,0,0,1-3.63,3.63H391.9a3.53,3.53,0,0,0-3.53,3.53v8.82h56.08a16,16,0,0,0,16-16V342.56h-8.82A3.53,3.53,0,0,0,448.08,346.09Z"/><path class="cls-3" d="M695,346.09v23.08a3.62,3.62,0,0,1-3.63,3.63H677.54V342.56h-8.82a3.53,3.53,0,0,0-3.53,3.53V372.8H649.31V342.56h-8.82a3.53,3.53,0,0,0-3.53,3.53V372.8H616a15.55,15.55,0,0,0,.43-3.63V342.56h-8.82a3.53,3.53,0,0,0-3.53,3.53v23.08a3.62,3.62,0,0,1-3.63,3.63H582.12a16.1,16.1,0,0,0,.43-3.63V342.56h-8.82a3.53,3.53,0,0,0-3.53,3.53v23.08a3.63,3.63,0,0,1-3.63,3.63H545.94V295.16a3.53,3.53,0,0,0-3.53-3.53h-8.82v93.52h33a16,16,0,0,0,13.75-7.86v7.86h20.15a15.93,15.93,0,0,0,12.75-6.37v6.37H691.4a16,16,0,0,0,16-16V342.56h-8.82A3.53,3.53,0,0,0,695,346.09Z"/><path class="cls-3" d="M765.26,295.16v74a3.62,3.62,0,0,1-3.63,3.63H747V315.94h-8.83a3.53,3.53,0,0,0-3.53,3.52V372.8H718a3.53,3.53,0,0,0-3.53,3.53v8.82h47.19a16,16,0,0,0,16-16V291.63h-8.83A3.53,3.53,0,0,0,765.26,295.16Z"/><path class="cls-3" d="M791.18,291.63a3.53,3.53,0,0,0-3.53,3.53v88.27h8.82A3.53,3.53,0,0,0,800,379.9V291.63Z"/><path class="cls-1" d="M111.67,186.24,98.46,173a12.51,12.51,0,0,1,0-17.7l26.92-26.93L98.46,101.48a12.51,12.51,0,0,1,0-17.7l13.21-13.21,57.84,57.83Z"/></g></g></svg>