<svg xmlns="http://www.w3.org/2000/svg" xmlns:xlink="http://www.w3.org/1999/xlink" width="33.392" height="33.846" viewBox="0 0 33.392 33.846">
  <defs>
    <clipPath id="clip-path">
      <rect width="22.957" height="23.269" fill="none"/>
    </clipPath>
  </defs>
  <g id="Group_1" data-name="Group 1" transform="translate(-19.131 -62.308)">
    <g id="Rectangle" transform="translate(19.13 62.308)" fill="none" stroke="#046F6D" stroke-miterlimit="10" stroke-width="1">
      <path d="M4,0H33.391a0,0,0,0,1,0,0V33.846a0,0,0,0,1,0,0H4a4,4,0,0,1-4-4V4A4,4,0,0,1,4,0Z" stroke="none"/>
      <path d="M4,.5H32.391a.5.5,0,0,1,.5.5V32.846a.5.5,0,0,1-.5.5H4a3.5,3.5,0,0,1-3.5-3.5V4A3.5,3.5,0,0,1,4,.5Z" fill="none"/>
    </g>
    <g id="Icon_dropdown_arrow_down_Copy" data-name="Icon / dropdown / arrow down Copy" transform="translate(24.348 67.596)" clip-path="url(#clip-path)">
      <g id="icon_arrow" data-name="icon / arrow">
        <rect id="Rectangle-2" data-name="Rectangle" width="22.957" height="23.269" fill="#d8d8d8" opacity="0"/>
      </g>
      <path id="_" data-name="" d="M9.47,18.616a1.411,1.411,0,0,1-.986-.414,3.971,3.971,0,0,1-.923-2.209,2.916,2.916,0,0,0-.48-1.382,17.835,17.835,0,0,1-1.173-1.421l-.06-.08a9.656,9.656,0,0,0-1.441-1.654h-3A1.419,1.419,0,0,1,0,10.024V2.864A1.419,1.419,0,0,1,1.4,1.432H4.559a6.708,6.708,0,0,0,1.372-.4l.141-.05A13.282,13.282,0,0,1,10.708,0h1.228a3.477,3.477,0,0,1,2.556.957A3.232,3.232,0,0,1,15.355,3.3v.056a3.289,3.289,0,0,1,.658,1.991,3.508,3.508,0,0,1-.033.481A3.319,3.319,0,0,1,16.4,7.439a3.053,3.053,0,0,1-.1.772,3.324,3.324,0,0,1,.536,1.823,2.868,2.868,0,0,1-2.806,2.853H12.1a4.818,4.818,0,0,1,.526,2.147,4.41,4.41,0,0,1-.384,2.081A2.882,2.882,0,0,1,9.47,18.616ZM4.209,2.864v7.159h.351c.769,0,1.874,1.5,2.468,2.3.075.1.14.19.2.263l.112.143c.23.293.467.6.732.875a4.079,4.079,0,0,1,.875,2.145,2.8,2.8,0,0,0,.527,1.435,1.587,1.587,0,0,0,1.427-.564,2.734,2.734,0,0,0,.327-1.584,4.263,4.263,0,0,0-.527-1.8,4.236,4.236,0,0,1-.524-1.782h3.857a1.474,1.474,0,0,0,1.4-1.432c0-.432-.31-1.421-.822-1.432a2.058,2.058,0,0,0,.384-1.153,1.791,1.791,0,0,0-.581-1.331,1.583,1.583,0,0,0,.2-.772A1.679,1.679,0,0,0,13.9,3.927a3.887,3.887,0,0,0,.055-.626c0-1.545-1.1-1.869-2.028-1.869h-1.4a11.346,11.346,0,0,0-3.749.817l-.239.087a7.074,7.074,0,0,1-1.975.528Zm-2.1,0a.71.71,0,0,0-.7.716.719.719,0,0,0,.7.716.716.716,0,0,0,0-1.432Z" transform="translate(3.061 2.327)" fill="#046F6D"/>
    </g>
  </g>
</svg>
