<svg xmlns="http://www.w3.org/2000/svg" xmlns:xlink="http://www.w3.org/1999/xlink" width="24" height="24" viewBox="0 0 24 24">
  <defs>
    <clipPath id="clip-path">
      <rect width="24" height="24" fill="none"/>
    </clipPath>
  </defs>
  <g id="Icon_dropdown" data-name="Icon / dropdown" clip-path="url(#clip-path)">
    <g id="icon_arrow" data-name="icon / arrow">
      <rect id="Rectangle" width="24" height="24" fill="#d8d8d8" opacity="0"/>
    </g>
    <path id="_" data-name="ï§" d="M6.911,3.257H8V11.23a3.8,3.8,0,0,1-1.174,2.816A3.908,3.908,0,0,1,3.983,15.2a3.851,3.851,0,0,1-2.826-1.154A3.825,3.825,0,0,1,0,11.23V2.884A2.772,2.772,0,0,1,.851.848,2.79,2.79,0,0,1,2.894,0a2.847,2.847,0,0,1,2.06.848,2.745,2.745,0,0,1,.868,2.036V11.23A1.73,1.73,0,0,1,5.294,12.5a1.783,1.783,0,0,1-1.311.526,1.744,1.744,0,0,1-1.8-1.8V4.343H3.268V11.23a.7.7,0,0,0,.715.713.753.753,0,0,0,.528-.2.663.663,0,0,0,.221-.509V2.884A1.73,1.73,0,0,0,4.2,1.612a1.783,1.783,0,0,0-1.311-.526,1.744,1.744,0,0,0-1.8,1.8V11.23a2.772,2.772,0,0,0,.851,2.036,2.79,2.79,0,0,0,2.043.848,2.847,2.847,0,0,0,2.06-.848,2.745,2.745,0,0,0,.868-2.036Z" transform="translate(8.8 4)" fill="#363636"/>
  </g>
</svg>
