<svg xmlns="http://www.w3.org/2000/svg" xmlns:xlink="http://www.w3.org/1999/xlink" width="59" height="37" viewBox="0 0 59 37">
  <defs>
    <clipPath id="clip-path">
      <rect width="59" height="37" fill="none"/>
    </clipPath>
  </defs>
  <g id="Icon_draft_activity_users" data-name="Icon / draft activity / users" transform="translate(0)" clip-path="url(#clip-path)">
    <path id="draft_activity_users" data-name="draft activity / users" d="M59,37H43.478V30.823c-.3-3.5-2.087-6.391-5.478-8.824.177.012.379.018.678.018.224,0,.472,0,.759-.007.375-.005.8-.011,1.3-.011a38.564,38.564,0,0,1,7.3.883,42.157,42.157,0,0,1,7.3,2.647C57.874,27.349,59,28.982,59,30.823V37ZM38,37H0V30.823c0-1.831,1.143-3.463,3.707-5.294a49.767,49.767,0,0,1,7.415-2.647A43.586,43.586,0,0,1,19.463,22a41.247,41.247,0,0,1,7.414.883,45.613,45.613,0,0,1,7.415,2.647C36.857,27.36,38,28.993,38,30.823V37Zm2.941-22a11.3,11.3,0,0,1-4.412-.883,35.907,35.907,0,0,1-2.647-2.647A10.842,10.842,0,0,1,33,7.942a11.293,11.293,0,0,1,.882-4.412A36.1,36.1,0,0,1,36.529.882,11.322,11.322,0,0,1,40.941,0a10.883,10.883,0,0,1,3.53.882A36.1,36.1,0,0,1,47.118,3.53,11.293,11.293,0,0,1,48,7.942a10.842,10.842,0,0,1-.882,3.529,35.908,35.908,0,0,1-2.647,2.647A10.863,10.863,0,0,1,40.941,15Zm-22,0a11.654,11.654,0,0,1-4.412-.883c-.942-.866-1.857-1.781-2.647-2.647A10.94,10.94,0,0,1,11,7.942a11.358,11.358,0,0,1,.883-4.412c.788-.864,1.7-1.779,2.647-2.648A11.673,11.673,0,0,1,18.941,0,10.048,10.048,0,0,1,22.47.882,23.657,23.657,0,0,1,25.117,3.53,10.854,10.854,0,0,1,26,7.942a10.218,10.218,0,0,1-.883,3.529,23.572,23.572,0,0,1-2.647,2.647A10.03,10.03,0,0,1,18.941,15Z" transform="translate(0 0)" fill="rgba(233,233,233,0.85)" opacity="0.701"/>
  </g>
</svg>
