<svg xmlns="http://www.w3.org/2000/svg" xmlns:xlink="http://www.w3.org/1999/xlink" width="18" height="18" viewBox="0 0 18 18">
  <defs>
    <clipPath id="clip-path">
      <rect width="18" height="18" fill="none"/>
    </clipPath>
  </defs>
  <g id="Icon_most_active_views_Copy_2" data-name="Icon / most active / views Copy 2" clip-path="url(#clip-path)">
    <rect id="Rectangle" width="18" height="18" fill="#d8d8d8" opacity="0"/>
    <path id="_" data-name="ïµ" d="M12.375,4.687c0,2.592-2.769,4.687-6.188,4.687a8.982,8.982,0,0,1-1-.059A7.442,7.442,0,0,1,2.01,11.088a5.384,5.384,0,0,1-.787.161.323.323,0,0,1-.331-.278v-.007c-.035-.183.083-.293.186-.425A4.693,4.693,0,0,0,2.334,8.356,4.38,4.38,0,0,1,0,4.687C0,2.1,2.769,0,6.187,0S12.375,2.094,12.375,4.687Z" transform="translate(3.375 3.375)" fill="#9d9d9d"/>
  </g>
</svg>
