<svg xmlns="http://www.w3.org/2000/svg" xmlns:xlink="http://www.w3.org/1999/xlink" width="18" height="18" viewBox="0 0 18 18">
  <defs>
    <clipPath id="clip-path">
      <rect width="18" height="18" fill="none"/>
    </clipPath>
  </defs>
  <g id="Icon_most_active_views_Copy_3" data-name="Icon / most active / views Copy 3" clip-path="url(#clip-path)">
    <rect id="Rectangle" width="18" height="18" fill="#d8d8d8" opacity="0"/>
    <path id="_" data-name="îµ" d="M13.711,14.625H.914a.875.875,0,0,1-.65-.271A.891.891,0,0,1,0,13.711V2.285a.887.887,0,0,1,.264-.65.887.887,0,0,1,.65-.264H4.57V.457A.441.441,0,0,1,4.706.136a.449.449,0,0,1,.643,0,.441.441,0,0,1,.136.321v.914H9.141V.457A.437.437,0,0,1,9.277.136.441.441,0,0,1,9.6,0a.445.445,0,0,1,.322.136.441.441,0,0,1,.136.321v.914h3.656a.9.9,0,0,1,.913.914V13.711a.891.891,0,0,1-.264.642A.87.87,0,0,1,13.711,14.625ZM.914,2.285V13.711h12.8V2.285H10.055v.457a.439.439,0,0,1-.136.322.449.449,0,0,1-.643,0,.436.436,0,0,1-.136-.322V2.285H5.485v.457a.457.457,0,0,1-.914,0V2.285Zm10.512,8.683h-.914a.463.463,0,0,1-.457-.457V9.6a.463.463,0,0,1,.457-.457h.914a.463.463,0,0,1,.457.457v.914a.463.463,0,0,1-.457.457Zm-3.656,0H6.856a.463.463,0,0,1-.458-.457V9.6a.463.463,0,0,1,.458-.457H7.77a.463.463,0,0,1,.457.457v.914a.463.463,0,0,1-.457.457Zm-3.657,0H3.2a.436.436,0,0,1-.322-.136.441.441,0,0,1-.136-.321V9.6a.441.441,0,0,1,.136-.321A.436.436,0,0,1,3.2,9.141h.913A.463.463,0,0,1,4.57,9.6v.914a.463.463,0,0,1-.458.457Zm7.313-3.656h-.914a.463.463,0,0,1-.457-.457V5.941a.463.463,0,0,1,.457-.457h.914a.463.463,0,0,1,.457.457v.914a.463.463,0,0,1-.457.457Zm-3.656,0H6.856A.463.463,0,0,1,6.4,6.856V5.941a.463.463,0,0,1,.458-.457H7.77a.463.463,0,0,1,.457.457v.914a.463.463,0,0,1-.457.457Zm-3.657,0H3.2a.436.436,0,0,1-.322-.136.441.441,0,0,1-.136-.321V5.941a.441.441,0,0,1,.136-.321A.436.436,0,0,1,3.2,5.485h.913a.463.463,0,0,1,.458.457v.914a.463.463,0,0,1-.458.457Z" transform="translate(2.25 2.25)" fill="#9d9d9d" stroke="#979797" stroke-miterlimit="10" stroke-width="0.2"/>
  </g>
</svg>
