<svg xmlns="http://www.w3.org/2000/svg" xmlns:xlink="http://www.w3.org/1999/xlink" width="20" height="20" viewBox="0 0 20 20">
  <defs>
    <clipPath id="clip-path">
      <rect width="20" height="20" fill="none"/>
    </clipPath>
  </defs>
  <g id="Icon_think_tanks" data-name="Icon / think tanks" clip-path="url(#clip-path)">
    <rect id="Rectangle" width="20" height="20" fill="#d8d8d8" opacity="0"/>
    <path id="_" data-name="" d="M8.631,15a8.3,8.3,0,0,1-2.839-.44,12.887,12.887,0,0,1-1.855-.81.735.735,0,0,1-.1.026.467.467,0,0,1-.1.009.713.713,0,0,1-.518-.22.733.733,0,0,1-.22-.536V7.781a.545.545,0,0,1,.026-.167c.017-.048.037-.106.061-.167L.387,5.9a.831.831,0,0,1-.282-.273A.7.7,0,0,1,0,5.246a.71.71,0,0,1,.105-.369A.8.8,0,0,1,.387,4.6L8.262.105A.637.637,0,0,1,8.622,0,.725.725,0,0,1,9,.105L16.875,4.6a.742.742,0,0,1,.273.282.763.763,0,0,1,.1.369.185.185,0,0,1-.009.062.437.437,0,0,1-.026.061c.013.04.021.067.026.088a.347.347,0,0,1,.009.088V10.7a1.55,1.55,0,0,1,.545.536A1.415,1.415,0,0,1,18,11.99a1.47,1.47,0,0,1-.439,1.074,1.445,1.445,0,0,1-1.055.44,1.5,1.5,0,0,1-1.512-1.514,1.408,1.408,0,0,1,.211-.749,1.543,1.543,0,0,1,.545-.536V6.549l-1.6.9a.9.9,0,0,1,.079.167.545.545,0,0,1,.026.167v5.247a.751.751,0,0,1-.756.757.451.451,0,0,1-.1-.009.718.718,0,0,1-.1-.026,11.874,11.874,0,0,1-1.846.81A8.321,8.321,0,0,1,8.631,15ZM4.5,8.257v4.085a11.6,11.6,0,0,0,1.538.722,6.9,6.9,0,0,0,2.593.44,6.9,6.9,0,0,0,2.593-.44,10.45,10.45,0,0,0,1.52-.722V8.257L9,10.4a1.572,1.572,0,0,1-.184.061.683.683,0,0,1-.185.027.756.756,0,0,1-.2-.027.888.888,0,0,1-.167-.061ZM8.631,1.62h0L2.268,5.246,8.631,8.891l6.363-3.645L8.631,1.62Z" transform="translate(1 3)" fill="#9d9d9d"/>
  </g>
</svg>
