<svg xmlns="http://www.w3.org/2000/svg" xmlns:xlink="http://www.w3.org/1999/xlink" width="18" height="18" viewBox="0 0 18 18">
  <defs>
    <clipPath id="clip-path">
      <rect width="18" height="18" fill="none"/>
    </clipPath>
  </defs>
  <g id="Icon_most_active_views" data-name="Icon / most active / views" clip-path="url(#clip-path)">
    <rect id="Rectangle" width="18" height="18" fill="#d8d8d8" opacity="0"/>
    <path id="_" data-name="ï®" d="M7.312,9A8.682,8.682,0,0,1,.163,5.039,1.049,1.049,0,0,1,0,4.5a1.048,1.048,0,0,1,.163-.539A8.682,8.682,0,0,1,7.312,0a8.4,8.4,0,0,1,4.1,1.1,8.623,8.623,0,0,1,3.051,2.865,1.048,1.048,0,0,1,.163.539,1.049,1.049,0,0,1-.163.54A8.589,8.589,0,0,1,11.41,7.907,8.406,8.406,0,0,1,7.312,9ZM4.154,1.743A8.081,8.081,0,0,0,1.045,4.5,7.557,7.557,0,0,0,7.312,8a7.561,7.561,0,0,0,6.268-3.5,8.1,8.1,0,0,0-3.109-2.757,3.357,3.357,0,0,1,.5,1.758A3.585,3.585,0,0,1,7.312,7,3.585,3.585,0,0,1,3.656,3.5,3.348,3.348,0,0,1,4.154,1.743Zm3.158-.618A2.432,2.432,0,0,0,4.832,3.5a.392.392,0,0,0,.784,0,1.664,1.664,0,0,1,1.7-1.625A.389.389,0,0,0,7.7,1.5.389.389,0,0,0,7.312,1.125Z" transform="translate(2.25 4.5)" fill="#9d9d9d"/>
  </g>
</svg>
