<svg xmlns="http://www.w3.org/2000/svg" xmlns:xlink="http://www.w3.org/1999/xlink" width="16" height="16" viewBox="0 0 16 16">
  <defs>
    <clipPath id="clip-path">
      <rect width="16" height="16" fill="none"/>
    </clipPath>
  </defs>
  <g id="Icon_check_Copy_2" data-name="Icon / check Copy 2" clip-path="url(#clip-path)">
    <rect id="Rectangle" width="16" height="16" fill="#d8d8d8" opacity="0"/>
    <path id="_" data-name="" d="M12.313,1.188a5.425,5.425,0,0,1-1.266,1.3c.008.109.008.219.008.328A7.13,7.13,0,0,1,3.875,10,7.131,7.131,0,0,1,0,8.867,5.217,5.217,0,0,0,.609,8.9,5.054,5.054,0,0,0,3.742,7.82,2.528,2.528,0,0,1,1.383,6.07a3.18,3.18,0,0,0,.477.039,2.668,2.668,0,0,0,.664-.086A2.524,2.524,0,0,1,.5,3.547V3.516a2.542,2.542,0,0,0,1.141.32A2.527,2.527,0,0,1,.859.461,7.173,7.173,0,0,0,6.063,3.1,2.848,2.848,0,0,1,6,2.523,2.526,2.526,0,0,1,10.367.8a4.968,4.968,0,0,0,1.6-.609,2.517,2.517,0,0,1-1.109,1.391A5.059,5.059,0,0,0,12.313,1.188Z" transform="translate(2 3)" fill="#828a93"/>
  </g>
</svg>
