<svg xmlns="http://www.w3.org/2000/svg" xmlns:xlink="http://www.w3.org/1999/xlink" width="80" height="80" viewBox="0 0 80 80">
  <defs>
    <clipPath id="clip-path">
      <rect width="80" height="80" fill="none"/>
    </clipPath>
  </defs>
  <g id="Icon_value_proposition_create_account" data-name="Icon / value proposition / create account" clip-path="url(#clip-path)">
    <path id="Icon_value_proposition_create_account-2" data-name="Icon / value proposition / create account" d="M29.376,21.376H8V18.688a3.656,3.656,0,0,1,1.984-2.944,13.87,13.87,0,0,1,4.352-1.792,18.64,18.64,0,0,1,4.351-.576,18.643,18.643,0,0,1,4.352.576,13.87,13.87,0,0,1,4.352,1.792,3.656,3.656,0,0,1,1.984,2.944v2.687ZM6.688,14.688H4v-4H0V8H4V4H6.688V8h4v2.688h-4v4Zm12-4a5.146,5.146,0,0,1-2.656-.72A5.471,5.471,0,0,1,14.1,8.032a5.141,5.141,0,0,1-.72-2.656,5.313,5.313,0,0,1,.72-2.687A5.383,5.383,0,0,1,16.032.72a5.26,5.26,0,0,1,5.313,0A5.383,5.383,0,0,1,23.28,2.688,5.313,5.313,0,0,1,24,5.376a5.141,5.141,0,0,1-.72,2.656,5.471,5.471,0,0,1-1.936,1.937A5.147,5.147,0,0,1,18.688,10.688Z" transform="translate(22.312 29.112)" fill="#fff"/>
    <circle id="Oval" cx="40" cy="40" r="40" fill="none" stroke="#fff" stroke-miterlimit="10" stroke-width="2"/>
  </g>
</svg>
