<svg xmlns="http://www.w3.org/2000/svg" xmlns:xlink="http://www.w3.org/1999/xlink" width="20" height="20" viewBox="0 0 20 20">
  <defs>
    <clipPath id="clip-path">
      <rect width="20" height="20" fill="none"/>
    </clipPath>
  </defs>
  <g id="Icon_change_photo" data-name="Icon / change photo" clip-path="url(#clip-path)">
    <rect id="Rectangle" width="20" height="20" fill="#d8d8d8" opacity="0"/>
    <path id="_" data-name="" d="M11.719,11.719H1.282a1.214,1.214,0,0,1-.906-.391A1.3,1.3,0,0,1,0,10.406V2.594a1.291,1.291,0,0,1,.375-.922,1.212,1.212,0,0,1,.906-.391H3.36L4.547,0H8.453L9.641,1.282h2.078a1.214,1.214,0,0,1,.906.391A1.29,1.29,0,0,1,13,2.594v7.812a1.294,1.294,0,0,1-.374.923A1.217,1.217,0,0,1,11.719,11.719ZM6.5,3.235a3.215,3.215,0,0,0-1.641.437A3.264,3.264,0,0,0,3.672,4.859a3.3,3.3,0,0,0,0,3.281A3.26,3.26,0,0,0,4.859,9.328a3.3,3.3,0,0,0,3.281,0A3.256,3.256,0,0,0,9.328,8.141a3.3,3.3,0,0,0,0-3.281A3.26,3.26,0,0,0,8.141,3.672,3.211,3.211,0,0,0,6.5,3.235Zm0,5.343A2.018,2.018,0,0,1,5.461,8.3,2.126,2.126,0,0,1,4.7,7.539a2.057,2.057,0,0,1,0-2.078A2.117,2.117,0,0,1,5.461,4.7a2.057,2.057,0,0,1,2.078,0,2.126,2.126,0,0,1,.758.758,2.063,2.063,0,0,1,0,2.078,2.135,2.135,0,0,1-.758.758A2.02,2.02,0,0,1,6.5,8.578Z" transform="translate(4 4)" fill="#9d9d9d"/>
  </g>
</svg>
