<svg xmlns="http://www.w3.org/2000/svg" xmlns:xlink="http://www.w3.org/1999/xlink" width="80" height="80" viewBox="0 0 80 80">
  <defs>
    <clipPath id="clip-path">
      <rect width="80" height="80" fill="none"/>
    </clipPath>
  </defs>
  <g id="Icon_value_proposition_published" data-name="Icon / value proposition / published" clip-path="url(#clip-path)">
    <path id="Icon_value_proposition_published-2" data-name="Icon / value proposition / published" d="M18.688,17.312H24V24H17.312V19.936L12,14.3,6.688,19.936V24H0V17.312H5.312L10.688,12V7.744A4.032,4.032,0,0,1,8.752,6.32,3.776,3.776,0,0,1,8,4a3.859,3.859,0,0,1,.544-1.984A4.058,4.058,0,0,1,10.016.544a3.89,3.89,0,0,1,3.968,0,4.058,4.058,0,0,1,1.472,1.472A3.859,3.859,0,0,1,16,4a3.776,3.776,0,0,1-.752,2.32,4.032,4.032,0,0,1-1.936,1.424V12Z" transform="translate(28 27.8)" fill="#fff"/>
    <circle id="Oval_Copy_3" data-name="Oval Copy 3" cx="40" cy="40" r="40" fill="none" stroke="#fff" stroke-miterlimit="10" stroke-width="2"/>
  </g>
</svg>
