<?xml version="1.0" encoding="utf-8"?>
<!-- Generator: Adobe Illustrator 23.0.6, SVG Export Plug-In . SVG Version: 6.00 Build 0)  -->
<svg version="1.1" id="Layer_1" xmlns="http://www.w3.org/2000/svg" xmlns:xlink="http://www.w3.org/1999/xlink" x="0px" y="0px"
	 viewBox="0 0 23 23.3" style="enable-background:new 0 0 23 23.3;" xml:space="preserve">
<style type="text/css">
	.st0{fill:#FFFFFF;}
</style>
<path id="_" class="st0" d="M15,20.9h-1.4c-1.5-0.1-3-0.4-4.4-1H9c-0.4-0.2-0.9-0.3-1.4-0.4H4.5c-0.8,0-1.4-0.7-1.4-1.4v-7.2
	c0-0.8,0.6-1.4,1.4-1.4h3c0.5-0.5,1-1,1.4-1.7l0.1,0c0.4-0.6,0.8-1,1.2-1.4C10.5,6,10.6,5.5,10.7,5c0.1-0.8,0.4-1.6,0.9-2.2
	c0.3-0.3,0.6-0.4,1-0.4c1.1-0.1,2.2,0.5,2.8,1.5c0.3,0.7,0.4,1.4,0.4,2.1s-0.2,1.5-0.5,2.1h1.9c1.6,0,2.8,1.3,2.8,2.9
	c0,0.6-0.2,1.3-0.5,1.8c0.1,0.3,0.1,0.5,0.1,0.8c0,0.6-0.1,1.1-0.4,1.6c0,0.2,0,0.3,0,0.5c0,0.7-0.2,1.4-0.7,2
	c0,0.9-0.3,1.7-0.9,2.4C16.9,20.6,15.9,21,15,20.9z M7.3,10.9v7.2h0.4c0.7,0.1,1.3,0.3,2,0.5l0.2,0.1c1.2,0.5,2.5,0.8,3.7,0.8h1.3
	c1.4,0,2.1-0.6,2.1-1.9c0-0.2,0-0.4-0.1-0.6c0.5-0.3,0.7-0.9,0.7-1.4c0-0.3-0.1-0.5-0.2-0.8c0.4-0.3,0.6-0.8,0.6-1.3
	c0-0.4-0.1-0.8-0.4-1.2c0.5,0,0.8-1,0.8-1.4c0-0.8-0.6-1.4-1.4-1.4h-3.9c0-0.6,0.2-1.2,0.5-1.8s0.5-1.2,0.5-1.8
	c0-1.4-0.3-2.1-1.8-2.1C12.2,4.2,12,4.7,12,5.2c-0.1,0.8-0.4,1.5-0.9,2.1c-0.3,0.3-0.5,0.6-0.7,0.9l-0.1,0.1
	c-0.1,0.1-0.1,0.2-0.2,0.3c-0.6,0.8-1.7,2.3-2.5,2.3L7.3,10.9z M5.2,16.6c-0.4,0-0.7,0.3-0.7,0.7c0,0.4,0.3,0.7,0.7,0.7l0,0
	c0.4,0,0.7-0.3,0.7-0.7C5.9,17,5.6,16.6,5.2,16.6z"/>
</svg>
