<svg xmlns="http://www.w3.org/2000/svg" xmlns:xlink="http://www.w3.org/1999/xlink" width="18" height="18" viewBox="0 0 18 18">
  <defs>
    <clipPath id="clip-path">
      <rect width="18" height="18" fill="none"/>
    </clipPath>
  </defs>
  <g id="Icon_most_active_draft" data-name="Icon / most active / draft" clip-path="url(#clip-path)">
    <rect id="Rectangle" width="18" height="18" fill="#d8d8d8" opacity="0"/>
    <path id="_" data-name="" d="M12.656,10.125H.843a.835.835,0,0,1-.6-.234A.769.769,0,0,1,0,9.315V.81A.769.769,0,0,1,.244.234.835.835,0,0,1,.843,0H5.063L6.328,1.215h6.328a.835.835,0,0,1,.6.234.769.769,0,0,1,.244.576v7.29a.769.769,0,0,1-.244.576A.835.835,0,0,1,12.656,10.125ZM.843.81v8.5H12.656V2.025H5.972l-.263-.24L4.68.81Z" transform="translate(2.25 4.5)" fill="#9d9d9d" stroke="#979797" stroke-miterlimit="10" stroke-width="0.3"/>
  </g>
</svg>
