<svg xmlns="http://www.w3.org/2000/svg" xmlns:xlink="http://www.w3.org/1999/xlink" width="30" height="30" viewBox="0 0 30 30">
  <defs>
    <clipPath id="clip-path">
      <rect width="30" height="30" fill="none"/>
    </clipPath>
  </defs>
  <g id="Icon_like_empty_Copy" data-name="Icon / like / empty Copy" clip-path="url(#clip-path)">
    <g id="icon_arrow" data-name="icon / arrow">
      <rect id="Rectangle" width="30" height="30" fill="#d8d8d8" opacity="0"/>
    </g>
    <path id="_" data-name="" d="M10,17.143a.692.692,0,0,1-.491-.2L2.545,10.223C2.455,10.145,0,7.9,0,5.223,0,1.953,2,0,5.335,0,7.288,0,9.118,1.54,10,2.411,10.882,1.54,12.712,0,14.665,0,18,0,20,1.953,20,5.223c0,2.679-2.455,4.922-2.556,5.022l-6.953,6.7A.692.692,0,0,1,10,17.143Z" transform="translate(5 7.286)" fill="#046F6D"/>
  </g>
</svg>
