<svg id="Icon_notification_error" data-name="Icon / notification / error" xmlns="http://www.w3.org/2000/svg" width="20" height="20" viewBox="0 0 20 20">
  <rect id="Rectangle" width="20" height="20" fill="#d8d8d8" opacity="0"/>
  <g id="Icon_real_time_error" data-name="Icon / real time error">
    <rect id="Rectangle-2" data-name="Rectangle" width="20" height="20" fill="#d8d8d8" opacity="0"/>
    <path id="_" data-name="" d="M8.572,17.143a8.438,8.438,0,0,1-3.34-.67A8.534,8.534,0,0,1,.67,11.911,8.444,8.444,0,0,1,0,8.572a8.438,8.438,0,0,1,.67-3.34A8.534,8.534,0,0,1,5.232.67,8.438,8.438,0,0,1,8.572,0a8.444,8.444,0,0,1,3.34.67,8.534,8.534,0,0,1,4.562,4.562,8.438,8.438,0,0,1,.67,3.34,8.444,8.444,0,0,1-.67,3.34,8.534,8.534,0,0,1-4.562,4.562A8.444,8.444,0,0,1,8.572,17.143Zm0-16.072a7.274,7.274,0,0,0-2.921.595A7.566,7.566,0,0,0,1.666,5.65a7.471,7.471,0,0,0,0,5.843,7.763,7.763,0,0,0,1.607,2.385A7.586,7.586,0,0,0,5.65,15.493a7.26,7.26,0,0,0,2.921.595,7.26,7.26,0,0,0,2.921-.595,7.594,7.594,0,0,0,2.377-1.615,7.777,7.777,0,0,0,1.607-2.385,7.481,7.481,0,0,0,0-5.843,7.566,7.566,0,0,0-3.984-3.984A7.274,7.274,0,0,0,8.572,1.071ZM9.643,13.393H7.5a.536.536,0,0,1,0-1.072h.536V8.036H7.5a.536.536,0,0,1,0-1.072H8.572a.544.544,0,0,1,.535.536v4.821h.536a.536.536,0,0,1,0,1.072Zm-1.071-7.5A1.059,1.059,0,0,1,7.5,4.821a1.071,1.071,0,1,1,1.833.761A1.037,1.037,0,0,1,8.572,5.893Z" transform="translate(1.429 1.429)" fill="#df004e"/>
  </g>
</svg>
