<svg xmlns="http://www.w3.org/2000/svg" xmlns:xlink="http://www.w3.org/1999/xlink" width="18" height="18" viewBox="0 0 18 18">
  <defs>
    <clipPath id="clip-path">
      <rect width="18" height="18" fill="none"/>
    </clipPath>
  </defs>
  <g id="Icon_stop_following_Copy_2" data-name="Icon / stop following Copy 2" clip-path="url(#clip-path)">
    <rect id="Rectangle" width="18" height="18" fill="#d8d8d8" opacity="0"/>
    <path id="_" data-name="" d="M6.891,13.781a6.671,6.671,0,0,1-4.876-2.015A6.669,6.669,0,0,1,0,6.891,6.646,6.646,0,0,1,2,2.03,6.7,6.7,0,0,1,6.891,0a6.669,6.669,0,0,1,4.875,2.015,6.671,6.671,0,0,1,2.015,4.876,6.669,6.669,0,0,1-2.015,4.875A6.669,6.669,0,0,1,6.891,13.781Zm0-5.876h0l2.337,2.307a.248.248,0,0,0,.153.092.267.267,0,0,0,.185-.092l.646-.646a.207.207,0,0,0,.092-.185.267.267,0,0,0-.092-.184L7.906,6.891l2.338-2.307a.231.231,0,0,0,0-.37l-.676-.646a.271.271,0,0,0-.185-.092.253.253,0,0,0-.153.092L6.891,5.845,4.553,3.568A.258.258,0,0,0,4.4,3.476a.271.271,0,0,0-.185.092l-.646.646a.233.233,0,0,0,0,.37L5.906,6.891,3.568,9.229c-.04.02-.061.072-.061.153a.253.253,0,0,0,.061.185l.646.676a.253.253,0,0,0,.185.062.248.248,0,0,0,.184-.062L6.89,7.906Z" transform="translate(2.25 2.25)" fill="#df004e"/>
  </g>
</svg>
