<svg xmlns="http://www.w3.org/2000/svg" xmlns:xlink="http://www.w3.org/1999/xlink" width="16" height="16" viewBox="0 0 16 16">
  <defs>
    <clipPath id="clip-path">
      <rect width="16" height="16" fill="none"/>
    </clipPath>
  </defs>
  <g id="Icon_check" data-name="Icon / check" clip-path="url(#clip-path)">
    <rect id="Rectangle" width="16" height="16" fill="#d8d8d8" opacity="0"/>
    <path id="_" data-name="" d="M11,8.688a3.476,3.476,0,0,1-.242,1.086A2.058,2.058,0,0,1,9.8,10.6a2.986,2.986,0,0,1-1.453.4A6.018,6.018,0,0,1,6.3,10.461a7.3,7.3,0,0,1-1.367-.648,13.189,13.189,0,0,1-3.75-3.75A7.3,7.3,0,0,1,.539,4.7,6.018,6.018,0,0,1,0,2.648,2.986,2.986,0,0,1,.4,1.2,2.058,2.058,0,0,1,1.227.242,3.476,3.476,0,0,1,2.313,0a.4.4,0,0,1,.164.023c.164.055.336.438.414.594.25.445.492.9.75,1.336.125.2.359.453.359.7C4,3.125,2.586,3.82,2.586,4.242a1.679,1.679,0,0,0,.3.672,7.774,7.774,0,0,0,3.2,3.2,1.679,1.679,0,0,0,.672.3C7.18,8.414,7.875,7,8.352,7c.242,0,.492.234.7.359.438.258.891.5,1.336.75.156.078.539.25.594.414A.4.4,0,0,1,11,8.688Z" transform="translate(2 2)" fill="#828a93"/>
  </g>
</svg>
