<svg xmlns="http://www.w3.org/2000/svg" xmlns:xlink="http://www.w3.org/1999/xlink" width="20" height="20" viewBox="0 0 20 20">
  <defs>
    <clipPath id="clip-path">
      <rect width="20" height="20" fill="none"/>
    </clipPath>
  </defs>
  <g id="Icon_home_recent_Copy_2" data-name="Icon / home / recent Copy 2" clip-path="url(#clip-path)">
    <rect id="Rectangle" width="20" height="20" fill="#d8d8d8" opacity="0"/>
    <path id="_" data-name="" d="M6,14a5.9,5.9,0,0,1-3.024-.816,6.015,6.015,0,0,1-2.16-2.16,6.009,6.009,0,0,1,0-6.048,6,6,0,0,1,2.16-2.16A5.9,5.9,0,0,1,6,2a5.8,5.8,0,0,1,2.016.368,6.639,6.639,0,0,1,1.728.977l.944-.977a7.916,7.916,0,0,1,.943.944l-.943.976A6.066,6.066,0,0,1,11.648,6,5.784,5.784,0,0,1,12,8a5.9,5.9,0,0,1-.815,3.024,6.029,6.029,0,0,1-2.16,2.16A5.9,5.9,0,0,1,6,14ZM6,3.344a4.615,4.615,0,0,0-2.353.624,4.71,4.71,0,0,0-1.679,1.68,4.74,4.74,0,0,0,0,4.7,4.685,4.685,0,0,0,1.679,1.7A4.525,4.525,0,0,0,6,12.688a4.524,4.524,0,0,0,2.352-.64,4.7,4.7,0,0,0,1.68-1.7,4.745,4.745,0,0,0,0-4.7,4.72,4.72,0,0,0-1.68-1.68A4.613,4.613,0,0,0,6,3.344Zm.656,5.343H5.344v-4H6.656v4ZM8,1.344H4V0H8V1.343Z" transform="translate(4 3)" fill="#fff"/>
  </g>
</svg>
