<svg xmlns="http://www.w3.org/2000/svg" xmlns:xlink="http://www.w3.org/1999/xlink" width="18" height="18" viewBox="0 0 18 18">
  <defs>
    <clipPath id="clip-path">
      <rect width="18" height="18" fill="none"/>
    </clipPath>
  </defs>
  <g id="Icon_most_active_views_Copy" data-name="Icon / most active / views Copy" clip-path="url(#clip-path)">
    <rect id="Rectangle" width="18" height="18" fill="#d8d8d8" opacity="0"/>
    <path id="_" data-name="" d="M9.413,12.375h-1a8.847,8.847,0,0,1-2.944-.662L5.43,11.7l-.012,0a5.132,5.132,0,0,0-1.211-.35.518.518,0,0,1-.5-.516V5.664a.53.53,0,0,1,.472-.515C4.5,5.121,5.381,3.935,5.554,3.7a11.094,11.094,0,0,1,.781-.967,2.369,2.369,0,0,0,.468-1.2l.012-.06A2.429,2.429,0,0,1,7.324.153.484.484,0,0,1,7.673,0C9.405,0,9.405,1.445,9.405,2.062A3.278,3.278,0,0,1,8.972,3.61c-.024.051-.048.094-.071.135a1.318,1.318,0,0,0-.153.381H10.89a1.537,1.537,0,0,1,1.484,1.547,1.945,1.945,0,0,1-.425,1.2,2.247,2.247,0,0,1,.116.613,1.759,1.759,0,0,1-.333,1.1,1.785,1.785,0,0,1,0,.943,1.669,1.669,0,0,1-.417.757,2,2,0,0,1-.38,1.459A1.882,1.882,0,0,1,9.413,12.375ZM2.723,11.344H.5a.513.513,0,0,1-.5-.516V5.672a.506.506,0,0,1,.5-.515H2.723a.506.506,0,0,1,.5.515v5.156A.513.513,0,0,1,2.723,11.344ZM1.485,9.282a.506.506,0,0,0-.5.515.5.5,0,0,0,.5.515.516.516,0,0,0,0-1.031Z" transform="translate(3.375 3.375)" fill="#9d9d9d"/>
  </g>
</svg>
