<?xml version="1.0" encoding="utf-8"?>
<!-- Generator: Adobe Illustrator 23.0.6, SVG Export Plug-In . SVG Version: 6.00 Build 0)  -->
<svg version="1.1" id="Layer_1" xmlns="http://www.w3.org/2000/svg" xmlns:xlink="http://www.w3.org/1999/xlink" x="0px" y="0px"
	 viewBox="0 0 23 23.3" style="enable-background:new 0 0 23 23.3;" xml:space="preserve">
<style type="text/css">
	.st0{fill:#FFFFFF;}
</style>
<path id="_" class="st0" d="M12.5,20.9c-0.4,0-0.7-0.2-1-0.4c-0.5-0.6-0.8-1.4-0.9-2.2c0-0.5-0.2-1-0.5-1.4C9.7,16.5,9.3,16,9,15.5
	l-0.1-0.1c-0.4-0.6-0.9-1.2-1.4-1.7h-3c-0.8,0-1.4-0.6-1.4-1.4l0,0V5.2c0-0.8,0.6-1.4,1.4-1.4h3.2C8.1,3.7,8.6,3.5,9,3.4h0.1
	c1.5-0.6,3-0.9,4.6-1H15c0.9,0,1.9,0.3,2.6,1c0.6,0.6,0.9,1.5,0.9,2.3v0.1c0.4,0.6,0.7,1.3,0.7,2c0,0.2,0,0.3,0,0.5
	c0.3,0.5,0.4,1,0.4,1.6c0,0.3,0,0.5-0.1,0.8c0.4,0.5,0.5,1.2,0.5,1.8c0,1.6-1.3,2.8-2.8,2.9h-1.9c0.3,0.7,0.5,1.4,0.5,2.1
	s-0.1,1.4-0.4,2.1C14.8,20.4,13.7,21,12.5,20.9z M7.3,5.2v7.2h0.4c0.8,0,1.9,1.5,2.5,2.3c0.1,0.1,0.1,0.2,0.2,0.3l0.1,0.1
	c0.2,0.3,0.5,0.6,0.7,0.9c0.5,0.6,0.8,1.4,0.9,2.1c0,0.5,0.2,1,0.5,1.4c0.5,0.1,1.1-0.1,1.4-0.6c0.3-0.5,0.4-1,0.3-1.6
	c0-0.6-0.2-1.2-0.5-1.8c-0.3-0.5-0.5-1.2-0.5-1.8h3.9c0.8,0,1.4-0.7,1.4-1.4c0-0.4-0.3-1.4-0.8-1.4c0.2-0.3,0.4-0.7,0.4-1.2
	s-0.2-1-0.6-1.3c0.1-0.2,0.2-0.5,0.2-0.8c0-0.6-0.3-1.1-0.7-1.4C17,6,17,5.8,17,5.6c0-1.5-1.1-1.9-2-1.9h-1.4
	C12.3,3.8,11,4.1,9.8,4.6L9.6,4.7C9,4.9,8.3,5.1,7.6,5.2H7.3z M5.2,5.2c-0.4,0-0.7,0.3-0.7,0.7c0,0.4,0.3,0.7,0.7,0.7
	c0.4,0,0.7-0.3,0.7-0.7C5.9,5.5,5.6,5.2,5.2,5.2z"/>
</svg>
