<svg xmlns="http://www.w3.org/2000/svg" xmlns:xlink="http://www.w3.org/1999/xlink" width="18" height="18" viewBox="0 0 18 18">
  <defs>
    <clipPath id="clip-path">
      <rect width="18" height="18" fill="none"/>
    </clipPath>
  </defs>
  <g id="Icon_most_active_views-colored" data-name="Icon / most active / views-colored" clip-path="url(#clip-path)">
    <rect id="Rectangle" width="18" height="18" fill="#d8d8d8" opacity="0"/>
    <path id="_" data-name="" d="M6.75,15.75a6.643,6.643,0,0,1-3.4-.918A6.767,6.767,0,0,1,.918,12.4a6.761,6.761,0,0,1,0-6.8,6.751,6.751,0,0,1,2.43-2.43,6.634,6.634,0,0,1,3.4-.918,6.52,6.52,0,0,1,2.268.414,7.468,7.468,0,0,1,1.944,1.1l1.062-1.1a8.9,8.9,0,0,1,1.061,1.062l-1.061,1.1A6.824,6.824,0,0,1,13.1,6.75,6.507,6.507,0,0,1,13.5,9a6.642,6.642,0,0,1-.917,3.4,6.782,6.782,0,0,1-2.43,2.43A6.643,6.643,0,0,1,6.75,15.75Zm0-11.988a5.192,5.192,0,0,0-2.647.7,5.3,5.3,0,0,0-1.889,1.89,5.332,5.332,0,0,0,0,5.291A5.27,5.27,0,0,0,4.1,13.554a5.091,5.091,0,0,0,2.647.72,5.089,5.089,0,0,0,2.646-.72,5.282,5.282,0,0,0,1.89-1.909,5.339,5.339,0,0,0,0-5.291A5.31,5.31,0,0,0,9.4,4.464,5.19,5.19,0,0,0,6.75,3.762Zm.738,6.011H6.012v-4.5H7.488v4.5ZM9,1.512H4.5V0H9V1.511Z" transform="translate(2.25 1.125)" fill="#9d9d9d"/>
  </g>
</svg>
