<svg xmlns="http://www.w3.org/2000/svg" xmlns:xlink="http://www.w3.org/1999/xlink" width="64" height="64" viewBox="0 0 64 64">
  <defs>
    <clipPath id="clip-path">
      <rect width="64" height="64" fill="none"/>
    </clipPath>
  </defs>
  <g id="like-icon" clip-path="url(#clip-path)">
    <g id="draft_activity_votes" data-name="draft activity / votes" opacity="0.172" clip-path="url(#clip-path)">
      <rect id="Rectangle" width="64" height="64" fill="#d8d8d8" opacity="0"/>
      <path id="_" data-name="" d="M33.469,44H29.92c-3.867,0-7.526-1.3-10.467-2.353l-.146-.052-.041-.015a18.247,18.247,0,0,0-4.3-1.245A1.841,1.841,0,0,1,13.2,38.5V20.138a1.885,1.885,0,0,1,1.678-1.832c1.132-.1,4.253-4.314,4.867-5.159a39.447,39.447,0,0,1,2.776-3.438c1.027-1.069,1.351-2.7,1.664-4.284l.042-.212c.29-1.618.618-3.451,1.814-4.669A1.721,1.721,0,0,1,27.281,0c6.16,0,6.16,5.139,6.16,7.333a11.655,11.655,0,0,1-1.541,5.5c-.087.181-.171.333-.252.479a4.687,4.687,0,0,0-.543,1.353h7.618A5.465,5.465,0,0,1,44,20.167a6.916,6.916,0,0,1-1.512,4.266,7.99,7.99,0,0,1,.414,2.178,6.252,6.252,0,0,1-1.184,3.924,6.345,6.345,0,0,1,0,3.352,5.934,5.934,0,0,1-1.483,2.693,7.107,7.107,0,0,1-1.35,5.188A6.692,6.692,0,0,1,33.469,44ZM9.68,40.334H1.76A1.824,1.824,0,0,1,0,38.5V20.167a1.8,1.8,0,0,1,1.76-1.832H9.68a1.8,1.8,0,0,1,1.76,1.832V38.5A1.824,1.824,0,0,1,9.68,40.334ZM5.281,33a1.8,1.8,0,0,0-1.76,1.832,1.778,1.778,0,0,0,1.76,1.832,1.834,1.834,0,0,0,0-3.665Z" transform="translate(12 12)" fill="#9d9d9d"/>
    </g>
  </g>
</svg>
