<svg xmlns="http://www.w3.org/2000/svg" xmlns:xlink="http://www.w3.org/1999/xlink" width="33.392" height="33.846" viewBox="0 0 33.392 33.846">
  <defs>
    <clipPath id="clip-path">
      <rect width="22.957" height="23.269" fill="none"/>
    </clipPath>
  </defs>
  <g id="like" transform="translate(-54.608 -62.308)">
    <g id="Group" transform="translate(54.609 62.308)">
      <g id="Rectangle_Copy" data-name="Rectangle Copy" fill="none" stroke="#00aaba" stroke-miterlimit="10" stroke-width="1">
        <path d="M0,0H29.391a4,4,0,0,1,4,4V29.846a4,4,0,0,1-4,4H0a0,0,0,0,1,0,0V0A0,0,0,0,1,0,0Z" stroke="none"/>
        <path d="M1,.5H29.391a3.5,3.5,0,0,1,3.5,3.5V29.846a3.5,3.5,0,0,1-3.5,3.5H1a.5.5,0,0,1-.5-.5V1A.5.5,0,0,1,1,.5Z" fill="none"/>
      </g>
    </g>
    <g id="Icon_dropdown_arrow_down" data-name="Icon / dropdown / arrow down" transform="translate(59.826 67.596)" clip-path="url(#clip-path)">
      <g id="icon_arrow" data-name="icon / arrow">
        <rect id="Rectangle" width="22.957" height="23.269" fill="#d8d8d8" opacity="0"/>
      </g>
      <path id="_" data-name="" d="M11.936,18.616H10.522a13.209,13.209,0,0,1-4.45-.985l-.154-.055a6.663,6.663,0,0,0-1.359-.392H1.4A1.419,1.419,0,0,1,0,15.751V8.592A1.419,1.419,0,0,1,1.4,7.159h3A9.616,9.616,0,0,0,5.845,5.508l.062-.083c.436-.576.809-1.031,1.173-1.432a2.835,2.835,0,0,0,.487-1.385A3.934,3.934,0,0,1,8.483.414,1.408,1.408,0,0,1,9.47,0a2.882,2.882,0,0,1,2.773,1.5,4.39,4.39,0,0,1,.384,2.081A4.818,4.818,0,0,1,12.1,5.728h1.929a2.868,2.868,0,0,1,2.806,2.853A3.324,3.324,0,0,1,16.3,10.4a3.046,3.046,0,0,1,.1.772,3.317,3.317,0,0,1-.417,1.61,3.525,3.525,0,0,1,.033.481,3.289,3.289,0,0,1-.658,1.992,3.291,3.291,0,0,1-.867,2.4A3.463,3.463,0,0,1,11.936,18.616ZM4.209,8.592v7.159h.351a7.074,7.074,0,0,1,1.975.528l.239.087a11.368,11.368,0,0,0,3.749.816h1.326c1.4,0,2.1-.629,2.1-1.868a3.89,3.89,0,0,0-.055-.626,1.679,1.679,0,0,0,.713-1.41,1.579,1.579,0,0,0-.2-.771,1.791,1.791,0,0,0,.581-1.331,2.058,2.058,0,0,0-.384-1.153c.511-.011.822-1,.822-1.432a1.474,1.474,0,0,0-1.4-1.432H10.171A4.236,4.236,0,0,1,10.7,5.377a4.263,4.263,0,0,0,.527-1.8c0-1.36-.287-2.148-1.753-2.148a2.8,2.8,0,0,0-.527,1.436,4.076,4.076,0,0,1-.876,2.144c-.263.278-.5.578-.726.869l-.117.149c-.056.074-.123.164-.2.266-.593.8-1.7,2.3-2.466,2.3ZM2.1,14.32a.716.716,0,0,0,0,1.432.716.716,0,0,0,0-1.432Z" transform="translate(3.061 2.327)" fill="#00aaba"/>
    </g>
  </g>
</svg>
