<svg id="Most_Likes" data-name="Most Likes" xmlns="http://www.w3.org/2000/svg" width="59.902" height="59.3" viewBox="0 0 59.902 59.3">
  <path id="Path_Copy" data-name="Path Copy" d="M1.328,32.5a3.94,3.94,0,0,1,0-5.9l1.18-1a3.866,3.866,0,0,0,.984-4.5L2.9,19.7a3.932,3.932,0,0,1,2.557-5.3L6.934,14a4.054,4.054,0,0,0,2.852-3.6l.1-1.6a3.9,3.9,0,0,1,3.836-3.7,1.649,1.649,0,0,1,.689.1l1.475.3c.2,0,.492.1.689.1a3.966,3.966,0,0,0,3.443-2.1L20.7,2.1A3.966,3.966,0,0,1,24.148,0,3.316,3.316,0,0,1,26.41.8l1.279.9a3.783,3.783,0,0,0,2.262.7,3.783,3.783,0,0,0,2.262-.7L33.492.8a3.917,3.917,0,0,1,5.7,1.4l.689,1.4a3.852,3.852,0,0,0,3.443,2.1,1.649,1.649,0,0,0,.689-.1l1.475-.3c.2,0,.492-.1.689-.1A3.849,3.849,0,0,1,50.016,9l.1,1.6a3.828,3.828,0,0,0,2.852,3.6l1.475.4A4,4,0,0,1,57,19.9l-.59,1.4a3.866,3.866,0,0,0,.984,4.5l1.18,1a3.94,3.94,0,0,1,0,5.9l-1.18,1a3.866,3.866,0,0,0-.984,4.5L57,39.6a3.932,3.932,0,0,1-2.557,5.3l-1.475.4a4.054,4.054,0,0,0-2.852,3.6l-.1,1.6a3.9,3.9,0,0,1-3.836,3.7,1.649,1.649,0,0,1-.689-.1l-1.475-.3c-.2,0-.492-.1-.689-.1a3.966,3.966,0,0,0-3.443,2.1L39.2,57.2a3.966,3.966,0,0,1-3.443,2.1,3.316,3.316,0,0,1-2.262-.8l-1.279-.9a4.006,4.006,0,0,0-4.525,0l-1.279.9a3.917,3.917,0,0,1-5.7-1.4l-.689-1.4a3.852,3.852,0,0,0-3.443-2.1,1.649,1.649,0,0,0-.689.1L14.41,54c-.2,0-.492.1-.689.1a3.849,3.849,0,0,1-3.836-3.8l-.1-1.6a3.828,3.828,0,0,0-2.852-3.6l-1.574-.3A4,4,0,0,1,2.8,39.5l.59-1.4a3.866,3.866,0,0,0-.984-4.5Z" transform="translate(0 0)" fill="#046F6D"/>
  <path id="_copy" data-name=" copy" d="M19.031,25.438H17.014a17.647,17.647,0,0,1-5.961-1.364l-.076-.027a10.287,10.287,0,0,0-2.47-.728,1.056,1.056,0,0,1-1-1.06V11.642a1.083,1.083,0,0,1,.954-1.06c.624-.053,2.277-2.3,2.768-2.981a22.594,22.594,0,0,1,1.579-1.987,4.919,4.919,0,0,0,.946-2.476l.024-.124a5.033,5.033,0,0,1,1.031-2.7.967.967,0,0,1,.7-.315c3.5,0,3.5,2.971,3.5,4.24a6.787,6.787,0,0,1-.876,3.18c-.049.1-.1.192-.143.276a2.747,2.747,0,0,0-.31.783h4.332a3.136,3.136,0,0,1,3,3.18,4.049,4.049,0,0,1-.86,2.468,4.679,4.679,0,0,1,.235,1.259,3.653,3.653,0,0,1-.673,2.268,3.707,3.707,0,0,1,0,1.938,3.45,3.45,0,0,1-.844,1.557,4.161,4.161,0,0,1-.766,3A3.78,3.78,0,0,1,19.031,25.438ZM5.5,23.318H1a1.046,1.046,0,0,1-1-1.06v-10.6A1.032,1.032,0,0,1,1,10.6H5.5a1.032,1.032,0,0,1,1,1.059v10.6A1.046,1.046,0,0,1,5.5,23.318ZM3,19.078a1.033,1.033,0,0,0-1,1.06A1.02,1.02,0,0,0,3,21.2a1.061,1.061,0,0,0,0-2.119Z" transform="translate(17.705 17)" fill="#fff"/>
</svg>
