<?xml version="1.0" encoding="utf-8"?>
<!-- Generator: Adobe Illustrator 24.0.0, SVG Export Plug-In . SVG Version: 6.00 Build 0)  -->
<svg version="1.1" id="Layer_1" xmlns="http://www.w3.org/2000/svg" xmlns:xlink="http://www.w3.org/1999/xlink" x="0px" y="0px"
	 viewBox="0 0 82.3 72" style="enable-background:new 0 0 82.3 72;" xml:space="preserve">
<style type="text/css">
	.st0{fill:#85BC46;}
</style>
<g id="group_2_" transform="translate(0 -34.445)">
	<path id="Path_2814" class="st0" d="M78.5,82.7c-7-4-14.9-6.3-22.9-6.8c1.7,0.7,3.3,1.5,4.9,2.4c1.8,1.1,3.3,2.6,4.4,4.4
		c3.9,1.1,7.6,2.6,11.1,4.6c0.8,0.5,1.2,1.3,1.2,2.2v12H66.9v5.1h12.9c1.4,0,2.6-1.2,2.6-2.6V89.3C82.3,86.6,80.9,84.1,78.5,82.7z"
		/>
	<path id="Path_2815" class="st0" d="M58,82.7c-16.9-9.3-37.3-9.3-54.2,0C1.4,84.1,0,86.6,0,89.3v14.5c0,1.4,1.2,2.6,2.6,2.6h56.6
		c1.4,0,2.6-1.2,2.6-2.6V89.3C61.7,86.6,60.3,84.1,58,82.7z M56.6,101.3H5.1v-12c0-0.9,0.4-1.7,1.2-2.2c15.3-8.4,33.8-8.4,49.1,0
		c0.8,0.5,1.2,1.3,1.2,2.2V101.3z"/>
	<path id="Path_2816" class="st0" d="M50.1,39.7c0.4-0.1,0.9-0.1,1.3-0.1c7.1,0,12.9,5.8,12.9,12.9s-5.8,12.9-12.9,12.9
		c-0.4,0-0.9-0.1-1.3-0.1c-1.1,1.6-2.4,3.1-3.9,4.4c1.7,0.5,3.4,0.8,5.2,0.9c9.9,0,18-8.1,18-18s-8.1-18-18-18l0,0
		c-1.8,0-3.5,0.3-5.2,0.9C47.7,36.6,49,38.1,50.1,39.7L50.1,39.7z"/>
	<path id="Path_2817" class="st0" d="M30.9,70.4c9.9,0,18-8.1,18-18s-8.1-18-18-18s-18,8.1-18,18C12.9,62.4,20.9,70.4,30.9,70.4z
		 M30.9,39.6c7.1,0,12.9,5.8,12.9,12.9S38,65.3,30.9,65.3S18,59.5,18,52.4C18,45.3,23.8,39.6,30.9,39.6z"/>
</g>
</svg>
