<svg xmlns="http://www.w3.org/2000/svg" viewBox="0 0 399.54 170.18"><defs><style>.cls-1{fill:#07706e;}.cls-2{fill:#85bc46;}.cls-3{fill:#3d3d3c;}</style></defs><title>Asset 5</title><g id="Layer_2" data-name="Layer 2"><g id="Layer_8" data-name="Layer 8"><path class="cls-1" d="M314.38,0l.07,19.18c-.95.89-3.08,3.8-5.79,13a.34.34,0,0,1-.52.19c-1.69-1.28-9.1-6-21.44-1.64a.33.33,0,0,0,0,.62c1.7.7,5.71,2.57,8,5.13a.33.33,0,0,1-.27.54c-4.71-.14-31.26.64-51.58,32.89a.34.34,0,0,0,.48.45c5-3.57,23.19-15.49,39.12-14.26a.33.33,0,0,1,.12.63c-5.71,2.68-31,16.7-36.64,56.44a.34.34,0,0,0,.63.21c3.54-6.31,17.86-29.95,37.77-38.39a.33.33,0,0,1,.38.52c-3.85,4.76-19,26-15.59,60.94a.33.33,0,0,0,.64.06c2.06-6.74,10.77-33.28,25.35-49.39a.33.33,0,0,1,.58.26c-1,6.07-5.2,35.85.07,59.2a.34.34,0,0,0,.66-.05c.81-8.78,4.46-43.63,12.2-54.31a.35.35,0,0,1,.27-.14l.28,0,1.79,21.33H308L310.4,142h-2.78l1.54,28.21A85.19,85.19,0,0,1,314.38,0Z"/><path class="cls-2" d="M314.4,0l.07,19.18c1,.88,3.11,3.77,5.89,13a.34.34,0,0,0,.52.19c1.68-1.29,9.05-6.1,21.43-1.8a.33.33,0,0,1,0,.62c-1.7.71-5.7,2.62-7.95,5.18a.33.33,0,0,0,.28.54c4.71-.17,31.26.4,51.82,32.5a.33.33,0,0,1-.47.45c-5.08-3.53-23.3-15.31-39.23-14a.33.33,0,0,0-.11.62c5.73,2.64,31.11,16.46,37.07,56.16a.33.33,0,0,1-.62.22c-3.6-6.28-18.1-29.82-38.07-38.11a.34.34,0,0,0-.38.53c3.89,4.73,19.24,25.82,16.06,60.81a.33.33,0,0,1-.64.07C358,129.44,349.07,103,334.36,87a.32.32,0,0,0-.57.27c1,6.05,5.47,35.8.38,59.19a.34.34,0,0,1-.66-.05c-.87-8.76-4.8-43.58-12.62-54.21a.34.34,0,0,0-.27-.13l-.28,0-1.62,21.34h2.93l-2.18,28.58,2.78,0-1.33,28.23A85.2,85.2,0,0,0,314.4,0Z"/><path class="cls-3" d="M192.71,33.37l.06,15.92a9.55,9.55,0,0,1-9.52,9.59L161.53,59l-.19-48.85-7.63,0a3,3,0,0,0-3,3L150.92,59l-23.14.09,0-6.58a27.16,27.16,0,0,0-27.27-27.07H97.21l0,7.64a3,3,0,0,0,3,3h.29a16.56,16.56,0,0,1,16.63,16.5l0,6.58-27.68.1a3,3,0,0,0-3,3l0,7.63,30.65-.11,4.82,0L151,69.62l5.31,0,27-.11a20.17,20.17,0,0,0,20.09-20.25l-.07-18.88-7.64,0A3,3,0,0,0,192.71,33.37Z"/><path class="cls-3" d="M77.32,59.29l-48.38.19-8.21,0A9.57,9.57,0,0,1,11.12,50l-.06-15.85a3,3,0,0,0-3-3l-7.63,0L.52,50A20.16,20.16,0,0,0,20.77,70.11l8.21,0,8.41,0,42.94-.17,0-7.63A3,3,0,0,0,77.32,59.29Z"/><circle class="cls-3" cx="177.25" cy="80.12" r="5.79" transform="translate(-0.31 0.68) rotate(-0.22)"/><circle class="cls-3" cx="49.54" cy="80.61" r="5.79" transform="translate(-41.48 106.46) rotate(-74.28)"/><circle class="cls-3" cx="37.01" cy="80.66" r="5.79" transform="matrix(0.27, -0.96, 0.96, 0.27, -50.66, 94.43)"/><path class="cls-2" d="M173.75,117.91l.05,13.14,23.27-.09v1.88a2.46,2.46,0,0,1-2.46,2.48l-103.91.42-.06-14.59-4.55,0a1.74,1.74,0,0,0-1.74,1.75L84.42,143a2.47,2.47,0,0,1-1.28,2.18l-15.29,8.36a1.75,1.75,0,0,0-.7,2.37l2.19,4,16.82-9.2a8.8,8.8,0,0,0,4.57-7.64v-1l103.91-.42a8.78,8.78,0,0,0,8.74-8.81l-.09-23.8-20.8.08A8.78,8.78,0,0,0,173.75,117.91ZM197,124.66l-17,.06,0-6.83a2.47,2.47,0,0,1,2.46-2.48l14.5-.06Z"/><path class="cls-2" d="M75.11,140.38,75,98.24l-4.56,0A1.74,1.74,0,0,0,68.65,100l.16,42.15,4.56,0A1.75,1.75,0,0,0,75.11,140.38Z"/><path class="cls-2" d="M51.9,145.32l-15.29,8.37a1.75,1.75,0,0,0-.7,2.37l2.19,4,16.83-9.2a8.79,8.79,0,0,0,4.56-7.73l-.08-21.86-4.56,0A1.74,1.74,0,0,0,53.11,123l.08,20.11A2.45,2.45,0,0,1,51.9,145.32Z"/><path class="cls-2" d="M43.83,133.45,43.7,98.36l-4.56,0a1.74,1.74,0,0,0-1.74,1.75l.12,33.35A2.47,2.47,0,0,1,35.06,136l-33.32.13A1.75,1.75,0,0,0,0,137.84l0,4.56,35.07-.14A8.78,8.78,0,0,0,43.83,133.45Z"/><path class="cls-2" d="M17.13,130.11l9.7-9.78-9.78-9.7-1.54,1.55a1.74,1.74,0,0,0,0,2.47l5.74,5.7-5.7,5.74a1.75,1.75,0,0,0,0,2.47Z"/><path class="cls-2" d="M193.55,104.07a3.16,3.16,0,1,0-3.17-3.15A3.16,3.16,0,0,0,193.55,104.07Z"/><path class="cls-2" d="M184.27,104.1A3.15,3.15,0,1,0,181.1,101,3.16,3.16,0,0,0,184.27,104.1Z"/></g></g></svg>