<svg xmlns="http://www.w3.org/2000/svg" viewBox="0 0 800 419.07"><defs><style>.cls-1{fill:#fff;}.cls-2{fill:#fff;}.cls-3{fill:#fff;}.cls-4{fill:#fff;}</style></defs><title>Asset 5</title><g id="Layer_2" data-name="Layer 2"><g id="Layer_1-2" data-name="Layer 1"><path class="cls-1" d="M768.8,128.16a15.6,15.6,0,0,0-15.6,15.6v65.13a7.72,7.72,0,0,1-.61,3,7.84,7.84,0,0,1-2.85,3.45,7.58,7.58,0,0,1-4.34,1.32H688.47V128.16h-31.2a15.6,15.6,0,0,0-15.6,15.6v72.93H576.94V128.16H545.73a15.61,15.61,0,0,0-15.6,15.6v72.93H443a7.72,7.72,0,0,1-3-.6,8,8,0,0,1-3.45-2.85,7.61,7.61,0,0,1-1.32-4.35V15.6A15.61,15.61,0,0,0,419.58,0H388.37V208.89A54.6,54.6,0,0,0,443,263.5H745.4A54.6,54.6,0,0,0,800,208.89V128.16Z"/><path class="cls-2" d="M238.3,254.17a54.65,54.65,0,0,0,24.05-45.28V0h-31.2a15.6,15.6,0,0,0-15.6,15.6V208.89a7.54,7.54,0,0,1-1.34,4.34,7.86,7.86,0,0,1-3.44,2.87,8,8,0,0,1-3,.59H15.6A15.61,15.61,0,0,0,0,232.29V263.5H207.75A54.82,54.82,0,0,0,238.3,254.17Z"/><path class="cls-1" d="M300.74,143.76V262.08a7.81,7.81,0,0,1-4.08,6.86l-85.07,46.11a15.6,15.6,0,0,0-6.28,21.16l14.87,27.43L319,310.08a54.57,54.57,0,0,0,28.58-48V128.16h-31.2A15.61,15.61,0,0,0,300.74,143.76Z"/><polygon class="cls-3" points="220.18 363.64 220.18 363.64 220.18 363.64 220.18 363.64"/><path class="cls-1" d="M98.46,173l13.21,13.21,57.84-57.84L111.67,70.57,98.46,83.78a12.51,12.51,0,0,0,0,17.7l26.92,26.92L98.46,155.33A12.51,12.51,0,0,0,98.46,173Z"/><path class="cls-2" d="M694.73,81.59v0c0,.07,0,.15,0,.28a25.77,25.77,0,0,0,51.53.45c0-.21,0-.39,0-.53v-.24h0v-.19h0v-.23h0A25.77,25.77,0,0,0,694.75,81h0s0,.15,0,.38h0v.13h0Z"/><path class="cls-3" d="M738.74,63.3l0,0s0,0,0,0Z"/><path class="cls-3" d="M738.78,99.77l0,0h0Z"/><path class="cls-3" d="M702.26,63.34l0,0,0,0Z"/><path class="cls-3" d="M702.3,99.82l0,0,0,0Z"/><path class="cls-3" d="M628.8,63.3v0s0,0,0,0Z"/><path class="cls-3" d="M592.32,63.34l0,0,0,0Z"/><path class="cls-2" d="M584.79,81.59v0c0,.07,0,.15,0,.28a25.77,25.77,0,0,0,51.53.39c0-.33,0-.57,0-.69h0v0h0v-.29h0A25.77,25.77,0,0,0,584.81,81h0s0,.16,0,.39h0v.13h0Z"/><path class="cls-3" d="M592.36,99.81l0,0a0,0,0,0,1,0,0Z"/><path class="cls-3" d="M628.84,99.78h0l0,0Z"/><path class="cls-3" d="M647.29,7.58s0,0,0,0l0,0Z"/><path class="cls-3" d="M683.77,7.54l0,0h0Z"/><path class="cls-2" d="M639.76,25.82v0c0,.08,0,.16,0,.28a25.77,25.77,0,0,0,51.53.45c0-.21,0-.39,0-.53a1.7,1.7,0,0,0,0-.21v0h0V25.6h0v-.23h0a25.77,25.77,0,0,0-51.53-.13h0s0,.16,0,.38h0v.13h0Z"/><path class="cls-3" d="M683.81,44l0,0,0,0Z"/><path class="cls-3" d="M647.33,44.05s0,0,0,0l0,0Z"/><path class="cls-4" d="M741.89,337.31v25.82h45.72v3.7a4.86,4.86,0,0,1-4.85,4.85H566.63V343h-9a3.44,3.44,0,0,0-3.44,3.44V386a4.83,4.83,0,0,1-2.53,4.26l-30.12,16.33a3.43,3.43,0,0,0-1.38,4.66l4.26,7.87,33.14-18a17.25,17.25,0,0,0,9-15l0-2.07H782.76A17.26,17.26,0,0,0,800,366.83V320.06H759.13A17.26,17.26,0,0,0,741.89,337.31Zm45.72,13.43H754.28V337.31a4.86,4.86,0,0,1,4.85-4.86h28.48Z"/><path class="cls-4" d="M536,380.68V297.86h-9a3.44,3.44,0,0,0-3.43,3.43v82.82h9A3.44,3.44,0,0,0,536,380.68Z"/><path class="cls-4" d="M490.31,390.21l-30.12,16.33a3.45,3.45,0,0,0-1.38,4.66l4.27,7.87,33.13-18a17.23,17.23,0,0,0,9-15.16V343h-9a3.44,3.44,0,0,0-3.43,3.44V386A4.84,4.84,0,0,1,490.31,390.21Z"/><path class="cls-4" d="M474.54,366.83v-69h-9a3.44,3.44,0,0,0-3.43,3.43v65.54a4.86,4.86,0,0,1-4.86,4.85H391.81a3.44,3.44,0,0,0-3.44,3.43v9h68.92A17.27,17.27,0,0,0,474.54,366.83Z"/><path class="cls-4" d="M422.08,360.05l19.14-19.14-19.14-19.14-3,3a3.44,3.44,0,0,0,0,4.86l11.24,11.24L419,352.14a3.44,3.44,0,0,0,0,4.86Z"/><path class="cls-4" d="M780.9,310.25a6.2,6.2,0,1,0-6.2-6.2A6.2,6.2,0,0,0,780.9,310.25Z"/><path class="cls-4" d="M762.66,310.25a6.2,6.2,0,1,0-6.19-6.2A6.21,6.21,0,0,0,762.66,310.25Z"/></g></g></svg>