<?xml version="1.0" encoding="utf-8"?>
<!-- Generator: Adobe Illustrator 24.0.0, SVG Export Plug-In . SVG Version: 6.00 Build 0)  -->
<svg version="1.1" id="Capa_1" xmlns="http://www.w3.org/2000/svg" xmlns:xlink="http://www.w3.org/1999/xlink" x="0px" y="0px"
	 viewBox="0 0 450 512" style="enable-background:new 0 0 450 512;" xml:space="preserve">
<style type="text/css">
	.st0{fill:#85BC46;}
</style>
<g>
	<g>
		<g>
			<path class="st0" d="M225,0C150.6,0,90,60.6,90,135s60.6,135,135,135s135-60.6,135-135S299.4,0,225,0z M225,240
				c-57.9,0-105-47.1-105-105S167.1,30,225,30s105,47.1,105,105S282.9,240,225,240z"/>
		</g>
	</g>
	<g>
		<g>
			<path class="st0" d="M266.8,301h-83.7C114,301,45.7,333,0,401.5V512h450V401.5C404.4,333,336.1,301,266.8,301z M420,482L420,482
				H30v-71.4c35-50,92-79.6,153.2-79.6h83.7C328,331,385,360.7,420,410.6L420,482L420,482z"/>
		</g>
	</g>
</g>
</svg>
