<svg xmlns="http://www.w3.org/2000/svg" width="47.987" height="57.456" viewBox="0 0 47.987 57.456">
  <g id="Report_Icon" data-name="Report Icon" transform="translate(-0.427 -0.302)">
    <g id="Group">
      <path id="Shape" d="M36.2,57.456H3.236a3.227,3.227,0,0,1-2.282-.944A3.161,3.161,0,0,1,0,54.254V11.66A3.161,3.161,0,0,1,.954,9.4a3.227,3.227,0,0,1,2.282-.944H8.547V3.2A3.161,3.161,0,0,1,9.5.944,3.227,3.227,0,0,1,11.783,0H44.752a3.265,3.265,0,0,1,3.236,3.2V45.8a3.161,3.161,0,0,1-.954,2.258A3.227,3.227,0,0,1,44.752,49H39.44v5.256a3.161,3.161,0,0,1-.954,2.258A3.227,3.227,0,0,1,36.2,57.456ZM3.236,11.057a.547.547,0,0,0-.549.544V54.194a.547.547,0,0,0,.549.544H36.2a.561.561,0,0,0,.61-.544V49H11.783A3.227,3.227,0,0,1,9.5,48.054,3.161,3.161,0,0,1,8.547,45.8V11.057ZM11.783,2.6a.608.608,0,0,0-.61.6V45.8a.609.609,0,0,0,.61.6H44.69a.609.609,0,0,0,.611-.6h.06V3.2a.609.609,0,0,0-.61-.6Z" transform="translate(0.427 0.302)" fill="#e9e9e9"/>
      <path id="Path" d="M20.941,0H1.343A1.348,1.348,0,0,0,0,1.329,1.348,1.348,0,0,0,1.343,2.658h19.6a1.348,1.348,0,0,0,1.343-1.329A1.348,1.348,0,0,0,20.941,0Z" transform="translate(17.522 30.933)" fill="#e9e9e9"/>
      <path id="Path-2" data-name="Path" d="M20.941,0H1.343A1.348,1.348,0,0,0,0,1.329,1.348,1.348,0,0,0,1.343,2.658h19.6a1.348,1.348,0,0,0,1.343-1.329A1.348,1.348,0,0,0,20.941,0Z" transform="translate(17.522 38.787)" fill="#e9e9e9"/>
      <path id="Path-3" data-name="Path" d="M20.941,0H1.343A1.348,1.348,0,0,0,0,1.329,1.348,1.348,0,0,0,1.343,2.658h19.6a1.348,1.348,0,0,0,1.343-1.329A1.31,1.31,0,0,0,20.941,0Z" transform="translate(17.522 23.14)" fill="#e9e9e9"/>
      <path id="Path-4" data-name="Path" d="M.488,4.713H2.869a.479.479,0,0,0,.488-.483V.483A.479.479,0,0,0,2.869,0H.488A.479.479,0,0,0,0,.483V4.229A.523.523,0,0,0,.488,4.713Z" transform="translate(20.697 13.413)" fill="#e9e9e9"/>
      <path id="Path-5" data-name="Path" d="M.488,7.431H2.869a.479.479,0,0,0,.488-.483V.483A.479.479,0,0,0,2.869,0H.488A.479.479,0,0,0,0,.483v6.4A.535.535,0,0,0,.488,7.431Z" transform="translate(26.619 10.694)" fill="#e9e9e9"/>
      <path id="Path-6" data-name="Path" d="M.488,10.029H2.869a.479.479,0,0,0,.488-.483V.483A.523.523,0,0,0,2.869,0H.488A.479.479,0,0,0,0,.483V9.546A.523.523,0,0,0,.488,10.029Z" transform="translate(32.541 8.096)" fill="#e9e9e9"/>
    </g>
  </g>
</svg>
