<svg xmlns="http://www.w3.org/2000/svg" xmlns:xlink="http://www.w3.org/1999/xlink" width="40" height="40" viewBox="0 0 40 40">
  <defs>
    <clipPath id="clip-path">
      <rect width="40" height="40" fill="none"/>
    </clipPath>
    <clipPath id="clip-path-2">
      <circle id="Mask" cx="20" cy="20" r="20" fill="#046F6D"/>
    </clipPath>
  </defs>
  <g id="reward_placeholder" data-name="reward placeholder" clip-path="url(#clip-path)">
    <g id="user_photo_empty" data-name="user photo / empty">
      <circle id="Mask-2" data-name="Mask" cx="20" cy="20" r="20" fill="#046F6D"/>
    </g>
    <path id="_" data-name="" d="M12.959,16.714H5a.549.549,0,0,1-.4-.165.541.541,0,0,1,0-.784A.55.55,0,0,1,5,15.6h7.954a.551.551,0,0,1,.4.166.541.541,0,0,1,0,.784A.55.55,0,0,1,12.959,16.714Zm-1.7-1.688H6.7a.557.557,0,1,1,0-1.114H8.382V10.029a5.335,5.335,0,0,1-1.556-.41,5.635,5.635,0,0,1-1.361-.835A5.941,5.941,0,0,1,3.644,6.129,4.921,4.921,0,0,1,1.966,5.8a2.889,2.889,0,0,1-1.184-.87A3.11,3.11,0,0,1,0,2.768c.035-.762.059-1.167.07-1.2a.506.506,0,0,1,.194-.33.568.568,0,0,1,.354-.122H3.308V.557A.531.531,0,0,1,3.477.166.548.548,0,0,1,3.875,0H14.037a.535.535,0,0,1,.407.166A.546.546,0,0,1,14.6.557v.557h2.775a.568.568,0,0,1,.354.122.506.506,0,0,1,.194.33c.012.035.035.439.07,1.2a3.11,3.11,0,0,1-.778,2.159A3.085,3.085,0,0,1,16,5.807a4.8,4.8,0,0,1-1.732.322,5.941,5.941,0,0,1-1.821,2.655,5.659,5.659,0,0,1-1.362.835,5.338,5.338,0,0,1-1.572.41v3.883h1.75a.551.551,0,0,1,.4.166.542.542,0,0,1,0,.783A.551.551,0,0,1,11.263,15.025ZM4.44,1.114V4.109A5.035,5.035,0,0,0,4.793,6,4.841,4.841,0,0,0,5.765,7.53,4.733,4.733,0,0,0,7.206,8.566a4.234,4.234,0,0,0,3.517,0A4.632,4.632,0,0,0,12.155,7.53,4.93,4.93,0,0,0,13.118,6a5.035,5.035,0,0,0,.354-1.889V1.114ZM14.6,2.228v1.88c0,.147-.006.3-.018.453s-.029.293-.053.436A3.074,3.074,0,0,0,15.6,4.762a2.222,2.222,0,0,0,.752-.531A2.045,2.045,0,0,0,16.8,3.195a5.546,5.546,0,0,0,.062-.967Zm-13.469,0a5.546,5.546,0,0,0,.062.967,2.045,2.045,0,0,0,.451,1.036,1.986,1.986,0,0,0,.715.522A3.241,3.241,0,0,0,3.379,5c-.024-.151-.041-.3-.053-.444s-.018-.3-.018-.445V2.228H1.134Z" transform="translate(11 12)" fill="#fff"/>
  </g>
</svg>
