<svg xmlns="http://www.w3.org/2000/svg" xmlns:xlink="http://www.w3.org/1999/xlink" width="40" height="40" viewBox="0 0 40 40">
  <defs>
    <clipPath id="clip-path">
      <rect width="40" height="40" fill="none"/>
    </clipPath>
    <clipPath id="clip-path-2">
      <circle id="Mask" cx="20" cy="20" r="20" fill="#046F6D"/>
    </clipPath>
  </defs>
  <g id="reward_placeholder_copy" data-name="reward placeholder copy" clip-path="url(#clip-path)">
    <g id="user_photo_empty" data-name="user photo / empty">
      <circle id="Mask-2" data-name="Mask" cx="20" cy="20" r="20" fill="#046F6D"/>
    </g>
    <path id="_" data-name="" d="M14.534,20h-.059a.62.62,0,0,1-.322-.087.593.593,0,0,1-.224-.245l-3.262-5.957c-.106.014-.215.024-.322.03s-.223.01-.323.01-.227,0-.351-.01-.236-.016-.352-.03l-3.2,5.957a.593.593,0,0,1-.224.245A.62.62,0,0,1,5.57,20H5.53a.679.679,0,0,1-.342-.127.567.567,0,0,1-.205-.284L3.91,16.6l-3.145.7a.507.507,0,0,1-.163.027A.531.531,0,0,1,.413,17.3.549.549,0,0,1,.14,17.07.573.573,0,0,1,0,16.748a.526.526,0,0,1,.077-.342l3.672-6.7a6.815,6.815,0,0,1-.6-2.832A6.734,6.734,0,0,1,3.685,4.2,6.9,6.9,0,0,1,7.347.537a6.933,6.933,0,0,1,5.352,0,6.857,6.857,0,0,1,2.177,1.474A7.2,7.2,0,0,1,16.351,4.2a6.78,6.78,0,0,1,.391,4.111,7.82,7.82,0,0,1-.43,1.337l3.652,6.758a.515.515,0,0,1,.078.342.679.679,0,0,1-.137.342.591.591,0,0,1-.273.205.531.531,0,0,1-.189.036.506.506,0,0,1-.163-.027l-3.145-.7-1.075,2.988a.56.56,0,0,1-.2.284.65.65,0,0,1-.323.127Zm1.036-9.082a7.145,7.145,0,0,1-1.592,1.562,6.916,6.916,0,0,1-2.021,1l2.4,4.375.781-2.207a.723.723,0,0,1,.3-.332.566.566,0,0,1,.286-.078.628.628,0,0,1,.154.02l2.324.527ZM4.317,15.234a.57.57,0,0,1,.286.078.723.723,0,0,1,.3.332l.781,2.187,2.344-4.375a6.974,6.974,0,0,1-1.983-.976A6.76,6.76,0,0,1,4.5,10.957L1.84,15.781l2.324-.527A.628.628,0,0,1,4.317,15.234ZM10.022,1.25A5.365,5.365,0,0,0,7.835,1.7,5.971,5.971,0,0,0,6.048,2.911,5.586,5.586,0,0,0,4.837,4.7a5.609,5.609,0,0,0,0,4.356A5.586,5.586,0,0,0,6.048,10.84a5.971,5.971,0,0,0,1.787,1.211,5.528,5.528,0,0,0,4.365,0,5.8,5.8,0,0,0,1.787-1.211,5.663,5.663,0,0,0,1.2-1.786,5.609,5.609,0,0,0,0-4.356,5.663,5.663,0,0,0-1.2-1.786A5.8,5.8,0,0,0,12.2,1.7,5.386,5.386,0,0,0,10.022,1.25Z" transform="translate(10 10)" fill="#fff"/>
  </g>
</svg>
