<svg xmlns="http://www.w3.org/2000/svg" xmlns:xlink="http://www.w3.org/1999/xlink" width="24" height="24" viewBox="0 0 24 24">
  <defs>
    <clipPath id="clip-path">
      <rect width="24" height="24" fill="none"/>
    </clipPath>
  </defs>
  <g id="underline-icon" clip-path="url(#clip-path)">
    <g id="icon_arrow" data-name="icon / arrow">
      <rect id="Rectangle" width="24" height="24" fill="#d8d8d8" opacity="0"/>
    </g>
    <path id="_" data-name="" d="M9.818,14.4H.582a.554.554,0,0,1-.413-.176A.6.6,0,0,1,0,13.8a.58.58,0,0,1,.169-.415A.554.554,0,0,1,.582,13.2H9.818a.551.551,0,0,1,.413.176.58.58,0,0,1,.169.415.6.6,0,0,1-.169.429A.551.551,0,0,1,9.818,14.4ZM5.2,12a4.369,4.369,0,0,1-1.652-.3,3.746,3.746,0,0,1-1.28-.85,3.793,3.793,0,0,1-.826-1.322A4.852,4.852,0,0,1,1.151,7.8V.6A.6.6,0,0,1,1.32.176a.573.573,0,0,1,.826,0A.6.6,0,0,1,2.316.6V7.8a3.727,3.727,0,0,0,.2,1.244,2.539,2.539,0,0,0,.575.942,2.6,2.6,0,0,0,.914.6,3.26,3.26,0,0,0,1.2.211,3.267,3.267,0,0,0,1.2-.211,2.6,2.6,0,0,0,.914-.6,2.54,2.54,0,0,0,.576-.942,3.745,3.745,0,0,0,.2-1.244V.6A.6.6,0,0,1,8.253.176a.574.574,0,0,1,.827,0A.6.6,0,0,1,9.249.6V7.8a4.852,4.852,0,0,1-.292,1.716,3.781,3.781,0,0,1-.826,1.322,3.74,3.74,0,0,1-1.279.85A4.377,4.377,0,0,1,5.2,12Z" transform="translate(7.2 4.8)" fill="#363636"/>
  </g>
</svg>
