<svg xmlns="http://www.w3.org/2000/svg" width="24" height="24" viewBox="0 0 24 24">
  <path id="value_proposition_published" data-name="value proposition / published" d="M18.688,17.312H24V24H17.312V19.936L12,14.3,6.688,19.936V24H0V17.312H5.312L10.688,12V7.744A4.032,4.032,0,0,1,8.752,6.32,3.776,3.776,0,0,1,8,4a3.859,3.859,0,0,1,.544-1.984A4.058,4.058,0,0,1,10.016.544a3.89,3.89,0,0,1,3.968,0,4.058,4.058,0,0,1,1.472,1.472A3.859,3.859,0,0,1,16,4a3.776,3.776,0,0,1-.752,2.32,4.032,4.032,0,0,1-1.936,1.424V12Z" fill="#fff"/>
</svg>
