<svg xmlns="http://www.w3.org/2000/svg" width="258.53" height="258.757" viewBox="0 0 258.53 258.757"><defs><style>.a{fill:#81bd41;}</style></defs><g transform="translate(-1726.886 -3089)"><path class="a" d="M64.86,1.879A63.057,63.057,0,0,1,127.841,64.4h1.879A64.862,64.862,0,0,0,0,64.4H1.879C2.278,30.01,30.352,1.879,64.86,1.879" transform="translate(1985.416 3282.897) rotate(180)"/><path class="a" d="M64.86,62.525A63.02,63.02,0,0,1,1.879,0H0A64.915,64.915,0,0,0,64.86,64.4,64.915,64.915,0,0,0,129.72,0h-1.879A63.205,63.205,0,0,1,64.86,62.525" transform="translate(1985.416 3347.302) rotate(180)"/><path class="a" d="M62.526,64.86A63.02,63.02,0,0,1,0,127.841v1.879A64.915,64.915,0,0,0,64.4,64.86,64.915,64.915,0,0,0,0,0V1.879c34.395.342,62.526,28.472,62.526,62.981" transform="translate(1855.695 3347.757) rotate(180)"/><path class="a" d="M1.879,64.86A63.057,63.057,0,0,1,64.4,1.879V0a64.862,64.862,0,0,0,0,129.72v-1.879C30.01,127.5,1.879,99.369,1.879,64.86" transform="translate(1791.291 3347.757) rotate(180)"/><path class="a" d="M64.86,62.525A63.02,63.02,0,0,1,1.879,0H0A64.915,64.915,0,0,0,64.86,64.4,64.915,64.915,0,0,0,129.72,0h-1.879A63.168,63.168,0,0,1,64.86,62.525" transform="translate(1856.606 3218.264) rotate(180)"/><path class="a" d="M64.86,1.879A63.056,63.056,0,0,1,127.841,64.4h1.879A64.862,64.862,0,0,0,0,64.4H1.879C2.278,30.01,30.352,1.879,64.86,1.879" transform="translate(1856.606 3153.86) rotate(180)"/><path class="a" d="M1.879,64.86A63.057,63.057,0,0,1,64.4,1.879V0a64.862,64.862,0,0,0,0,129.72v-1.879A63.205,63.205,0,0,1,1.879,64.86" transform="translate(1920.954 3218.72) rotate(180)"/><path class="a" d="M62.526,64.86A63.02,63.02,0,0,1,0,127.841v1.879A64.915,64.915,0,0,0,64.4,64.86,64.915,64.915,0,0,0,0,0V1.879c34.395.342,62.526,28.472,62.526,62.981" transform="translate(1985.359 3218.72) rotate(180)"/></g></svg>