<svg xmlns="http://www.w3.org/2000/svg" width="20.571" height="18" viewBox="0 0 20.571 18"><defs><style>.a{fill:#006c68;}</style></defs><g transform="translate(0 -1)"><path class="a" d="M4.5,0H.643A.642.642,0,0,0,0,.643V12.214a.642.642,0,0,0,.643.643H4.5a.642.642,0,0,0,.643-.643V.643A.642.642,0,0,0,4.5,0ZM3.857,11.571H1.286V1.286H3.857Z" transform="translate(0 6.143)"/><path class="a" d="M11.768,6.458H7.97A.643.643,0,0,1,7.408,5.5L8.747,3.092A1.928,1.928,0,0,0,7.528.285L6.584.049a.642.642,0,0,0-.633.193L.824,5.938A3.213,3.213,0,0,0,0,8.088V13.53a3.218,3.218,0,0,0,3.214,3.214h6.4a3.221,3.221,0,0,0,3.1-2.364l1.372-5.012a2.374,2.374,0,0,0-2.313-2.909Zm1.067,2.593-1.366,4.988a1.933,1.933,0,0,1-1.859,1.419h-6.4A1.931,1.931,0,0,1,1.286,13.53V8.088A1.927,1.927,0,0,1,1.78,6.8L6.648,1.39l.569.142a.643.643,0,0,1,.407.936L6.284,4.879A1.928,1.928,0,0,0,7.97,7.744h3.8a1.09,1.09,0,0,1,1.089,1.089,1.064,1.064,0,0,1-.022.219Z" transform="translate(6.429 0.97)"/></g></svg>