<?xml version="1.0" encoding="UTF-8"?>
<svg width="21px" height="18px" viewBox="0 0 21 18" version="1.1" xmlns="http://www.w3.org/2000/svg" xmlns:xlink="http://www.w3.org/1999/xlink">
    <!-- Generator: Sketch 58 (84663) - https://sketch.com -->
    <title>Untitled</title>
    <desc>Created with Sketch.</desc>
    <g id="Page-1" stroke="none" stroke-width="1" fill="none" fill-rule="evenodd">
        <g id="blueLikeActive" transform="translate(10.500000, 9.000000) scale(1, -1) translate(-10.500000, -9.000000) " fill="#046F6D" fill-rule="nonzero">
            <path d="M4.49999922,5.14299922 L0.643,5.14299922 C0.472384401,5.14273404 0.30868026,5.21039307 0.188036666,5.33103667 C0.0673930731,5.45168026 -0.000265964006,5.6153844 -7.81159456e-07,5.786 L-7.81159456e-07,17.357 C-0.000265964006,17.5276156 0.0673930731,17.6913197 0.188036666,17.8119633 C0.30868026,17.9326069 0.472384401,18.000266 0.643,18.0000008 L4.49999922,18.0000008 C4.6706156,18.000266 4.83431974,17.9326069 4.95496333,17.8119633 C5.07560693,17.6913197 5.14326596,17.5276156 5.14300078,17.357 L5.14300078,5.786 C5.14326596,5.6153844 5.07560693,5.45168026 4.95496333,5.33103667 C4.83431974,5.21039307 4.6706156,5.14273404 4.49999922,5.14299922 Z" id="Path"></path>
            <path d="M18.197,6.428 L14.399,6.428 C14.1703565,6.42851349 13.9586389,6.30757117 13.8429457,6.11035753 C13.7272525,5.91314389 13.7249887,5.66932787 13.837,5.47 L15.176,3.062 C15.4672283,2.53774891 15.4979197,1.90783111 15.2590358,1.35775145 C15.0201519,0.807671786 14.5388985,0.400077033 13.957,0.255 L13.013,0.019 C12.7825427,-0.0387484429 12.5390345,0.035496571 12.38,0.212 L7.253,5.908 C6.72215916,6.49826248 6.42862924,7.26414759 6.42899965,8.058 L6.42899965,13.5 C6.43120389,15.2741295 7.8688705,16.7117961 9.643,16.714 L16.043,16.714 C17.4900365,16.7117991 18.7579934,15.7448797 19.143,14.35 L20.515,9.338 C20.6780895,8.63292557 20.5106657,7.89196518 20.0602677,7.32551142 C19.6098698,6.75905766 18.9256906,6.42897904 18.202,6.429 L18.197,6.428 Z" id="Path"></path>
        </g>
    </g>
</svg>