<svg xmlns="http://www.w3.org/2000/svg" width="31.938" height="30" viewBox="0 0 31.938 30"><defs><style>.a{fill:#fff;}</style></defs><path class="a" d="M31.621,19.166a.262.262,0,0,0-.278.151l-.357.791a27.479,27.479,0,0,0-.72-3.811,7.338,7.338,0,0,0-1.625-2.828.262.262,0,0,0-.441.241l.278,1.251a10.4,10.4,0,0,0-2.8-2.188c-.255-.125-.515-.239-.742-.337A12.554,12.554,0,0,0,5.994,15.068a2.324,2.324,0,0,1-.7-.935A9.8,9.8,0,0,1,4.8,12.454a.262.262,0,0,0-.439-.142c-1.923,1.844-1.732,4.719-1.661,5.371a14.161,14.161,0,0,0-1.592,2.1A10.921,10.921,0,0,0,0,23.6a.262.262,0,0,0,.45.207l.563-.595c-.061.228-.123.487-.18.777A17.276,17.276,0,0,0,.659,27.27a.262.262,0,0,0,.5.1l.331-.7a14.893,14.893,0,0,0,4.776,8.685,15.02,15.02,0,0,0,10.16,3.9h0A15.258,15.258,0,0,0,26.48,35.449c3.423-2.949,4.7-7.161,5.165-10.174a23.584,23.584,0,0,0,.2-5.881A.261.261,0,0,0,31.621,19.166Zm-5.845.095a3.24,3.24,0,0,1,.436,1.662,18.2,18.2,0,0,1-.245,3.1l-.7-.809a.262.262,0,0,0-.458.2,12.9,12.9,0,0,1-.16,3.787,5.589,5.589,0,0,1-.74,1.805l.1-1.319a.262.262,0,0,0-.5-.127,7.6,7.6,0,0,1-4.532,3.649,4.913,4.913,0,0,1-1.448.215,7.876,7.876,0,0,1-4.277-1.533q.117.006.233.006A6.188,6.188,0,0,0,16.6,28.885c.211-.118.411-.23.6-.325a4.343,4.343,0,0,1,2.107-.63.434.434,0,0,0,.439-.332c.129-.5-.476-1.4-1.223-1.812a2.512,2.512,0,0,0-1.247-.3,13.025,13.025,0,0,0-3.066.608,2.842,2.842,0,0,1-.73.1,2.269,2.269,0,0,1-1.7-.739,2.2,2.2,0,0,1-.629-1.565c.016-.233.107-.472.662-.472a3.53,3.53,0,0,1,1.045.2.26.26,0,0,0,.092.017h0a.262.262,0,0,0,.262-.262.272.272,0,0,0,0-.042l-.073-2.293c.264-.169.9-.579,1.505-1.021,1.471-1.07,1.668-1.479,1.511-1.789-.209-.423-.758-.492-1.393-.571a6.115,6.115,0,0,1-1.148-.22,3.061,3.061,0,0,1-1.4-1.092,1.571,1.571,0,0,1,.146-1,6.392,6.392,0,0,1,1.407-1.326.262.262,0,0,0-.125-.473,5.436,5.436,0,0,0-2.086.342,7.866,7.866,0,0,0-2.125,1.123c-.12-.023-.324-.056-.663-.091a10.418,10.418,0,0,1,7.828-3.53,10.313,10.313,0,0,1,6.075,1.95l-1.76.294a.262.262,0,0,0-.035.508,15.277,15.277,0,0,1,4.116,2.1,4.922,4.922,0,0,1,1.058,1.173,10.533,10.533,0,0,1,.682,1.925l-.588-.457a.262.262,0,0,0-.365.371Z" transform="translate(0 -9.258)"/></svg>