<svg xmlns="http://www.w3.org/2000/svg" width="28.156" height="30" viewBox="0 0 28.156 30"><defs><style>.a{fill:#fff;}</style></defs><path class="a" d="M23.453,1.844a14.257,14.257,0,0,0-1.516.081,1.2,1.2,0,0,0,.167-.885A1.492,1.492,0,0,0,20.525,0a2.44,2.44,0,0,0-.5.054A2.169,2.169,0,0,0,18.859.69,1.255,1.255,0,0,0,18.522,1.8a1.2,1.2,0,0,0,.524.746,14.2,14.2,0,0,0-6.782,4.83,13.948,13.948,0,0,0-2.889,8.544A14.078,14.078,0,1,0,23.453,1.844ZM20.525.953c.367,0,.617.145.646.286a.347.347,0,0,1-.118.278,1.164,1.164,0,0,0-1.384.291.343.343,0,0,1-.216-.2.383.383,0,0,1,.154-.316,1.3,1.3,0,0,1,.612-.3A1.474,1.474,0,0,1,20.525.953ZM26.5,25.7l-1.123-1.821a.246.246,0,0,0-.453.1L24.645,26.1a10.424,10.424,0,0,1-1.192.069,10.172,10.172,0,0,1-7.082-2.842.244.244,0,0,0,.058-.033l5.555-4.222a3.506,3.506,0,0,0,1.179.315l1.41,2.958a.246.246,0,0,0,.468-.1l.085-3.275a3.414,3.414,0,0,0,.835-.642l1.664.59a.246.246,0,0,0,.261-.4l-1.216-1.28a3.412,3.412,0,0,0,.246-1.024L29.872,14.8a.246.246,0,0,0-.1-.468l-3.023-.078L30.821,8.9a.25.25,0,0,0,.033-.058,10.249,10.249,0,0,1,2.382,4.03l-1.821,1.123a.246.246,0,0,0,.1.453l2.116.284a10.4,10.4,0,0,1,.069,1.192A10.257,10.257,0,0,1,26.5,25.7ZM15.6,17.591a.246.246,0,0,0-.208-.193l-2.116-.285a10.416,10.416,0,0,1-.069-1.191A10.259,10.259,0,0,1,20.4,6.139L21.524,7.96a.246.246,0,0,0,.453-.1l.284-2.116a10.392,10.392,0,0,1,1.192-.069,10.172,10.172,0,0,1,7.082,2.842.251.251,0,0,0-.058.033l-5.555,4.222a3.5,3.5,0,0,0-1.179-.315L22.333,9.5a.246.246,0,0,0-.468.1l-.085,3.275a3.415,3.415,0,0,0-.835.641l-1.664-.59a.246.246,0,0,0-.26.4l1.216,1.28a3.425,3.425,0,0,0-.246,1.024l-2.957,1.409a.246.246,0,0,0,.1.468l3.024.078-4.072,5.358a.245.245,0,0,0-.033.058,10.245,10.245,0,0,1-2.382-4.03l1.821-1.122A.245.245,0,0,0,15.6,17.591Zm9.166.481a2.529,2.529,0,0,1-1.625.353l-.033,0q-.11-.015-.219-.04L24.58,17.1a.24.24,0,0,0,.047-.047L25.91,15.36l.008.038A2.525,2.525,0,0,1,24.769,18.072Zm-1.84-4.615a2.543,2.543,0,0,1,.527-.056,2.508,2.508,0,0,1,.311.02l.028,0q.111.015.221.04l-1.689,1.284a.245.245,0,0,0-.047.047L21,16.484l-.008-.038A2.524,2.524,0,0,1,22.929,13.457Z" transform="translate(-9.375)"/></svg>