<svg xmlns="http://www.w3.org/2000/svg" width="30.002" height="30" viewBox="0 0 30.002 30"><defs><style>.a{fill:#fff;}</style></defs><path class="a" d="M95.506,101.124a5.606,5.606,0,1,0,5.606-5.606A5.612,5.612,0,0,0,95.506,101.124Z" transform="translate(-86.111 -86.123)"/><path class="a" d="M57.428,7.613a.246.246,0,0,0,0-.247A14.993,14.993,0,0,0,44.518.012,14.936,14.936,0,0,0,32.792,5.659a.246.246,0,0,0-.021.276l4.223,7.314a.246.246,0,0,0,.213.123l.033,0a.246.246,0,0,0,.2-.182,7.3,7.3,0,0,1,7.074-5.48c.207,0,.42.009.635.028h12.06A.246.246,0,0,0,57.428,7.613Z" transform="translate(-29.517 -0.012)"/><path class="a" d="M17.218,91.073a.245.245,0,0,0-.26-.086,7.3,7.3,0,0,1-8.572-3.943l-.01-.018L2.352,76.592a.246.246,0,0,0-.213-.123h0a.246.246,0,0,0-.213.125,15,15,0,0,0,10.838,22.19l.036,0a.246.246,0,0,0,.213-.123l4.224-7.316A.246.246,0,0,0,17.218,91.073Z" transform="translate(0 -68.948)"/><path class="a" d="M165.52,95.226h-8.457a.246.246,0,0,0-.172.422,7.289,7.289,0,0,1,.89,9.374l-.011.018-6.035,10.452a.246.246,0,0,0,.213.369h0a15.008,15.008,0,0,0,13.8-20.478A.246.246,0,0,0,165.52,95.226Z" transform="translate(-136.78 -85.86)"/></svg>