<svg xmlns="http://www.w3.org/2000/svg" width="20" height="20" viewBox="0 0 20 20"><defs><style>.a{fill:#84BC47;}</style></defs><path class="a" d="M66.875,51.25V50h-1.25v1.25h-5V50h-1.25v1.25h-5V50h-1.25v1.25A3.129,3.129,0,0,0,50,54.375v12.5A3.129,3.129,0,0,0,53.125,70h13.75A3.129,3.129,0,0,0,70,66.875v-12.5A3.129,3.129,0,0,0,66.875,51.25ZM68.75,66.875a1.877,1.877,0,0,1-1.875,1.875H53.125a1.877,1.877,0,0,1-1.875-1.875v-12.5A1.877,1.877,0,0,1,53.125,52.5v1.25h1.25V52.5h5v1.25h1.25V52.5h5v1.25h1.25V52.5a1.877,1.877,0,0,1,1.875,1.875Z" transform="translate(-50 -50)"/><circle class="a" cx="0.938" cy="0.938" r="0.938" transform="translate(3.438 5.938)"/><circle class="a" cx="0.938" cy="0.938" r="0.938" transform="translate(7.188 5.938)"/><circle class="a" cx="0.938" cy="0.938" r="0.938" transform="translate(10.938 5.938)"/><circle class="a" cx="0.938" cy="0.938" r="0.938" transform="translate(14.688 5.938)"/><circle class="a" cx="0.938" cy="0.938" r="0.938" transform="translate(3.438 9.688)"/><circle class="a" cx="0.938" cy="0.938" r="0.938" transform="translate(7.188 9.688)"/><circle class="a" cx="0.938" cy="0.938" r="0.938" transform="translate(10.938 9.688)"/><circle class="a" cx="0.938" cy="0.938" r="0.938" transform="translate(14.688 9.688)"/><circle class="a" cx="0.938" cy="0.938" r="0.938" transform="translate(3.438 13.438)"/><circle class="a" cx="0.938" cy="0.938" r="0.938" transform="translate(7.188 13.438)"/><circle class="a" cx="0.938" cy="0.938" r="0.938" transform="translate(10.938 13.438)"/></svg>