<svg id="calendar-2" xmlns="http://www.w3.org/2000/svg" width="24" height="24" viewBox="0 0 24 24">
  <path id="Path_2676" data-name="Path 2676" d="M70.25,51.5V50h-1.5v1.5h-6V50h-1.5v1.5h-6V50h-1.5v1.5A3.754,3.754,0,0,0,50,55.25v15A3.754,3.754,0,0,0,53.75,74h16.5A3.754,3.754,0,0,0,74,70.25v-15A3.754,3.754,0,0,0,70.25,51.5ZM72.5,70.25a2.252,2.252,0,0,1-2.25,2.25H53.75a2.253,2.253,0,0,1-2.25-2.25v-15A2.253,2.253,0,0,1,53.75,53v1.5h1.5V53h6v1.5h1.5V53h6v1.5h1.5V53a2.253,2.253,0,0,1,2.25,2.25Z" transform="translate(-50 -50)" fill="#81bd41"/>
  <circle id="Ellipse_6" data-name="Ellipse 6" cx="1.125" cy="1.125" r="1.125" transform="translate(4.125 7.125)" fill="#81bd41"/>
  <circle id="Ellipse_7" data-name="Ellipse 7" cx="1.125" cy="1.125" r="1.125" transform="translate(8.625 7.125)" fill="#81bd41"/>
  <circle id="Ellipse_8" data-name="Ellipse 8" cx="1.125" cy="1.125" r="1.125" transform="translate(13.125 7.125)" fill="#81bd41"/>
  <circle id="Ellipse_9" data-name="Ellipse 9" cx="1.125" cy="1.125" r="1.125" transform="translate(17.625 7.125)" fill="#81bd41"/>
  <circle id="Ellipse_10" data-name="Ellipse 10" cx="1.125" cy="1.125" r="1.125" transform="translate(4.125 11.625)" fill="#81bd41"/>
  <circle id="Ellipse_11" data-name="Ellipse 11" cx="1.125" cy="1.125" r="1.125" transform="translate(8.625 11.625)" fill="#81bd41"/>
  <circle id="Ellipse_12" data-name="Ellipse 12" cx="1.125" cy="1.125" r="1.125" transform="translate(13.125 11.625)" fill="#81bd41"/>
  <circle id="Ellipse_13" data-name="Ellipse 13" cx="1.125" cy="1.125" r="1.125" transform="translate(17.625 11.625)" fill="#81bd41"/>
  <circle id="Ellipse_14" data-name="Ellipse 14" cx="1.125" cy="1.125" r="1.125" transform="translate(4.125 16.125)" fill="#81bd41"/>
  <circle id="Ellipse_15" data-name="Ellipse 15" cx="1.125" cy="1.125" r="1.125" transform="translate(8.625 16.125)" fill="#81bd41"/>
  <circle id="Ellipse_16" data-name="Ellipse 16" cx="1.125" cy="1.125" r="1.125" transform="translate(13.125 16.125)" fill="#81bd41"/>
</svg>
