<svg id="chat-bubble-2" xmlns="http://www.w3.org/2000/svg" width="89.672" height="89.671" viewBox="0 0 89.672 89.671">
  <path id="path-1_59_" d="M124.551,330.177a2.8,2.8,0,1,1-3.963,0,2.8,2.8,0,0,1,3.963,0" transform="translate(-96.61 -271.635)" fill="#40c2cc"/>
  <path id="path-1_58_" d="M184.434,330.177a2.8,2.8,0,1,1-3.963,0,2.8,2.8,0,0,1,3.963,0" transform="translate(-144.909 -271.635)" fill="#40c2cc"/>
  <path id="path-1_57_" d="M244.316,330.177a2.8,2.8,0,1,1-3.963,0,2.8,2.8,0,0,1,3.963,0" transform="translate(-193.208 -271.635)" fill="#40c2cc"/>
  <path id="Path_2803" data-name="Path 2803" d="M83.68,51.7a2.873,2.873,0,0,1-.085-3.853,27.391,27.391,0,0,0,6.075-17.018C89.671,13.831,73.328,0,53.242,0S16.814,13.831,16.814,30.827c0,.681.111,1.335.171,2C6.8,38.3,0,47.905,0,58.849A27.391,27.391,0,0,0,6.075,75.868a2.873,2.873,0,0,1-.085,3.853L.821,84.89A2.8,2.8,0,0,0,2.8,89.674H36.429c18.968,0,34.58-12.336,36.261-28.022H86.868a2.8,2.8,0,0,0,1.981-4.784ZM36.429,84.069H9.567l.386-.386a8.509,8.509,0,0,0,.528-11.28A21.831,21.831,0,0,1,5.6,58.849c0-13.907,13.828-25.22,30.824-25.22s30.824,11.313,30.824,25.22S53.426,84.069,36.429,84.069ZM72.69,56.047C71.009,40.36,55.4,28.025,36.429,28.025a41.974,41.974,0,0,0-13.984,2.37c.286-13.706,13.979-24.787,30.8-24.787,17,0,30.824,11.313,30.824,25.22A21.832,21.832,0,0,1,79.19,44.381a8.509,8.509,0,0,0,.528,11.28l.386.386Z" transform="translate(0 -0.003)" fill="#40c2cc"/>
</svg>
