<svg xmlns="http://www.w3.org/2000/svg" width="30" height="30" viewBox="0 0 30 30"><defs><style>.a{fill:#fff;}</style></defs><g transform="translate(1)"><g transform="translate(-1)"><path class="a" d="M19.688,15.938H10.313a.938.938,0,0,0,0,1.875h9.375a.938.938,0,0,0,0-1.875Zm1.875-5.625H8.438a.938.938,0,1,0,0,1.875H21.563a.938.938,0,0,0,0-1.875ZM15,0C6.716,0,0,5.876,0,13.125A12.563,12.563,0,0,0,5.625,23.362V30L12.2,26.013a17.2,17.2,0,0,0,2.8.237c8.285,0,15-5.876,15-13.125S23.285,0,15,0Zm0,24.375a15.171,15.171,0,0,1-3.169-.344L7.417,26.684l.059-4.348a10.87,10.87,0,0,1-5.6-9.211C1.875,6.912,7.751,1.875,15,1.875s13.125,5.037,13.125,11.25S22.249,24.375,15,24.375Z"/></g></g></svg>