<svg xmlns="http://www.w3.org/2000/svg" width="27.428" height="24" viewBox="0 0 27.428 24"><defs><style>.a{fill:#81bd41;}</style></defs><g transform="translate(0 -1)"><path class="a" d="M6,0H.857A.857.857,0,0,0,0,.857V16.286a.857.857,0,0,0,.857.857H6a.857.857,0,0,0,.857-.857V.857A.857.857,0,0,0,6,0ZM5.143,15.428H1.714V1.714H5.143Z" transform="translate(0 7.857)"/><path class="a" d="M15.691,8.6H10.627a.857.857,0,0,1-.75-1.273l1.785-3.215A2.571,2.571,0,0,0,10.038.37L8.779.056a.855.855,0,0,0-.845.258L1.1,7.907A4.284,4.284,0,0,0,0,10.774V18.03a4.291,4.291,0,0,0,4.286,4.286h8.527a4.3,4.3,0,0,0,4.133-3.152l1.83-6.683A3.166,3.166,0,0,0,15.691,8.6Zm1.422,3.458-1.821,6.65A2.577,2.577,0,0,1,12.813,20.6H4.286A2.574,2.574,0,0,1,1.714,18.03V10.774a2.569,2.569,0,0,1,.66-1.72l6.49-7.21.758.189a.858.858,0,0,1,.542,1.248L8.379,6.5a2.571,2.571,0,0,0,2.248,3.819h5.064a1.453,1.453,0,0,1,1.451,1.451,1.418,1.418,0,0,1-.029.292Z" transform="translate(8.571 0.97)"/></g></svg>