<svg xmlns="http://www.w3.org/2000/svg" width="67.5" height="90" viewBox="0 0 67.5 90">
  <g id="document-2" transform="translate(-64)">
    <g id="Group_959" data-name="Group 959" transform="translate(64)">
      <g id="Group_958" data-name="Group 958">
        <path id="Path_2806" data-name="Path 2806" d="M130.951,19.3,112.2.549A1.874,1.874,0,0,0,110.875,0H71.5A7.507,7.507,0,0,0,64,7.5v75A7.507,7.507,0,0,0,71.5,90H124a7.507,7.507,0,0,0,7.5-7.5V20.625A1.873,1.873,0,0,0,130.951,19.3ZM112.75,6.4,125.1,18.75h-8.6A3.755,3.755,0,0,1,112.75,15Zm15,76.1A3.755,3.755,0,0,1,124,86.25H71.5a3.755,3.755,0,0,1-3.75-3.75V7.5A3.755,3.755,0,0,1,71.5,3.75H109V15a7.507,7.507,0,0,0,7.5,7.5h11.25Z" transform="translate(-64)" fill="#40c2cc"/>
        <path id="Path_2807" data-name="Path 2807" d="M184.958,213.333h-33.75a1.875,1.875,0,0,0,0,3.75h33.75a1.875,1.875,0,1,0,0-3.75Z" transform="translate(-134.333 -175.833)" fill="#40c2cc"/>
        <path id="Path_2808" data-name="Path 2808" d="M184.958,277.333h-33.75a1.875,1.875,0,1,0,0,3.75h33.75a1.875,1.875,0,1,0,0-3.75Z" transform="translate(-134.333 -228.583)" fill="#40c2cc"/>
        <path id="Path_2809" data-name="Path 2809" d="M184.958,341.333h-33.75a1.875,1.875,0,1,0,0,3.75h33.75a1.875,1.875,0,1,0,0-3.75Z" transform="translate(-134.333 -281.333)" fill="#40c2cc"/>
        <path id="Path_2810" data-name="Path 2810" d="M169.958,405.333h-18.75a1.875,1.875,0,1,0,0,3.75h18.75a1.875,1.875,0,1,0,0-3.75Z" transform="translate(-134.333 -334.083)" fill="#40c2cc"/>
      </g>
    </g>
  </g>
</svg>
