<svg xmlns="http://www.w3.org/2000/svg" width="106.632" height="102.411" viewBox="0 0 106.632 102.411"><defs><style>.a,.b{fill:none;stroke-miterlimit:10;stroke-width:0.9px;}.a{stroke:#81bd41;}.b{stroke:#9aca67;}.c{fill:#81bd41;}.d{fill:#b3d78d;}.e{fill:#fff;}</style></defs><g transform="translate(-1601.694 -1370.525)"><path class="a" d="M112.206,39.95A52.988,52.988,0,0,1,59.35,93.057" transform="translate(1595.671 1379.429)"/><path class="b" d="M86.966,93.057A52.974,52.974,0,0,1,34.11,39.95" transform="translate(1568.034 1379.429)"/><path class="c" d="M36.02,65.484A48.865,48.865,0,1,0,84.9,16.63,48.875,48.875,0,0,0,36.02,65.484" transform="translate(1570.125 1353.895)"/><path class="d" d="M84.885,114.359a48.865,48.865,0,1,1,0-97.729" transform="translate(1570.115 1353.895)"/><g transform="translate(1631.145 1396.024)"><path class="e" d="M31.5,25.5h-15a1.5,1.5,0,0,0,0,3h15a1.5,1.5,0,0,0,0-3Zm3-9h-21a1.5,1.5,0,1,0,0,3h21a1.5,1.5,0,0,0,0-3ZM24,0C10.746,0,0,9.4,0,21c0,6.629,3.517,12.529,9,16.379V48l10.513-6.38A27.522,27.522,0,0,0,24,42c13.256,0,24-9.4,24-21S37.256,0,24,0Zm0,39a24.274,24.274,0,0,1-5.07-.551l-7.062,4.245.095-6.957C6.549,32.481,3,27.1,3,21,3,11.06,12.4,3,24,3s21,8.06,21,18S35.6,39,24,39Z"/></g></g></svg>