<svg xmlns="http://www.w3.org/2000/svg" width="106.632" height="102.411" viewBox="0 0 106.632 102.411"><defs><style>.a,.b{fill:none;stroke-miterlimit:10;stroke-width:0.9px;}.a{stroke:#81bd41;}.b{stroke:#9aca67;}.c{fill:#81bd41;}.d{fill:#b3d78d;}.e{fill:#fff;}</style></defs><g transform="translate(-1601.694 -1370.525)"><path class="a" d="M112.206,39.95A52.988,52.988,0,0,1,59.35,93.057" transform="translate(1595.671 1379.429)"/><path class="b" d="M86.966,93.057A52.974,52.974,0,0,1,34.11,39.95" transform="translate(1568.034 1379.429)"/><path class="c" d="M133.749,65.484A48.865,48.865,0,1,1,84.874,16.63a48.875,48.875,0,0,1,48.875,48.854" transform="translate(1570.125 1354.395)"/><path class="d" d="M84.885,114.359a48.865,48.865,0,1,1,0-97.729" transform="translate(1570.115 1353.895)"/><g transform="translate(1631.145 1364.579)"><path class="e" d="M385.716,315.784a31.486,31.486,0,0,0-13.381-3.993,31.69,31.69,0,0,1,2.876,1.392,7.291,7.291,0,0,1,2.565,2.542,27.905,27.905,0,0,1,6.447,2.662,1.453,1.453,0,0,1,.684,1.274v6.976h-6v3h7.5a1.5,1.5,0,0,0,1.5-1.5v-8.476A4.455,4.455,0,0,0,385.716,315.784Z" transform="translate(-339.907 -253.19)"/><path class="e" d="M33.809,314.966a32.726,32.726,0,0,0-31.617,0A4.457,4.457,0,0,0,0,318.842v8.476a1.5,1.5,0,0,0,1.5,1.5h33a1.5,1.5,0,0,0,1.5-1.5V318.84A4.457,4.457,0,0,0,33.809,314.966ZM33,325.817H3v-6.976a1.451,1.451,0,0,1,.686-1.274,29.677,29.677,0,0,1,28.629,0A1.45,1.45,0,0,1,33,318.84Z" transform="translate(0 -252.372)"/><path class="e" d="M312.086,37.516a7.168,7.168,0,0,1,.747-.07,7.5,7.5,0,0,1,0,15,7.17,7.17,0,0,1-.747-.071,13.532,13.532,0,0,1-2.27,2.574,10.248,10.248,0,0,0,3.017.5,10.5,10.5,0,0,0,0-21,10.248,10.248,0,0,0-3.017.5,13.537,13.537,0,0,1,2.27,2.573Z" transform="translate(-282.833)"/><path class="e" d="M96.616,55.446a10.5,10.5,0,1,0-10.5-10.5A10.513,10.513,0,0,0,96.616,55.446Zm0-18a7.5,7.5,0,1,1-7.5,7.5,7.509,7.509,0,0,1,7.5-7.5Z" transform="translate(-78.616 -0.001)"/></g></g></svg>