<svg xmlns="http://www.w3.org/2000/svg" width="101" height="698.626" viewBox="0 0 101 698.626"><defs><style>.a{fill:#81bd41;}</style></defs><g transform="translate(101) rotate(90)"><path class="a" d="M25.066,24.405A24.49,24.49,0,0,1,.726,0H0A25.212,25.212,0,0,0,25.066,25.139,25.212,25.212,0,0,0,50.132,0h-.726a24.576,24.576,0,0,1-24.34,24.405" transform="translate(349.494 50.545)"/><path class="a" d="M25.066.733a24.475,24.475,0,0,1,24.34,24.405h.726A25.212,25.212,0,0,0,25.066,0,25.212,25.212,0,0,0,0,25.139H.726A24.547,24.547,0,0,1,25.066.733" transform="translate(349.494 75.683)"/><path class="a" d="M.726,25.317A24.479,24.479,0,0,1,24.89.733V0a25.32,25.32,0,0,0,0,50.633V49.9A24.566,24.566,0,0,1,.726,25.317" transform="translate(324.604 50.367)"/><path class="a" d="M24.164,25.317A24.494,24.494,0,0,1,0,49.9v.733A25.216,25.216,0,0,0,24.89,25.317,25.216,25.216,0,0,0,0,0V.733A24.566,24.566,0,0,1,24.164,25.317" transform="translate(299.714 50.367)"/><path class="a" d="M25.066,24.405A24.49,24.49,0,0,1,.726,0H0A25.212,25.212,0,0,0,25.066,25.139,25.212,25.212,0,0,0,50.132,0h-.726a24.562,24.562,0,0,1-24.34,24.405" transform="translate(249.582 50.545)"/><path class="a" d="M25.066.733a24.475,24.475,0,0,1,24.34,24.405h.726A25.212,25.212,0,0,0,25.066,0,25.212,25.212,0,0,0,0,25.139H.726A24.562,24.562,0,0,1,25.066.733" transform="translate(249.582 75.683)"/><path class="a" d="M.726,25.317A24.479,24.479,0,0,1,24.89.733V0a25.32,25.32,0,0,0,0,50.633V49.9A24.566,24.566,0,0,1,.726,25.317" transform="translate(224.692 50.367)"/><path class="a" d="M24.164,25.317A24.494,24.494,0,0,1,0,49.9v.733A25.216,25.216,0,0,0,24.89,25.317,25.216,25.216,0,0,0,0,0V.733A24.552,24.552,0,0,1,24.164,25.317" transform="translate(199.802 50.367)"/><path class="a" d="M25.066.734a24.475,24.475,0,0,1,24.34,24.405h.726A25.212,25.212,0,0,0,25.066,0,25.212,25.212,0,0,0,0,25.139H.726A24.533,24.533,0,0,1,25.066.734" transform="translate(299.714 25.316)"/><path class="a" d="M25.066,24.405A24.49,24.49,0,0,1,.726,0H0A25.212,25.212,0,0,0,25.066,25.139,25.212,25.212,0,0,0,50.132,0h-.726a24.576,24.576,0,0,1-24.34,24.405" transform="translate(299.714 0.178)"/><path class="a" d="M24.164,25.317A24.494,24.494,0,0,1,0,49.9v.733A25.216,25.216,0,0,0,24.89,25.317,25.216,25.216,0,0,0,0,0V.733A24.552,24.552,0,0,1,24.164,25.317" transform="translate(349.824 0)"/><path class="a" d="M.726,25.317A24.479,24.479,0,0,1,24.89.733V0a25.32,25.32,0,0,0,0,50.633V49.9A24.566,24.566,0,0,1,.726,25.317" transform="translate(374.714 0)"/><path class="a" d="M25.066.734a24.475,24.475,0,0,1,24.34,24.405h.726A25.212,25.212,0,0,0,25.066,0,25.212,25.212,0,0,0,0,25.139H.726A24.547,24.547,0,0,1,25.066.734" transform="translate(199.802 25.316)"/><path class="a" d="M25.066,24.405A24.49,24.49,0,0,1,.726,0H0A25.212,25.212,0,0,0,25.066,25.139,25.212,25.212,0,0,0,50.132,0h-.726a24.562,24.562,0,0,1-24.34,24.405" transform="translate(199.802 0.178)"/><path class="a" d="M24.164,25.317A24.494,24.494,0,0,1,0,49.9v.733A25.216,25.216,0,0,0,24.89,25.317,25.216,25.216,0,0,0,0,0V.733A24.566,24.566,0,0,1,24.164,25.317" transform="translate(249.934 0)"/><path class="a" d="M.726,25.317A24.479,24.479,0,0,1,24.89.733V0a25.32,25.32,0,0,0,0,50.633V49.9A24.566,24.566,0,0,1,.726,25.317" transform="translate(274.824 0)"/><path class="a" d="M25.066,24.405A24.49,24.49,0,0,1,.726,0H0A25.212,25.212,0,0,0,25.066,25.139,25.212,25.212,0,0,0,50.132,0h-.726a24.576,24.576,0,0,1-24.34,24.405" transform="translate(149.692 50.545)"/><path class="a" d="M25.066.733a24.475,24.475,0,0,1,24.34,24.405h.726A25.212,25.212,0,0,0,25.066,0,25.212,25.212,0,0,0,0,25.139H.726A24.547,24.547,0,0,1,25.066.733" transform="translate(149.692 75.683)"/><path class="a" d="M.726,25.317A24.479,24.479,0,0,1,24.89.733V0a25.32,25.32,0,0,0,0,50.633V49.9A24.566,24.566,0,0,1,.726,25.317" transform="translate(124.802 50.367)"/><path class="a" d="M24.164,25.317A24.494,24.494,0,0,1,0,49.9v.733A25.216,25.216,0,0,0,24.89,25.317,25.216,25.216,0,0,0,0,0V.733A24.566,24.566,0,0,1,24.164,25.317" transform="translate(99.912 50.367)"/><path class="a" d="M25.066,24.405A24.49,24.49,0,0,1,.726,0H0A25.212,25.212,0,0,0,25.066,25.139,25.212,25.212,0,0,0,50.132,0h-.726a24.562,24.562,0,0,1-24.34,24.405" transform="translate(49.78 50.545)"/><path class="a" d="M25.066.733a24.475,24.475,0,0,1,24.34,24.405h.726A25.212,25.212,0,0,0,25.066,0,25.212,25.212,0,0,0,0,25.139H.726A24.562,24.562,0,0,1,25.066.733" transform="translate(49.78 75.683)"/><path class="a" d="M.726,25.317A24.479,24.479,0,0,1,24.89.733V0a25.32,25.32,0,0,0,0,50.633V49.9A24.566,24.566,0,0,1,.726,25.317" transform="translate(24.89 50.367)"/><path class="a" d="M25.066.734a24.475,24.475,0,0,1,24.34,24.405h.726A25.212,25.212,0,0,0,25.066,0,25.212,25.212,0,0,0,0,25.139H.726A24.533,24.533,0,0,1,25.066.734" transform="translate(99.912 25.316)"/><path class="a" d="M25.066,24.405A24.49,24.49,0,0,1,.726,0H0A25.212,25.212,0,0,0,25.066,25.139,25.212,25.212,0,0,0,50.132,0h-.726a24.576,24.576,0,0,1-24.34,24.405" transform="translate(99.912 0.178)"/><path class="a" d="M24.164,25.317A24.494,24.494,0,0,1,0,49.9v.733A25.216,25.216,0,0,0,24.89,25.317,25.216,25.216,0,0,0,0,0V.733A24.552,24.552,0,0,1,24.164,25.317" transform="translate(150.022 0)"/><path class="a" d="M.726,25.317A24.479,24.479,0,0,1,24.89.733V0a25.32,25.32,0,0,0,0,50.633V49.9A24.566,24.566,0,0,1,.726,25.317" transform="translate(174.912 0)"/><path class="a" d="M25.066.734a24.475,24.475,0,0,1,24.34,24.405h.726A25.212,25.212,0,0,0,25.066,0,25.212,25.212,0,0,0,0,25.139H.726A24.547,24.547,0,0,1,25.066.734" transform="translate(0 25.316)"/><path class="a" d="M25.066,24.405A24.49,24.49,0,0,1,.726,0H0A25.212,25.212,0,0,0,25.066,25.139,25.212,25.212,0,0,0,50.132,0h-.726a24.562,24.562,0,0,1-24.34,24.405" transform="translate(0 0.178)"/><path class="a" d="M24.164,25.317A24.494,24.494,0,0,1,0,49.9v.733A25.216,25.216,0,0,0,24.89,25.317,25.216,25.216,0,0,0,0,0V.733A24.566,24.566,0,0,1,24.164,25.317" transform="translate(50.132 0)"/><path class="a" d="M.726,25.317A24.479,24.479,0,0,1,24.89.733V0a25.32,25.32,0,0,0,0,50.633V49.9A24.552,24.552,0,0,1,.726,25.317" transform="translate(75.022 0)"/><g transform="translate(398.912 0)"><path class="a" d="M25.066,24.405A24.49,24.49,0,0,1,.726,0H0A25.212,25.212,0,0,0,25.066,25.139,25.212,25.212,0,0,0,50.132,0h-.726a24.576,24.576,0,0,1-24.34,24.405" transform="translate(249.582 50.545)"/><path class="a" d="M25.066.733a24.475,24.475,0,0,1,24.34,24.405h.726A25.212,25.212,0,0,0,25.066,0,25.212,25.212,0,0,0,0,25.139H.726A24.547,24.547,0,0,1,25.066.733" transform="translate(249.582 75.683)"/><path class="a" d="M.726,25.317A24.479,24.479,0,0,1,24.89.733V0a25.32,25.32,0,0,0,0,50.633V49.9A24.566,24.566,0,0,1,.726,25.317" transform="translate(224.692 50.367)"/><path class="a" d="M24.164,25.317A24.494,24.494,0,0,1,0,49.9v.733A25.216,25.216,0,0,0,24.89,25.317,25.216,25.216,0,0,0,0,0V.733A24.566,24.566,0,0,1,24.164,25.317" transform="translate(199.802 50.367)"/><path class="a" d="M25.066,24.405A24.49,24.49,0,0,1,.726,0H0A25.212,25.212,0,0,0,25.066,25.139,25.212,25.212,0,0,0,50.132,0h-.726a24.562,24.562,0,0,1-24.34,24.405" transform="translate(149.67 50.545)"/><path class="a" d="M25.066.733a24.475,24.475,0,0,1,24.34,24.405h.726A25.212,25.212,0,0,0,25.066,0,25.212,25.212,0,0,0,0,25.139H.726A24.562,24.562,0,0,1,25.066.733" transform="translate(149.67 75.683)"/><path class="a" d="M.726,25.317A24.479,24.479,0,0,1,24.89.733V0a25.32,25.32,0,0,0,0,50.633V49.9A24.566,24.566,0,0,1,.726,25.317" transform="translate(124.78 50.367)"/><path class="a" d="M24.164,25.317A24.494,24.494,0,0,1,0,49.9v.733A25.216,25.216,0,0,0,24.89,25.317,25.216,25.216,0,0,0,0,0V.733A24.552,24.552,0,0,1,24.164,25.317" transform="translate(99.89 50.367)"/><path class="a" d="M25.066.734a24.475,24.475,0,0,1,24.34,24.405h.726A25.212,25.212,0,0,0,25.066,0,25.212,25.212,0,0,0,0,25.139H.726A24.533,24.533,0,0,1,25.066.734" transform="translate(199.802 25.316)"/><path class="a" d="M25.066,24.405A24.49,24.49,0,0,1,.726,0H0A25.212,25.212,0,0,0,25.066,25.139,25.212,25.212,0,0,0,50.132,0h-.726a24.576,24.576,0,0,1-24.34,24.405" transform="translate(199.802 0.178)"/><path class="a" d="M24.164,25.317A24.494,24.494,0,0,1,0,49.9v.733A25.216,25.216,0,0,0,24.89,25.317,25.216,25.216,0,0,0,0,0V.733A24.552,24.552,0,0,1,24.164,25.317" transform="translate(249.912)"/><path class="a" d="M.726,25.317A24.479,24.479,0,0,1,24.89.733V0a25.32,25.32,0,0,0,0,50.633V49.9A24.566,24.566,0,0,1,.726,25.317" transform="translate(274.802)"/><path class="a" d="M25.066.734a24.475,24.475,0,0,1,24.34,24.405h.726A25.212,25.212,0,0,0,25.066,0,25.212,25.212,0,0,0,0,25.139H.726A24.547,24.547,0,0,1,25.066.734" transform="translate(99.89 25.316)"/><path class="a" d="M25.066,24.405A24.49,24.49,0,0,1,.726,0H0A25.212,25.212,0,0,0,25.066,25.139,25.212,25.212,0,0,0,50.132,0h-.726a24.562,24.562,0,0,1-24.34,24.405" transform="translate(99.89 0.178)"/><path class="a" d="M24.164,25.317A24.494,24.494,0,0,1,0,49.9v.733A25.216,25.216,0,0,0,24.89,25.317,25.216,25.216,0,0,0,0,0V.733A24.566,24.566,0,0,1,24.164,25.317" transform="translate(150.022)"/><path class="a" d="M.726,25.317A24.479,24.479,0,0,1,24.89.733V0a25.32,25.32,0,0,0,0,50.633V49.9A24.566,24.566,0,0,1,.726,25.317" transform="translate(174.912)"/><path class="a" d="M25.066,24.405A24.49,24.49,0,0,1,.726,0H0A25.212,25.212,0,0,0,25.066,25.139,25.212,25.212,0,0,0,50.132,0h-.726a24.576,24.576,0,0,1-24.34,24.405" transform="translate(49.78 50.545)"/><path class="a" d="M25.066.733a24.475,24.475,0,0,1,24.34,24.405h.726A25.212,25.212,0,0,0,25.066,0,25.212,25.212,0,0,0,0,25.139H.726A24.547,24.547,0,0,1,25.066.733" transform="translate(49.78 75.683)"/><path class="a" d="M.726,25.317A24.479,24.479,0,0,1,24.89.733V0a25.32,25.32,0,0,0,0,50.633V49.9A24.566,24.566,0,0,1,.726,25.317" transform="translate(24.89 50.367)"/><path class="a" d="M24.164,25.317A24.494,24.494,0,0,1,0,49.9v.733A25.216,25.216,0,0,0,24.89,25.317,25.216,25.216,0,0,0,0,0V.733A24.566,24.566,0,0,1,24.164,25.317" transform="translate(0 50.367)"/><path class="a" d="M25.066.734a24.475,24.475,0,0,1,24.34,24.405h.726A25.212,25.212,0,0,0,25.066,0,25.212,25.212,0,0,0,0,25.139H.726A24.533,24.533,0,0,1,25.066.734" transform="translate(0 25.316)"/><path class="a" d="M25.066,24.405A24.49,24.49,0,0,1,.726,0H0A25.212,25.212,0,0,0,25.066,25.139,25.212,25.212,0,0,0,50.132,0h-.726a24.576,24.576,0,0,1-24.34,24.405" transform="translate(0 0.178)"/><path class="a" d="M24.164,25.317A24.494,24.494,0,0,1,0,49.9v.733A25.216,25.216,0,0,0,24.89,25.317,25.216,25.216,0,0,0,0,0V.733A24.552,24.552,0,0,1,24.164,25.317" transform="translate(50.11)"/><path class="a" d="M.726,25.317A24.479,24.479,0,0,1,24.89.733V0a25.32,25.32,0,0,0,0,50.633V49.9A24.566,24.566,0,0,1,.726,25.317" transform="translate(75)"/></g></g></svg>