<svg xmlns="http://www.w3.org/2000/svg" width="19.481" height="24" viewBox="0 0 19.481 24"><defs><style>.a{fill:#40c2cc;}</style></defs><g transform="translate(-48.2 0)"><path class="a" d="M67.475,6.231,61.45.206a.7.7,0,0,0-.5-.206H50.786A2.589,2.589,0,0,0,48.2,2.586V21.414A2.589,2.589,0,0,0,50.786,24H65.1a2.589,2.589,0,0,0,2.586-2.586V6.728a.7.7,0,0,0-.206-.5ZM61.656,2.4l3.624,3.624H62.836a1.181,1.181,0,0,1-1.18-1.18ZM65.1,22.594H50.786a1.181,1.181,0,0,1-1.18-1.18V2.586a1.181,1.181,0,0,1,1.18-1.18H60.25V4.845a2.589,2.589,0,0,0,2.586,2.586h3.439V21.414A1.181,1.181,0,0,1,65.1,22.594Z"/><path class="a" d="M116.182,224.933h-3.013a.7.7,0,0,0-.7.7v3.013a.7.7,0,0,0,.7.7h3.013a.7.7,0,0,0,.7-.7v-3.013A.7.7,0,0,0,116.182,224.933Zm-.7,3.013h-1.606v-1.606h1.606Z" transform="translate(-61.254 -214.389)"/><path class="a" d="M116.182,353.467h-3.013a.7.7,0,0,0-.7.7v3.012a.7.7,0,0,0,.7.7h3.013a.7.7,0,0,0,.7-.7V354.17A.7.7,0,0,0,116.182,353.467Zm-.7,3.012h-1.606v-1.606h1.606Z" transform="translate(-61.254 -336.898)"/><path class="a" d="M241,225.636a.7.7,0,0,0,.7.7h3.013a.7.7,0,0,0,0-1.406H241.7A.7.7,0,0,0,241,225.636Z" transform="translate(-183.762 -214.389)"/><path class="a" d="M247.728,289.2H241.7a.7.7,0,1,0,0,1.406h6.025a.7.7,0,0,0,0-1.406Z" transform="translate(-183.762 -275.644)"/><path class="a" d="M241.7,354.873h3.013a.7.7,0,0,0,0-1.406H241.7a.7.7,0,0,0,0,1.406Z" transform="translate(-183.762 -336.898)"/><path class="a" d="M247.728,417.733H241.7a.7.7,0,0,0,0,1.406h6.025a.7.7,0,0,0,0-1.406Z" transform="translate(-183.762 -398.152)"/><path class="a" d="M113.17,81.739h3.766a.7.7,0,0,0,0-1.406H113.17a.7.7,0,1,0,0,1.406Z" transform="translate(-61.254 -76.567)"/><path class="a" d="M113.17,146.006H119.2a.7.7,0,0,0,0-1.406H113.17a.7.7,0,1,0,0,1.406Z" transform="translate(-61.254 -137.822)"/></g></svg>