<svg xmlns="http://www.w3.org/2000/svg" width="698.626" height="100" viewBox="0 0 698.626 100"><defs><style>.a{fill:#fff;}</style></defs><path class="a" d="M25.066.726A24.369,24.369,0,0,1,49.406,24.89h.726A25.067,25.067,0,0,0,0,24.89H.726A24.455,24.455,0,0,1,25.066.726" transform="translate(399.626 74.934) rotate(180)"/><path class="a" d="M25.066,24.164A24.355,24.355,0,0,1,.726,0H0A25.087,25.087,0,0,0,25.066,24.89,25.087,25.087,0,0,0,50.132,0h-.726a24.426,24.426,0,0,1-24.34,24.164" transform="translate(399.626 99.824) rotate(180)"/><path class="a" d="M24.164,25.066A24.355,24.355,0,0,1,0,49.406v.726A25.087,25.087,0,0,0,24.89,25.066,25.087,25.087,0,0,0,0,0V.726a24.441,24.441,0,0,1,24.164,24.34" transform="translate(349.494 100) rotate(180)"/><path class="a" d="M.726,25.066A24.369,24.369,0,0,1,24.89.726V0a25.067,25.067,0,0,0,0,50.132v-.726A24.441,24.441,0,0,1,.726,25.066" transform="translate(324.604 100) rotate(180)"/><path class="a" d="M25.066.726A24.369,24.369,0,0,1,49.406,24.89h.726A25.067,25.067,0,0,0,0,24.89H.726A24.441,24.441,0,0,1,25.066.726" transform="translate(299.714 74.934) rotate(180)"/><path class="a" d="M25.066,24.164A24.355,24.355,0,0,1,.726,0H0A25.087,25.087,0,0,0,25.066,24.89,25.087,25.087,0,0,0,50.132,0h-.726a24.441,24.441,0,0,1-24.34,24.164" transform="translate(299.714 99.824) rotate(180)"/><path class="a" d="M24.164,25.066A24.355,24.355,0,0,1,0,49.406v.726A25.087,25.087,0,0,0,24.89,25.066,25.087,25.087,0,0,0,0,0V.726a24.441,24.441,0,0,1,24.164,24.34" transform="translate(249.582 100) rotate(180)"/><path class="a" d="M.726,25.066A24.369,24.369,0,0,1,24.89.726V0a25.067,25.067,0,0,0,0,50.132v-.726A24.426,24.426,0,0,1,.726,25.066" transform="translate(224.692 100) rotate(180)"/><path class="a" d="M25.066,24.164A24.355,24.355,0,0,1,.726,0H0A25.087,25.087,0,0,0,25.066,24.89,25.087,25.087,0,0,0,50.132,0h-.726a24.412,24.412,0,0,1-24.34,24.164" transform="translate(349.846 49.956) rotate(180)"/><path class="a" d="M25.066.726A24.369,24.369,0,0,1,49.406,24.89h.726A25.067,25.067,0,0,0,0,24.89H.726A24.455,24.455,0,0,1,25.066.726" transform="translate(349.846 25.066) rotate(180)"/><path class="a" d="M.726,25.066A24.369,24.369,0,0,1,24.89.726V0a25.067,25.067,0,0,0,0,50.132v-.726A24.426,24.426,0,0,1,.726,25.066" transform="translate(374.714 50.132) rotate(180)"/><path class="a" d="M24.164,25.066A24.355,24.355,0,0,1,0,49.406v.726A25.087,25.087,0,0,0,24.89,25.066,25.087,25.087,0,0,0,0,0V.726a24.441,24.441,0,0,1,24.164,24.34" transform="translate(399.604 50.132) rotate(180)"/><path class="a" d="M25.066,24.164A24.355,24.355,0,0,1,.726,0H0A25.087,25.087,0,0,0,25.066,24.89,25.087,25.087,0,0,0,50.132,0h-.726a24.426,24.426,0,0,1-24.34,24.164" transform="translate(249.934 49.956) rotate(180)"/><path class="a" d="M25.066.726A24.369,24.369,0,0,1,49.406,24.89h.726A25.067,25.067,0,0,0,0,24.89H.726A24.441,24.441,0,0,1,25.066.726" transform="translate(249.934 25.066) rotate(180)"/><path class="a" d="M.726,25.066A24.369,24.369,0,0,1,24.89.726V0a25.067,25.067,0,0,0,0,50.132v-.726A24.441,24.441,0,0,1,.726,25.066" transform="translate(274.824 50.132) rotate(180)"/><path class="a" d="M24.164,25.066A24.355,24.355,0,0,1,0,49.406v.726A25.087,25.087,0,0,0,24.89,25.066,25.087,25.087,0,0,0,0,0V.726a24.441,24.441,0,0,1,24.164,24.34" transform="translate(299.714 50.132) rotate(180)"/><path class="a" d="M25.066.726A24.369,24.369,0,0,1,49.406,24.89h.726A25.067,25.067,0,0,0,0,24.89H.726A24.455,24.455,0,0,1,25.066.726" transform="translate(199.824 74.934) rotate(180)"/><path class="a" d="M25.066,24.164A24.355,24.355,0,0,1,.726,0H0A25.087,25.087,0,0,0,25.066,24.89,25.087,25.087,0,0,0,50.132,0h-.726a24.426,24.426,0,0,1-24.34,24.164" transform="translate(199.824 99.824) rotate(180)"/><path class="a" d="M24.164,25.066A24.355,24.355,0,0,1,0,49.406v.726A25.087,25.087,0,0,0,24.89,25.066,25.087,25.087,0,0,0,0,0V.726a24.441,24.441,0,0,1,24.164,24.34" transform="translate(149.692 100) rotate(180)"/><path class="a" d="M.726,25.066A24.369,24.369,0,0,1,24.89.726V0a25.067,25.067,0,0,0,0,50.132v-.726A24.441,24.441,0,0,1,.726,25.066" transform="translate(124.802 100) rotate(180)"/><path class="a" d="M25.066.726A24.369,24.369,0,0,1,49.406,24.89h.726A25.067,25.067,0,0,0,0,24.89H.726A24.441,24.441,0,0,1,25.066.726" transform="translate(99.912 74.934) rotate(180)"/><path class="a" d="M25.066,24.164A24.355,24.355,0,0,1,.726,0H0A25.087,25.087,0,0,0,25.066,24.89,25.087,25.087,0,0,0,50.132,0h-.726a24.441,24.441,0,0,1-24.34,24.164" transform="translate(99.912 99.824) rotate(180)"/><path class="a" d="M24.164,25.066A24.355,24.355,0,0,1,0,49.406v.726A25.087,25.087,0,0,0,24.89,25.066,25.087,25.087,0,0,0,0,0V.726a24.441,24.441,0,0,1,24.164,24.34" transform="translate(49.78 100) rotate(180)"/><path class="a" d="M25.066,24.164A24.355,24.355,0,0,1,.726,0H0A25.087,25.087,0,0,0,25.066,24.89,25.087,25.087,0,0,0,50.132,0h-.726a24.412,24.412,0,0,1-24.34,24.164" transform="translate(150.044 49.956) rotate(180)"/><path class="a" d="M25.066.726A24.369,24.369,0,0,1,49.406,24.89h.726A25.067,25.067,0,0,0,0,24.89H.726A24.455,24.455,0,0,1,25.066.726" transform="translate(150.044 25.066) rotate(180)"/><path class="a" d="M.726,25.066A24.369,24.369,0,0,1,24.89.726V0a25.067,25.067,0,0,0,0,50.132v-.726A24.426,24.426,0,0,1,.726,25.066" transform="translate(174.912 50.132) rotate(180)"/><path class="a" d="M24.164,25.066A24.355,24.355,0,0,1,0,49.406v.726A25.087,25.087,0,0,0,24.89,25.066,25.087,25.087,0,0,0,0,0V.726a24.441,24.441,0,0,1,24.164,24.34" transform="translate(199.802 50.132) rotate(180)"/><path class="a" d="M25.066,24.164A24.355,24.355,0,0,1,.726,0H0A25.087,25.087,0,0,0,25.066,24.89,25.087,25.087,0,0,0,50.132,0h-.726a24.426,24.426,0,0,1-24.34,24.164" transform="translate(50.132 49.956) rotate(180)"/><path class="a" d="M25.066.726A24.369,24.369,0,0,1,49.406,24.89h.726A25.067,25.067,0,0,0,0,24.89H.726A24.441,24.441,0,0,1,25.066.726" transform="translate(50.132 25.066) rotate(180)"/><path class="a" d="M.726,25.066A24.369,24.369,0,0,1,24.89.726V0a25.067,25.067,0,0,0,0,50.132v-.726A24.441,24.441,0,0,1,.726,25.066" transform="translate(75.022 50.132) rotate(180)"/><path class="a" d="M24.164,25.066A24.355,24.355,0,0,1,0,49.406v.726A25.087,25.087,0,0,0,24.89,25.066,25.087,25.087,0,0,0,0,0V.726a24.426,24.426,0,0,1,24.164,24.34" transform="translate(99.912 50.132) rotate(180)"/><g transform="translate(698.626 100) rotate(180)"><path class="a" d="M25.066.726A24.369,24.369,0,0,1,49.406,24.89h.726A25.067,25.067,0,0,0,0,24.89H.726A24.455,24.455,0,0,1,25.066.726" transform="translate(0 25.066)"/><path class="a" d="M25.066,24.164A24.355,24.355,0,0,1,.726,0H0A25.087,25.087,0,0,0,25.066,24.89,25.087,25.087,0,0,0,50.132,0h-.726a24.426,24.426,0,0,1-24.34,24.164" transform="translate(0 0.176)"/><path class="a" d="M24.164,25.066A24.355,24.355,0,0,1,0,49.406v.726A25.087,25.087,0,0,0,24.89,25.066,25.087,25.087,0,0,0,0,0V.726a24.441,24.441,0,0,1,24.164,24.34" transform="translate(50.132)"/><path class="a" d="M.726,25.066A24.369,24.369,0,0,1,24.89.726V0a25.067,25.067,0,0,0,0,50.132v-.726A24.441,24.441,0,0,1,.726,25.066" transform="translate(75.022)"/><path class="a" d="M25.066.726A24.369,24.369,0,0,1,49.406,24.89h.726A25.067,25.067,0,0,0,0,24.89H.726A24.441,24.441,0,0,1,25.066.726" transform="translate(99.912 25.066)"/><path class="a" d="M25.066,24.164A24.355,24.355,0,0,1,.726,0H0A25.087,25.087,0,0,0,25.066,24.89,25.087,25.087,0,0,0,50.132,0h-.726a24.441,24.441,0,0,1-24.34,24.164" transform="translate(99.912 0.176)"/><path class="a" d="M24.164,25.066A24.355,24.355,0,0,1,0,49.406v.726A25.087,25.087,0,0,0,24.89,25.066,25.087,25.087,0,0,0,0,0V.726a24.441,24.441,0,0,1,24.164,24.34" transform="translate(150.044)"/><path class="a" d="M.726,25.066A24.369,24.369,0,0,1,24.89.726V0a25.067,25.067,0,0,0,0,50.132v-.726A24.426,24.426,0,0,1,.726,25.066" transform="translate(174.934)"/><path class="a" d="M25.066,24.164A24.355,24.355,0,0,1,.726,0H0A25.087,25.087,0,0,0,25.066,24.89,25.087,25.087,0,0,0,50.132,0h-.726a24.412,24.412,0,0,1-24.34,24.164" transform="translate(49.78 50.044)"/><path class="a" d="M25.066.726A24.369,24.369,0,0,1,49.406,24.89h.726A25.067,25.067,0,0,0,0,24.89H.726A24.455,24.455,0,0,1,25.066.726" transform="translate(49.78 74.934)"/><path class="a" d="M.726,25.066A24.369,24.369,0,0,1,24.89.726V0a25.067,25.067,0,0,0,0,50.132v-.726A24.426,24.426,0,0,1,.726,25.066" transform="translate(24.912 49.868)"/><path class="a" d="M24.164,25.066A24.355,24.355,0,0,1,0,49.406v.726A25.087,25.087,0,0,0,24.89,25.066,25.087,25.087,0,0,0,0,0V.726a24.441,24.441,0,0,1,24.164,24.34" transform="translate(0.022 49.868)"/><path class="a" d="M25.066,24.164A24.355,24.355,0,0,1,.726,0H0A25.087,25.087,0,0,0,25.066,24.89,25.087,25.087,0,0,0,50.132,0h-.726a24.426,24.426,0,0,1-24.34,24.164" transform="translate(149.692 50.044)"/><path class="a" d="M25.066.726A24.369,24.369,0,0,1,49.406,24.89h.726A25.067,25.067,0,0,0,0,24.89H.726A24.441,24.441,0,0,1,25.066.726" transform="translate(149.692 74.934)"/><path class="a" d="M.726,25.066A24.369,24.369,0,0,1,24.89.726V0a25.067,25.067,0,0,0,0,50.132v-.726A24.441,24.441,0,0,1,.726,25.066" transform="translate(124.802 49.868)"/><path class="a" d="M24.164,25.066A24.355,24.355,0,0,1,0,49.406v.726A25.087,25.087,0,0,0,24.89,25.066,25.087,25.087,0,0,0,0,0V.726a24.441,24.441,0,0,1,24.164,24.34" transform="translate(99.912 49.868)"/><path class="a" d="M25.066.726A24.369,24.369,0,0,1,49.406,24.89h.726A25.067,25.067,0,0,0,0,24.89H.726A24.455,24.455,0,0,1,25.066.726" transform="translate(199.802 25.066)"/><path class="a" d="M25.066,24.164A24.355,24.355,0,0,1,.726,0H0A25.087,25.087,0,0,0,25.066,24.89,25.087,25.087,0,0,0,50.132,0h-.726a24.426,24.426,0,0,1-24.34,24.164" transform="translate(199.802 0.176)"/><path class="a" d="M24.164,25.066A24.355,24.355,0,0,1,0,49.406v.726A25.087,25.087,0,0,0,24.89,25.066,25.087,25.087,0,0,0,0,0V.726a24.441,24.441,0,0,1,24.164,24.34" transform="translate(249.934)"/><path class="a" d="M.726,25.066A24.369,24.369,0,0,1,24.89.726V0a25.067,25.067,0,0,0,0,50.132v-.726A24.441,24.441,0,0,1,.726,25.066" transform="translate(274.824)"/><path class="a" d="M25.066,24.164A24.355,24.355,0,0,1,.726,0H0A25.087,25.087,0,0,0,25.066,24.89,25.087,25.087,0,0,0,50.132,0h-.726a24.412,24.412,0,0,1-24.34,24.164" transform="translate(249.582 50.044)"/><path class="a" d="M25.066.726A24.369,24.369,0,0,1,49.406,24.89h.726A25.067,25.067,0,0,0,0,24.89H.726A24.455,24.455,0,0,1,25.066.726" transform="translate(249.582 74.934)"/><path class="a" d="M.726,25.066A24.369,24.369,0,0,1,24.89.726V0a25.067,25.067,0,0,0,0,50.132v-.726A24.426,24.426,0,0,1,.726,25.066" transform="translate(224.714 49.868)"/><path class="a" d="M24.164,25.066A24.355,24.355,0,0,1,0,49.406v.726A25.087,25.087,0,0,0,24.89,25.066,25.087,25.087,0,0,0,0,0V.726a24.441,24.441,0,0,1,24.164,24.34" transform="translate(199.824 49.868)"/></g></svg>