<?xml version="1.0" encoding="utf-8"?>
<!-- Generator: Adobe Illustrator 24.0.0, SVG Export Plug-In . SVG Version: 6.00 Build 0)  -->
<svg version="1.1" id="Layer_1" xmlns="http://www.w3.org/2000/svg" xmlns:xlink="http://www.w3.org/1999/xlink" x="0px" y="0px"
	 viewBox="0 0 24 14.3" style="enable-background:new 0 0 24 14.3;" xml:space="preserve">
<style type="text/css">
	.st0{fill:#06706D;}
</style>
<path class="st0" d="M0.3,6.5C0.1,6.6,0,6.9,0,7.2c0,0.3,0.1,0.5,0.3,0.7L6.5,14c0.4,0.4,1,0.4,1.4,0s0.4-1,0-1.4l0,0L3.3,8.1H23
	c0.5,0,1-0.4,1-0.9s-0.4-1-0.9-1c0,0,0,0-0.1,0H3.3l4.5-4.5c0.4-0.4,0.4-1,0-1.4s-1-0.4-1.4,0l0,0L0.3,6.5z"/>
</svg>
