<svg xmlns="http://www.w3.org/2000/svg" width="194.35" height="574.024" viewBox="0 0 194.35 574.024"><defs><style>.a{opacity:0.54;}.b{fill:#fff;}</style></defs><g class="a" transform="translate(54.017 -275.999)"><path class="b" d="M119.033,131.646a46.834,46.834,0,0,1,46.778,46.439h1.4a48.175,48.175,0,0,0-96.347,0h1.4a47,47,0,0,1,46.778-46.439" transform="translate(211.193 550.261) rotate(180)"/><path class="b" d="M119.033,165.379A46.806,46.806,0,0,1,72.256,118.94h-1.4a48.175,48.175,0,0,0,96.347,0h-1.4a46.944,46.944,0,0,1-46.778,46.439" transform="translate(211.193 586.786) rotate(180)"/><path class="b" d="M140.079,167.033A46.806,46.806,0,0,1,93.64,213.811v1.4a48.175,48.175,0,0,0,0-96.347v1.4a46.972,46.972,0,0,1,46.439,46.778" transform="translate(137.626 587.045) rotate(180)"/><path class="b" d="M141.653,188.039A46.806,46.806,0,0,1,94.876,141.6h-1.4a48.175,48.175,0,0,0,96.347,0h-1.4a46.916,46.916,0,0,1-46.778,46.439" transform="translate(138.143 513.607) rotate(180)"/><path class="b" d="M141.653,154.306a46.834,46.834,0,0,1,46.778,46.439h1.4a48.175,48.175,0,0,0-96.347,0h1.4a47,47,0,0,1,46.778-46.439" transform="translate(138.143 477.082) rotate(180)"/><path class="b" d="M83.576,189.693a46.834,46.834,0,0,1,46.439-46.778v-1.4a48.175,48.175,0,0,0,0,96.347v-1.4a46.944,46.944,0,0,1-46.439-46.778" transform="translate(174.635 513.866) rotate(180)"/><path class="b" d="M117.309,189.693A46.806,46.806,0,0,1,70.87,236.471v1.4a48.175,48.175,0,0,0,0-96.347v1.4a46.972,46.972,0,0,1,46.439,46.778" transform="translate(211.16 513.866) rotate(180)"/><path class="b" d="M119.033,131.646a46.834,46.834,0,0,1,46.778,46.439h1.4a48.175,48.175,0,0,0-96.347,0h1.4a47,47,0,0,1,46.778-46.439" transform="translate(209.026 741.18) rotate(180)"/><path class="b" d="M119.033,165.379A46.806,46.806,0,0,1,72.256,118.94h-1.4a48.175,48.175,0,0,0,96.347,0h-1.4a46.944,46.944,0,0,1-46.778,46.439" transform="translate(209.026 777.705) rotate(180)"/><path class="b" d="M140.079,167.033A46.806,46.806,0,0,1,93.64,213.811v1.4a48.175,48.175,0,0,0,0-96.347v1.4a46.972,46.972,0,0,1,46.439,46.778" transform="translate(135.459 777.964) rotate(180)"/><path class="b" d="M141.653,188.039A46.806,46.806,0,0,1,94.876,141.6h-1.4a48.175,48.175,0,0,0,96.347,0h-1.4a46.916,46.916,0,0,1-46.778,46.439" transform="translate(135.976 704.526) rotate(180)"/><path class="b" d="M141.653,154.306a46.834,46.834,0,0,1,46.778,46.439h1.4a48.175,48.175,0,0,0-96.347,0h1.4a47,47,0,0,1,46.778-46.439" transform="translate(135.976 668.001) rotate(180)"/><path class="b" d="M83.576,189.693a46.834,46.834,0,0,1,46.439-46.778v-1.4a48.175,48.175,0,0,0,0,96.347v-1.4a46.944,46.944,0,0,1-46.439-46.778" transform="translate(172.469 704.785) rotate(180)"/><path class="b" d="M117.309,189.693A46.806,46.806,0,0,1,70.87,236.471v1.4a48.175,48.175,0,0,0,0-96.347v1.4a46.972,46.972,0,0,1,46.439,46.778" transform="translate(208.994 704.785) rotate(180)"/><path class="b" d="M119.033,131.646a46.834,46.834,0,0,1,46.778,46.439h1.4a48.175,48.175,0,0,0-96.347,0h1.4a47,47,0,0,1,46.778-46.439" transform="translate(208.86 932.099) rotate(180)"/><path class="b" d="M119.033,165.379A46.806,46.806,0,0,1,72.256,118.94h-1.4a48.175,48.175,0,0,0,96.347,0h-1.4a46.944,46.944,0,0,1-46.778,46.439" transform="translate(208.86 968.624) rotate(180)"/><path class="b" d="M140.079,167.033A46.806,46.806,0,0,1,93.64,213.811v1.4a48.175,48.175,0,0,0,0-96.347v1.4a46.972,46.972,0,0,1,46.439,46.778" transform="translate(135.293 968.883) rotate(180)"/><path class="b" d="M141.653,188.039A46.806,46.806,0,0,1,94.876,141.6h-1.4a48.175,48.175,0,0,0,96.347,0h-1.4a46.916,46.916,0,0,1-46.778,46.439" transform="translate(135.809 895.445) rotate(180)"/><path class="b" d="M141.653,154.306a46.834,46.834,0,0,1,46.778,46.439h1.4a48.175,48.175,0,0,0-96.347,0h1.4a47,47,0,0,1,46.778-46.439" transform="translate(135.809 858.92) rotate(180)"/><path class="b" d="M83.576,189.693a46.834,46.834,0,0,1,46.439-46.778v-1.4a48.175,48.175,0,0,0,0,96.347v-1.4a46.944,46.944,0,0,1-46.439-46.778" transform="translate(172.302 895.703) rotate(180)"/><path class="b" d="M117.309,189.693A46.806,46.806,0,0,1,70.87,236.471v1.4a48.175,48.175,0,0,0,0-96.347v1.4a46.972,46.972,0,0,1,46.439,46.778" transform="translate(208.827 895.703) rotate(180)"/></g></svg>