<svg xmlns="http://www.w3.org/2000/svg" xmlns:xlink="http://www.w3.org/1999/xlink" width="140" height="574" viewBox="0 0 140 574">
  <defs>
    <clipPath id="clip-path">
      <rect id="Rectangle_1218" data-name="Rectangle 1218" width="140" height="574" transform="translate(-6769 -14323)" opacity="0.6"/>
    </clipPath>
  </defs>
  <g id="hompage-header" transform="translate(6769 14323)" clip-path="url(#clip-path)">
    <g id="Group_1084" data-name="Group 1084" transform="translate(-6769 -14599)" opacity="0.54">
      <path id="Path_1858" data-name="Path 1858" d="M119.033,131.646a46.834,46.834,0,0,1,46.778,46.439h1.4a48.175,48.175,0,0,0-96.347,0h1.4a47,47,0,0,1,46.778-46.439" transform="translate(211.193 550.261) rotate(180)" fill="#fff"/>
      <path id="Path_1859" data-name="Path 1859" d="M119.033,165.379A46.806,46.806,0,0,1,72.256,118.94h-1.4a48.175,48.175,0,0,0,96.347,0h-1.4a46.944,46.944,0,0,1-46.778,46.439" transform="translate(211.193 586.786) rotate(180)" fill="#fff"/>
      <path id="Path_1860" data-name="Path 1860" d="M140.079,167.033A46.806,46.806,0,0,1,93.64,213.811v1.4a48.175,48.175,0,0,0,0-96.347v1.4a46.972,46.972,0,0,1,46.439,46.778" transform="translate(137.626 587.045) rotate(180)" fill="#fff"/>
      <path id="Path_1866" data-name="Path 1866" d="M141.653,188.039A46.806,46.806,0,0,1,94.876,141.6h-1.4a48.175,48.175,0,0,0,96.347,0h-1.4a46.916,46.916,0,0,1-46.778,46.439" transform="translate(138.143 513.607) rotate(180)" fill="#fff"/>
      <path id="Path_1867" data-name="Path 1867" d="M141.653,154.306a46.834,46.834,0,0,1,46.778,46.439h1.4a48.175,48.175,0,0,0-96.347,0h1.4a47,47,0,0,1,46.778-46.439" transform="translate(138.143 477.082) rotate(180)" fill="#fff"/>
      <path id="Path_1868" data-name="Path 1868" d="M83.576,189.693a46.834,46.834,0,0,1,46.439-46.778v-1.4a48.175,48.175,0,0,0,0,96.347v-1.4a46.944,46.944,0,0,1-46.439-46.778" transform="translate(174.635 513.866) rotate(180)" fill="#fff"/>
      <path id="Path_1869" data-name="Path 1869" d="M117.309,189.693A46.806,46.806,0,0,1,70.87,236.471v1.4a48.175,48.175,0,0,0,0-96.347v1.4a46.972,46.972,0,0,1,46.439,46.778" transform="translate(211.16 513.866) rotate(180)" fill="#fff"/>
      <path id="Path_1938" data-name="Path 1938" d="M119.033,131.646a46.834,46.834,0,0,1,46.778,46.439h1.4a48.175,48.175,0,0,0-96.347,0h1.4a47,47,0,0,1,46.778-46.439" transform="translate(209.026 741.18) rotate(180)" fill="#fff"/>
      <path id="Path_1939" data-name="Path 1939" d="M119.033,165.379A46.806,46.806,0,0,1,72.256,118.94h-1.4a48.175,48.175,0,0,0,96.347,0h-1.4a46.944,46.944,0,0,1-46.778,46.439" transform="translate(209.026 777.705) rotate(180)" fill="#fff"/>
      <path id="Path_1940" data-name="Path 1940" d="M140.079,167.033A46.806,46.806,0,0,1,93.64,213.811v1.4a48.175,48.175,0,0,0,0-96.347v1.4a46.972,46.972,0,0,1,46.439,46.778" transform="translate(135.459 777.964) rotate(180)" fill="#fff"/>
      <path id="Path_1946" data-name="Path 1946" d="M141.653,188.039A46.806,46.806,0,0,1,94.876,141.6h-1.4a48.175,48.175,0,0,0,96.347,0h-1.4a46.916,46.916,0,0,1-46.778,46.439" transform="translate(135.976 704.526) rotate(180)" fill="#fff"/>
      <path id="Path_1947" data-name="Path 1947" d="M141.653,154.306a46.834,46.834,0,0,1,46.778,46.439h1.4a48.175,48.175,0,0,0-96.347,0h1.4a47,47,0,0,1,46.778-46.439" transform="translate(135.976 668.001) rotate(180)" fill="#fff"/>
      <path id="Path_1948" data-name="Path 1948" d="M83.576,189.693a46.834,46.834,0,0,1,46.439-46.778v-1.4a48.175,48.175,0,0,0,0,96.347v-1.4a46.944,46.944,0,0,1-46.439-46.778" transform="translate(172.469 704.785) rotate(180)" fill="#fff"/>
      <path id="Path_1949" data-name="Path 1949" d="M117.309,189.693A46.806,46.806,0,0,1,70.87,236.471v1.4a48.175,48.175,0,0,0,0-96.347v1.4a46.972,46.972,0,0,1,46.439,46.778" transform="translate(208.994 704.785) rotate(180)" fill="#fff"/>
      <path id="Path_2018" data-name="Path 2018" d="M119.033,131.646a46.834,46.834,0,0,1,46.778,46.439h1.4a48.175,48.175,0,0,0-96.347,0h1.4a47,47,0,0,1,46.778-46.439" transform="translate(208.86 932.099) rotate(180)" fill="#fff"/>
      <path id="Path_2019" data-name="Path 2019" d="M119.033,165.379A46.806,46.806,0,0,1,72.256,118.94h-1.4a48.175,48.175,0,0,0,96.347,0h-1.4a46.944,46.944,0,0,1-46.778,46.439" transform="translate(208.86 968.624) rotate(180)" fill="#fff"/>
      <path id="Path_2020" data-name="Path 2020" d="M140.079,167.033A46.806,46.806,0,0,1,93.64,213.811v1.4a48.175,48.175,0,0,0,0-96.347v1.4a46.972,46.972,0,0,1,46.439,46.778" transform="translate(135.293 968.883) rotate(180)" fill="#fff"/>
      <path id="Path_2026" data-name="Path 2026" d="M141.653,188.039A46.806,46.806,0,0,1,94.876,141.6h-1.4a48.175,48.175,0,0,0,96.347,0h-1.4a46.916,46.916,0,0,1-46.778,46.439" transform="translate(135.809 895.445) rotate(180)" fill="#fff"/>
      <path id="Path_2027" data-name="Path 2027" d="M141.653,154.306a46.834,46.834,0,0,1,46.778,46.439h1.4a48.175,48.175,0,0,0-96.347,0h1.4a47,47,0,0,1,46.778-46.439" transform="translate(135.809 858.92) rotate(180)" fill="#fff"/>
      <path id="Path_2028" data-name="Path 2028" d="M83.576,189.693a46.834,46.834,0,0,1,46.439-46.778v-1.4a48.175,48.175,0,0,0,0,96.347v-1.4a46.944,46.944,0,0,1-46.439-46.778" transform="translate(172.302 895.703) rotate(180)" fill="#fff"/>
      <path id="Path_2029" data-name="Path 2029" d="M117.309,189.693A46.806,46.806,0,0,1,70.87,236.471v1.4a48.175,48.175,0,0,0,0-96.347v1.4a46.972,46.972,0,0,1,46.439,46.778" transform="translate(208.827 895.703) rotate(180)" fill="#fff"/>
    </g>
  </g>
</svg>
