<svg xmlns="http://www.w3.org/2000/svg" width="90" height="78.751" viewBox="0 0 90 78.751">
  <g id="like-2" transform="translate(0 -1)">
    <path id="Path_2801" data-name="Path 2801" d="M19.688,0H2.813A2.811,2.811,0,0,0,0,2.813V53.438A2.811,2.811,0,0,0,2.813,56.25H19.688A2.811,2.811,0,0,0,22.5,53.438V2.813A2.811,2.811,0,0,0,19.688,0ZM16.875,50.625H5.625v-45h11.25Z" transform="translate(0 23.501)" fill="#40c2cc"/>
    <path id="Path_2802" data-name="Path 2802" d="M51.487,28.154H34.871a2.814,2.814,0,0,1-2.461-4.178l5.858-10.55a8.435,8.435,0,0,0-5.331-12.28L28.806.115a2.807,2.807,0,0,0-2.771.846L3.606,25.878A14.055,14.055,0,0,0,0,35.285V59.092A14.079,14.079,0,0,0,14.063,73.154l27.979,0A14.094,14.094,0,0,0,55.6,62.808l6-21.929A10.387,10.387,0,0,0,51.487,28.154ZM56.154,39.5,50.177,61.322a8.455,8.455,0,0,1-8.135,6.207H14.063a8.447,8.447,0,0,1-8.438-8.437V35.285A8.43,8.43,0,0,1,7.789,29.64L29.084,5.981l2.488.621a2.815,2.815,0,0,1,1.78,4.1l-5.858,10.55A8.437,8.437,0,0,0,34.871,33.78H51.487a4.768,4.768,0,0,1,4.763,4.763,4.654,4.654,0,0,1-.1.959Z" transform="translate(28.125 0.97)" fill="#40c2cc"/>
  </g>
</svg>
