<svg xmlns="http://www.w3.org/2000/svg" width="106.632" height="102.411" viewBox="0 0 106.632 102.411"><defs><style>.a,.b{fill:none;stroke-miterlimit:10;stroke-width:0.9px;}.a{stroke:#84BC47;}.b{stroke:#9aca67;}.c{fill:#84BC47;}.d{fill:#b3d78d;}.e{fill:#fff;}</style></defs><g transform="translate(-1601.694 -1370.525)"><path class="a" d="M112.206,39.95A52.988,52.988,0,0,1,59.35,93.057" transform="translate(1595.671 1379.429)"/><path class="b" d="M86.966,93.057A52.974,52.974,0,0,1,34.11,39.95" transform="translate(1568.034 1379.429)"/><path class="c" d="M133.749,65.484A48.865,48.865,0,1,1,84.874,16.63a48.875,48.875,0,0,1,48.875,48.854" transform="translate(1569.625 1353.895)"/><path class="d" d="M84.885,114.359a48.865,48.865,0,1,1,0-97.729" transform="translate(1570.115 1353.895)"/><g transform="translate(1630.645 1397.524)"><path class="e" d="M10.5,0h-9A1.5,1.5,0,0,0,0,1.5v27A1.5,1.5,0,0,0,1.5,30h9A1.5,1.5,0,0,0,12,28.5V1.5A1.5,1.5,0,0,0,10.5,0ZM9,27H3V3H9Z" transform="translate(0 13)"/><path class="e" d="M27.46,15.03H18.6A1.5,1.5,0,0,1,17.285,12.8L20.41,7.175A4.5,4.5,0,0,0,17.566.626l-2.2-.551a1.5,1.5,0,0,0-1.478.451L1.923,13.815A7.5,7.5,0,0,0,0,18.832v12.7a7.509,7.509,0,0,0,7.5,7.5H22.422a7.517,7.517,0,0,0,7.233-5.517l3.2-11.7a5.54,5.54,0,0,0-5.4-6.787Zm2.489,6.051L26.761,32.719a4.509,4.509,0,0,1-4.339,3.311H7.5A4.5,4.5,0,0,1,3,31.53v-12.7a4.5,4.5,0,0,1,1.154-3.01L15.511,3.2l1.327.331a1.5,1.5,0,0,1,.949,2.184l-3.125,5.626A4.5,4.5,0,0,0,18.6,18.03H27.46A2.543,2.543,0,0,1,30,20.57a2.482,2.482,0,0,1-.051.511Z" transform="translate(15 0.97)"/></g></g></svg>