<svg xmlns="http://www.w3.org/2000/svg" width="27.428" height="24" viewBox="0 0 27.428 24"><defs><style>.a{fill:#84BC47;}</style></defs><path class="a" d="M6,17.143H.857A.857.857,0,0,1,0,16.286V.857A.857.857,0,0,1,.857,0H6a.857.857,0,0,1,.857.857V16.286A.857.857,0,0,1,6,17.143ZM5.143,1.714H1.714V15.428H5.143Z" transform="translate(0 0)"/><path class="a" d="M15.691,13.744H10.627a.857.857,0,0,0-.75,1.273l1.785,3.215a2.571,2.571,0,0,1-1.625,3.742l-1.259.315a.855.855,0,0,1-.845-.258L1.1,14.438A4.284,4.284,0,0,1,0,11.571V4.316A4.291,4.291,0,0,1,4.286.03h8.527a4.3,4.3,0,0,1,4.133,3.152l1.83,6.683a3.166,3.166,0,0,1-3.085,3.878Zm1.422-3.458-1.821-6.65a2.577,2.577,0,0,0-2.479-1.892H4.286A2.574,2.574,0,0,0,1.714,4.316v7.256a2.569,2.569,0,0,0,.66,1.72l6.49,7.21.758-.189a.858.858,0,0,0,.542-1.248L8.379,15.849a2.571,2.571,0,0,1,2.248-3.819h5.064a1.453,1.453,0,0,0,1.451-1.451,1.418,1.418,0,0,0-.029-.292Z" transform="translate(8.571 1.685)"/></svg>