<svg xmlns="http://www.w3.org/2000/svg" width="27" height="36" viewBox="0 0 27 36"><defs><style>.a{fill:#006c68;}.b{fill:#f2f2f2;}.c{fill:#84BC47;}.d{fill:#046F6D;}</style></defs><g transform="translate(-362 -1026)"><path class="a" d="M90.25,13.5H88v-3a10.5,10.5,0,0,0-21,0v.75a.75.75,0,0,0,.75.75h3a.75.75,0,0,0,.75-.75V10.5a6,6,0,1,1,12,0v3H64.75a.75.75,0,0,0-.75.75V33a3,3,0,0,0,3,3H88a3,3,0,0,0,3-3V14.25A.75.75,0,0,0,90.25,13.5Z" transform="translate(298 1026)"/><path class="b" d="M137,22.834a7.509,7.509,0,0,0-7.5,7.5H128a9,9,0,0,1,18,0v3h-1.5v-3A7.509,7.509,0,0,0,137,22.834Z" transform="translate(238.5 1006.166)"/><path class="c" d="M109.334,231.333a1.5,1.5,0,0,1-1.5,1.5h-21a1.5,1.5,0,0,1-1.5-1.5v-18h24Z" transform="translate(278.166 827.667)"/><path class="a" d="M214.561,282.746,214.087,287a.75.75,0,0,0,.746.833h3a.75.75,0,0,0,.746-.833l-.473-4.255a2.967,2.967,0,0,0,1.228-2.413,3,3,0,0,0-6,0A2.967,2.967,0,0,0,214.561,282.746Z" transform="translate(159.167 768.167)"/><path class="d" d="M236.168,298.667a1.495,1.495,0,0,1,.647,2.845.75.75,0,0,0-.419.758l.434,3.9h-1.324l.434-3.9a.75.75,0,0,0-.419-.758,1.495,1.495,0,0,1,.647-2.845Z" transform="translate(139.332 748.333)"/></g></svg>