<svg xmlns="http://www.w3.org/2000/svg" width="175.31" height="50" viewBox="0 0 175.31 50"><defs><style>.a{fill:#81bd41;}</style></defs><g transform="translate(-447.92 -2990.661)"><path class="a" d="M207.433,639.739a1.024,1.024,0,0,1,1.021-1,.994.994,0,0,1,.97,1,1.014,1.014,0,0,1-.97,1.021,1.043,1.043,0,0,1-1.021-1.021m4.555,3.042h1.66v8.948c0,2.865-2.762,4.063-5.319,4.063-2.4,0-5.29-1.175-5.29-4.063v-4.3l1.66-1.073v5.187c0,1.917,1.888,2.586,3.629,2.586,1.866,0,3.659-.742,3.659-2.557v-8.794Z" transform="translate(244.968 2354.183)"/><path class="a" d="M225.151,645.878h-1.638c-.867,0-1.175.382-1.175,1.249v2.711c0,1.124.514,1.256,1.535,1.256h1.278Zm-3.681,9.844h.257c1.947,0,3.423-.588,3.423-2.483v-.514h-1.411c-1.815,0-3.071-.867-3.071-2.887v-2.711a2.66,2.66,0,0,1,2.887-2.887H226.8v8.691c0,2.711-1.175,4.063-4.246,4.268Z" transform="translate(240.29 2352.724)"/><path class="a" d="M236.7,644.18h-1.638c-.867,0-1.175.382-1.175,1.256v2.711c0,1.124.507,1.256,1.535,1.256H236.7Zm-2.968-3.659v-.661h.742a1.467,1.467,0,0,1-.206-.691,1.259,1.259,0,0,1,1.33-1.33h.713v.669h-.463c-.566,0-.845.228-.845.668,0,.485.36.691.845.691h.97v.661h-3.086Zm4.628,10.506v.206c0,2.711-1.175,4.063-4.246,4.268l-1.1-1.484h.257c1.939,0,3.423-.588,3.423-2.483v-.514h-1.4c-1.815,0-3.071-.867-3.071-2.887v-2.711a2.66,2.66,0,0,1,2.887-2.887h3.247v6.854h1v1.638Z" transform="translate(237.225 2354.422)"/><rect class="a" width="4.474" height="1.638" transform="translate(476.483 3003.818)"/><rect class="a" width="2.762" height="1.638" transform="translate(480.825 3003.818)"/><rect class="a" width="2.762" height="1.638" transform="translate(483.455 3003.818)"/><rect class="a" width="2.762" height="1.638" transform="translate(486.093 3003.818)"/><rect class="a" width="2.762" height="1.638" transform="translate(488.723 3003.818)"/><rect class="a" width="2.762" height="1.638" transform="translate(491.36 3003.818)"/><rect class="a" width="2.762" height="1.638" transform="translate(493.99 3003.818)"/><path class="a" d="M279.26,637.7a1.01,1.01,0,1,1,1-1,1.025,1.025,0,0,1-1,1m1.33,2.248a1.01,1.01,0,1,1,1-1,1.02,1.02,0,0,1-1,1m-2.527,0a1.01,1.01,0,1,1,1-1,1.019,1.019,0,0,1-1,1m-8.853,10.506v-1.638h4.8v-6.854h1.609v6.854h2.865v-6.854h1.638v6.854h2.836v-6.854H284.6v6.854h.691v1.638Z" transform="translate(227.41 2354.995)"/><path class="a" d="M290.96,651.475v-1.638h.639c.9,0,1.308-.279,1.308-1.256V639.53h1.638v9.176a2.554,2.554,0,0,1-2.887,2.762h-.7Z" transform="translate(221.639 2353.973)"/><path class="a" d="M299.07,652.4V639.54h1.66v11.945Z" transform="translate(219.487 2353.971)"/><path class="a" d="M312.26,639.739a1,1,0,0,1,2,0,1,1,0,1,1-2,0m1.131,4.68h-1.638c-.691,0-1.175.257-1.175,1.256v2.762c0,.97.639,1.227,1.4,1.227.793,0,1.4-.257,1.4-1.227v-4.019Zm-3.659-4.68a1.01,1.01,0,0,1,2.02,0,1.01,1.01,0,1,1-2.02,0m5.319,8.64c0,2.2-1.535,2.887-3.071,2.887a2.748,2.748,0,0,1-3.071-2.939v-2.659a2.643,2.643,0,0,1,2.836-2.887h3.3v5.6Z" transform="translate(216.876 2354.183)"/><path class="a" d="M319.46,655.745c1.69-.536,2.042-1.2,2.042-2.784v-8.72h1.638v9.227a3.852,3.852,0,0,1-2.535,3.732Z" transform="translate(214.077 2352.724)"/><path class="a" d="M327.7,652.4V639.54h1.668v11.945Z" transform="translate(211.89 2353.971)"/><path class="a" d="M334.026,639.739a.985.985,0,1,1,1.969,0,.985.985,0,1,1-1.969,0m-1.866,14.546c1.69-.536,2.042-1.2,2.042-2.784v-8.72h1.638v9.227a3.852,3.852,0,0,1-2.535,3.732Z" transform="translate(210.707 2354.183)"/><path class="a" d="M344.871,645.878h-1.638c-.867,0-1.175.382-1.175,1.249v2.711c0,1.124.514,1.256,1.535,1.256h1.278Zm-3.681,9.844h.257c1.94,0,3.423-.588,3.423-2.483v-.514h-1.411c-1.815,0-3.071-.867-3.071-2.887v-2.711a2.66,2.66,0,0,1,2.887-2.887h3.247v8.691c0,2.711-1.175,4.063-4.246,4.268Z" transform="translate(208.523 2352.724)"/><path class="a" d="M206.277,666.519a1,1,0,1,1,2,0,1,1,0,1,1-2,0m1.124,4.68h-1.638c-.691,0-1.175.257-1.175,1.2v2.784c0,.742.206,1.227,1.278,1.227H207.4Zm-3.659-4.68a1.01,1.01,0,0,1,2.02,0,1.01,1.01,0,1,1-2.02,0m3.659,11.534v-1.073l-.793,1.073h-.617c-2.042,0-3.071-1.073-3.071-2.887v-2.711a2.683,2.683,0,0,1,2.887-2.887h3.247v6.854h1v1.638H207.4Z" transform="translate(245 2347.077)"/><rect class="a" width="2.762" height="1.638" transform="translate(454.958 3023.492)"/><path class="a" d="M219.1,682.988a.985.985,0,1,1,1.969,0,.985.985,0,1,1-1.969,0m-1.535,1a.982.982,0,0,1-1-1,1,1,0,0,1,1-1,1.02,1.02,0,0,1,1,1,1,1,0,0,1-1,1m-1.484-4.474v-1.638h1.991c.815,0,1.2-.382,1.2-1.124v-5.73h1.638v5.649a2.663,2.663,0,0,1-2.968,2.836H216.08Z" transform="translate(241.508 2345.618)"/><path class="a" d="M230.331,672.658h-1.638c-.867,0-1.175.382-1.175,1.256v2.711c0,1.124.514,1.256,1.535,1.256h1.278Zm-3.681,9.844h.257c1.947,0,3.423-.588,3.423-2.483v-.514h-1.411c-1.815,0-3.071-.867-3.071-2.887v-2.711a2.66,2.66,0,0,1,2.887-2.887h3.247v8.691c0,2.711-1.175,4.063-4.246,4.268Z" transform="translate(238.916 2345.618)"/><path class="a" d="M236.4,682.535c1.69-.536,2.042-1.2,2.042-2.784v-8.72h1.638v6.854H241.1v1.638h-1.021v.742A3.855,3.855,0,0,1,237.553,684Z" transform="translate(236.116 2345.615)"/><rect class="a" width="2.762" height="1.638" transform="translate(477.093 3023.492)"/><path class="a" d="M251.426,666.519a1.039,1.039,0,0,1,1.021-1,1.02,1.02,0,0,1,1,1,1.039,1.039,0,0,1-1,1.021,1.059,1.059,0,0,1-1.021-1.021m1.153,4.68h-1.638c-.691,0-1.175.257-1.175,1.256v3.967h2.814Zm-3.659-4.68a1.024,1.024,0,0,1,1.021-1,.994.994,0,0,1,.97,1,1.014,1.014,0,0,1-.97,1.021,1.038,1.038,0,0,1-1.021-1.021m-2.711,11.534v-1.638h1.9v-3.967a2.643,2.643,0,0,1,2.836-2.887h3.3v6.854h1v1.638Z" transform="translate(233.513 2347.077)"/><path class="a" d="M258.36,678.265v-1.638H259c.9,0,1.308-.279,1.308-1.256V666.32h1.638V675.5a2.554,2.554,0,0,1-2.887,2.762h-.7Z" transform="translate(230.289 2346.865)"/><path class="a" d="M266.47,679.186V666.33h1.66v11.938Z" transform="translate(228.137 2346.862)"/><path class="a" d="M276.4,672.658h-1.638c-.867,0-1.175.382-1.175,1.256v2.711c0,1.124.514,1.256,1.535,1.256H276.4Zm-3.681,9.844h.257c1.939,0,3.423-.588,3.423-2.483v-.514h-1.411c-1.815,0-3.071-.867-3.071-2.887v-2.711a2.66,2.66,0,0,1,2.887-2.887h3.247v8.691c0,2.711-1.175,4.063-4.246,4.268Z" transform="translate(226.691 2345.618)"/><path class="a" d="M291.21,666.519a1,1,0,1,1,2,0,1,1,0,1,1-2,0m1.124,4.68H290.7c-.691,0-1.175.257-1.175,1.2v2.784c0,.742.206,1.227,1.278,1.227h1.535V671.2Zm-3.651-4.68a1.01,1.01,0,0,1,2.02,0,1.01,1.01,0,1,1-2.02,0m3.651,11.534v-1.073l-.793,1.073h-.61c-2.042,0-3.071-1.073-3.071-2.887v-2.711a2.683,2.683,0,0,1,2.887-2.887h3.247v6.854h1v1.638h-2.659Z" transform="translate(222.461 2347.077)"/><rect class="a" width="2.608" height="1.638" transform="translate(517.352 3023.492)"/><path class="a" d="M303.822,682.988a.985.985,0,1,1,1.969,0,.976.976,0,0,1-.97,1,.986.986,0,0,1-1-1m-1.528,1a.982.982,0,0,1-1-1,1,1,0,0,1,1-1,1.02,1.02,0,0,1,1,1,1,1,0,0,1-1,1m-1.484-4.474v-1.638H302.8c.815,0,1.2-.382,1.2-1.124v-5.73h1.638v5.649a2.663,2.663,0,0,1-2.968,2.836H300.81Z" transform="translate(219.025 2345.618)"/><path class="a" d="M310.58,679.513v-1.638h4.937v-2.762a2.171,2.171,0,0,0-2.4-2.454h-1.1V671.02h1.2a3.765,3.765,0,0,1,3.908,3.916v2.939h1.021v1.638Z" transform="translate(216.433 2345.618)"/><rect class="a" width="2.762" height="1.638" transform="translate(534.455 3023.492)"/><path class="a" d="M324.29,678.268V676.63h1.947v-10.3h1.609v10.3h1.021v1.638Z" transform="translate(212.795 2346.862)"/><path class="a" d="M333.4,682.988a.985.985,0,1,1,1.969,0,.985.985,0,1,1-1.969,0m-3.019-3.475v-1.638h3.2V671.02h1.638v6.854h1.021v1.638Z" transform="translate(211.179 2345.618)"/><path class="a" d="M338.18,678.265v-1.638h.639c.9,0,1.3-.279,1.3-1.256V666.32h1.638V675.5a2.554,2.554,0,0,1-2.887,2.762h-.691Z" transform="translate(209.109 2346.865)"/><path class="a" d="M346.28,679.186V666.33h1.668v11.938Z" transform="translate(206.96 2346.862)"/><path class="a" d="M207.183,700v-4.048L205.912,700h-.845l-1.278-4.048V700h-.669V695.13h1.058l1.308,4.268,1.315-4.268h1.043V700Z" transform="translate(244.947 2339.22)"/><path class="a" d="M211.994,699.889a1.192,1.192,0,0,1-.573.118.517.517,0,0,1-.566-.514v-3h.7v2.843c0,.117.051.191.169.191a.546.546,0,0,0,.176-.022Zm-.786-4.085a.437.437,0,1,1,0-.874.437.437,0,1,1,0,.874" transform="translate(242.92 2339.273)"/><path class="a" d="M216.549,700.428a1.2,1.2,0,0,1-.566.117.516.516,0,0,1-.573-.514V698.15c0-.448-.118-.551-.441-.551a2.006,2.006,0,0,0-1.131.5v2.388h-.7v-3.467h.7v.463a2.082,2.082,0,0,1,1.234-.522c.646,0,1.036.154,1.036,1.124v1.778c0,.117.051.191.169.191a.569.569,0,0,0,.184-.022Z" transform="translate(242.288 2338.735)"/><path class="a" d="M219.6,699.889a1.192,1.192,0,0,1-.573.118.517.517,0,0,1-.566-.514v-3h.7v2.843c0,.117.051.191.169.191a.546.546,0,0,0,.176-.022Zm-.779-4.085a.437.437,0,1,1,0-.874.437.437,0,1,1,0,.874" transform="translate(240.9 2339.273)"/><path class="a" d="M220.747,699.781a2.779,2.779,0,0,0,.911.206c.5,0,.838-.1.838-.5,0-.639-1.8-.478-1.8-1.565,0-.749.72-.963,1.366-.963a2.483,2.483,0,0,1,.984.176l-.118.566a2.075,2.075,0,0,0-.845-.191c-.47,0-.7.1-.7.367,0,.566,1.8.4,1.8,1.609,0,.647-.617,1.051-1.4,1.051a3.758,3.758,0,0,1-1.19-.154Z" transform="translate(240.309 2338.735)"/><path class="a" d="M226.672,700.01a1.97,1.97,0,0,1-.771.132c-.478,0-.72-.206-.72-.889v-2.079h-.551l.118-.551h.441V695.7l.691-.228v1.161h.72v.551h-.72v2c0,.353.1.4.353.4a1.126,1.126,0,0,0,.345-.081Z" transform="translate(239.239 2339.13)"/><path class="a" d="M228.23,700.484v-3.468h.7v.448a.778.778,0,0,1,.646-.514,1.317,1.317,0,0,1,.646.191l-.125.573a1.621,1.621,0,0,0-.573-.1c-.3,0-.522.323-.6.463v2.41h-.7Z" transform="translate(238.284 2338.737)"/><path class="a" d="M231.2,697.05h.742l.9,2.483.749-2.483h.749l-1.242,3.592c-.353,1.036-.7,1.308-1.315,1.308a2,2,0,0,1-.72-.125l.132-.588a1.62,1.62,0,0,0,.573.1c.191,0,.463,0,.742-.911Z" transform="translate(237.533 2338.71)"/><path class="a" d="M240.54,698.767c0-1.073-.4-1.271-.948-1.271s-.94.2-.94,1.271.389,1.242.94,1.242.948-.176.948-1.242m-2.63,0c0-1.433.793-1.807,1.682-1.807s1.682.375,1.682,1.807-.793,1.778-1.682,1.778-1.682-.338-1.682-1.778" transform="translate(235.716 2338.735)"/><path class="a" d="M243.641,699.926V697.01h-.551l.11-.551h.441v-.492c0-.617.1-1.117.962-1.117a1.876,1.876,0,0,1,.72.118l-.125.573a1.805,1.805,0,0,0-.47-.081c-.3,0-.4.073-.4.419v.588h.749v.551h-.749v2.917h-.691Z" transform="translate(234.341 2339.294)"/><path class="a" d="M252.623,700v-4.048L251.352,700H250.5l-1.271-4.048V700h-.669V695.13h1.058l1.3,4.268,1.315-4.268h1.043V700Z" transform="translate(232.89 2339.22)"/><path class="a" d="M259.635,700.449a1.247,1.247,0,0,1-.551.118.507.507,0,0,1-.573-.514,1.9,1.9,0,0,1-1.168.514c-.646,0-1.043-.154-1.043-1.124v-2.395h.7v2.314c0,.478.125.566.441.566a1.635,1.635,0,0,0,1.073-.492V697.04h.691v2.843a.174.174,0,0,0,.176.191.634.634,0,0,0,.191-.022Z" transform="translate(230.836 2338.713)"/><path class="a" d="M264.929,700.428a1.2,1.2,0,0,1-.566.117.516.516,0,0,1-.573-.514V698.15c0-.448-.118-.551-.441-.551a2.006,2.006,0,0,0-1.131.5v2.388h-.7v-3.467h.7v.463a2.082,2.082,0,0,1,1.234-.522c.646,0,1.036.154,1.036,1.124v1.778c0,.117.051.191.169.191a.636.636,0,0,0,.191-.022Z" transform="translate(229.451 2338.735)"/><path class="a" d="M267.977,699.889a1.192,1.192,0,0,1-.573.118.517.517,0,0,1-.566-.514v-3h.7v2.843c0,.117.051.191.169.191a.546.546,0,0,0,.176-.022ZM267.2,695.8a.437.437,0,1,1,0-.874.437.437,0,1,1,0,.874" transform="translate(228.063 2339.273)"/><path class="a" d="M271.559,700.383a3.047,3.047,0,0,1-1.021.154,1.6,1.6,0,0,1-1.557-1.815,1.657,1.657,0,0,1,1.66-1.763,2.955,2.955,0,0,1,1.087.176l-.118.588a2.6,2.6,0,0,0-.874-.169c-.926,0-1.014.742-1.014,1.212,0,.918.478,1.183,1.117,1.183a3.128,3.128,0,0,0,.845-.147Z" transform="translate(227.471 2338.735)"/><path class="a" d="M274.714,699.889a1.192,1.192,0,0,1-.573.118.517.517,0,0,1-.566-.514v-3h.7v2.843c0,.117.051.191.169.191a.547.547,0,0,0,.176-.022Zm-.786-4.085a.437.437,0,1,1,0-.874.437.437,0,0,1,.441.441.431.431,0,0,1-.441.433" transform="translate(226.277 2339.273)"/><path class="a" d="M276.568,699.644a1.315,1.315,0,0,0,.815.323c.632,0,.97-.25.97-1.19,0-.823-.206-1.2-.852-1.2a.9.9,0,0,0-.933.9Zm-.7,2.226v-4.841h.7v.463a1.365,1.365,0,0,1,1.146-.522c.661,0,1.359.4,1.359,1.785,0,1.006-.463,1.793-1.535,1.793a1.662,1.662,0,0,1-.97-.279v1.609h-.7Z" transform="translate(225.643 2338.732)"/><path class="a" d="M283.211,698.873c-.118-.007-.353-.029-.5-.029-.566,0-.874.147-.874.617,0,.492.441.514.617.514a.746.746,0,0,0,.764-.749v-.353Zm1.131,1.557a1.173,1.173,0,0,1-.551.118c-.514,0-.573-.367-.573-.5a1.017,1.017,0,0,1-1,.5c-.749,0-1.109-.389-1.109-1.014,0-.911.742-1.19,1.543-1.19a4.643,4.643,0,0,1,.566.044v-.323c0-.492-.419-.522-.838-.522a2.835,2.835,0,0,0-1.021.191l.118-.573a3.32,3.32,0,0,1,1.109-.191c.889,0,1.322.257,1.322,1.286v1.616c0,.125.051.191.176.191a.487.487,0,0,0,.176-.022Z" transform="translate(224.253 2338.732)"/><path class="a" d="M287.359,699.942a1.16,1.16,0,0,1-.566.117.522.522,0,0,1-.573-.514V695.13h.7v4.246c0,.118.051.191.169.191a.636.636,0,0,0,.191-.022Z" transform="translate(222.897 2339.22)"/><path class="a" d="M291.391,697.709a.863.863,0,0,0-.544.933c0,.646.463.8.889.8a1.27,1.27,0,0,0,.867-.353c-.375-.389-.859-.955-1.212-1.381m2.953,2.285a1.72,1.72,0,0,1-.463.051,1.228,1.228,0,0,1-.86-.522,1.788,1.788,0,0,1-1.322.522c-.874,0-1.579-.375-1.579-1.322a1.448,1.448,0,0,1,.94-1.484,2.033,2.033,0,0,1-.419-1.124,1.091,1.091,0,0,1,1.19-1.095,2.714,2.714,0,0,1,1.146.22l-.118.624a2.212,2.212,0,0,0-.926-.206c-.367,0-.588.1-.588.47,0,.551.389,1.021,1.638,2.388a2.836,2.836,0,0,0,.22-1.418h1.271l-.1.6H293.8a2.789,2.789,0,0,1-.353,1.322c.257.316.389.419.647.419a1.263,1.263,0,0,0,.345-.051Z" transform="translate(221.862 2339.249)"/><path class="a" d="M300.682,697.566c.353,0,.764-.176.764-.889,0-.551-.3-.918-.764-.918h-.97v1.807Zm.86,2.432-.94-1.793h-.889V700h-.742V695.12h1.557c1.19,0,1.682.617,1.682,1.543a1.418,1.418,0,0,1-.867,1.411l1.036,1.917h-.838Z" transform="translate(219.513 2339.223)"/><path class="a" d="M307.905,700.449a1.247,1.247,0,0,1-.551.118.507.507,0,0,1-.573-.514,1.9,1.9,0,0,1-1.168.514c-.647,0-1.043-.154-1.043-1.124v-2.395h.7v2.314c0,.478.125.566.441.566a1.635,1.635,0,0,0,1.073-.492V697.04h.691v2.843a.174.174,0,0,0,.176.191.568.568,0,0,0,.184-.022Z" transform="translate(218.027 2338.713)"/><path class="a" d="M309.79,700.484v-3.468h.7v.448a.761.761,0,0,1,.646-.514,1.293,1.293,0,0,1,.647.191l-.125.573a1.591,1.591,0,0,0-.573-.1c-.3,0-.522.323-.6.463v2.41h-.7Z" transform="translate(216.642 2338.737)"/><path class="a" d="M315.168,698.873c-.118-.007-.353-.029-.5-.029-.566,0-.874.147-.874.617,0,.492.441.514.617.514a.746.746,0,0,0,.764-.749v-.353Zm1.131,1.557a1.173,1.173,0,0,1-.551.118c-.514,0-.573-.367-.573-.5a1.022,1.022,0,0,1-1.006.5c-.749,0-1.109-.389-1.109-1.014,0-.911.742-1.19,1.543-1.19a4.644,4.644,0,0,1,.566.044v-.323c0-.492-.419-.522-.838-.522a2.835,2.835,0,0,0-1.021.191l.118-.573a3.319,3.319,0,0,1,1.109-.191c.889,0,1.322.257,1.322,1.286v1.616c0,.125.051.191.176.191a.507.507,0,0,0,.176-.022Z" transform="translate(215.775 2338.732)"/><path class="a" d="M319.319,699.942a1.161,1.161,0,0,1-.566.117.522.522,0,0,1-.573-.514V695.13h.7v4.246c0,.118.051.191.169.191a.636.636,0,0,0,.191-.022Z" transform="translate(214.416 2339.22)"/><path class="a" d="M323.85,696.068l-.713,2.189h1.4Zm1.242,3.93-.353-1.131h-1.793L322.593,700H321.8l1.653-4.878h.8L325.907,700Z" transform="translate(213.456 2339.223)"/><path class="a" d="M330.643,699.926V697.01h-.551l.118-.551h.441v-.492c0-.617.1-1.117.962-1.117a1.876,1.876,0,0,1,.72.118l-.125.573a1.805,1.805,0,0,0-.47-.081c-.3,0-.4.073-.4.419v.588h.749v.551h-.749v2.917h-.7Zm-2.4,0V697.01h-.551l.118-.551h.441v-.492c0-.617.1-1.117.962-1.117a1.876,1.876,0,0,1,.72.118l-.125.573a1.805,1.805,0,0,0-.47-.081c-.3,0-.4.073-.4.419v.588h.749v.551h-.749v2.917h-.7Z" transform="translate(211.893 2339.294)"/><path class="a" d="M336.441,698.873c-.118-.007-.353-.029-.5-.029-.566,0-.874.147-.874.617,0,.492.441.514.617.514a.746.746,0,0,0,.764-.749v-.353Zm1.131,1.557a1.173,1.173,0,0,1-.551.118c-.514,0-.573-.367-.573-.5a1.017,1.017,0,0,1-1,.5c-.749,0-1.109-.389-1.109-1.014,0-.911.742-1.19,1.543-1.19a4.644,4.644,0,0,1,.566.044v-.323c0-.492-.419-.522-.838-.522a2.835,2.835,0,0,0-1.021.191l.118-.573a3.32,3.32,0,0,1,1.109-.191c.889,0,1.33.257,1.33,1.286v1.616c0,.125.051.191.176.191a.507.507,0,0,0,.176-.022Z" transform="translate(210.128 2338.732)"/><path class="a" d="M340.554,699.889a1.192,1.192,0,0,1-.573.118.517.517,0,0,1-.566-.514v-3h.7v2.843c0,.117.051.191.169.191a.546.546,0,0,0,.176-.022Zm-.786-4.085a.437.437,0,1,1,0-.874.437.437,0,1,1,0,.874" transform="translate(208.807 2339.273)"/><path class="a" d="M341.71,700.484v-3.468h.7v.448a.761.761,0,0,1,.646-.514,1.293,1.293,0,0,1,.646.191l-.125.573a1.591,1.591,0,0,0-.573-.1c-.3,0-.522.323-.6.463v2.41h-.7Z" transform="translate(208.173 2338.737)"/><path class="a" d="M345.192,699.781a2.779,2.779,0,0,0,.911.206c.5,0,.838-.1.838-.5,0-.639-1.8-.478-1.8-1.565,0-.749.72-.963,1.366-.963a2.416,2.416,0,0,1,.977.176l-.118.566a2.075,2.075,0,0,0-.845-.191c-.47,0-.7.1-.7.367,0,.566,1.793.4,1.793,1.609,0,.647-.617,1.051-1.4,1.051a3.791,3.791,0,0,1-1.19-.154Z" transform="translate(207.292 2338.735)"/><path class="a" d="M394.757,690.153a27.2,27.2,0,0,1-27.167-27.167l.213-3.754h4.261v-5.7h.47v-.911h2.035l.588.977h1.058v7.266h.838v1.021h.309v-5.833h3.423v1.5h1.139v2.806h1.9v-2.718h2.564l.918,1.161v3.086h5.245v.786h-6.031v-3.6l-.514-.646h-1.389v3.659h-1.065v-.933h-2.417v-2.806H380v-1.5h-1.851v5.841h-1.881v-1.021h-.845V654.4h-.713l-.588-.977h-.8v.918h-.47v5.694h-4.305l-.169,2.99a26.382,26.382,0,0,0,52.763.1h-2.7v-4.636h-1.594V656.1H414.99v-1.021h-2.277v.713l-.455.514v4.3H409.95v-3.2l-.58-.654h-1.278v-1.08h-1.455v7.016h-2.358v-2.6h-2.094v2.6h-5.532v-.786H401.4v-2.6h3.666v2.6h.786V654.89h3.027v1.08h.845l1.014,1.139v2.711h.735v-3.813l.456-.507v-1.2h3.85v1.021h1.859v2.38h1.594v4.636h2.7v.7a27.18,27.18,0,0,1-27.167,27.123" transform="translate(201.305 2350.5)"/><path class="a" d="M385.666,683.95a1.327,1.327,0,0,0-.646.169,1.366,1.366,0,0,0-.411,1.771,1.224,1.224,0,0,0,.852.588c.11.007.257.015.4.015a7.369,7.369,0,0,0,4.349-2l.235-.184.154.257a3.862,3.862,0,0,0,2.564,1.807,2.146,2.146,0,0,0,.228.007,1.606,1.606,0,0,0,1.7-1.124,1.436,1.436,0,0,0-.771-1.44,1.755,1.755,0,0,0-1.308.11c-.125.051-.184.228-.242.478s-.162.661-.566.661a1.227,1.227,0,0,1-.94-.573.5.5,0,0,1,.015-.544A14.188,14.188,0,0,1,394.3,680.9c.492-.4,1-.815,1.477-1.264l.176-.169.176.169c.463.433.97.83,1.469,1.219a10.46,10.46,0,0,1,3.042,3.2.339.339,0,0,1,.015.323,1.36,1.36,0,0,1-.918.683.418.418,0,0,1-.4-.1.589.589,0,0,1-.118-.448.639.639,0,0,0-.029-.279c-.169-.323-.485-.4-.86-.5a1.33,1.33,0,0,0-1.513,1.029,1.139,1.139,0,0,0,.169.9,1.751,1.751,0,0,0,1.418.72,3.982,3.982,0,0,0,2.909-1.829l.154-.242.228.184a7.157,7.157,0,0,0,4.063,1.917,3.037,3.037,0,0,0,1.146-.228,1,1,0,0,0,.551-.676,1.116,1.116,0,0,0-.162-.962,1.358,1.358,0,0,0-2.211-.007l-.118.176-.2-.073a4.021,4.021,0,0,1-2.167-1.535,1.045,1.045,0,0,1,.051-.984c.147-.279.323-.338.441-.338a.4.4,0,0,1,.162.037,2.045,2.045,0,0,0,1.095.353,1.244,1.244,0,0,0,1.271-.992,1.123,1.123,0,0,0-.191-.926,1.439,1.439,0,0,0-.838-.58,1.615,1.615,0,0,0-.213-.015,2.057,2.057,0,0,0-1.55.735,2.938,2.938,0,0,0-.478,1.029,3.669,3.669,0,0,1-.419.977l-.169.257-4.694-4.357.2-.191c5.084-4.885,11.887-6.612,17.455-7.119-.713-.059-1.433-.088-2.145-.088a24.754,24.754,0,0,0-16.375,5.973l-.162.14-.169-.125a29.207,29.207,0,0,0-8.948-4.827,26.876,26.876,0,0,0-9.83-1.065c5.576.5,12.4,2.226,17.492,7.119l.2.191-4.694,4.357-.169-.257a3.921,3.921,0,0,1-.419-.977,2.878,2.878,0,0,0-.477-1.029,3.316,3.316,0,0,0-1.2-.727,1.3,1.3,0,0,0-1.594,1.021,1.432,1.432,0,0,0,.771,1.433,1.141,1.141,0,0,0,.309.037,2.845,2.845,0,0,0,1.036-.287l.169-.066a.435.435,0,0,1,.154-.029.638.638,0,0,1,.536.389.955.955,0,0,1,.029.94,4.01,4.01,0,0,1-2.153,1.521l-.191.073-.118-.162a1.31,1.31,0,0,0-1.1-.6m.191,3.078q-.242,0-.485-.022a1.718,1.718,0,0,1-1.219-.852,1.8,1.8,0,0,1,2.953-2.057,3.334,3.334,0,0,0,1.719-1.234.369.369,0,0,0,.007-.279.536.536,0,0,0-.132-.242l-.118.051a3.226,3.226,0,0,1-1.234.323,1.665,1.665,0,0,1-.507-.081,1.972,1.972,0,0,1-1.087-2.013,1.82,1.82,0,0,1,1.793-1.484,1.968,1.968,0,0,1,.455.051l.044.015a3.842,3.842,0,0,1,1.411.867,3.327,3.327,0,0,1,.6,1.227,5.644,5.644,0,0,0,.206.566l3.813-3.534c-5.8-5.436-13.856-6.781-19.615-6.943l-2.366-.066,2.322-.455a26.913,26.913,0,0,1,12.7.713,29.383,29.383,0,0,1,8.941,4.79,25.307,25.307,0,0,1,16.559-5.958,26.772,26.772,0,0,1,4.915.456l2.388.448-2.432.066c-5.76.162-13.8,1.506-19.615,6.943l3.813,3.541a5.652,5.652,0,0,0,.206-.566,3.317,3.317,0,0,1,.58-1.2,2.588,2.588,0,0,1,2.27-.9,1.993,1.993,0,0,1,1.168.793,1.637,1.637,0,0,1,.264,1.352,1.769,1.769,0,0,1-1.778,1.388,2.445,2.445,0,0,1-1.227-.345.623.623,0,0,0-.074.47,3.309,3.309,0,0,0,1.719,1.249,1.857,1.857,0,0,1,1.411-.632,1.826,1.826,0,0,1,1.535.8,1.654,1.654,0,0,1,.235,1.4,1.526,1.526,0,0,1-.852,1.014,3.393,3.393,0,0,1-1.352.272,7.254,7.254,0,0,1-4.173-1.859,4.389,4.389,0,0,1-3.188,1.837,2.277,2.277,0,0,1-1.844-.94,1.689,1.689,0,0,1-.25-1.337A1.9,1.9,0,0,1,398.1,683.2a1.369,1.369,0,0,1,.382.051,1.568,1.568,0,0,1,1.183.749.9.9,0,0,1,.1.558v.007a1.021,1.021,0,0,0,.4-.3A9.992,9.992,0,0,0,397.3,681.3c-.441-.345-.9-.705-1.322-1.087-.433.4-.889.764-1.322,1.117a13.333,13.333,0,0,0-2.924,2.931.763.763,0,0,0,.47.3,1.526,1.526,0,0,0,.081-.257,1.066,1.066,0,0,1,.558-.838,2.194,2.194,0,0,1,1.719-.1,1.984,1.984,0,0,1,1.073,2.006,2.2,2.2,0,0,1-2.52,1.543,4.367,4.367,0,0,1-2.777-1.807,7.783,7.783,0,0,1-4.474,1.917" transform="translate(200.111 2345.779)"/><path class="a" d="M410.647,642.786l.654.485-.47-.669c-3.041-4.349-6.45-4.474-7.53-4.386a3.147,3.147,0,0,1,1.131-.786l.382-.147-.389-.11a3.114,3.114,0,0,0-2.946.4,4.082,4.082,0,0,0-.757-1.873.184.184,0,0,0-.162-.037c-.264.059-.72.749-.933,1.91a2.774,2.774,0,0,0-2.858-.323l-.294.147.309.1a2.168,2.168,0,0,1,1.036.786c-4.437.11-6.054,2.277-7.354,4.033-.1.132-.191.257-.286.382l.2.176a7.523,7.523,0,0,1,5.973-1.91c-1.616.639-4.724,2.549-5.782,7.89l-.14.7.382-.6c1.778-2.814,3.512-4.511,5.569-5.451-1.33,2.02-3.166,5.517-2.454,8.647l.132.58.125-.58a14.512,14.512,0,0,1,3.7-6.832,14.889,14.889,0,0,0-.1,8.089L398,654l.037-.632a26.993,26.993,0,0,1,1.55-7.369l.4,2.821-.257.073.184,3.879H399.6l.294,3.982-.353.081.015.117c0,.022.257,2.505.345,3.9a5.327,5.327,0,0,0-1.08.874v.264H402.3v-.235l.015-.029a3.522,3.522,0,0,0-1.065-.83l.375-4.166-.367.029.264-4.085-.264.037.184-3.872h-.3c.059-.345.2-1.271.345-2.858.757,1.278,1.4,3.938,1.756,7.273l.1.984.162-.977a20.731,20.731,0,0,0-.242-8.191,20.662,20.662,0,0,1,3.776,7.082l.206.764.059-.786a11.706,11.706,0,0,0-2.659-8.72,8.024,8.024,0,0,1,3.064,2.094,15.736,15.736,0,0,1,2.615,3.394l.316.6-.066-.676a10.009,10.009,0,0,0-5.723-7.927c1.984-.353,4.893,1.22,5.8,1.888" transform="translate(195.311 2355)"/></g></svg>