<svg xmlns="http://www.w3.org/2000/svg" width="106.632" height="102.412" viewBox="0 0 106.632 102.412"><defs><style>.a,.b{fill:none;stroke-miterlimit:10;stroke-width:0.9px;}.a{stroke:#81bd41;}.b{stroke:#9aca67;}.c{fill:#81bd41;}.d{fill:#b3d78d;}.e{fill:#fff;}</style></defs><g transform="translate(-1601.694 -1370.524)"><path class="a" d="M112.206,39.95A52.988,52.988,0,0,1,59.35,93.057" transform="translate(1595.671 1379.429)"/><path class="b" d="M86.966,93.057A52.974,52.974,0,0,1,34.11,39.95" transform="translate(1568.034 1379.429)"/><path class="c" d="M133.749,65.484A48.865,48.865,0,1,1,84.874,16.63a48.875,48.875,0,0,1,48.875,48.854" transform="translate(1569.625 1353.894)"/><path class="d" d="M84.885,114.359a48.865,48.865,0,1,1,0-97.729" transform="translate(1570.115 1353.895)"/><g transform="translate(1599.2 1395.524)"><path class="e" d="M149.782,24a12,12,0,1,1,12-12A12.014,12.014,0,0,1,149.782,24Zm0-21a9,9,0,1,0,9,9,9.01,9.01,0,0,0-9-9Z" transform="translate(-94.337)"/><path class="e" d="M74.945,332.077h-39a1.5,1.5,0,0,1-1.5-1.5V320.251a4.5,4.5,0,0,1,2.067-3.8,36.648,36.648,0,0,1,37.865,0,4.5,4.5,0,0,1,2.068,3.8v10.326A1.5,1.5,0,0,1,74.945,332.077Zm-37.5-3h36v-8.826a1.48,1.48,0,0,0-.658-1.26,33.587,33.587,0,0,0-34.686,0,1.477,1.477,0,0,0-.656,1.258Z" transform="translate(0 -284.077)"/></g></g></svg>