<svg xmlns="http://www.w3.org/2000/svg" width="48" height="43.731" viewBox="0 0 48 43.731"><defs><style>.a{fill:#fff;}</style></defs><path class="a" d="M309.321,226.1a2.348,2.348,0,0,0-3.347-.213l-31.071,27.2a2.3,2.3,0,0,0-.76,1.306l-2.492,11.749a2.459,2.459,0,0,0,.523,2.042,2.4,2.4,0,0,0,1.8.831h.142l12.2-.689a2.322,2.322,0,0,0,1.424-.593l31.048-27.2a2.369,2.369,0,0,0,.807-1.638,2.265,2.265,0,0,0-.594-1.71ZM285.2,263.629l-8.283.474,1.684-7.976,28.674-25.113,6.575,7.5Zm0,0" transform="translate(-271.606 -225.286)"/></svg>