<svg xmlns="http://www.w3.org/2000/svg" viewBox="0 0 170 72" width="300" height="127">
	<style>
		tspan { white-space:pre }
		.shp0 { fill: #ffffff } 
	</style>
	<path id="Path_2849" fill-rule="evenodd" class="shp0" d="M169.3 33.6C170.6 53.5 155.6 70.7 135.7 72L136.2 60L135 60L135.9 47.9L134.7 47.9L135.4 38.9L135.5 38.9L135.6 39C138.9 43.5 140.5 58.2 140.9 61.9C140.9 61.9 140.9 62 141 62C141.1 62 141.2 62 141.2 61.9C143.3 52 141.4 39.5 141 36.9L141.1 36.8C141.2 36.7 141.3 36.7 141.3 36.8C147.5 43.6 151.3 54.8 152.2 57.6C152.2 57.7 152.2 57.7 152.3 57.7C152.4 57.7 152.5 57.7 152.5 57.6C153.8 42.8 147.3 33.9 145.7 31.9L145.7 31.8C145.7 31.7 145.8 31.7 145.9 31.7C154.3 35.2 160.5 45.1 162 47.8C162.1 47.9 162.1 47.9 162.2 47.9C162.3 47.9 162.3 47.8 162.3 47.7C159.8 30.9 149 25 146.6 23.9C146.5 23.9 146.5 23.8 146.5 23.8C146.5 23.7 146.5 23.6 146.6 23.6C153.3 23 161.1 28 163.2 29.5C163.3 29.5 163.4 29.5 163.4 29.5C163.4 29.5 163.4 29.4 163.4 29.3C154.7 15.8 143.5 15.5 141.5 15.6L141.4 15.6C141.4 15.5 141.4 15.5 141.4 15.4C142.4 14.4 143.5 13.7 144.8 13.2C144.9 13.2 144.9 13.1 144.9 13.1C144.9 13 144.9 12.9 144.8 12.9C139.5 11.1 136.4 13.2 135.7 13.7C135.6 13.7 135.5 13.7 135.5 13.6C134.3 9.7 133.4 8.5 133 8.1C132.6 8.5 131.7 9.7 130.6 13.6C130.6 13.7 130.5 13.7 130.4 13.7C129.7 13.2 126.6 11.2 121.3 13C121.2 13 121.2 13.1 121.2 13.2C121.2 13.2 121.2 13.3 121.3 13.3C122.6 13.8 123.7 14.5 124.7 15.5C124.7 15.6 124.7 15.6 124.7 15.7L124.6 15.7C122.6 15.6 111.4 16 102.8 29.6C102.8 29.7 102.8 29.8 102.9 29.8L103 29.8C105.1 28.3 112.8 23.2 119.5 23.8C119.6 23.8 119.6 23.9 119.6 23.9C119.6 24 119.6 24 119.5 24C117.1 25.1 106.4 31.1 104 47.9C104 48 104.1 48 104.1 48.1C104.2 48.1 104.2 48.1 104.2 48C105.7 45.3 111.8 35.3 120.2 31.8C120.3 31.8 120.4 31.8 120.4 31.9L120.4 32C118.8 34 112.4 43 113.8 57.8C113.8 57.9 113.9 57.9 114 57.9C114.1 57.9 114.1 57.9 114.1 57.8C115 54.9 118.7 43.7 124.8 36.9C124.9 36.8 124.9 36.8 125 36.9C125 36.9 125.1 37 125 37C124.6 39.6 122.8 52.2 125 62C125 62.1 125.1 62.1 125.2 62.1C125.3 62.1 125.3 62 125.3 62C125.6 58.3 127.2 43.5 130.5 39L130.6 38.9L130.7 38.9L131.5 47.9L130.2 47.9L131.2 60L130 60L130.7 71.9C110.8 70.6 95.8 53.5 97 33.7C98.3 14.8 114 0 133 0C152.1 -0.2 168 14.6 169.3 33.6ZM82.7 12.8L85.9 12.8L85.9 20.8C85.9 25.5 82.1 29.4 77.4 29.4L63.8 29.4L51.5 29.5L36.5 29.5L36.5 26.3C36.5 25.6 37.1 25 37.8 25L49.5 25L49.5 22.3C49.5 18.4 46.4 15.3 42.5 15.3L42.4 15.3C41.7 15.3 41.1 14.7 41.1 14L41.1 10.7L42.5 10.7C48.8 10.7 54 15.9 54 22.2L54 25L63.8 25L63.7 5.6C63.7 4.9 64.3 4.3 65 4.3L68.2 4.3L68.3 25L77.5 24.9C79.7 24.8 81.5 23 81.5 20.8L81.5 14.1C81.5 13.4 82.1 12.9 82.7 12.8ZM32.7 25.1C33.4 25.1 34 25.7 34 26.4L34 29.6L15.7 29.7L8.7 29.7C4 29.7 0.2 25.9 0.2 21.2L0.2 13.2L3.4 13.2C4.1 13.2 4.7 13.8 4.7 14.5L4.7 21.2C4.8 23.4 6.6 25.2 8.8 25.2L12.2 25.2L32.7 25.1ZM75 36.3C73.67 36.3 72.6 35.23 72.6 33.9C72.6 32.57 73.67 31.5 75 31.5C76.33 31.5 77.4 32.57 77.4 33.9C77.4 35.23 76.33 36.3 75 36.3ZM21 36.5C19.67 36.5 18.6 35.43 18.6 34.1C18.6 32.77 19.67 31.7 21 31.7C22.33 31.7 23.4 32.77 23.4 34.1C23.4 35.43 22.33 36.5 21 36.5ZM15.6 36.5C14.27 36.5 13.2 35.43 13.2 34.1C13.2 32.77 14.27 31.7 15.6 31.7C16.93 31.7 18 32.77 18 34.1C18 35.43 16.93 36.5 15.6 36.5ZM73.5 49.9C73.5 47.8 75.1 46.2 77.1 46.1L85.9 46.1L85.9 56.2C85.9 58.2 84.3 59.9 82.2 59.9L38.3 60.1L38.3 60.5C38.3 61.8 37.6 63.1 36.4 63.7L29.3 67.6L28.4 65.9C28.2 65.5 28.3 65.1 28.7 64.9L35.2 61.4C35.5 61.2 35.7 60.9 35.7 60.5L35.7 52C35.7 51.6 36 51.3 36.4 51.3L38.3 51.3L38.3 57.5L82.3 57.3C82.8 57.3 83.3 56.9 83.3 56.3L83.3 55.5L73.5 55.5L73.5 49.9ZM83.2 48.8L77.1 48.8C76.6 48.8 76.1 49.2 76.1 49.8L76.1 52.7L83.3 52.7L83.2 48.8ZM31.8 59.4C31.8 59.8 31.4 60.1 31 60.1L29.2 60.1L29.1 42.3C29.2 41.9 29.5 41.6 29.9 41.6L31.8 41.6L31.8 59.4ZM22.5 60.5L22.5 52C22.5 51.6 22.8 51.3 23.2 51.3L25.1 51.3L25.1 60.5C25.1 61.9 24.4 63.1 23.2 63.8L16.1 67.7L15.2 66C15 65.6 15.1 65.2 15.5 65L22 61.5C22.3 61.3 22.5 60.9 22.5 60.5ZM18.5 56.4C18.5 56.4 18.5 56.5 18.5 56.4C18.5 58.5 16.9 60.2 14.8 60.1L0 60.2L0 58.3C0 57.9 0.3 57.6 0.7 57.6L14.9 57.5C15.5 57.5 15.9 57 15.9 56.4L15.8 42.3C15.8 41.9 16.1 41.6 16.5 41.6L18.4 41.6L18.5 56.4ZM6.6 54.3C6.3 54.1 6.3 53.6 6.6 53.3L9 50.9L6.5 48.5C6.2 48.3 6.2 47.8 6.5 47.5L7.2 46.8L11.3 50.9L7.2 55L6.6 54.3ZM80.6 42.7C80.6 42 81.2 41.4 81.9 41.4C82.6 41.4 83.2 42 83.2 42.7C83.2 43.4 82.6 44 81.9 44C81.1 44 80.5 43.4 80.6 42.7ZM76.6 42.7C76.6 42 77.2 41.4 77.9 41.4C78.6 41.4 79.2 42 79.2 42.7C79.2 43.4 78.6 44 77.9 44C77.2 44 76.6 43.5 76.6 42.7Z" />
</svg>