<svg id="qarar-logo" xmlns="http://www.w3.org/2000/svg" width="169.479" height="72" viewBox="0 0 169.479 72">
  <path id="Path_2848" data-name="Path 2848" d="M265.313,0l.03,8.112c-.4.376-1.3,1.607-2.449,5.5a.144.144,0,0,1-.22.08c-.715-.541-3.849-2.538-9.068-.694a.14.14,0,0,0,0,.262,10.168,10.168,0,0,1,3.384,2.17.14.14,0,0,1-.114.228c-1.992-.059-13.222.271-21.816,13.911a.144.144,0,0,0,.2.19c2.115-1.51,9.809-6.552,16.546-6.031a.14.14,0,0,1,.051.266c-2.415,1.134-13.112,7.064-15.5,23.872a.144.144,0,0,0,.266.089c1.5-2.669,7.554-12.668,15.975-16.238a.14.14,0,0,1,.161.22c-1.628,2.013-8.036,11-6.594,25.775a.14.14,0,0,0,.271.025c.871-2.851,4.555-14.076,10.722-20.89a.14.14,0,0,1,.245.11c-.423,2.567-2.2,15.163.03,25.039a.144.144,0,0,0,.279-.021c.343-3.714,1.886-18.454,5.16-22.971a.148.148,0,0,1,.114-.059h.118l.757,9.022h-1.252l1.015,12.093h-1.176l.651,11.932A36.032,36.032,0,0,1,265.313,0Z" transform="translate(-132.341 0.003)" fill="#fff"/>
  <path id="Path_2849" data-name="Path 2849" d="M314.4,0l.03,8.112c.423.372,1.315,1.595,2.491,5.5a.144.144,0,0,0,.22.08c.711-.546,3.828-2.58,9.064-.761a.14.14,0,0,1,0,.262,10.122,10.122,0,0,0-3.363,2.191.14.14,0,0,0,.118.228c1.992-.072,13.222.169,21.918,13.746a.14.14,0,0,1-.2.19c-2.149-1.493-9.855-6.476-16.593-5.922a.14.14,0,0,0-.047.262C330.464,25,341.2,30.847,343.72,47.639a.14.14,0,0,1-.262.093c-1.523-2.656-7.656-12.613-16.1-16.119a.144.144,0,0,0-.161.224c1.645,2,8.138,10.921,6.793,25.72a.14.14,0,0,1-.271.03c-.876-2.842-4.653-14.025-10.874-20.793a.135.135,0,0,0-.241.114c.423,2.559,2.314,15.142.161,25.035a.144.144,0,0,1-.279-.021c-.368-3.705-2.03-18.433-5.338-22.929a.144.144,0,0,0-.114-.055h-.118l-.685,9.026h1.239l-.922,12.088h1.176l-.563,11.94A36.037,36.037,0,0,0,314.4,0Z" transform="translate(-181.42 0.007)" fill="#fff"/>
  <path id="Path_2850" data-name="Path 2850" d="M131.394,19.971l.025,6.734a4.039,4.039,0,0,1-4.027,4.056l-9.187.051-.08-20.662H114.9a1.269,1.269,0,0,0-1.269,1.269l.089,19.393-9.787.038V28.067A11.488,11.488,0,0,0,92.4,16.617H91v3.231a1.269,1.269,0,0,0,1.269,1.269h.123A7,7,0,0,1,99.427,28.1v2.783l-11.708.042a1.269,1.269,0,0,0-1.269,1.269v3.227l12.964-.047h2.039l12.3-.068H116l11.42-.047a8.531,8.531,0,0,0,8.5-8.565l-.03-7.986h-3.231A1.269,1.269,0,0,0,131.394,19.971Z" transform="translate(-49.885 -5.854)" fill="#fff"/>
  <path id="Path_2851" data-name="Path 2851" d="M32.952,43.052l-20.463.08H9.016a4.048,4.048,0,0,1-4.065-4.01l-.025-6.7A1.269,1.269,0,0,0,3.657,31.15H.43l.038,7.973a8.527,8.527,0,0,0,8.565,8.506h7.03l18.162-.072V44.33a1.269,1.269,0,0,0-1.273-1.277Z" transform="translate(-0.248 -17.972)" fill="#fff"/>
  <circle id="Ellipse_24" data-name="Ellipse 24" cx="2.449" cy="2.449" r="2.449" transform="translate(72.51 31.451) rotate(-0.22)" fill="#fff"/>
  <circle id="Ellipse_25" data-name="Ellipse 25" cx="2.449" cy="2.449" r="2.449" transform="translate(17.932 35.793) rotate(-74.28)" fill="#fff"/>
  <circle id="Ellipse_26" data-name="Ellipse 26" cx="2.442" cy="2.442" r="2.442" transform="translate(12.539 35.817) rotate(-74.291)" fill="#fff"/>
  <path id="Path_2852" data-name="Path 2852" d="M112.116,112.792l.021,5.558,9.842-.038v.8a1.041,1.041,0,0,1-1.04,1.049l-43.95.178-.025-6.171H75.039a.736.736,0,0,0-.736.74l.03,8.5a1.045,1.045,0,0,1-.541.922l-6.467,3.536a.74.74,0,0,0-.3,1l.926,1.692,7.114-3.891A3.722,3.722,0,0,0,77,123.433v-.423l43.95-.178a3.714,3.714,0,0,0,3.7-3.726l-.038-10.067-8.8.034a3.714,3.714,0,0,0-3.7,3.718Zm9.834,2.855-7.19.025v-2.889a1.045,1.045,0,0,1,1.04-1.049l6.133-.025Z" transform="translate(-38.626 -62.917)" fill="#fff"/>
  <path id="Path_2853" data-name="Path 2853" d="M71.382,116.063,71.336,98.24H69.407a.736.736,0,0,0-.757.744l.068,17.828h1.929a.74.74,0,0,0,.736-.749Z" transform="translate(-39.613 -56.685)" fill="#fff"/>
  <path id="Path_2854" data-name="Path 2854" d="M42.551,131.442l-6.467,3.54a.74.74,0,0,0-.3,1l.926,1.692,7.118-3.891a3.718,3.718,0,0,0,1.929-3.27l-.034-9.246H43.8a.736.736,0,0,0-.736.732l.034,8.506A1.036,1.036,0,0,1,42.551,131.442Z" transform="translate(-20.599 -69.974)" fill="#fff"/>
  <path id="Path_2855" data-name="Path 2855" d="M18.539,113.2,18.484,98.36H16.555a.736.736,0,0,0-.736.74l.051,14.106a1.045,1.045,0,0,1-1.04,1.074l-14.093.055a.74.74,0,0,0-.736.723v1.929l14.833-.059a3.714,3.714,0,0,0,3.705-3.726Z" transform="translate(0 -56.754)" fill="#fff"/>
  <path id="Path_2856" data-name="Path 2856" d="M15.9,118.869l4.1-4.137-4.137-4.1-.651.656a.736.736,0,0,0,0,1.045l2.428,2.411-2.411,2.428a.74.74,0,0,0,0,1.045Z" transform="translate(-8.653 -63.834)" fill="#fff"/>
  <path id="Path_2857" data-name="Path 2857" d="M191.721,100.423a1.337,1.337,0,1,0-1.341-1.332A1.337,1.337,0,0,0,191.721,100.423Z" transform="translate(-109.856 -56.402)" fill="#fff"/>
  <path id="Path_2858" data-name="Path 2858" d="M182.441,100.465a1.332,1.332,0,1,0-1.341-1.311A1.332,1.332,0,0,0,182.441,100.465Z" transform="translate(-104.501 -56.431)" fill="#fff"/>
</svg>
