<svg xmlns="http://www.w3.org/2000/svg" width="23.383" height="30" viewBox="0 0 23.383 30"><defs><style>.a{fill:#fff;}</style></defs><g transform="translate(-0.8)"><g transform="translate(8.623 9.888)"><rect class="a" width="7.731" height="0.619" transform="translate(0.005)"/><rect class="a" width="7.731" height="0.619" transform="translate(0.005 2.032)"/><rect class="a" width="7.731" height="0.619" transform="translate(0.005 4.064)"/><rect class="a" width="5.422" height="0.619" transform="translate(5.422 6.713) rotate(180)"/></g><g transform="translate(0.8)"><path class="a" d="M0,0,4.775,2.754,0,5.509Z" transform="translate(18.178 10.496)"/><path class="a" d="M0,0,4.77,2.754,0,5.509Z" transform="translate(6.063 3.499)"/><path class="a" d="M0,0,4.77,2.754,0,5.509Z" transform="translate(6.063 17.494)"/><path class="a" d="M0,2.754,4.77,0V5.509Z" transform="translate(12.55 17.494)"/><path class="a" d="M0,2.754,4.77,0V5.509Z" transform="translate(12.55 3.499)"/><path class="a" d="M0,2.754,4.775,0V5.509Z" transform="translate(0.429 10.496)"/><path class="a" d="M0,2.754,4.775,0V5.509Z" transform="translate(18.607 13.995)"/><path class="a" d="M0,2.754,4.775,0V5.509Z" transform="translate(18.607 6.997)"/><path class="a" d="M0,2.754,4.775,0V5.509Z" transform="translate(0.429 17.494)"/><path class="a" d="M0,2.754,4.77,0V5.509Z" transform="translate(6.492 20.992)"/><path class="a" d="M0,0,4.77,2.754,0,5.509Z" transform="translate(12.121 20.992)"/><path class="a" d="M0,0,4.775,2.754,0,5.509Z" transform="translate(18.178 17.494)"/><path class="a" d="M0,2.754,4.77,0V5.509Z" transform="translate(12.55 24.491)"/><path class="a" d="M0,0,4.775,2.754,0,5.509Z" transform="translate(0 13.995)"/><path class="a" d="M0,0,4.77,2.754,0,5.509Z" transform="translate(12.121)"/><path class="a" d="M0,0,4.775,2.754,0,5.509Z" transform="translate(18.178 3.499)"/><path class="a" d="M0,2.754,4.77,0V5.509Z" transform="translate(6.492)"/><path class="a" d="M0,0,4.775,2.754,0,5.509Z" transform="translate(0 6.997)"/><path class="a" d="M0,2.754,4.775,0V5.509Z" transform="translate(0.429 3.499)"/></g></g></svg>