<svg xmlns="http://www.w3.org/2000/svg" width="106.632" height="102.411" viewBox="0 0 106.632 102.411"><defs><style>.a,.b{fill:none;stroke-miterlimit:10;stroke-width:0.9px;}.a{stroke:#81bd41;}.b{stroke:#9aca67;}.c{fill:#81bd41;}.d{fill:#b3d78d;}.e{fill:#fff;}</style></defs><g transform="translate(-1601.694 -1370.525)"><path class="a" d="M112.206,39.95A52.988,52.988,0,0,1,59.35,93.057" transform="translate(1595.671 1379.429)"/><path class="b" d="M86.966,93.057A52.974,52.974,0,0,1,34.11,39.95" transform="translate(1568.034 1379.429)"/><path class="c" d="M133.749,65.484A48.865,48.865,0,1,1,84.874,16.63a48.875,48.875,0,0,1,48.875,48.854" transform="translate(1569.625 1353.895)"/><path class="d" d="M84.885,114.359a48.865,48.865,0,1,1,0-97.729" transform="translate(1570.115 1353.895)"/><g transform="translate(1572.644 1395.524)"><g transform="translate(64)"><path class="e" d="M99.707,10.293l-10-10A1,1,0,0,0,89,0H68a4,4,0,0,0-4,4V44a4,4,0,0,0,4,4H96a4,4,0,0,0,4-4V11A1,1,0,0,0,99.707,10.293ZM90,3.414,96.586,10H92a2,2,0,0,1-2-2ZM98,44a2,2,0,0,1-2,2H68a2,2,0,0,1-2-2V4a2,2,0,0,1,2-2H88V8a4,4,0,0,0,4,4h6Z" transform="translate(-64)"/><path class="e" d="M168.333,213.333h-18a1,1,0,0,0,0,2h18a1,1,0,1,0,0-2Z" transform="translate(-141.333 -193.333)"/><path class="e" d="M168.333,277.333h-18a1,1,0,0,0,0,2h18a1,1,0,1,0,0-2Z" transform="translate(-141.333 -251.333)"/><path class="e" d="M168.333,341.333h-18a1,1,0,0,0,0,2h18a1,1,0,1,0,0-2Z" transform="translate(-141.333 -309.333)"/><path class="e" d="M160.333,405.333h-10a1,1,0,0,0,0,2h10a1,1,0,0,0,0-2Z" transform="translate(-141.333 -367.333)"/></g></g></g></svg>