<svg xmlns="http://www.w3.org/2000/svg" width="30" height="36" viewBox="0 0 30 36"><defs><style>.a{fill:#006c68;}.b{fill:#046F6D;}.c{fill:#f3f3f3;}</style></defs><g transform="translate(-42.667)"><path class="a" d="M72.447,10.28a.75.75,0,0,0,0-1.061l-3-3a.75.75,0,0,0-1.061,0L66.044,8.563A14.92,14.92,0,0,0,60.667,6.3V4.5h.75a.75.75,0,0,0,.75-.75v-3a.75.75,0,0,0-.75-.75h-7.5a.75.75,0,0,0-.75.75v3a.75.75,0,0,0,.75.75h.75V6.3a14.922,14.922,0,0,0-5.377,2.26L46.947,6.22a.75.75,0,0,0-1.061,0l-3,3a.75.75,0,0,0,0,1.061l2.343,2.343a15,15,0,1,0,24.875,0Z"/><g transform="translate(54.667 1.5)"><path class="b" d="M394,111.083l1.939,1.939-1.664,1.664a15.129,15.129,0,0,0-1.939-1.939Z" transform="translate(-379.745 -104.772)"/><path class="b" d="M214.083,22.833h-.75v-1.5h6v1.5h-.75a.75.75,0,0,0-.75.75v2.326c-.494-.049-.994-.076-1.5-.076s-1.006.027-1.5.076V23.583A.75.75,0,0,0,214.083,22.833Z" transform="translate(-213.333 -21.333)"/></g><path class="b" d="M68.417,113.022l1.939-1.939,1.664,1.664a15.127,15.127,0,0,0-1.939,1.939Z" transform="translate(-23.94 -103.272)"/><path class="c" d="M77.5,133.667a13.5,13.5,0,1,1,13.5-13.5A13.516,13.516,0,0,1,77.5,133.667Z" transform="translate(-19.833 -99.167)"/><path class="a" d="M237.591,160.2a1.44,1.44,0,0,0,.074-.365,1.48,1.48,0,0,0-.75-1.269v-8.481a.75.75,0,1,0-1.5,0v8.481a1.48,1.48,0,0,0-.75,1.269,1.5,1.5,0,0,0,1.5,1.5,1.443,1.443,0,0,0,.366-.074l4.355,4.354a.75.75,0,1,0,1.061-1.061Z" transform="translate(-178.498 -138.833)"/></g></svg>