<svg xmlns="http://www.w3.org/2000/svg" width="78.75" height="90" viewBox="0 0 78.75 90">
  <g id="user-2" transform="translate(-34.445)">
    <path id="Path_2804" data-name="Path 2804" d="M160.282,45a22.5,22.5,0,1,1,22.5-22.5A22.526,22.526,0,0,1,160.282,45Zm0-39.375A16.875,16.875,0,1,0,177.157,22.5,16.893,16.893,0,0,0,160.282,5.625Z" transform="translate(-86.462)" fill="#40c2cc"/>
    <path id="Path_2805" data-name="Path 2805" d="M110.382,350.363H37.258a2.811,2.811,0,0,1-2.813-2.813V328.19a8.434,8.434,0,0,1,3.875-7.13c21.121-13.175,49.9-13.173,71,0a8.439,8.439,0,0,1,3.878,7.133V347.55A2.811,2.811,0,0,1,110.382,350.363ZM40.07,344.738h67.5V328.19a2.774,2.774,0,0,0-1.233-2.362c-19.311-12.055-45.709-12.063-65.036,0a2.77,2.77,0,0,0-1.23,2.359Z" transform="translate(0 -260.363)" fill="#40c2cc"/>
  </g>
</svg>
