<svg xmlns="http://www.w3.org/2000/svg" width="25.2" height="28.8" viewBox="0 0 25.2 28.8"><defs><style>.a{fill:#84BC47;}</style></defs><path class="a" d="M144.982,14.4a7.2,7.2,0,1,1,7.2-7.2A7.208,7.208,0,0,1,144.982,14.4Zm0-12.6a5.4,5.4,0,1,0,5.4,5.4,5.406,5.406,0,0,0-5.4-5.4Z" transform="translate(-132.382)"/><path class="a" d="M58.745,323.718h-23.4a.9.9,0,0,1-.9-.9v-6.2a2.7,2.7,0,0,1,1.24-2.282,21.989,21.989,0,0,1,22.719,0,2.7,2.7,0,0,1,1.241,2.282v6.2A.9.9,0,0,1,58.745,323.718Zm-22.5-1.8h21.6v-5.3a.888.888,0,0,0-.395-.756,20.152,20.152,0,0,0-20.812,0,.886.886,0,0,0-.394.755Z" transform="translate(-34.445 -294.918)"/></svg>