<svg xmlns="http://www.w3.org/2000/svg" width="60" height="38.242" viewBox="0 0 60 38.242"><defs><style>.a{fill:#fff;}</style></defs><g transform="translate(0 -92.835)"><g transform="translate(0 92.835)"><g transform="translate(0 0)"><path class="a" d="M59.619,110.789C59.083,110.056,46.311,92.835,30,92.835S.916,110.056.381,110.788a1.98,1.98,0,0,0,0,2.335c.535.733,13.308,17.954,29.619,17.954s29.083-17.221,29.619-17.953A1.978,1.978,0,0,0,59.619,110.789ZM30,127.121c-12.015,0-22.422-11.43-25.5-15.166,3.077-3.74,13.461-15.164,25.5-15.164,12.015,0,22.42,11.428,25.5,15.166C52.425,115.7,42.041,127.121,30,127.121Z" transform="translate(0 -92.835)"/></g></g><g transform="translate(18.132 100.088)"><g transform="translate(0 0)"><path class="a" d="M166.59,154.725a11.868,11.868,0,1,0,11.868,11.868A11.882,11.882,0,0,0,166.59,154.725Zm0,19.78a7.912,7.912,0,1,1,7.912-7.912A7.921,7.921,0,0,1,166.59,174.505Z" transform="translate(-154.722 -154.725)"/></g></g></g></svg>