<svg xmlns="http://www.w3.org/2000/svg" width="698.626" height="100" viewBox="0 0 698.626 100"><defs><style>.a{fill:#fff;}</style></defs><path class="a" d="M25.066,24.164A24.369,24.369,0,0,0,49.406,0h.726A25.087,25.087,0,0,1,25.066,24.89,25.087,25.087,0,0,1,0,0H.726a24.455,24.455,0,0,0,24.34,24.164" transform="translate(299 50.044)"/><path class="a" d="M25.066.726A24.355,24.355,0,0,0,.726,24.89H0a25.067,25.067,0,0,1,50.132,0h-.726A24.426,24.426,0,0,0,25.066.726" transform="translate(299 74.934)"/><path class="a" d="M24.164,25.066A24.355,24.355,0,0,0,0,.726V0A25.087,25.087,0,0,1,24.89,25.066,25.087,25.087,0,0,1,0,50.132v-.726a24.441,24.441,0,0,0,24.164-24.34" transform="translate(349.132 49.868)"/><path class="a" d="M.726,25.066A24.369,24.369,0,0,0,24.89,49.406v.726A25.067,25.067,0,0,1,24.89,0V.726A24.441,24.441,0,0,0,.726,25.066" transform="translate(374.022 49.868)"/><path class="a" d="M25.066,24.164A24.369,24.369,0,0,0,49.406,0h.726A25.087,25.087,0,0,1,25.066,24.89,25.087,25.087,0,0,1,0,0H.726a24.441,24.441,0,0,0,24.34,24.164" transform="translate(398.912 50.044)"/><path class="a" d="M25.066.726A24.355,24.355,0,0,0,.726,24.89H0a25.067,25.067,0,0,1,50.132,0h-.726A24.441,24.441,0,0,0,25.066.726" transform="translate(398.912 74.934)"/><path class="a" d="M24.164,25.066A24.355,24.355,0,0,0,0,.726V0A25.087,25.087,0,0,1,24.89,25.066,25.087,25.087,0,0,1,0,50.132v-.726a24.441,24.441,0,0,0,24.164-24.34" transform="translate(449.044 49.868)"/><path class="a" d="M.726,25.066A24.369,24.369,0,0,0,24.89,49.406v.726A25.067,25.067,0,0,1,24.89,0V.726A24.426,24.426,0,0,0,.726,25.066" transform="translate(473.934 49.868)"/><path class="a" d="M25.066.726A24.355,24.355,0,0,0,.726,24.89H0a25.067,25.067,0,0,1,50.132,0h-.726A24.412,24.412,0,0,0,25.066.726" transform="translate(348.78 25.066)"/><path class="a" d="M25.066,24.164A24.369,24.369,0,0,0,49.406,0h.726A25.087,25.087,0,0,1,25.066,24.89,25.087,25.087,0,0,1,0,0H.726a24.455,24.455,0,0,0,24.34,24.164" transform="translate(348.78 0.176)"/><path class="a" d="M.726,25.066A24.369,24.369,0,0,0,24.89,49.406v.726A25.067,25.067,0,0,1,24.89,0V.726A24.426,24.426,0,0,0,.726,25.066" transform="translate(323.912)"/><path class="a" d="M24.164,25.066A24.355,24.355,0,0,0,0,.726V0A25.087,25.087,0,0,1,24.89,25.066,25.087,25.087,0,0,1,0,50.132v-.726a24.441,24.441,0,0,0,24.164-24.34" transform="translate(299.022)"/><path class="a" d="M25.066.726A24.355,24.355,0,0,0,.726,24.89H0a25.067,25.067,0,0,1,50.132,0h-.726A24.426,24.426,0,0,0,25.066.726" transform="translate(448.692 25.066)"/><path class="a" d="M25.066,24.164A24.369,24.369,0,0,0,49.406,0h.726A25.087,25.087,0,0,1,25.066,24.89,25.087,25.087,0,0,1,0,0H.726a24.441,24.441,0,0,0,24.34,24.164" transform="translate(448.692 0.176)"/><path class="a" d="M.726,25.066A24.369,24.369,0,0,0,24.89,49.406v.726A25.067,25.067,0,0,1,24.89,0V.726A24.441,24.441,0,0,0,.726,25.066" transform="translate(423.802)"/><path class="a" d="M24.164,25.066A24.355,24.355,0,0,0,0,.726V0A25.087,25.087,0,0,1,24.89,25.066,25.087,25.087,0,0,1,0,50.132v-.726a24.441,24.441,0,0,0,24.164-24.34" transform="translate(398.912)"/><path class="a" d="M25.066,24.164A24.369,24.369,0,0,0,49.406,0h.726A25.087,25.087,0,0,1,25.066,24.89,25.087,25.087,0,0,1,0,0H.726a24.455,24.455,0,0,0,24.34,24.164" transform="translate(498.802 50.044)"/><path class="a" d="M25.066.726A24.355,24.355,0,0,0,.726,24.89H0a25.067,25.067,0,0,1,50.132,0h-.726A24.426,24.426,0,0,0,25.066.726" transform="translate(498.802 74.934)"/><path class="a" d="M24.164,25.066A24.355,24.355,0,0,0,0,.726V0A25.087,25.087,0,0,1,24.89,25.066,25.087,25.087,0,0,1,0,50.132v-.726a24.441,24.441,0,0,0,24.164-24.34" transform="translate(548.934 49.868)"/><path class="a" d="M.726,25.066A24.369,24.369,0,0,0,24.89,49.406v.726A25.067,25.067,0,0,1,24.89,0V.726A24.441,24.441,0,0,0,.726,25.066" transform="translate(573.824 49.868)"/><path class="a" d="M25.066,24.164A24.369,24.369,0,0,0,49.406,0h.726A25.087,25.087,0,0,1,25.066,24.89,25.087,25.087,0,0,1,0,0H.726a24.441,24.441,0,0,0,24.34,24.164" transform="translate(598.714 50.044)"/><path class="a" d="M25.066.726A24.355,24.355,0,0,0,.726,24.89H0a25.067,25.067,0,0,1,50.132,0h-.726A24.441,24.441,0,0,0,25.066.726" transform="translate(598.714 74.934)"/><path class="a" d="M24.164,25.066A24.355,24.355,0,0,0,0,.726V0A25.087,25.087,0,0,1,24.89,25.066,25.087,25.087,0,0,1,0,50.132v-.726a24.441,24.441,0,0,0,24.164-24.34" transform="translate(648.846 49.868)"/><path class="a" d="M25.066.726A24.355,24.355,0,0,0,.726,24.89H0a25.067,25.067,0,0,1,50.132,0h-.726A24.412,24.412,0,0,0,25.066.726" transform="translate(548.582 25.066)"/><path class="a" d="M25.066,24.164A24.369,24.369,0,0,0,49.406,0h.726A25.087,25.087,0,0,1,25.066,24.89,25.087,25.087,0,0,1,0,0H.726a24.455,24.455,0,0,0,24.34,24.164" transform="translate(548.582 0.176)"/><path class="a" d="M.726,25.066A24.369,24.369,0,0,0,24.89,49.406v.726A25.067,25.067,0,0,1,24.89,0V.726A24.426,24.426,0,0,0,.726,25.066" transform="translate(523.714)"/><path class="a" d="M24.164,25.066A24.355,24.355,0,0,0,0,.726V0A25.087,25.087,0,0,1,24.89,25.066,25.087,25.087,0,0,1,0,50.132v-.726a24.441,24.441,0,0,0,24.164-24.34" transform="translate(498.824)"/><path class="a" d="M25.066.726A24.355,24.355,0,0,0,.726,24.89H0a25.067,25.067,0,0,1,50.132,0h-.726A24.426,24.426,0,0,0,25.066.726" transform="translate(648.494 25.066)"/><path class="a" d="M25.066,24.164A24.369,24.369,0,0,0,49.406,0h.726A25.087,25.087,0,0,1,25.066,24.89,25.087,25.087,0,0,1,0,0H.726a24.441,24.441,0,0,0,24.34,24.164" transform="translate(648.494 0.176)"/><path class="a" d="M.726,25.066A24.369,24.369,0,0,0,24.89,49.406v.726A25.067,25.067,0,0,1,24.89,0V.726A24.441,24.441,0,0,0,.726,25.066" transform="translate(623.604)"/><path class="a" d="M24.164,25.066A24.355,24.355,0,0,0,0,.726V0A25.087,25.087,0,0,1,24.89,25.066,25.087,25.087,0,0,1,0,50.132v-.726a24.426,24.426,0,0,0,24.164-24.34" transform="translate(598.714)"/><g transform="translate(0 0)"><path class="a" d="M25.066,24.164A24.369,24.369,0,0,0,49.406,0h.726A25.087,25.087,0,0,1,25.066,24.89,25.087,25.087,0,0,1,0,0H.726a24.455,24.455,0,0,0,24.34,24.164" transform="translate(0 50.044)"/><path class="a" d="M25.066.726A24.355,24.355,0,0,0,.726,24.89H0a25.067,25.067,0,0,1,50.132,0h-.726A24.426,24.426,0,0,0,25.066.726" transform="translate(0 74.934)"/><path class="a" d="M24.164,25.066A24.355,24.355,0,0,0,0,.726V0A25.087,25.087,0,0,1,24.89,25.066,25.087,25.087,0,0,1,0,50.132v-.726a24.441,24.441,0,0,0,24.164-24.34" transform="translate(50.132 49.868)"/><path class="a" d="M.726,25.066A24.369,24.369,0,0,0,24.89,49.406v.726A25.067,25.067,0,0,1,24.89,0V.726A24.441,24.441,0,0,0,.726,25.066" transform="translate(75.022 49.868)"/><path class="a" d="M25.066,24.164A24.369,24.369,0,0,0,49.406,0h.726A25.087,25.087,0,0,1,25.066,24.89,25.087,25.087,0,0,1,0,0H.726a24.441,24.441,0,0,0,24.34,24.164" transform="translate(99.912 50.044)"/><path class="a" d="M25.066.726A24.355,24.355,0,0,0,.726,24.89H0a25.067,25.067,0,0,1,50.132,0h-.726A24.441,24.441,0,0,0,25.066.726" transform="translate(99.912 74.934)"/><path class="a" d="M24.164,25.066A24.355,24.355,0,0,0,0,.726V0A25.087,25.087,0,0,1,24.89,25.066,25.087,25.087,0,0,1,0,50.132v-.726a24.441,24.441,0,0,0,24.164-24.34" transform="translate(150.044 49.868)"/><path class="a" d="M.726,25.066A24.369,24.369,0,0,0,24.89,49.406v.726A25.067,25.067,0,0,1,24.89,0V.726A24.426,24.426,0,0,0,.726,25.066" transform="translate(174.934 49.868)"/><path class="a" d="M25.066.726A24.355,24.355,0,0,0,.726,24.89H0a25.067,25.067,0,0,1,50.132,0h-.726A24.412,24.412,0,0,0,25.066.726" transform="translate(49.78 25.066)"/><path class="a" d="M25.066,24.164A24.369,24.369,0,0,0,49.406,0h.726A25.087,25.087,0,0,1,25.066,24.89,25.087,25.087,0,0,1,0,0H.726a24.455,24.455,0,0,0,24.34,24.164" transform="translate(49.78 0.176)"/><path class="a" d="M.726,25.066A24.369,24.369,0,0,0,24.89,49.406v.726A25.067,25.067,0,0,1,24.89,0V.726A24.426,24.426,0,0,0,.726,25.066" transform="translate(24.912)"/><path class="a" d="M24.164,25.066A24.355,24.355,0,0,0,0,.726V0A25.087,25.087,0,0,1,24.89,25.066,25.087,25.087,0,0,1,0,50.132v-.726a24.441,24.441,0,0,0,24.164-24.34" transform="translate(0.022)"/><path class="a" d="M25.066.726A24.355,24.355,0,0,0,.726,24.89H0a25.067,25.067,0,0,1,50.132,0h-.726A24.426,24.426,0,0,0,25.066.726" transform="translate(149.692 25.066)"/><path class="a" d="M25.066,24.164A24.369,24.369,0,0,0,49.406,0h.726A25.087,25.087,0,0,1,25.066,24.89,25.087,25.087,0,0,1,0,0H.726a24.441,24.441,0,0,0,24.34,24.164" transform="translate(149.692 0.176)"/><path class="a" d="M.726,25.066A24.369,24.369,0,0,0,24.89,49.406v.726A25.067,25.067,0,0,1,24.89,0V.726A24.441,24.441,0,0,0,.726,25.066" transform="translate(124.802)"/><path class="a" d="M24.164,25.066A24.355,24.355,0,0,0,0,.726V0A25.087,25.087,0,0,1,24.89,25.066,25.087,25.087,0,0,1,0,50.132v-.726a24.441,24.441,0,0,0,24.164-24.34" transform="translate(99.912)"/><path class="a" d="M25.066,24.164A24.369,24.369,0,0,0,49.406,0h.726A25.087,25.087,0,0,1,25.066,24.89,25.087,25.087,0,0,1,0,0H.726a24.455,24.455,0,0,0,24.34,24.164" transform="translate(199.802 50.044)"/><path class="a" d="M25.066.726A24.355,24.355,0,0,0,.726,24.89H0a25.067,25.067,0,0,1,50.132,0h-.726A24.426,24.426,0,0,0,25.066.726" transform="translate(199.802 74.934)"/><path class="a" d="M24.164,25.066A24.355,24.355,0,0,0,0,.726V0A25.087,25.087,0,0,1,24.89,25.066,25.087,25.087,0,0,1,0,50.132v-.726a24.441,24.441,0,0,0,24.164-24.34" transform="translate(249.934 49.868)"/><path class="a" d="M.726,25.066A24.369,24.369,0,0,0,24.89,49.406v.726A25.067,25.067,0,0,1,24.89,0V.726A24.441,24.441,0,0,0,.726,25.066" transform="translate(274.824 49.868)"/><path class="a" d="M25.066.726A24.355,24.355,0,0,0,.726,24.89H0a25.067,25.067,0,0,1,50.132,0h-.726A24.412,24.412,0,0,0,25.066.726" transform="translate(249.582 25.066)"/><path class="a" d="M25.066,24.164A24.369,24.369,0,0,0,49.406,0h.726A25.087,25.087,0,0,1,25.066,24.89,25.087,25.087,0,0,1,0,0H.726a24.455,24.455,0,0,0,24.34,24.164" transform="translate(249.582 0.176)"/><path class="a" d="M.726,25.066A24.369,24.369,0,0,0,24.89,49.406v.726A25.067,25.067,0,0,1,24.89,0V.726A24.426,24.426,0,0,0,.726,25.066" transform="translate(224.714)"/><path class="a" d="M24.164,25.066A24.355,24.355,0,0,0,0,.726V0A25.087,25.087,0,0,1,24.89,25.066,25.087,25.087,0,0,1,0,50.132v-.726a24.441,24.441,0,0,0,24.164-24.34" transform="translate(199.824)"/></g></svg>