<svg xmlns="http://www.w3.org/2000/svg" width="48" height="48" viewBox="0 0 48 48">
  <g id="chat-bubble" transform="translate(0 -0.003)">
    <path id="path-1_59_" d="M122.328,329.8a1.5,1.5,0,1,1-2.121,0,1.5,1.5,0,0,1,2.121,0" transform="translate(-107.372 -298.456)" fill="#fff"/>
    <path id="path-1_58_" d="M182.211,329.8a1.5,1.5,0,1,1-2.121,0,1.5,1.5,0,0,1,2.121,0" transform="translate(-161.054 -298.456)" fill="#fff"/>
    <path id="path-1_57_" d="M242.093,329.8a1.5,1.5,0,1,1-2.121,0,1.5,1.5,0,0,1,2.121,0" transform="translate(-214.736 -298.456)" fill="#fff"/>
    <path id="Path_2803" data-name="Path 2803" d="M44.793,27.675a1.538,1.538,0,0,1-.045-2.063A14.662,14.662,0,0,0,48,16.5C48,7.4,39.252,0,28.5,0S9,7.4,9,16.5c0,.364.06.715.091,1.072C3.638,20.5,0,25.645,0,31.5a14.662,14.662,0,0,0,3.252,9.11,1.538,1.538,0,0,1-.045,2.063L.439,45.442A1.5,1.5,0,0,0,1.5,48h18c10.154,0,18.51-6.6,19.41-15H46.5a1.5,1.5,0,0,0,1.06-2.561ZM19.5,45H5.121l.207-.207a4.555,4.555,0,0,0,.283-6.038A11.686,11.686,0,0,1,3,31.5C3,24.059,10.4,18,19.5,18S36,24.059,36,31.5,28.6,45,19.5,45ZM38.91,30c-.9-8.4-9.257-15-19.41-15a22.468,22.468,0,0,0-7.486,1.269C12.167,8.935,19.5,3,28.5,3,37.6,3,45,9.059,45,16.5a11.687,11.687,0,0,1-2.61,7.255,4.555,4.555,0,0,0,.283,6.038l.207.207Z" fill="#fff"/>
  </g>
</svg>
