<svg xmlns="http://www.w3.org/2000/svg" width="48" height="42" viewBox="0 0 48 42">
  <g id="like" transform="translate(0 -1)">
    <path id="Path_2801" data-name="Path 2801" d="M10.5,0h-9A1.5,1.5,0,0,0,0,1.5v27A1.5,1.5,0,0,0,1.5,30h9A1.5,1.5,0,0,0,12,28.5V1.5A1.5,1.5,0,0,0,10.5,0ZM9,27H3V3H9Z" transform="translate(0 13)" fill="#fff"/>
    <path id="Path_2802" data-name="Path 2802" d="M27.46,15.03H18.6A1.5,1.5,0,0,1,17.285,12.8L20.41,7.175A4.5,4.5,0,0,0,17.566.626l-2.2-.551a1.5,1.5,0,0,0-1.478.451L1.923,13.815A7.5,7.5,0,0,0,0,18.832v12.7a7.509,7.509,0,0,0,7.5,7.5H22.422a7.517,7.517,0,0,0,7.233-5.517l3.2-11.7a5.54,5.54,0,0,0-5.4-6.787Zm2.489,6.051L26.761,32.719a4.509,4.509,0,0,1-4.339,3.311H7.5A4.5,4.5,0,0,1,3,31.53v-12.7a4.5,4.5,0,0,1,1.154-3.01L15.511,3.2l1.327.331a1.5,1.5,0,0,1,.949,2.184l-3.125,5.626A4.5,4.5,0,0,0,18.6,18.03H27.46A2.543,2.543,0,0,1,30,20.57a2.482,2.482,0,0,1-.051.511Z" transform="translate(15 0.97)" fill="#fff"/>
  </g>
</svg>
