<svg xmlns="http://www.w3.org/2000/svg" width="43.448" height="60" viewBox="0 0 43.448 60">
  <g id="poll" transform="translate(-64)">
    <g id="Group_1202" data-name="Group 1202" transform="translate(85.724 12.414)">
      <g id="Group_1201" data-name="Group 1201" transform="translate(0)">
        <rect id="Rectangle_1232" data-name="Rectangle 1232" width="6.207" height="2.069" fill="#fff"/>
      </g>
    </g>
    <g id="Group_1204" data-name="Group 1204" transform="translate(85.724 16.552)">
      <g id="Group_1203" data-name="Group 1203" transform="translate(0)">
        <rect id="Rectangle_1233" data-name="Rectangle 1233" width="2.069" height="2.069" fill="#fff"/>
      </g>
    </g>
    <g id="Group_1206" data-name="Group 1206" transform="translate(85.724 28.966)">
      <g id="Group_1205" data-name="Group 1205" transform="translate(0)">
        <rect id="Rectangle_1234" data-name="Rectangle 1234" width="6.207" height="2.069" fill="#fff"/>
      </g>
    </g>
    <g id="Group_1208" data-name="Group 1208" transform="translate(85.724 33.103)">
      <g id="Group_1207" data-name="Group 1207" transform="translate(0)">
        <rect id="Rectangle_1235" data-name="Rectangle 1235" width="4.138" height="2.069" fill="#fff"/>
      </g>
    </g>
    <g id="Group_1210" data-name="Group 1210" transform="translate(85.724 45.517)">
      <g id="Group_1209" data-name="Group 1209" transform="translate(0)">
        <rect id="Rectangle_1236" data-name="Rectangle 1236" width="2.069" height="2.069" fill="#fff"/>
      </g>
    </g>
    <g id="Group_1212" data-name="Group 1212" transform="translate(85.724 49.655)">
      <g id="Group_1211" data-name="Group 1211" transform="translate(0)">
        <rect id="Rectangle_1237" data-name="Rectangle 1237" width="6.207" height="2.069" fill="#fff"/>
      </g>
    </g>
    <g id="Group_1214" data-name="Group 1214" transform="translate(89.862 16.552)">
      <g id="Group_1213" data-name="Group 1213" transform="translate(0)">
        <rect id="Rectangle_1238" data-name="Rectangle 1238" width="8.276" height="2.069" fill="#fff"/>
      </g>
    </g>
    <g id="Group_1216" data-name="Group 1216" transform="translate(91.931 33.103)">
      <g id="Group_1215" data-name="Group 1215" transform="translate(0)">
        <rect id="Rectangle_1239" data-name="Rectangle 1239" width="6.207" height="2.069" fill="#fff"/>
      </g>
    </g>
    <g id="Group_1218" data-name="Group 1218" transform="translate(89.862 45.517)">
      <g id="Group_1217" data-name="Group 1217" transform="translate(0)">
        <rect id="Rectangle_1240" data-name="Rectangle 1240" width="2.069" height="2.069" fill="#fff"/>
      </g>
    </g>
    <g id="Group_1220" data-name="Group 1220" transform="translate(94 49.655)">
      <g id="Group_1219" data-name="Group 1219" transform="translate(0)">
        <rect id="Rectangle_1241" data-name="Rectangle 1241" width="4.138" height="2.069" fill="#fff"/>
      </g>
    </g>
    <g id="Group_1222" data-name="Group 1222" transform="translate(64)">
      <g id="Group_1221" data-name="Group 1221" transform="translate(0)">
        <path id="Path_2886" data-name="Path 2886" d="M106.968,8.4,99.046.48,98.566,0H64V60h43.448V8.882Zm-7.8-4.87,4.744,4.744H99.172Zm6.207,54.4H66.069V2.069H97.1v8.276h8.276Z" transform="translate(-64)" fill="#fff"/>
      </g>
    </g>
    <g id="Group_1224" data-name="Group 1224" transform="translate(72.276 8.276)">
      <g id="Group_1223" data-name="Group 1223" transform="translate(0)">
        <path id="Path_2887" data-name="Path 2887" d="M135.738,68.847a3.1,3.1,0,1,0-5.131,0A5.155,5.155,0,0,0,128,73.31v1.034h10.345V73.31A5.154,5.154,0,0,0,135.738,68.847Zm-2.565-2.778a1.034,1.034,0,1,1-1.034,1.034A1.036,1.036,0,0,1,133.172,66.069Zm-2.927,6.207a3.1,3.1,0,0,1,5.853,0Z" transform="translate(-128 -64)" fill="#fff"/>
      </g>
    </g>
    <g id="Group_1226" data-name="Group 1226" transform="translate(72.276 24.828)">
      <g id="Group_1225" data-name="Group 1225" transform="translate(0)">
        <path id="Path_2888" data-name="Path 2888" d="M135.738,196.847a3.1,3.1,0,1,0-5.131,0A5.155,5.155,0,0,0,128,201.31v1.034h10.345V201.31A5.155,5.155,0,0,0,135.738,196.847Zm-2.565-2.778a1.034,1.034,0,1,1-1.034,1.035A1.036,1.036,0,0,1,133.172,194.069Zm-2.927,6.207a3.1,3.1,0,0,1,5.853,0Z" transform="translate(-128 -192)" fill="#fff"/>
      </g>
    </g>
    <g id="Group_1228" data-name="Group 1228" transform="translate(72.276 41.379)">
      <g id="Group_1227" data-name="Group 1227" transform="translate(0)">
        <path id="Path_2889" data-name="Path 2889" d="M135.738,324.847a3.1,3.1,0,1,0-5.131,0A5.155,5.155,0,0,0,128,329.31v1.034h10.345V329.31A5.155,5.155,0,0,0,135.738,324.847Zm-2.565-2.778a1.034,1.034,0,1,1-1.034,1.035A1.036,1.036,0,0,1,133.172,322.069Zm-2.927,6.207a3.1,3.1,0,0,1,5.853,0Z" transform="translate(-128 -320)" fill="#fff"/>
      </g>
    </g>
  </g>
</svg>
