<svg xmlns="http://www.w3.org/2000/svg" width="48" height="46" viewBox="0 0 48 46"><defs><style>.a{fill:#046f6d;}</style></defs><path class="a" d="M10.744,46.492a2.555,2.555,0,0,1-2.486-3.12l3.088-13.6L.874,20.585A2.553,2.553,0,0,1,2.32,16.121l13.856-1.258,5.478-12.82a2.551,2.551,0,0,1,4.692,0l5.478,12.823,13.854,1.258a2.554,2.554,0,0,1,1.45,4.464L36.657,29.767l3.088,13.6a2.55,2.55,0,0,1-3.8,2.756L24,38.985,12.052,46.13a2.557,2.557,0,0,1-1.308.362ZM24,35.91a2.557,2.557,0,0,1,1.308.362l11.276,6.744L33.67,30.177a2.551,2.551,0,0,1,.808-2.486l9.888-8.672L31.285,17.831a2.548,2.548,0,0,1-2.12-1.546L24,4.186l-5.17,12.1a2.541,2.541,0,0,1-2.114,1.54L3.632,19.015l9.888,8.672a2.546,2.546,0,0,1,.808,2.488L11.416,43.014l11.276-6.742A2.556,2.556,0,0,1,24,35.91Zm-7.93-20.8a.006.006,0,0,1,0,0ZM31.927,15.1l0,0S31.929,15.107,31.927,15.1Zm0,0" transform="translate(-0.001 -0.492)"/></svg>