<svg xmlns="http://www.w3.org/2000/svg" width="20.87" height="20" viewBox="0 0 20.87 20">
  <path id="star_1_" data-name="star (1)" d="M4.672,20.492a1.111,1.111,0,0,1-1.081-1.357l1.343-5.914L.38,9.228a1.11,1.11,0,0,1,.629-1.941L7.034,6.74,9.415,1.166a1.109,1.109,0,0,1,2.04,0l2.382,5.575,6.024.547a1.11,1.11,0,0,1,.631,1.941l-4.553,3.992,1.343,5.914a1.109,1.109,0,0,1-1.65,1.2l-5.195-3.1L5.24,20.335a1.112,1.112,0,0,1-.569.157ZM6.987,6.848v0Zm6.894,0v0Zm0,0" transform="translate(-0.001 -0.492)" fill="#fff"/>
</svg>
