<svg xmlns="http://www.w3.org/2000/svg" width="48" height="46" viewBox="0 0 48 46">
  <path id="star_1_" data-name="star (1)" d="M10.744,46.492a2.555,2.555,0,0,1-2.486-3.12l3.088-13.6L.874,20.585A2.553,2.553,0,0,1,2.32,16.121l13.856-1.258,5.478-12.82a2.551,2.551,0,0,1,4.692,0l5.478,12.823,13.854,1.258a2.554,2.554,0,0,1,1.45,4.464L36.657,29.767l3.088,13.6a2.55,2.55,0,0,1-3.8,2.756L24,38.985,12.052,46.13a2.557,2.557,0,0,1-1.308.362ZM16.07,15.111a.006.006,0,0,1,0,0ZM31.927,15.1l0,0S31.929,15.107,31.927,15.1Zm0,0" transform="translate(-0.001 -0.492)" fill="#81bd41"/>
</svg>
