<svg id="surface1" xmlns="http://www.w3.org/2000/svg" width="48" height="48" viewBox="0 0 48 48">
  <path id="Path_2857" data-name="Path 2857" d="M46.594,3.464h-6.16q.033-1.023.035-2.058A1.406,1.406,0,0,0,39.063,0H8.937A1.406,1.406,0,0,0,7.531,1.406q0,1.034.035,2.058H1.406A1.406,1.406,0,0,0,0,4.871,30.479,30.479,0,0,0,4.637,21.61c2.956,4.443,6.893,6.991,11.146,7.239a14.44,14.44,0,0,0,3.045,2.557v6.25H16.469A5.178,5.178,0,0,0,11.3,42.828v2.359h-.1A1.406,1.406,0,0,0,11.2,48H36.8a1.406,1.406,0,0,0,0-2.813h-.1V42.828a5.178,5.178,0,0,0-5.172-5.172H29.172v-6.25a14.43,14.43,0,0,0,3.045-2.557c4.253-.248,8.19-2.8,11.146-7.239A30.479,30.479,0,0,0,48,4.871,1.406,1.406,0,0,0,46.594,3.464ZM6.979,20.052A27.1,27.1,0,0,1,2.842,6.277H7.723a46.992,46.992,0,0,0,4.369,17.06q.563,1.125,1.174,2.126A13.562,13.562,0,0,1,6.979,20.052ZM33.891,42.828v2.36H14.109v-2.36a2.362,2.362,0,0,1,2.36-2.36H31.531A2.362,2.362,0,0,1,33.891,42.828ZM26.36,37.656H21.641V32.628a9.15,9.15,0,0,0,4.719,0Zm.871-8.374a1.368,1.368,0,0,0-.182.092,6.566,6.566,0,0,1-6.095,0,1.4,1.4,0,0,0-.184-.094,11.32,11.32,0,0,1-3.178-2.62,1.423,1.423,0,0,0-.179-.21,22.168,22.168,0,0,1-2.8-4.373C12.023,16.911,10.53,10.115,10.36,2.813H37.64c-.17,7.3-1.663,14.1-4.247,19.267a22.185,22.185,0,0,1-2.8,4.373,1.387,1.387,0,0,0-.18.21A11.323,11.323,0,0,1,27.231,29.282Zm13.791-9.23a13.563,13.563,0,0,1-6.287,5.41q.61-1,1.174-2.126a47,47,0,0,0,4.369-17.06h4.881A27.1,27.1,0,0,1,41.022,20.052Zm0,0" fill="#fff"/>
</svg>
