<svg xmlns="http://www.w3.org/2000/svg" width="42" height="48" viewBox="0 0 42 48">
  <g id="user" transform="translate(-34.445)">
    <path id="Path_2804" data-name="Path 2804" d="M149.782,24a12,12,0,1,1,12-12A12.014,12.014,0,0,1,149.782,24Zm0-21a9,9,0,1,0,9,9,9.01,9.01,0,0,0-9-9Z" transform="translate(-94.337)" fill="#fff"/>
    <path id="Path_2805" data-name="Path 2805" d="M74.945,332.077h-39a1.5,1.5,0,0,1-1.5-1.5V320.251a4.5,4.5,0,0,1,2.067-3.8,36.648,36.648,0,0,1,37.865,0,4.5,4.5,0,0,1,2.068,3.8v10.326A1.5,1.5,0,0,1,74.945,332.077Zm-37.5-3h36v-8.826a1.48,1.48,0,0,0-.658-1.26,33.587,33.587,0,0,0-34.686,0,1.477,1.477,0,0,0-.656,1.258Z" transform="translate(0 -284.077)" fill="#fff"/>
  </g>
</svg>
