<svg xmlns="http://www.w3.org/2000/svg" width="401" height="56.646" viewBox="0 0 401 56.646">
  <g id="visual-1" transform="translate(-2065.5 -1253.5)">
    <g id="Group_10" data-name="Group 10" transform="translate(2066 1254)">
      <path id="Path_113" data-name="Path 113" d="M1133.32,707.2l-6.356-6.358a6.021,6.021,0,0,1,0-8.514l12.951-12.951-12.951-12.951a6.023,6.023,0,0,1,0-8.515l6.356-6.357,27.824,27.824Z" transform="translate(-1125.201 -651.553)" fill="none" stroke="#07716e" stroke-linecap="round" stroke-linejoin="round" stroke-width="1"/>
    </g>
    <path id="Path_114" data-name="Path 114" d="M1157.669,707.2l-6.356-6.358a6.021,6.021,0,0,1,0-8.514l12.951-12.951-12.951-12.951a6.023,6.023,0,0,1,0-8.515l6.356-6.357,27.824,27.824Z" transform="translate(952.856 602.447)" fill="none" stroke="#7dc058" stroke-linecap="round" stroke-linejoin="round" stroke-width="1"/>
    <path id="Path_115" data-name="Path 115" d="M1182.018,707.2l-6.356-6.358a6.019,6.019,0,0,1,0-8.514l12.951-12.951-12.951-12.951a6.021,6.021,0,0,1,0-8.515l6.356-6.357,27.824,27.824Z" transform="translate(964.913 602.447)" fill="none" stroke="#07716e" stroke-linecap="round" stroke-linejoin="round" stroke-width="1"/>
    <path id="Path_116" data-name="Path 116" d="M1206.367,707.2l-6.356-6.358a6.018,6.018,0,0,1,0-8.514l12.95-12.951-12.95-12.951a6.02,6.02,0,0,1,0-8.515l6.356-6.357,27.824,27.824Z" transform="translate(976.97 602.447)" fill="none" stroke="#7dc058" stroke-linecap="round" stroke-linejoin="round" stroke-width="1"/>
    <path id="Path_117" data-name="Path 117" d="M1230.715,707.2l-6.356-6.358a6.02,6.02,0,0,1,0-8.514l12.95-12.951-12.95-12.951a6.022,6.022,0,0,1,0-8.515l6.356-6.357,27.824,27.824Z" transform="translate(989.027 602.447)" fill="none" stroke="#07716e" stroke-linecap="round" stroke-linejoin="round" stroke-width="1"/>
    <path id="Path_118" data-name="Path 118" d="M1255.064,707.2l-6.356-6.358a6.021,6.021,0,0,1,0-8.514l12.951-12.951-12.951-12.951a6.023,6.023,0,0,1,0-8.515l6.356-6.357,27.824,27.824Z" transform="translate(1001.084 602.447)" fill="none" stroke="#7dc058" stroke-linecap="round" stroke-linejoin="round" stroke-width="1"/>
    <path id="Path_119" data-name="Path 119" d="M1279.413,707.2l-6.356-6.358a6.021,6.021,0,0,1,0-8.514l12.952-12.951-12.952-12.951a6.023,6.023,0,0,1,0-8.515l6.356-6.357,27.823,27.824Z" transform="translate(1013.141 602.447)" fill="none" stroke="#07716e" stroke-linecap="round" stroke-linejoin="round" stroke-width="1"/>
    <path id="Path_120" data-name="Path 120" d="M1303.762,707.2l-6.356-6.358a6.018,6.018,0,0,1,0-8.514l12.951-12.951-12.951-12.951a6.02,6.02,0,0,1,0-8.515l6.356-6.357,27.824,27.824Z" transform="translate(1025.198 602.447)" fill="none" stroke="#7dc058" stroke-linecap="round" stroke-linejoin="round" stroke-width="1"/>
    <path id="Path_121" data-name="Path 121" d="M1328.111,707.2l-6.356-6.358a6.018,6.018,0,0,1,0-8.514l12.95-12.951-12.95-12.951a6.02,6.02,0,0,1,0-8.515l6.356-6.357,27.824,27.824Z" transform="translate(1037.254 602.447)" fill="none" stroke="#07716e" stroke-linecap="round" stroke-linejoin="round" stroke-width="1"/>
    <path id="Path_122" data-name="Path 122" d="M1352.459,707.2l-6.356-6.358a6.021,6.021,0,0,1,0-8.514l12.951-12.951L1346.1,666.425a6.023,6.023,0,0,1,0-8.515l6.356-6.357,27.824,27.824Z" transform="translate(1049.312 602.447)" fill="none" stroke="#7dc058" stroke-linecap="round" stroke-linejoin="round" stroke-width="1"/>
    <g id="Group_11" data-name="Group 11" transform="translate(2430.058 1254)">
      <path id="Path_123" data-name="Path 123" d="M1376.808,707.2l-6.356-6.358a6.021,6.021,0,0,1,0-8.514l12.951-12.951-12.951-12.951a6.023,6.023,0,0,1,0-8.515l6.356-6.357,27.824,27.824Z" transform="translate(-1368.689 -651.553)" fill="none" stroke="#07716e" stroke-linecap="round" stroke-linejoin="round" stroke-width="1"/>
    </g>
  </g>
</svg>
