<svg xmlns="http://www.w3.org/2000/svg" width="73.348" height="56.646" viewBox="0 0 73.348 56.646">
  <g id="visual-4" transform="translate(-2282.152 -1117.5)">
    <path id="Path_122" data-name="Path 122" d="M1352.459,707.2l-6.356-6.358a6.021,6.021,0,0,1,0-8.514l12.951-12.951L1346.1,666.425a6.023,6.023,0,0,1,0-8.515l6.356-6.357,27.824,27.824Z" transform="translate(938.312 466.447)" fill="none" stroke="#07716e" stroke-linecap="round" stroke-linejoin="round" stroke-width="1"/>
    <g id="Group_11" data-name="Group 11" transform="translate(2319.058 1118)">
      <path id="Path_123" data-name="Path 123" d="M1376.808,707.2l-6.356-6.358a6.021,6.021,0,0,1,0-8.514l12.951-12.951-12.951-12.951a6.023,6.023,0,0,1,0-8.515l6.356-6.357,27.824,27.824Z" transform="translate(-1368.689 -651.553)" fill="none" stroke="#7dc058" stroke-linecap="round" stroke-linejoin="round" stroke-width="1"/>
    </g>
  </g>
</svg>
