<?xml version="1.0" encoding="utf-8"?>
<!-- Generator: Adobe Illustrator 24.0.0, SVG Export Plug-In . SVG Version: 6.00 Build 0)  -->
<svg version="1.1" id="Layer_1" xmlns="http://www.w3.org/2000/svg" xmlns:xlink="http://www.w3.org/1999/xlink" x="0px" y="0px"
	 viewBox="0 0 401 56.6" style="enable-background:new 0 0 401 56.6;" xml:space="preserve">
<style type="text/css">
	.st0{fill:none;stroke:#006C68;stroke-linecap:round;stroke-linejoin:round;}
	.st1{fill:none;stroke:#84BC47;stroke-linecap:round;stroke-linejoin:round;}
</style>
<g id="Group_10" transform="translate(1125.201 651.553)">
	<path id="Path_113" class="st0" d="M-1116.6-595.4l-6.4-6.4c-2.4-2.4-2.4-6.2,0-8.5l13-13l-13-13c-2.4-2.4-2.4-6.2,0-8.5l6.4-6.4
		l27.8,27.8L-1116.6-595.4z"/>
</g>
<path id="Path_114" class="st1" d="M45,56.1l-6.4-6.4c-2.4-2.4-2.4-6.2,0-8.5l13-13l-13-13c-2.4-2.4-2.4-6.2,0-8.5L45,0.5l27.8,27.8
	L45,56.1z"/>
<path id="Path_115" class="st0" d="M81.4,56.1l-6.4-6.4c-2.4-2.4-2.4-6.2,0-8.5c0,0,0,0,0,0l13-13l-13-13c-2.4-2.4-2.4-6.2,0-8.5
	c0,0,0,0,0,0l6.4-6.4l27.8,27.8L81.4,56.1z"/>
<path id="Path_116" class="st1" d="M117.8,56.1l-6.4-6.4c-2.4-2.3-2.4-6.2,0-8.5c0,0,0,0,0,0l12.9-13l-12.9-13
	c-2.4-2.4-2.4-6.2,0-8.5c0,0,0,0,0,0l6.4-6.4l27.8,27.8L117.8,56.1z"/>
<path id="Path_117" class="st0" d="M154.2,56.1l-6.4-6.4c-2.4-2.4-2.4-6.2,0-8.5c0,0,0,0,0,0l12.9-13l-12.9-13
	c-2.4-2.4-2.4-6.2,0-8.5l6.4-6.4l27.8,27.8L154.2,56.1z"/>
<path id="Path_118" class="st1" d="M190.6,56.1l-6.4-6.4c-2.4-2.4-2.4-6.2,0-8.5l13-13l-13-13c-2.4-2.4-2.4-6.2,0-8.5l6.4-6.4
	l27.8,27.8L190.6,56.1z"/>
<path id="Path_119" class="st0" d="M227.1,56.1l-6.4-6.4c-2.4-2.4-2.4-6.2,0-8.5l13-13l-13-13c-2.4-2.4-2.4-6.2,0-8.5l6.4-6.4
	l27.8,27.8L227.1,56.1z"/>
<path id="Path_120" class="st1" d="M263.5,56.1l-6.4-6.4c-2.4-2.3-2.4-6.2,0-8.5c0,0,0,0,0,0l13-13l-13-13c-2.4-2.4-2.4-6.2,0-8.5
	c0,0,0,0,0,0l6.4-6.4l27.8,27.8L263.5,56.1z"/>
<path id="Path_121" class="st0" d="M299.9,56.1l-6.4-6.4c-2.4-2.3-2.4-6.2,0-8.5c0,0,0,0,0,0l12.9-13l-12.9-13
	c-2.4-2.4-2.4-6.2,0-8.5c0,0,0,0,0,0l6.4-6.4l27.8,27.8L299.9,56.1z"/>
<path id="Path_122" class="st1" d="M336.3,56.1l-6.4-6.4c-2.4-2.4-2.4-6.2,0-8.5l13-13l-13-13c-2.4-2.4-2.4-6.2,0-8.5l6.4-6.4
	l27.8,27.8L336.3,56.1z"/>
<g id="Group_11" transform="translate(1489.258 651.553)">
	<path id="Path_123" class="st0" d="M-1116.6-595.4l-6.4-6.4c-2.4-2.4-2.4-6.2,0-8.5l13-13l-13-13c-2.4-2.4-2.4-6.2,0-8.5l6.4-6.4
		l27.8,27.8L-1116.6-595.4z"/>
</g>
</svg>
