<?xml version="1.0" encoding="utf-8"?>
<!-- Generator: Adobe Illustrator 23.1.1, SVG Export Plug-In . SVG Version: 6.00 Build 0)  -->
<svg version="1.1" id="Layer_1" xmlns="http://www.w3.org/2000/svg" xmlns:xlink="http://www.w3.org/1999/xlink" x="0px" y="0px"
	 viewBox="0 0 100 100" style="enable-background:new 0 0 100 100;" xml:space="preserve">
<style type="text/css">
	.st0{fill:#07706D;}
	.st1{fill:#85BD48;}
</style>
<g>
	<path class="st0" d="M50-0.1v11.3c-0.6,0.5-1.8,2.2-3.4,7.7c0,0.1-0.2,0.2-0.3,0.1c-1-0.8-5.3-3.6-12.6-1c-0.2,0.1-0.2,0.3,0,0.4
		c1,0.4,3.4,1.5,4.7,3c0.1,0.1,0,0.3-0.2,0.3c-2.8-0.1-18.4,0.3-30.5,19.3c-0.1,0.2,0.1,0.4,0.3,0.3c3-2.1,13.7-9.1,23.1-8.3
		c0.2,0,0.2,0.3,0.1,0.4C27.7,34.8,12.8,43,9.4,66.4c0,0.2,0.3,0.3,0.4,0.1c2.1-3.7,10.6-17.6,22.3-22.5c0.2-0.1,0.4,0.1,0.2,0.3
		C30,47.1,21,59.6,23,80.2c0,0.2,0.3,0.2,0.4,0c1.2-4,6.4-19.6,15.1-29.1c0.1-0.1,0.4,0,0.3,0.2c-0.6,3.6-3.1,21.1-0.1,34.9
		c0,0.2,0.4,0.2,0.4,0c0.5-5.2,2.7-25.7,7.3-32c0,0,0.1-0.1,0.2-0.1c0,0,0.1,0,0.2,0l1,12.6H46l1.3,16.8h-1.6l0.8,16.6
		C20.5,98.3,0,76.6,0,50.1C0,22.4,22.4,0,50-0.1"/>
	<path class="st1" d="M50-0.1v11.3c0.6,0.5,1.8,2.2,3.4,7.7c0,0.1,0.2,0.2,0.3,0.1c1-0.8,5.3-3.6,12.6-1c0.2,0.1,0.2,0.3,0,0.4
		c-1,0.4-3.4,1.5-4.7,3c-0.1,0.1,0,0.3,0.2,0.3c2.8-0.1,18.4,0.3,30.5,19.3c0.1,0.2-0.1,0.4-0.3,0.3c-3-2.1-13.7-9.1-23.1-8.3
		c-0.2,0-0.2,0.3-0.1,0.4c3.4,1.6,18.3,9.8,21.7,33.2c0,0.2-0.3,0.3-0.4,0.1C88.2,62.8,79.7,48.9,67.9,44c-0.2-0.1-0.4,0.1-0.2,0.3
		C70,47.1,79,59.6,77,80.2c0,0.2-0.3,0.2-0.4,0c-1.2-4-6.4-19.6-15.1-29.1c-0.1-0.1-0.4,0-0.3,0.2c0.6,3.6,3.1,21.1,0.1,34.9
		c0,0.2-0.4,0.2-0.4,0c-0.5-5.2-2.7-25.7-7.3-32c0,0-0.1-0.1-0.2-0.1c0,0-0.1,0-0.2,0l-1,12.6H54l-1.3,16.8h1.6l-0.8,16.6
		c26-1.9,46.5-23.6,46.5-50.1C100,22.4,77.6,0,50-0.1"/>
</g>
</svg>
