<svg xmlns="http://www.w3.org/2000/svg" width="430.4" height="552.201" viewBox="0 0 430.4 552.201">
  <g id="Icon" transform="translate(-0.8)">
    <g id="Group" transform="translate(144 182)">
      <rect id="Rectangle" width="142.3" height="11.4" transform="translate(0.9)" fill="#6ebd44"/>
      <rect id="Rectangle-2" data-name="Rectangle" width="142.3" height="11.4" transform="translate(0.9 37.4)" fill="#6ebd44"/>
      <rect id="Rectangle-3" data-name="Rectangle" width="142.3" height="11.4" transform="translate(0.9 74.8)" fill="#6ebd44"/>
      <rect id="Rectangle-4" data-name="Rectangle" width="99.8" height="11.4" transform="translate(100.6 123.555) rotate(180)" fill="#6ebd44"/>
    </g>
    <g id="Group-2" data-name="Group">
      <path id="Path" d="M0,0,87.9,50.7,0,101.4Z" transform="translate(335.4 193.2)" fill="#41bfbe"/>
      <path id="Path-2" data-name="Path" d="M0,0,87.8,50.7,0,101.4Z" transform="translate(112.4 64.4)" fill="#008a71"/>
      <path id="Path-3" data-name="Path" d="M0,0,87.8,50.7,0,101.4Z" transform="translate(112.4 322)" fill="#44b549"/>
      <path id="Path-4" data-name="Path" d="M0,50.7,87.8,0V101.4Z" transform="translate(231.8 322)" fill="#046F6D"/>
      <path id="Path-5" data-name="Path" d="M0,50.7,87.8,0V101.4Z" transform="translate(231.8 64.4)" fill="#00b495"/>
      <path id="Path-6" data-name="Path" d="M0,50.7,87.9,0V101.4Z" transform="translate(8.7 193.2)" fill="#00a551"/>
      <path id="Path-7" data-name="Path" d="M0,50.7,87.9,0V101.4Z" transform="translate(343.3 257.6)" fill="#39bec1"/>
      <path id="Path-8" data-name="Path" d="M0,50.7,87.9,0V101.4Z" transform="translate(343.3 128.8)" fill="#38bcac"/>
      <path id="Path-9" data-name="Path" d="M0,50.7,87.9,0V101.4Z" transform="translate(8.7 322)" fill="#32b34a"/>
      <path id="Path-10" data-name="Path" d="M0,50.7,87.8,0V101.4Z" transform="translate(120.3 386.4)" fill="#6ebd44"/>
      <path id="Path-11" data-name="Path" d="M0,0,87.8,50.7,0,101.4Z" transform="translate(223.9 386.4)" fill="#a0cc3a"/>
      <path id="Path-12" data-name="Path" d="M0,0,87.9,50.7,0,101.4Z" transform="translate(335.4 322)" fill="#00b6c3"/>
      <path id="Path-13" data-name="Path" d="M0,50.7,87.8,0V101.4Z" transform="translate(231.8 450.8)" fill="#c0d72f"/>
      <path id="Path-14" data-name="Path" d="M0,0,87.9,50.7,0,101.4Z" transform="translate(0.8 257.6)" fill="#00ae4d"/>
      <path id="Path-15" data-name="Path" d="M0,0,87.8,50.7,0,101.4Z" transform="translate(223.9)" fill="#00b097"/>
      <path id="Path-16" data-name="Path" d="M0,0,87.9,50.7,0,101.4Z" transform="translate(335.4 64.4)" fill="#34baa6"/>
      <path id="Path-17" data-name="Path" d="M0,50.7,87.8,0V101.4Z" transform="translate(120.3)" fill="#00a787"/>
      <path id="Path-18" data-name="Path" d="M0,0,87.9,50.7,0,101.4Z" transform="translate(0.8 128.8)" fill="#00914d"/>
      <path id="Path-19" data-name="Path" d="M0,50.7,87.9,0V101.4Z" transform="translate(8.7 64.4)" fill="#00844a"/>
    </g>
  </g>
</svg>
