<?xml version="1.0" encoding="utf-8"?>
<!-- Generator: Adobe Illustrator 24.0.0, SVG Export Plug-In . SVG Version: 6.00 Build 0)  -->
<svg version="1.1" id="Layer_1" xmlns="http://www.w3.org/2000/svg" xmlns:xlink="http://www.w3.org/1999/xlink" x="0px" y="0px"
	 viewBox="0 0 430.4 552.2" style="enable-background:new 0 0 430.4 552.2;" xml:space="preserve">
<style type="text/css">
	.st0{fill:#07716E;}
	.st1{fill:#7DC058;}
	.st2{fill:#FFFFFF;}
	.st3{fill:#989898;}
</style>
<g id="Layer_2_1_">
	<g id="Layer_1-2">
		<path class="st0" d="M406.7,219.6c-4.5,0-8.1,3.6-8.1,8.1v33.9c0,0.5-0.1,1.1-0.3,1.6c-0.3,0.7-0.8,1.4-1.5,1.8
			c-0.7,0.5-1.5,0.7-2.3,0.7h-29.7v-46.1h-16.3c-4.5,0-8.1,3.6-8.1,8.1v38h-33.7v-46.1h-16.3c-4.5,0-8.1,3.6-8.1,8.1v38h-45.4
			c-0.5,0-1.1-0.1-1.6-0.3c-0.7-0.3-1.4-0.8-1.8-1.5c-0.5-0.7-0.7-1.5-0.7-2.3V160.9c0-4.5-3.6-8.1-8.1-8.1c0,0,0,0,0,0h-16.3v108.9
			c0,15.7,12.7,28.5,28.5,28.5c0,0,0,0,0,0h157.6c15.7,0,28.5-12.7,28.5-28.5c0,0,0,0,0,0v-42.1H406.7z"/>
		<path class="st1" d="M130.2,285.2c7.8-5.3,12.5-14.1,12.5-23.6V152.8h-16.3c-4.5,0-8.1,3.6-8.1,8.1c0,0,0,0,0,0v100.7
			c0,0.8-0.2,1.6-0.7,2.3c-0.4,0.7-1.1,1.2-1.8,1.5c-0.5,0.2-1,0.3-1.6,0.3H14.2c-4.5,0-8.1,3.6-8.1,8.1v16.3h108.3
			C120,290.1,125.5,288.4,130.2,285.2z"/>
		<path class="st0" d="M162.8,227.7v61.7c0,1.5-0.8,2.9-2.1,3.6l-44.3,24c-3.9,2.1-5.4,7.1-3.3,11c0,0,0,0,0,0l7.8,14.3l51.5-27.9
			c9.2-5,14.9-14.6,14.9-25v-69.8h-16.3C166.4,219.6,162.8,223.2,162.8,227.7C162.8,227.7,162.8,227.7,162.8,227.7z"/>
		<polygon class="st2" points="120.8,342.3 120.8,342.3 120.8,342.3 		"/>
		<path class="st0" d="M57.4,242.9l6.9,6.9l30.1-30.1l-30.1-30.1l-6.9,6.9c-2.5,2.5-2.5,6.7,0,9.2c0,0,0,0,0,0l14,14l-14,14
			C54.8,236.3,54.8,240.4,57.4,242.9z"/>
		<path class="st1" d="M368.1,195.3L368.1,195.3c0,0,0,0.1,0,0.1c0.1,7.4,6.1,13.4,13.6,13.3c7.2-0.1,13.1-5.8,13.3-13.1
			c0-0.1,0-0.2,0-0.3c0,0,0-0.1,0-0.1l0,0l0,0v-0.1l0,0v-0.1l0,0c-0.2-7.4-6.4-13.2-13.8-13c-7.1,0.2-12.7,5.9-13,12.9l0,0
			c0,0,0,0.1,0,0.2l0,0L368.1,195.3L368.1,195.3L368.1,195.3z"/>
		<path class="st2" d="M391.1,185.8L391.1,185.8L391.1,185.8z"/>
		<path class="st2" d="M391.1,204.8L391.1,204.8L391.1,204.8z"/>
		<path class="st2" d="M372.1,185.8L372.1,185.8L372.1,185.8z"/>
		<path class="st2" d="M372.1,204.8L372.1,204.8L372.1,204.8z"/>
		<path class="st2" d="M333.8,185.8L333.8,185.8L333.8,185.8z"/>
		<path class="st2" d="M314.8,185.8L314.8,185.8L314.8,185.8z"/>
		<path class="st1" d="M310.8,195.3L310.8,195.3c0,0,0,0.1,0,0.1c0.1,7.4,6.2,13.4,13.6,13.3c7.2-0.1,13.1-5.9,13.3-13.1
			c0-0.2,0-0.3,0-0.4l0,0l0,0l0,0v-0.2l0,0c-0.2-7.4-6.4-13.3-13.8-13c-7.1,0.2-12.8,5.8-13,12.9l0,0c0,0,0,0.1,0,0.2l0,0
			L310.8,195.3L310.8,195.3L310.8,195.3z"/>
		<path class="st2" d="M314.8,204.8L314.8,204.8L314.8,204.8z"/>
		<path class="st2" d="M333.8,204.8L333.8,204.8L333.8,204.8z"/>
		<path class="st2" d="M343.4,156.7L343.4,156.7L343.4,156.7z"/>
		<path class="st2" d="M362.4,156.7L362.4,156.7L362.4,156.7z"/>
		<path class="st1" d="M339.5,166.2L339.5,166.2c0,0,0,0.1,0,0.1c0.1,7.4,6.1,13.4,13.6,13.3c7.2-0.1,13.1-5.8,13.3-13.1
			c0-0.1,0-0.2,0-0.3c0,0,0-0.1,0-0.1l0,0l0,0v-0.1l0,0V166l0,0c0-7.4-6-13.4-13.4-13.5c-7.4,0-13.4,6-13.5,13.4l0,0
			c0,0,0,0.1,0,0.2l0,0L339.5,166.2L339.5,166.2L339.5,166.2z"/>
		<path class="st2" d="M362.4,175.7L362.4,175.7L362.4,175.7z"/>
		<path class="st2" d="M343.4,175.7L343.4,175.7L343.4,175.7z"/>
		<path class="st3" d="M418.3,308.2c-0.8,0-1.6,0.6-1.7,1.4l6.4,6.4v-7.8H418.3z"/>
		<path class="st3" d="M416.6,353h4.7c1,0,1.8-0.8,1.8-1.8v-31.5l-6.4,5.1V353z"/>
		<path class="st3" d="M375.7,328.7v13.4h23.8v1.9c0,1.4-1.1,2.5-2.5,2.5h-83.2l-7.7-15.6c-0.6-1.3-0.1-2.8,1.2-3.4c0,0,0,0,0,0
			l24.6-11.7c2.3-1.1,3.3-3.9,2.2-6.2c0,0,0,0,0,0l-0.8-1.6l-28.8,13.7c-4.5,2.1-6.4,7.5-4.2,11.9c0,0,0,0.1,0,0.1l2.6,5.2l-3.7,6.4
			c-0.5,0.8-1.3,1.2-2.2,1.3h-9.3c-1.4,0-2.5-1.1-2.5-2.5c0,0,0,0,0,0V310c0-1-0.8-1.8-1.8-1.8h-4.7V344c0,4.9,4,9,9,9h9.3
			c3.2,0,6.1-1.7,7.7-4.5l1.6-2.7l3.5,7.1h87.2c4.9,0,8.9-4,8.9-8.9v-24.3h-21.2C379.7,319.7,375.7,323.7,375.7,328.7z M382.1,328.7
			c0-1.4,1.1-2.5,2.5-2.5l0,0h14.8v9.5h-17.3L382.1,328.7z"/>
		<path class="st3" d="M262.7,333.4V354c0,0.9-0.5,1.8-1.3,2.2l-15.6,8.5c-0.9,0.5-1.2,1.6-0.7,2.4l2.2,4.1l17.2-9.3
			c2.9-1.6,4.7-4.6,4.7-7.9v-22.3h-4.7C263.5,331.6,262.7,332.4,262.7,333.4C262.7,333.4,262.7,333.4,262.7,333.4z"/>
		<path class="st3" d="M253.2,344v-35.8h-4.7c-1,0-1.8,0.8-1.8,1.8v0V344c0,1.4-1.1,2.5-2.5,2.5h-34c-1,0-1.8,0.8-1.8,1.8v4.7h35.8
			C249.2,353,253.2,349,253.2,344z"/>
		<path class="st3" d="M224.4,338.9l1.6,1.6l9.9-9.9l-9.9-9.9l-1.6,1.6c-0.7,0.7-0.7,1.8,0,2.5l5.8,5.8l-5.8,5.9
			C223.7,337.1,223.7,338.2,224.4,338.9C224.4,338.9,224.4,338.9,224.4,338.9z"/>
		<circle class="st3" cx="391.9" cy="311.4" r="3.2"/>
	</g>
</g>
</svg>
