<?xml version="1.0" encoding="utf-8"?>
<!-- Generator: Adobe Illustrator 24.0.0, SVG Export Plug-In . SVG Version: 6.00 Build 0)  -->
<svg version="1.1" id="logo_copy" xmlns="http://www.w3.org/2000/svg" xmlns:xlink="http://www.w3.org/1999/xlink" x="0px" y="0px"
	 viewBox="0 0 1000.1 791.6" style="enable-background:new 0 0 1000.1 791.6;" xml:space="preserve">
<style type="text/css">
	.st0{fill:#07716E;}
	.st1{fill:#7DC058;}
	.st2{fill:#FFFFFF;}
	.st3{fill:#989898;}
</style>
<g id="Layer_2_1_">
	<g id="Layer_1-2">
		<path class="st0" d="M954.7,312.9c-10.6,0-19.2,8.6-19.2,19.2v80c0,1.3-0.3,2.5-0.7,3.7c-0.7,1.7-1.9,3.2-3.5,4.2
			c-1.6,1.1-3.4,1.6-5.3,1.6h-70V312.9h-38.3c-10.6,0-19.2,8.6-19.2,19.2v89.6h-79.5V312.9h-38.3c-10.6,0-19.2,8.6-19.2,19.2v89.6
			H554.3c-1.3,0-2.5-0.2-3.7-0.7c-1.7-0.7-3.2-2-4.2-3.5c-1.1-1.6-1.6-3.4-1.6-5.3V174.6c0-10.6-8.6-19.2-19.2-19.2c0,0,0,0,0,0
			h-38.3v256.7c0,37.1,30,67.1,67.1,67.1c0,0,0,0,0,0h371.6c37.1,0,67.1-30,67.1-67.1c0,0,0,0,0,0v-99.2H954.7z"/>
		<path class="st1" d="M302.8,467.7c18.5-12.5,29.6-33.3,29.6-55.6V155.4H294c-10.6,0-19.2,8.6-19.2,19.2c0,0,0,0,0,0v237.5
			c0,1.9-0.6,3.8-1.6,5.3c-1,1.6-2.5,2.8-4.2,3.5c-1.2,0.5-2.4,0.7-3.7,0.7H29.2c-10.6,0-19.2,8.6-19.2,19.2v38.3h255.3
			C278.7,479.2,291.7,475.2,302.8,467.7z"/>
		<path class="st0" d="M379.5,332.1v145.4c0,3.5-1.9,6.7-5,8.4L270,542.5c-9.3,5-12.8,16.7-7.7,26c0,0,0,0,0,0l18.3,33.7L402,536.4
			c21.6-11.7,35.1-34.4,35.1-59V312.9h-38.3C388.2,312.9,379.6,321.4,379.5,332.1C379.5,332,379.5,332,379.5,332.1z"/>
		<polygon class="st2" points="280.6,602.2 280.6,602.2 280.6,602.2 		"/>
		<path class="st0" d="M131,368l16.2,16.2l71.1-71.1l-71.1-71L131,258.4c-6,6-6,15.7,0,21.7c0,0,0,0,0,0l33.1,33.1L131,346.3
			C125,352.3,125,362,131,368z"/>
		<path class="st1" d="M863.7,255.7L863.7,255.7c0,0.1,0,0.2,0,0.3c0.2,17.5,14.5,31.5,31.9,31.4c17.1-0.2,30.9-13.8,31.4-30.8
			c0-0.3,0-0.5,0-0.7c0-0.1,0-0.2,0-0.3l0,0l0,0v-0.2l0,0v-0.3l0,0c-0.5-17.5-15.2-31.2-32.6-30.7c-16.6,0.5-30,13.8-30.7,30.5l0,0
			c0,0,0,0.2,0,0.5l0,0L863.7,255.7L863.7,255.7L863.7,255.7z"/>
		<path class="st2" d="M917.7,233.2L917.7,233.2L917.7,233.2z"/>
		<path class="st2" d="M917.8,278L917.8,278L917.8,278z"/>
		<path class="st2" d="M872.9,233.2L872.9,233.2L872.9,233.2z"/>
		<path class="st2" d="M873,278.1L873,278.1L873,278.1z"/>
		<path class="st2" d="M782.6,233.2L782.6,233.2L782.6,233.2z"/>
		<path class="st2" d="M737.8,233.2L737.8,233.2L737.8,233.2z"/>
		<path class="st1" d="M728.6,255.7L728.6,255.7c0,0.1,0,0.2,0,0.3c0.2,17.5,14.5,31.5,32,31.3c17-0.2,30.9-13.8,31.3-30.8
			c0-0.4,0-0.7,0-0.8l0,0l0,0l0,0v-0.4l0,0c-0.5-17.5-15.1-31.3-32.5-30.8c-16.7,0.5-30.1,13.8-30.7,30.4l0,0c0,0,0,0.2,0,0.5l0,0
			L728.6,255.7L728.6,255.7L728.6,255.7z"/>
		<path class="st2" d="M737.9,278L737.9,278L737.9,278z"/>
		<path class="st2" d="M782.7,278L782.7,278L782.7,278z"/>
		<path class="st2" d="M805.4,164.7L805.4,164.7L805.4,164.7z"/>
		<path class="st2" d="M850.2,164.7L850.2,164.7L850.2,164.7z"/>
		<path class="st1" d="M796.1,187.1L796.1,187.1c0,0.1,0,0.2,0,0.3c0.2,17.5,14.5,31.5,31.9,31.4c17.1-0.2,30.9-13.8,31.4-30.8
			c0-0.3,0-0.5,0-0.7c0-0.1,0-0.2,0-0.3l0,0l0,0v-0.3l0,0v-0.3l0,0c0-17.5-14.1-31.7-31.6-31.7c-17.5,0-31.7,14.1-31.7,31.6l0,0
			c0,0,0,0.2,0,0.5l0,0L796.1,187.1L796.1,187.1L796.1,187.1z"/>
		<path class="st2" d="M850.2,209.5L850.2,209.5L850.2,209.5z"/>
		<path class="st2" d="M805.4,209.5L805.4,209.5L805.4,209.5z"/>
		<path class="st3" d="M982,521.8c-2,0-3.7,1.4-4.1,3.3l15.1,15.1v-18.3H982z"/>
		<path class="st3" d="M977.8,627.5h11c2.3,0,4.2-1.9,4.2-4.2V549l-15.2,12.1V627.5z"/>
		<path class="st3" d="M881.5,570.2v31.6h56v4.6c0,3.3-2.7,5.9-5.9,5.9H735.5l-18.1-36.9c-1.4-2.9-0.2-6.5,2.7-8c0,0,0,0,0.1,0
			l58-27.6c5.5-2.6,7.8-9.1,5.2-14.6c0,0,0,0,0,0l-1.8-3.8l-67.9,32.3c-10.5,5-15,17.6-10,28.1c0,0.1,0.1,0.1,0.1,0.2l6,12.3
			l-8.7,15c-1.1,1.8-3,2.9-5.1,2.9H674c-3.3,0-5.9-2.7-5.9-5.9c0,0,0,0,0,0v-80.3c0-2.3-1.9-4.2-4.2-4.2h-11v84.5
			c0,11.7,9.5,21.1,21.1,21.1h21.9c7.5,0,14.4-4,18.2-10.5l3.7-6.3l8.2,16.7h205.6c11.6,0,21.1-9.5,21.1-21.1V549h-50.1
			C890.9,549.1,881.5,558.5,881.5,570.2z M896.6,570.2c0-3.3,2.7-5.9,5.9-5.9l0,0h34.9v22.4h-40.8L896.6,570.2z"/>
		<path class="st3" d="M615.2,581.3v48.4c0,2.2-1.2,4.2-3.1,5.2l-36.9,20c-2,1.1-2.8,3.7-1.7,5.7l5.2,9.6l40.5-22
			c6.8-3.7,11.1-10.8,11.1-18.6v-52.6h-11C617.1,577.1,615.2,579,615.2,581.3C615.2,581.3,615.2,581.3,615.2,581.3z"/>
		<path class="st3" d="M592.8,606.4v-84.5h-11c-2.3,0-4.2,1.9-4.2,4.2v0v80.3c0,3.3-2.7,5.9-5.9,5.9h-80.2c-2.3,0-4.2,1.9-4.2,4.2
			v11h84.4C583.3,627.5,592.8,618,592.8,606.4z"/>
		<path class="st3" d="M524.9,594.3l3.7,3.7l23.5-23.4l-23.5-23.4l-3.7,3.7c-1.6,1.6-1.6,4.3,0,6l13.8,13.8l-13.8,13.8
			C523.2,590,523.2,592.6,524.9,594.3C524.9,594.3,524.9,594.3,524.9,594.3z"/>
		<circle class="st3" cx="919.7" cy="529.4" r="7.6"/>
	</g>
</g>
</svg>
