<svg id="logo_copy" data-name="logo copy" xmlns="http://www.w3.org/2000/svg" width="1000.101" height="791.602" viewBox="0 0 1000.101 791.602">
  <g id="Text" transform="translate(0 624)">
    <g id="Group">
      <path id="Shape" d="M138.1,164.2h0l-37.5,0c-6.563-8.452-13.023-17.132-19.2-25.8-6.568-9.071-12.917-18.1-18.8-26.5H31.5v52.3H0V0H74.6a62.878,62.878,0,0,1,23,4.1,52.164,52.164,0,0,1,17.9,11.7,54.821,54.821,0,0,1,11.6,17.9,60.282,60.282,0,0,1,4.2,22.8,63.557,63.557,0,0,1-2.325,17.45,54.084,54.084,0,0,1-17.837,27A54.168,54.168,0,0,1,97.2,109c13.143,17.334,26.522,35.391,40.9,55.2ZM31.4,28V84.2H74.6a25.709,25.709,0,0,0,8.8-1.7,21.578,21.578,0,0,0,8.2-5.2,26.752,26.752,0,0,0,5.9-8.6,28.308,28.308,0,0,0,2.4-12.1,48.112,48.112,0,0,0-.9-8.5,27.613,27.613,0,0,0-3.6-9.4,22.929,22.929,0,0,0-7.6-7.6C84.523,29.014,80.2,28,74.6,28Z" transform="translate(448.4 3.2)" fill="#23252d"/>
      <path id="Path" d="M87,0H83.9L0,163.9H34.1L85.5,61.2l51.3,102.7h34.1Z" transform="translate(635.7 3.5)" fill="#23252d"/>
      <path id="Shape-2" data-name="Shape" d="M138.1,164.2h0l-37.5,0c-6.563-8.452-13.023-17.132-19.2-25.8-6.568-9.071-12.917-18.1-18.8-26.5H31.5v52.3H0V0H74.6a62.878,62.878,0,0,1,23,4.1,52.164,52.164,0,0,1,17.9,11.7,54.821,54.821,0,0,1,11.6,17.9,60.282,60.282,0,0,1,4.2,22.8,63.557,63.557,0,0,1-2.325,17.45,54.084,54.084,0,0,1-17.837,27A54.168,54.168,0,0,1,97.2,109c13.143,17.334,26.522,35.391,40.9,55.2ZM31.4,28V84.2H74.6a25.709,25.709,0,0,0,8.8-1.7,22.409,22.409,0,0,0,8.2-5.2,26.752,26.752,0,0,0,5.9-8.6,28.308,28.308,0,0,0,2.4-12.1,48.112,48.112,0,0,0-.9-8.5,27.613,27.613,0,0,0-3.6-9.4,22.929,22.929,0,0,0-7.6-7.6C84.523,29.014,80.2,28,74.6,28Z" transform="translate(862 3.2)" fill="#23252d"/>
      <path id="Path-2" data-name="Path" d="M87,0H83.9L0,163.9H34.1L85.4,61.2l51.4,102.7h34.1Z" transform="translate(222.1 3.5)" fill="#23252d"/>
      <path id="Shape-3" data-name="Shape" d="M170.5,167.2H88.8a130.775,130.775,0,0,1-21.375-1.65A89.527,89.527,0,0,1,49.2,160.6a78.579,78.579,0,0,1-27.7-17.9A70.747,70.747,0,0,1,5.2,116.1,101.642,101.642,0,0,1,0,83.6,80.847,80.847,0,0,1,6.6,51.1a87.493,87.493,0,0,1,7.788-14.275A86.588,86.588,0,0,1,24.5,24.5,87.154,87.154,0,0,1,36.812,14.387,88.156,88.156,0,0,1,51,6.6,78.6,78.6,0,0,1,66.675,1.65,83.988,83.988,0,0,1,83.4,0a80.847,80.847,0,0,1,32.5,6.6,87.5,87.5,0,0,1,14.275,7.788A86.56,86.56,0,0,1,142.5,24.5a82.836,82.836,0,0,1,10.15,12.325A88.351,88.351,0,0,1,160.4,51.1a80.213,80.213,0,0,1,4.95,15.762A84.217,84.217,0,0,1,167,83.6a74.856,74.856,0,0,1-1.7,15.3,64.232,64.232,0,0,1-5.5,15.3,58.481,58.481,0,0,1-9.8,13.7,50.379,50.379,0,0,1-14.7,10.5h35.2v28.8h0ZM83.6,30.5a48.158,48.158,0,0,0-20.3,4.3A52.978,52.978,0,0,0,35.5,63.1a53.178,53.178,0,0,0-4.1,20.5A52.2,52.2,0,0,0,35.5,104a56.148,56.148,0,0,0,11.2,16.9,52.57,52.57,0,0,0,16.6,11.6,50.065,50.065,0,0,0,40.6,0,52.27,52.27,0,0,0,16.6-11.6A56.911,56.911,0,0,0,131.7,104a50.574,50.574,0,0,0,4.1-20.4,53.179,53.179,0,0,0-4.1-20.5,54.472,54.472,0,0,0-11.2-16.9,52.592,52.592,0,0,0-16.6-11.4A49.668,49.668,0,0,0,83.6,30.5Z" transform="translate(0 0.4)" fill="#23252d"/>
    </g>
  </g>
  <g id="Icon" transform="translate(284)">
    <g id="Group-2" data-name="Group" transform="translate(144 182)">
      <rect id="Rectangle" width="142.3" height="11.4" transform="translate(0.9)" fill="#6ebd44"/>
      <rect id="Rectangle-2" data-name="Rectangle" width="142.3" height="11.4" transform="translate(0.9 37.4)" fill="#6ebd44"/>
      <rect id="Rectangle-3" data-name="Rectangle" width="142.3" height="11.4" transform="translate(0.9 74.8)" fill="#6ebd44"/>
      <rect id="Rectangle-4" data-name="Rectangle" width="99.8" height="11.4" transform="translate(100.6 123.555) rotate(-180)" fill="#6ebd44"/>
    </g>
    <g id="Group-3" data-name="Group">
      <path id="Path-3" data-name="Path" d="M0,0,87.9,50.7,0,101.4Z" transform="translate(335.4 193.2)" fill="#41bfbe"/>
      <path id="Path-4" data-name="Path" d="M0,0,87.8,50.7,0,101.4Z" transform="translate(112.4 64.4)" fill="#008a71"/>
      <path id="Path-5" data-name="Path" d="M0,0,87.8,50.7,0,101.4Z" transform="translate(112.4 322)" fill="#44b549"/>
      <path id="Path-6" data-name="Path" d="M0,50.7,87.8,0V101.4Z" transform="translate(231.8 322)" fill="#00aaba"/>
      <path id="Path-7" data-name="Path" d="M0,50.7,87.8,0V101.4Z" transform="translate(231.8 64.4)" fill="#00b495"/>
      <path id="Path-8" data-name="Path" d="M0,50.7,87.9,0V101.4Z" transform="translate(8.7 193.2)" fill="#00a551"/>
      <path id="Path-9" data-name="Path" d="M0,50.7,87.9,0V101.4Z" transform="translate(343.3 257.6)" fill="#39bec1"/>
      <path id="Path-10" data-name="Path" d="M0,50.7,87.9,0V101.4Z" transform="translate(343.3 128.8)" fill="#38bcac"/>
      <path id="Path-11" data-name="Path" d="M0,50.7,87.9,0V101.4Z" transform="translate(8.7 322)" fill="#32b34a"/>
      <path id="Path-12" data-name="Path" d="M0,50.7,87.8,0V101.4Z" transform="translate(120.3 386.4)" fill="#6ebd44"/>
      <path id="Path-13" data-name="Path" d="M0,0,87.8,50.7,0,101.4Z" transform="translate(223.9 386.4)" fill="#a0cc3a"/>
      <path id="Path-14" data-name="Path" d="M0,0,87.9,50.7,0,101.4Z" transform="translate(335.4 322)" fill="#00b6c3"/>
      <path id="Path-15" data-name="Path" d="M0,50.7,87.8,0V101.4Z" transform="translate(231.8 450.8)" fill="#c0d72f"/>
      <path id="Path-16" data-name="Path" d="M0,0,87.9,50.7,0,101.4Z" transform="translate(0.8 257.6)" fill="#00ae4d"/>
      <path id="Path-17" data-name="Path" d="M0,0,87.8,50.7,0,101.4Z" transform="translate(223.9)" fill="#00b097"/>
      <path id="Path-18" data-name="Path" d="M0,0,87.9,50.7,0,101.4Z" transform="translate(335.4 64.4)" fill="#34baa6"/>
      <path id="Path-19" data-name="Path" d="M0,50.7,87.8,0V101.4Z" transform="translate(120.3)" fill="#00a787"/>
      <path id="Path-20" data-name="Path" d="M0,0,87.9,50.7,0,101.4Z" transform="translate(0.8 128.8)" fill="#00914d"/>
      <path id="Path-21" data-name="Path" d="M0,50.7,87.9,0V101.4Z" transform="translate(8.7 64.4)" fill="#00844a"/>
    </g>
  </g>
</svg>
