<?xml version="1.0" encoding="utf-8"?>
<!-- Generator: Adobe Illustrator 24.0.0, SVG Export Plug-In . SVG Version: 6.00 Build 0)  -->
<svg version="1.1" id="logo_copy" xmlns="http://www.w3.org/2000/svg" xmlns:xlink="http://www.w3.org/1999/xlink" x="0px" y="0px"
	 viewBox="0 0 1000.1 791.6" style="enable-background:new 0 0 1000.1 791.6;" xml:space="preserve">
<style type="text/css">
	.st0{fill:#07716E;}
	.st1{fill:#7DC058;}
	.st2{fill:#FFFFFF;}
	.st3{fill:#989898;}
</style>
<g id="Layer_2_1_">
	<g id="Layer_1-2">
		<path class="st0" d="M958.1,327.3c-10.7,0-19.3,8.7-19.3,19.3v80.7c0,1.3-0.3,2.5-0.8,3.7c-0.7,1.7-2,3.2-3.5,4.3
			c-1.6,1.1-3.5,1.7-5.4,1.6h-70.6V327.3h-38.7c-10.7,0-19.3,8.7-19.3,19.3V437h-80.2V327.3h-38.7c-10.7,0-19.3,8.7-19.3,19.3V437
			h-108c-1.3,0-2.5-0.3-3.7-0.7c-1.7-0.7-3.2-2-4.3-3.5c-1.1-1.6-1.7-3.5-1.6-5.4V187.8c0-10.7-8.7-19.3-19.4-19.3c0,0,0,0,0,0
			h-38.7v258.9c0,37.4,30.3,67.7,67.7,67.7c0,0,0,0,0,0h374.8c37.4,0,67.7-30.3,67.7-67.7c0,0,0,0,0,0V327.3H958.1z"/>
		<path class="st1" d="M300.6,483.5c18.6-12.6,29.8-33.6,29.8-56.1V168.5h-38.7c-10.7,0-19.3,8.7-19.3,19.3c0,0,0,0,0,0v239.6
			c0,1.9-0.6,3.8-1.7,5.4c-1,1.6-2.5,2.8-4.3,3.6c-1.2,0.5-2.4,0.7-3.7,0.7H24.6c-10.7,0-19.3,8.7-19.3,19.3v38.7h257.5
			C276.3,495,289.4,491,300.6,483.5z"/>
		<path class="st0" d="M378,346.6v146.6c0,3.5-1.9,6.8-5.1,8.5l-105.4,57.1c-9.4,5.1-12.9,16.8-7.8,26.2c0,0,0,0,0,0l18.4,34
			l122.5-66.4c21.8-11.8,35.4-34.7,35.4-59.5v-166h-38.7C386.7,327.3,378,335.9,378,346.6C378,346.6,378,346.6,378,346.6z"/>
		<polygon class="st2" points="278.2,619.2 278.2,619.2 278.2,619.2 		"/>
		<path class="st0" d="M127.3,382.9l16.4,16.4l71.7-71.7l-71.7-71.6l-16.4,16.4c-6.1,6.1-6.1,15.9,0,21.9c0,0,0,0,0,0l33.4,33.4
			L127.3,361C121.3,367,121.3,376.8,127.3,382.9z"/>
		<path class="st1" d="M866.3,269.6L866.3,269.6c0,0.1,0,0.2,0,0.3c0.2,17.6,14.6,31.8,32.2,31.7c17.2-0.2,31.2-13.9,31.6-31.1
			c0-0.3,0-0.5,0-0.7c0-0.1,0-0.2,0-0.3l0,0l0,0v-0.2l0,0v-0.3l0,0c-0.5-17.6-15.3-31.5-32.9-30.9c-16.8,0.5-30.3,14-30.9,30.7l0,0
			c0,0,0,0.2,0,0.5l0,0L866.3,269.6L866.3,269.6L866.3,269.6z"/>
		<path class="st2" d="M920.9,246.9L920.9,246.9L920.9,246.9z"/>
		<path class="st2" d="M920.9,292.1L920.9,292.1L920.9,292.1z"/>
		<path class="st2" d="M875.7,247L875.7,247L875.7,247z"/>
		<path class="st2" d="M875.7,292.2L875.7,292.2L875.7,292.2z"/>
		<path class="st2" d="M784.6,246.9L784.6,246.9L784.6,246.9z"/>
		<path class="st2" d="M739.4,247L739.4,247L739.4,247z"/>
		<path class="st1" d="M730.1,269.6L730.1,269.6c0,0.1,0,0.2,0,0.3c0.2,17.6,14.6,31.8,32.3,31.6c17.2-0.2,31.1-13.9,31.6-31.1
			c0-0.4,0-0.7,0-0.9l0,0l0,0l0,0v-0.4l0,0c-0.5-17.6-15.2-31.5-32.8-31c-16.8,0.5-30.4,13.9-31,30.7l0,0c0,0,0,0.2,0,0.5l0,0
			L730.1,269.6L730.1,269.6L730.1,269.6z"/>
		<path class="st2" d="M739.5,292.2L739.5,292.2L739.5,292.2z"/>
		<path class="st2" d="M784.7,292.1L784.7,292.1L784.7,292.1z"/>
		<path class="st2" d="M807.5,177.9L807.5,177.9L807.5,177.9z"/>
		<path class="st2" d="M852.8,177.8L852.8,177.8L852.8,177.8z"/>
		<path class="st1" d="M798.2,200.5L798.2,200.5c0,0.1,0,0.2,0,0.3c0.2,17.6,14.6,31.8,32.2,31.7c17.2-0.2,31.2-13.9,31.6-31.1
			c0-0.3,0-0.5,0-0.7c0-0.1,0-0.2,0-0.3l0,0l0,0v-0.3l0,0v-0.3l0,0c0-17.6-14.2-32-31.9-32c-17.6,0-32,14.2-32,31.9l0,0
			c0,0,0,0.2,0,0.5l0,0L798.2,200.5L798.2,200.5L798.2,200.5z"/>
		<path class="st2" d="M852.8,223L852.8,223L852.8,223z"/>
		<path class="st2" d="M807.6,223.1L807.6,223.1L807.6,223.1z"/>
		<path class="st3" d="M985.7,538.1c-2,0-3.7,1.4-4.1,3.3l15.2,15.2v-18.5H985.7z"/>
		<path class="st3" d="M981.5,644.7h11.1c2.3,0,4.2-1.9,4.2-4.2v-74.9l-15.3,12.2V644.7z"/>
		<path class="st3" d="M884.3,586.8v31.9h56.5v4.6c0,3.3-2.7,6-6,6H737l-18.3-37.2c-1.5-3-0.2-6.6,2.7-8c0,0,0,0,0.1,0l58.5-27.8
			c5.5-2.6,7.9-9.2,5.2-14.7c0,0,0,0,0,0l-1.8-3.8L715,570.3c-10.6,5.1-15.1,17.8-10.1,28.4c0,0.1,0.1,0.1,0.1,0.2l6.1,12.4
			l-8.8,15.1c-1.1,1.8-3,3-5.2,3H675c-3.3,0-6-2.7-6-6c0,0,0,0,0,0v-81c0-2.3-1.9-4.2-4.2-4.3h-11.1v85.2c0,11.8,9.5,21.3,21.3,21.3
			h22.1c7.6,0,14.5-4.1,18.4-10.6l3.7-6.3l8.3,16.9h207.4c11.7,0,21.3-9.5,21.3-21.3v-57.8h-50.5
			C893.9,565.5,884.3,575.1,884.3,586.8z M899.6,586.8c0-3.3,2.7-6,6-6l0,0h35.2v22.6h-41.2L899.6,586.8z"/>
		<path class="st3" d="M615.7,598.1v48.8c0,2.2-1.2,4.2-3.1,5.3l-37.2,20.2c-2.1,1.1-2.8,3.7-1.7,5.8l5.3,9.7l40.9-22.2
			c6.9-3.7,11.2-10.9,11.2-18.7v-53.1H620C617.6,593.8,615.7,595.7,615.7,598.1C615.7,598.1,615.7,598.1,615.7,598.1z"/>
		<path class="st3" d="M593.1,623.3v-85.2H582c-2.3,0-4.2,1.9-4.2,4.2l0,0v81c0,3.3-2.7,6-6,6h-80.9c-2.3,0-4.2,1.9-4.3,4.2v11.1
			h85.2C583.6,644.6,593.1,635.1,593.1,623.3z"/>
		<path class="st3" d="M524.6,611.2l3.7,3.7l23.7-23.6l-23.7-23.6l-3.7,3.7c-1.7,1.7-1.7,4.4,0,6l13.9,13.9l-13.9,13.9
			C522.9,606.8,522.9,609.5,524.6,611.2C524.6,611.2,524.6,611.2,524.6,611.2z"/>
		<circle class="st3" cx="922.8" cy="545.7" r="7.7"/>
	</g>
</g>
</svg>
