<?xml version="1.0" encoding="utf-8"?>
<!-- Generator: Adobe Illustrator 24.0.0, SVG Export Plug-In . SVG Version: 6.00 Build 0)  -->
<svg version="1.1" id="logo_copy" xmlns="http://www.w3.org/2000/svg" xmlns:xlink="http://www.w3.org/1999/xlink" x="0px" y="0px"
	 viewBox="0 0 1000.1 791.6" style="enable-background:new 0 0 1000.1 791.6;" xml:space="preserve">
<style type="text/css">
	.st0{fill:#07716E;}
	.st1{fill:#7DC058;}
	.st2{fill:#FFFFFF;}
	.st3{fill:#989898;}
</style>
<g id="Layer_2_2_">
	<g id="Layer_1-2_1_">
		<path class="st0" d="M961.1,303.8c-10.8,0-19.5,8.7-19.5,19.5v81.4c0,1.3-0.3,2.6-0.8,3.8c-0.7,1.8-2,3.3-3.6,4.3
			c-1.6,1.1-3.5,1.7-5.4,1.7h-71.2V303.8h-39c-10.8,0-19.5,8.7-19.5,19.5v91.2h-80.9V303.8h-39c-10.8,0-19.5,8.7-19.5,19.5v91.2
			H553.8c-1.3,0-2.6-0.3-3.8-0.8c-1.7-0.8-3.2-2-4.3-3.6c-1.1-1.6-1.7-3.5-1.7-5.4V163.1c0-10.8-8.7-19.5-19.5-19.5c0,0,0,0,0,0h-39
			v261.1c0,37.7,30.5,68.3,68.2,68.3c0,0,0,0,0,0h378c37.7,0,68.3-30.6,68.3-68.3c0,0,0,0,0,0V303.8H961.1z"/>
		<path class="st1" d="M297.9,461.3c18.8-12.7,30.1-33.9,30.1-56.6V143.6h-39c-10.8,0-19.5,8.7-19.5,19.5c0,0,0,0,0,0v241.6
			c0,1.9-0.6,3.8-1.7,5.4c-1.1,1.6-2.5,2.8-4.3,3.6c-1.2,0.5-2.5,0.7-3.8,0.7H19.5C8.7,414.5,0,423.2,0,434v39h259.7
			C273.3,473,286.6,468.9,297.9,461.3z"/>
		<path class="st0" d="M376,323.3v147.9c0,3.6-2,6.9-5.1,8.6l-106.3,57.6c-9.5,5.1-13,17-7.9,26.4c0,0,0,0,0,0l18.6,34.3l123.5-67
			c22-11.9,35.7-35,35.7-60V303.8h-39C384.7,303.8,376,312.5,376,323.3C376,323.3,376,323.3,376,323.3z"/>
		<polygon class="st2" points="275.3,598.2 275.3,598.2 275.3,598.2 		"/>
		<path class="st0" d="M123.1,359.9l16.5,16.5l72.3-72.3l-72.3-72.3l-16.5,16.5c-6.1,6.1-6.1,16,0,22.1c0,0,0,0,0,0l33.7,33.7
			l-33.7,33.7C117,343.9,117,353.8,123.1,359.9z"/>
		<path class="st1" d="M868.5,245.6L868.5,245.6c0,0.1,0,0.2,0,0.4c0.2,17.8,14.7,32.1,32.5,31.9c17.3-0.2,31.5-14,31.9-31.4
			c0-0.3,0-0.5,0-0.7v-0.3l0,0v-0.2l0,0V245l0,0c-0.6-17.8-15.4-31.7-33.2-31.2c-16.9,0.5-30.6,14.1-31.2,31l0,0c0,0,0,0.2,0,0.5
			l0,0v0.2l0,0L868.5,245.6z"/>
		<path class="st2" d="M923.5,222.7L923.5,222.7L923.5,222.7z"/>
		<path class="st2" d="M923.6,268.3L923.6,268.3L923.6,268.3z"/>
		<path class="st2" d="M877.9,222.8L877.9,222.8L877.9,222.8z"/>
		<path class="st2" d="M878,268.4L878,268.4L878,268.4z"/>
		<path class="st2" d="M786.1,222.7L786.1,222.7L786.1,222.7z"/>
		<path class="st2" d="M740.5,222.8L740.5,222.8L740.5,222.8z"/>
		<path class="st1" d="M731.1,245.6L731.1,245.6c0,0.1,0,0.2,0,0.4c0.2,17.8,14.8,32.1,32.6,31.9c17.3-0.2,31.4-14.1,31.9-31.4
			c0-0.4,0-0.7,0-0.9l0,0l0,0l0,0v-0.4l0,0c-0.5-17.8-15.3-31.8-33.1-31.3c-16.9,0.5-30.6,14-31.3,30.9l0,0c0,0,0,0.2,0,0.5l0,0
			L731.1,245.6L731.1,245.6L731.1,245.6z"/>
		<path class="st2" d="M740.5,268.4L740.5,268.4L740.5,268.4z"/>
		<path class="st2" d="M786.1,268.3L786.1,268.3L786.1,268.3z"/>
		<path class="st2" d="M809.2,153.1L809.2,153.1L809.2,153.1z"/>
		<path class="st2" d="M854.8,153L854.8,153L854.8,153z"/>
		<path class="st1" d="M799.8,175.9L799.8,175.9c0,0.1,0,0.2,0,0.4c0.2,17.8,14.7,32.1,32.5,31.9c17.3-0.2,31.5-14,31.9-31.4
			c0-0.3,0-0.5,0-0.7c0-0.1,0-0.2,0-0.3l0,0l0,0v-0.3l0,0v-0.3l0,0c-0.3-17.8-15-32-32.8-31.7c-17.3,0.3-31.3,14.2-31.7,31.5l0,0
			c0,0,0,0.2,0,0.5l0,0V175.9L799.8,175.9L799.8,175.9z"/>
		<path class="st2" d="M854.8,198.6L854.8,198.6L854.8,198.6z"/>
		<path class="st2" d="M809.2,198.7L809.2,198.7L809.2,198.7z"/>
		<path class="st3" d="M927.5,565.3v32.3h57.2v4.6c0,3.3-2.7,6.1-6.1,6.1H708.4v-35.9h-11.3c-2.4,0-4.3,1.9-4.3,4.3l0,0v49.5
			c0,2.2-1.2,4.3-3.2,5.3L652,651.9c-2.1,1.1-2.9,3.7-1.7,5.8c0,0,0,0,0,0l5.3,9.8L697,645c6.9-3.7,11.2-10.9,11.3-18.8v-2.6h270.3
			c11.9,0,21.5-9.6,21.6-21.5v-58.5H949C937.1,543.7,927.5,553.4,927.5,565.3z M984.6,582.1h-41.7v-16.8c0-3.4,2.7-6.1,6.1-6.1h35.6
			V582.1z"/>
		<path class="st3" d="M670.1,619.5V516h-11.3c-2.4,0-4.3,1.9-4.3,4.3v103.5h11.3C668.1,623.8,670.1,621.9,670.1,619.5z"/>
		<path class="st3" d="M612.9,631.4l-37.7,20.4c-2.1,1.1-2.8,3.7-1.7,5.8l5.3,9.8l41.4-22.5c6.9-3.8,11.3-11,11.3-19v-53.6h-11.3
			c-2.4,0-4.3,1.9-4.3,4.3v49.5C616,628.3,614.9,630.3,612.9,631.4z"/>
		<path class="st3" d="M593.2,602.2v-86.3H582c-2.4,0-4.3,1.9-4.3,4.3v81.9c0,3.4-2.7,6.1-6.1,6.1h-81.8c-2.4,0-4.3,1.9-4.3,4.3
			v11.3h86.2C583.6,623.7,593.2,614.1,593.2,602.2z"/>
		<path class="st3" d="M527.7,593.7l23.9-23.9l-23.9-23.9l-3.8,3.8c-1.7,1.7-1.7,4.4,0,6.1l14.1,14.1l-14.2,14.1
			c-1.7,1.7-1.7,4.4,0,6.1L527.7,593.7z"/>
		<path class="st3" d="M976.2,531.4c4.3,0,7.8-3.5,7.8-7.8c0-4.3-3.5-7.8-7.8-7.8s-7.8,3.5-7.8,7.8S971.9,531.4,976.2,531.4
			L976.2,531.4z"/>
		<path class="st3" d="M953.4,531.4c4.3,0,7.8-3.5,7.8-7.7s-3.5-7.8-7.7-7.8c-4.3,0-7.8,3.5-7.8,7.7c0,0,0,0,0,0
			C945.7,528,949.1,531.4,953.4,531.4z"/>
	</g>
</g>
</svg>
