<svg id="logo-footer" xmlns="http://www.w3.org/2000/svg" width="97.911" height="78.959" viewBox="0 0 97.911 78.959">
  <g id="Text" transform="translate(0 62)">
    <g id="Group">
      <path id="Shape" d="M3.084,16.617H0V0H7.3A5.975,5.975,0,0,1,9.555.415,5.1,5.1,0,0,1,11.308,1.6,5.589,5.589,0,0,1,12.443,3.41a6.274,6.274,0,0,1,.411,2.308,5.911,5.911,0,0,1-.911,3.289A5.186,5.186,0,0,1,9.516,11.03c1.3,1.77,2.608,3.6,4,5.585l-3.671,0C9.2,15.756,8.571,14.878,7.969,14c-.63-.9-1.257-1.82-1.841-2.682H3.084v5.293ZM3.074,2.833V8.52H7.3a2.455,2.455,0,0,0,.861-.172,2.107,2.107,0,0,0,.8-.526,2.7,2.7,0,0,0,.578-.87A2.946,2.946,0,0,0,9.78,5.728a5.058,5.058,0,0,0-.088-.86,2.857,2.857,0,0,0-.352-.951A2.287,2.287,0,0,0,8.6,3.147,2.306,2.306,0,0,0,7.3,2.833Z" transform="translate(43.899 0.324)" fill="#fff"/>
      <path id="Path" d="M8.517,0h-.3L0,16.585H3.338L8.371,6.193l5.022,10.392h3.338Z" transform="translate(62.236 0.354)" fill="#fff"/>
      <path id="Shape-2" data-name="Shape" d="M3.084,16.617H0V0H7.3A5.975,5.975,0,0,1,9.555.415,5.1,5.1,0,0,1,11.308,1.6,5.589,5.589,0,0,1,12.443,3.41a6.274,6.274,0,0,1,.411,2.308,5.911,5.911,0,0,1-.911,3.289A5.186,5.186,0,0,1,9.516,11.03c1.3,1.77,2.608,3.6,4,5.585l-3.671,0C9.2,15.756,8.571,14.878,7.969,14c-.63-.9-1.257-1.82-1.841-2.682H3.084v5.293ZM3.074,2.833V8.52H7.3a2.455,2.455,0,0,0,.861-.172,2.184,2.184,0,0,0,.8-.526,2.7,2.7,0,0,0,.578-.87A2.946,2.946,0,0,0,9.78,5.728a5.058,5.058,0,0,0-.088-.86,2.857,2.857,0,0,0-.352-.951A2.287,2.287,0,0,0,8.6,3.147,2.306,2.306,0,0,0,7.3,2.833Z" transform="translate(84.392 0.324)" fill="#fff"/>
      <path id="Path-2" data-name="Path" d="M8.517,0h-.3L0,16.585H3.338L8.361,6.193l5.032,10.392h3.338Z" transform="translate(21.744 0.354)" fill="#fff"/>
      <path id="Shape-3" data-name="Shape" d="M16.692,16.919h-8a10.24,10.24,0,0,1-3.877-.668A7.672,7.672,0,0,1,2.105,14.44a7.193,7.193,0,0,1-1.6-2.691A10.6,10.6,0,0,1,0,8.459,8.415,8.415,0,0,1,.646,5.17,8.773,8.773,0,0,1,2.4,2.479,8.513,8.513,0,0,1,4.993.668,7.662,7.662,0,0,1,8.165,0a7.694,7.694,0,0,1,3.182.668,8.515,8.515,0,0,1,5,7.791,7.907,7.907,0,0,1-.167,1.549,6.609,6.609,0,0,1-.538,1.548,5.913,5.913,0,0,1-.959,1.386A4.93,4.93,0,0,1,13.246,14h3.446v2.913ZM8.185,3.086A4.585,4.585,0,0,0,6.2,3.522,5.377,5.377,0,0,0,4.572,4.675a5.506,5.506,0,0,0-1.5,3.784,5.427,5.427,0,0,0,.4,2.065,5.676,5.676,0,0,0,1.1,1.71A5.147,5.147,0,0,0,6.2,13.407a4.751,4.751,0,0,0,3.974,0A5.1,5.1,0,0,0,11.8,12.234a5.767,5.767,0,0,0,1.1-1.71,5.257,5.257,0,0,0,.4-2.065,5.506,5.506,0,0,0-1.5-3.784,5.157,5.157,0,0,0-1.625-1.153A4.724,4.724,0,0,0,8.185,3.086Z" transform="translate(0 0.04)" fill="#fff"/>
    </g>
  </g>
  <g id="Icon" transform="translate(28)">
    <g id="Group-2" data-name="Group" transform="translate(14 18.101)">
      <rect id="Rectangle" width="13.835" height="1.134" transform="translate(0.087)" fill="#6ebd44"/>
      <rect id="Rectangle-2" data-name="Rectangle" width="13.835" height="1.134" transform="translate(0.087 3.72)" fill="#6ebd44"/>
      <rect id="Rectangle-3" data-name="Rectangle" width="13.835" height="1.134" transform="translate(0.087 7.439)" fill="#6ebd44"/>
      <rect id="Rectangle-4" data-name="Rectangle" width="9.703" height="1.134" transform="translate(9.781 12.288) rotate(180)" fill="#6ebd44"/>
    </g>
    <g id="Group-3" data-name="Group">
      <path id="Path-3" data-name="Path" d="M0,0,8.546,5.042,0,10.085Z" transform="translate(32.608 19.215)" fill="#41bfbe"/>
      <path id="Path-4" data-name="Path" d="M0,0,8.536,5.042,0,10.085Z" transform="translate(10.928 6.405)" fill="#008a71"/>
      <path id="Path-5" data-name="Path" d="M0,0,8.536,5.042,0,10.085Z" transform="translate(10.928 32.025)" fill="#44b549"/>
      <path id="Path-6" data-name="Path" d="M0,5.042,8.536,0V10.085Z" transform="translate(22.536 32.025)" fill="#40C2CC"/>
      <path id="Path-7" data-name="Path" d="M0,5.042,8.536,0V10.085Z" transform="translate(22.536 6.405)" fill="#00b495"/>
      <path id="Path-8" data-name="Path" d="M0,5.042,8.546,0V10.085Z" transform="translate(0.846 19.215)" fill="#00a551"/>
      <path id="Path-9" data-name="Path" d="M0,5.042,8.546,0V10.085Z" transform="translate(33.376 25.62)" fill="#39bec1"/>
      <path id="Path-10" data-name="Path" d="M0,5.042,8.546,0V10.085Z" transform="translate(33.376 12.81)" fill="#38bcac"/>
      <path id="Path-11" data-name="Path" d="M0,5.042,8.546,0V10.085Z" transform="translate(0.846 32.025)" fill="#32b34a"/>
      <path id="Path-12" data-name="Path" d="M0,5.042,8.536,0V10.085Z" transform="translate(11.696 38.43)" fill="#6ebd44"/>
      <path id="Path-13" data-name="Path" d="M0,0,8.536,5.042,0,10.085Z" transform="translate(21.768 38.43)" fill="#a0cc3a"/>
      <path id="Path-14" data-name="Path" d="M0,0,8.546,5.042,0,10.085Z" transform="translate(32.608 32.025)" fill="#00b6c3"/>
      <path id="Path-15" data-name="Path" d="M0,5.042,8.536,0V10.085Z" transform="translate(22.536 44.835)" fill="#c0d72f"/>
      <path id="Path-16" data-name="Path" d="M0,0,8.546,5.042,0,10.085Z" transform="translate(0.078 25.62)" fill="#00ae4d"/>
      <path id="Path-17" data-name="Path" d="M0,0,8.536,5.042,0,10.085Z" transform="translate(21.768)" fill="#00b097"/>
      <path id="Path-18" data-name="Path" d="M0,0,8.546,5.042,0,10.085Z" transform="translate(32.608 6.405)" fill="#34baa6"/>
      <path id="Path-19" data-name="Path" d="M0,5.042,8.536,0V10.085Z" transform="translate(11.696)" fill="#00a787"/>
      <path id="Path-20" data-name="Path" d="M0,0,8.546,5.042,0,10.085Z" transform="translate(0.078 12.81)" fill="#00914d"/>
      <path id="Path-21" data-name="Path" d="M0,5.042,8.546,0V10.085Z" transform="translate(0.846 6.405)" fill="#00844a"/>
    </g>
  </g>
</svg>
