<?xml version="1.0" encoding="utf-8"?>
<!-- Generator: Adobe Illustrator 24.0.0, SVG Export Plug-In . SVG Version: 6.00 Build 0)  -->
<svg version="1.1" id="logo-footer" xmlns="http://www.w3.org/2000/svg" xmlns:xlink="http://www.w3.org/1999/xlink" x="0px"
	 y="0px" viewBox="0 0 97.9 79" style="enable-background:new 0 0 97.9 79;" xml:space="preserve">
<style type="text/css">
	.st0{fill:#07716E;}
	.st1{fill:#7DC058;}
	.st2{fill:#FFFFFF;}
	.st3{fill:#989898;}
</style>
<g id="Layer_2_1_">
	<g id="Layer_1-2">
		<path class="st0" d="M93.2,30c-1,0-1.9,0.8-1.9,1.9v7.8c0,0.1,0,0.2-0.1,0.4c-0.1,0.2-0.2,0.3-0.3,0.4c-0.2,0.1-0.3,0.2-0.5,0.2
			h-6.8V30h-3.8c-1,0-1.9,0.8-1.9,1.9v8.8h-7.8V30h-3.8c-1,0-1.9,0.8-1.9,1.9v8.8H54c-0.1,0-0.2,0-0.4-0.1c-0.2-0.1-0.3-0.2-0.4-0.3
			c-0.1-0.2-0.2-0.3-0.2-0.5V16.4c0-1-0.8-1.9-1.9-1.9c0,0,0,0,0,0h-3.8v25.1c0,3.6,2.9,6.6,6.6,6.6c0,0,0,0,0,0h36.4
			c3.6,0,6.6-2.9,6.6-6.6c0,0,0,0,0,0V30H93.2z"/>
		<path class="st1" d="M29.4,45.1c1.8-1.2,2.9-3.3,2.9-5.4V14.5h-3.8c-1,0-1.9,0.8-1.9,1.9c0,0,0,0,0,0v23.2c0,0.2-0.1,0.4-0.2,0.5
			c-0.1,0.2-0.2,0.3-0.4,0.3c-0.1,0-0.2,0.1-0.4,0.1H2.6c-1,0-1.9,0.8-1.9,1.9v3.8h25C27,46.2,28.3,45.8,29.4,45.1z"/>
		<path class="st0" d="M36.9,31.8v14.2c0,0.3-0.2,0.7-0.5,0.8l-10.2,5.5c-0.9,0.5-1.2,1.6-0.8,2.5c0,0,0,0,0,0l1.8,3.3l11.9-6.4
			c2.1-1.1,3.4-3.4,3.4-5.8V30h-3.8C37.8,30,36.9,30.8,36.9,31.8C36.9,31.8,36.9,31.8,36.9,31.8z"/>
		<polygon class="st2" points="27.2,58.3 27.2,58.3 27.2,58.3 		"/>
		<path class="st0" d="M12.6,35.4l1.6,1.6l7-7l-7-7l-1.6,1.6c-0.6,0.6-0.6,1.5,0,2.1c0,0,0,0,0,0l3.2,3.2l-3.2,3.2
			C12,33.8,12,34.8,12.6,35.4z"/>
		<path class="st1" d="M84.3,24.4L84.3,24.4C84.3,24.4,84.3,24.4,84.3,24.4c0,1.7,1.4,3.1,3.1,3.1c1.7,0,3-1.3,3.1-3c0,0,0,0,0-0.1
			c0,0,0,0,0,0l0,0l0,0v0l0,0v0l0,0c-0.1-1.7-1.5-3.1-3.2-3C85.7,21.4,84.4,22.7,84.3,24.4L84.3,24.4C84.3,24.3,84.3,24.3,84.3,24.4
			L84.3,24.4L84.3,24.4L84.3,24.4L84.3,24.4z"/>
		<path class="st2" d="M89.6,22.2L89.6,22.2L89.6,22.2z"/>
		<path class="st2" d="M89.6,26.5L89.6,26.5L89.6,26.5z"/>
		<path class="st2" d="M85.2,22.2L85.2,22.2L85.2,22.2z"/>
		<path class="st2" d="M85.2,26.6L85.2,26.6L85.2,26.6z"/>
		<path class="st2" d="M76.4,22.2L76.4,22.2L76.4,22.2z"/>
		<path class="st2" d="M72,22.2L72,22.2L72,22.2z"/>
		<path class="st1" d="M71.1,24.4L71.1,24.4C71.1,24.4,71.1,24.4,71.1,24.4c0,1.7,1.4,3.1,3.1,3.1c1.7,0,3-1.4,3.1-3
			c0,0,0-0.1,0-0.1l0,0l0,0l0,0v0l0,0c0-1.7-1.5-3.1-3.2-3C72.5,21.4,71.2,22.7,71.1,24.4L71.1,24.4C71.1,24.3,71.1,24.3,71.1,24.4
			L71.1,24.4L71.1,24.4L71.1,24.4L71.1,24.4z"/>
		<path class="st2" d="M72,26.5L72,26.5L72,26.5z"/>
		<path class="st2" d="M76.4,26.5L76.4,26.5L76.4,26.5z"/>
		<path class="st2" d="M78.6,15.5L78.6,15.5L78.6,15.5z"/>
		<path class="st2" d="M83,15.5L83,15.5L83,15.5z"/>
		<path class="st1" d="M77.7,17.7L77.7,17.7C77.7,17.7,77.7,17.7,77.7,17.7c0,1.7,1.4,3.1,3.1,3.1c1.7,0,3-1.3,3.1-3c0,0,0,0,0-0.1
			c0,0,0,0,0,0l0,0l0,0v0l0,0v0l0,0c0-1.7-1.4-3.1-3.1-3.1C79.1,14.5,77.7,15.9,77.7,17.7L77.7,17.7C77.7,17.6,77.7,17.6,77.7,17.7
			L77.7,17.7L77.7,17.7L77.7,17.7L77.7,17.7z"/>
		<path class="st2" d="M83,19.8L83,19.8L83,19.8z"/>
		<path class="st2" d="M78.6,19.8L78.6,19.8L78.6,19.8z"/>
		<path class="st3" d="M95.9,50.4c-0.2,0-0.4,0.1-0.4,0.3l1.5,1.5v-1.8H95.9z"/>
		<path class="st3" d="M95.5,60.8h1.1c0.2,0,0.4-0.2,0.4-0.4v-7.3l-1.5,1.2V60.8z"/>
		<path class="st3" d="M86.1,55.1v3.1h5.5v0.4c0,0.3-0.3,0.6-0.6,0.6H71.8L70,55.7c-0.1-0.3,0-0.6,0.3-0.8c0,0,0,0,0,0l5.7-2.7
			c0.5-0.3,0.8-0.9,0.5-1.4c0,0,0,0,0,0l-0.2-0.4l-6.6,3.2c-1,0.5-1.5,1.7-1,2.8c0,0,0,0,0,0l0.6,1.2L68.4,59
			c-0.1,0.2-0.3,0.3-0.5,0.3h-2.1c-0.3,0-0.6-0.3-0.6-0.6c0,0,0,0,0,0v-7.9c0-0.2-0.2-0.4-0.4-0.4h-1.1v8.3c0,1.1,0.9,2.1,2.1,2.1
			h2.1c0.7,0,1.4-0.4,1.8-1l0.4-0.6l0.8,1.6H91c1.1,0,2.1-0.9,2.1-2.1v-5.6h-4.9C87,53.1,86.1,54,86.1,55.1z M87.5,55.1
			c0-0.3,0.3-0.6,0.6-0.6l0,0h3.4v2.2h-4L87.5,55.1z"/>
		<path class="st3" d="M60,56.2V61c0,0.2-0.1,0.4-0.3,0.5l-3.6,2c-0.2,0.1-0.3,0.4-0.2,0.6l0.5,0.9l4-2.2c0.7-0.4,1.1-1.1,1.1-1.8
			v-5.1h-1.1C60.2,55.8,60,56,60,56.2C60,56.2,60,56.2,60,56.2z"/>
		<path class="st3" d="M57.8,58.7v-8.3h-1.1c-0.2,0-0.4,0.2-0.4,0.4v0v7.9c0,0.3-0.3,0.6-0.6,0.6h-7.9c-0.2,0-0.4,0.2-0.4,0.4v1.1
			h8.3C56.9,60.8,57.8,59.8,57.8,58.7z"/>
		<path class="st3" d="M51.1,57.5l0.4,0.4l2.3-2.3l-2.3-2.3l-0.4,0.4c-0.2,0.2-0.2,0.4,0,0.6l1.3,1.3l-1.3,1.4
			C51,57.1,51,57.3,51.1,57.5C51.1,57.5,51.1,57.5,51.1,57.5z"/>
		<circle class="st3" cx="89.8" cy="51.2" r="0.7"/>
	</g>
</g>
</svg>
