<svg xmlns="http://www.w3.org/2000/svg" width="238.63" height="68.059" viewBox="0 0 238.63 68.059">
  <g id="Group_10" data-name="Group 10" transform="translate(-447.92 -2990.661)">
    <path id="Path_653" data-name="Path 653" d="M209.02,640.1a1.394,1.394,0,0,1,1.39-1.36,1.353,1.353,0,0,1,1.32,1.36,1.38,1.38,0,0,1-1.32,1.39,1.42,1.42,0,0,1-1.39-1.39m6.2,4.14h2.26v12.18c0,3.9-3.76,5.53-7.24,5.53-3.27,0-7.2-1.6-7.2-5.53v-5.85l2.26-1.46v7.06c0,2.61,2.57,3.52,4.94,3.52,2.54,0,4.98-1.01,4.98-3.48V644.24Z" transform="translate(245 2355)" fill="#006d69"/>
    <path id="Path_654" data-name="Path 654" d="M226.77,646.47h-2.23c-1.18,0-1.6.52-1.6,1.7v3.69c0,1.53.7,1.71,2.09,1.71h1.74Zm-5.01,13.4h.35c2.65,0,4.66-.8,4.66-3.38v-.7h-1.92c-2.47,0-4.18-1.18-4.18-3.93v-3.69a3.621,3.621,0,0,1,3.93-3.93h4.42v11.83c0,3.69-1.6,5.53-5.78,5.81Z" transform="translate(245 2355)" fill="#006d69"/>
    <path id="Path_655" data-name="Path 655" d="M238.32,646.47h-2.23c-1.18,0-1.6.52-1.6,1.71v3.69c0,1.53.69,1.71,2.09,1.71h1.74Zm-4.04-4.98v-.9h1.01a2,2,0,0,1-.28-.94,1.713,1.713,0,0,1,1.81-1.81h.97v.91h-.63c-.77,0-1.15.31-1.15.91,0,.66.49.94,1.15.94h1.32v.9h-4.2Zm6.3,14.3v.28c0,3.69-1.6,5.53-5.78,5.81l-1.5-2.02h.35c2.64,0,4.66-.8,4.66-3.38v-.7H236.4c-2.47,0-4.18-1.18-4.18-3.93v-3.69a3.621,3.621,0,0,1,3.93-3.93h4.42v9.33h1.36v2.23Z" transform="translate(245 2355)" fill="#006d69"/>
    <rect id="Rectangle_473" data-name="Rectangle 473" width="6.09" height="2.23" transform="translate(486.8 3008.57)" fill="#006d69"/>
    <rect id="Rectangle_475" data-name="Rectangle 475" width="3.76" height="2.23" transform="translate(492.71 3008.57)" fill="#006d69"/>
    <rect id="Rectangle_477" data-name="Rectangle 477" width="3.76" height="2.23" transform="translate(496.29 3008.57)" fill="#006d69"/>
    <rect id="Rectangle_479" data-name="Rectangle 479" width="3.76" height="2.23" transform="translate(499.88 3008.57)" fill="#006d69"/>
    <rect id="Rectangle_481" data-name="Rectangle 481" width="3.76" height="2.23" transform="translate(503.46 3008.57)" fill="#006d69"/>
    <rect id="Rectangle_483" data-name="Rectangle 483" width="3.76" height="2.23" transform="translate(507.05 3008.57)" fill="#006d69"/>
    <rect id="Rectangle_485" data-name="Rectangle 485" width="3.76" height="2.23" transform="translate(510.63 3008.57)" fill="#006d69"/>
    <path id="Path_656" data-name="Path 656" d="M282.89,638.43a1.375,1.375,0,1,1,1.36-1.36,1.4,1.4,0,0,1-1.36,1.36m1.81,3.06a1.375,1.375,0,1,1,1.36-1.36,1.388,1.388,0,0,1-1.36,1.36m-3.44,0a1.375,1.375,0,1,1,1.36-1.36,1.388,1.388,0,0,1-1.36,1.36m-12.05,14.3v-2.23h6.54v-9.33h2.19v9.33h3.9v-9.33h2.23v9.33h3.86v-9.33h2.23v9.33h.94v2.23Z" transform="translate(245 2355)" fill="#006d69"/>
    <path id="Path_657" data-name="Path 657" d="M290.96,655.79v-2.23h.87c1.22,0,1.78-.38,1.78-1.71V639.53h2.23v12.49c0,2.19-1.18,3.76-3.93,3.76h-.95Z" transform="translate(245 2355)" fill="#006d69"/>
    <path id="Path_658" data-name="Path 658" d="M299.07,657.05V639.54h2.26V655.8Z" transform="translate(245 2355)" fill="#006d69"/>
    <path id="Path_659" data-name="Path 659" d="M313.47,640.1a1.36,1.36,0,0,1,2.72,0,1.36,1.36,0,1,1-2.72,0m1.54,6.37h-2.23c-.94,0-1.6.35-1.6,1.71v3.76c0,1.32.87,1.67,1.91,1.67,1.08,0,1.91-.35,1.91-1.67v-5.47Zm-4.98-6.37a1.375,1.375,0,0,1,2.75,0,1.375,1.375,0,1,1-2.75,0m7.24,11.76c0,2.99-2.09,3.93-4.18,3.93-2.33,0-4.18-1.18-4.18-4v-3.62a3.6,3.6,0,0,1,3.86-3.93h4.49v7.62Z" transform="translate(245 2355)" fill="#006d69"/>
    <path id="Path_660" data-name="Path 660" d="M319.46,659.9c2.3-.73,2.78-1.64,2.78-3.79V644.24h2.23V656.8a5.243,5.243,0,0,1-3.45,5.08Z" transform="translate(245 2355)" fill="#006d69"/>
    <path id="Path_661" data-name="Path 661" d="M327.7,657.05V639.54h2.27V655.8Z" transform="translate(245 2355)" fill="#006d69"/>
    <path id="Path_662" data-name="Path 662" d="M334.7,640.1a1.34,1.34,0,1,1,2.68,0,1.341,1.341,0,1,1-2.68,0m-2.54,19.8c2.3-.73,2.78-1.64,2.78-3.79V644.24h2.23V656.8a5.243,5.243,0,0,1-3.45,5.08Z" transform="translate(245 2355)" fill="#006d69"/>
    <path id="Path_663" data-name="Path 663" d="M346.49,646.47h-2.23c-1.18,0-1.6.52-1.6,1.7v3.69c0,1.53.7,1.71,2.09,1.71h1.74v-7.1Zm-5.01,13.4h.35c2.64,0,4.66-.8,4.66-3.38v-.7h-1.92c-2.47,0-4.18-1.18-4.18-3.93v-3.69a3.621,3.621,0,0,1,3.93-3.93h4.42v11.83c0,3.69-1.6,5.53-5.78,5.81Z" transform="translate(245 2355)" fill="#006d69"/>
    <path id="Path_664" data-name="Path 664" d="M207.49,666.88a1.36,1.36,0,0,1,2.72,0,1.36,1.36,0,1,1-2.72,0m1.53,6.37h-2.23c-.94,0-1.6.35-1.6,1.64v3.79c0,1.01.28,1.67,1.74,1.67h2.09Zm-4.98-6.37a1.375,1.375,0,0,1,2.75,0,1.375,1.375,0,1,1-2.75,0m4.98,15.7v-1.46l-1.08,1.46h-.84c-2.78,0-4.18-1.46-4.18-3.93v-3.69a3.652,3.652,0,0,1,3.93-3.93h4.42v9.33h1.36v2.23h-3.61Z" transform="translate(245 2355)" fill="#006d69"/>
    <rect id="Rectangle_499" data-name="Rectangle 499" width="3.76" height="2.23" transform="translate(457.5 3035.35)" fill="#006d69"/>
    <path id="Path_665" data-name="Path 665" d="M220.19,687.31a1.34,1.34,0,1,1,2.68,0,1.34,1.34,0,1,1-2.68,0m-2.09,1.36a1.337,1.337,0,0,1-1.36-1.36,1.361,1.361,0,0,1,1.36-1.36,1.388,1.388,0,0,1,1.36,1.36,1.361,1.361,0,0,1-1.36,1.36m-2.02-6.09v-2.23h2.71c1.11,0,1.64-.52,1.64-1.53v-7.8h2.23v7.69c0,2.75-1.85,3.86-4.04,3.86h-2.54Z" transform="translate(245 2355)" fill="#006d69"/>
    <path id="Path_666" data-name="Path 666" d="M231.95,673.25h-2.23c-1.18,0-1.6.52-1.6,1.71v3.69c0,1.53.7,1.71,2.09,1.71h1.74Zm-5.01,13.4h.35c2.65,0,4.66-.8,4.66-3.38v-.7h-1.92c-2.47,0-4.18-1.18-4.18-3.93v-3.69a3.621,3.621,0,0,1,3.93-3.93h4.42v11.83c0,3.69-1.6,5.53-5.78,5.81Z" transform="translate(245 2355)" fill="#006d69"/>
    <path id="Path_667" data-name="Path 667" d="M236.4,686.69c2.3-.73,2.78-1.64,2.78-3.79V671.03h2.23v9.33h1.39v2.23h-1.39v1.01a5.247,5.247,0,0,1-3.44,5.08Z" transform="translate(245 2355)" fill="#006d69"/>
    <rect id="Rectangle_505" data-name="Rectangle 505" width="3.76" height="2.23" transform="translate(487.63 3035.35)" fill="#006d69"/>
    <path id="Path_668" data-name="Path 668" d="M253.31,666.88a1.415,1.415,0,0,1,1.39-1.36,1.388,1.388,0,0,1,1.36,1.36,1.415,1.415,0,0,1-1.36,1.39,1.441,1.441,0,0,1-1.39-1.39m1.57,6.37h-2.23c-.94,0-1.6.35-1.6,1.71v5.4h3.83Zm-4.98-6.37a1.394,1.394,0,0,1,1.39-1.36,1.353,1.353,0,0,1,1.32,1.36,1.38,1.38,0,0,1-1.32,1.39,1.413,1.413,0,0,1-1.39-1.39m-3.69,15.7v-2.23h2.58v-5.4a3.6,3.6,0,0,1,3.86-3.93h4.49v9.33h1.36v2.23Z" transform="translate(245 2355)" fill="#006d69"/>
    <path id="Path_669" data-name="Path 669" d="M258.36,682.58v-2.23h.87c1.22,0,1.78-.38,1.78-1.71V666.32h2.23v12.49c0,2.19-1.18,3.76-3.93,3.76h-.95Z" transform="translate(245 2355)" fill="#006d69"/>
    <path id="Path_670" data-name="Path 670" d="M266.47,683.83v-17.5h2.26v16.25Z" transform="translate(245 2355)" fill="#006d69"/>
    <path id="Path_671" data-name="Path 671" d="M278.02,673.25h-2.23c-1.18,0-1.6.52-1.6,1.71v3.69c0,1.53.7,1.71,2.09,1.71h1.74v-7.11Zm-5.01,13.4h.35c2.64,0,4.66-.8,4.66-3.38v-.7H276.1c-2.47,0-4.18-1.18-4.18-3.93v-3.69a3.621,3.621,0,0,1,3.93-3.93h4.42v11.83c0,3.69-1.6,5.53-5.78,5.81Z" transform="translate(245 2355)" fill="#006d69"/>
    <path id="Path_672" data-name="Path 672" d="M292.42,666.88a1.36,1.36,0,0,1,2.72,0,1.36,1.36,0,1,1-2.72,0m1.53,6.37h-2.23c-.94,0-1.6.35-1.6,1.64v3.79c0,1.01.28,1.67,1.74,1.67h2.09v-7.1Zm-4.97-6.37a1.375,1.375,0,0,1,2.75,0,1.375,1.375,0,1,1-2.75,0m4.97,15.7v-1.46l-1.08,1.46h-.83c-2.78,0-4.18-1.46-4.18-3.93v-3.69a3.652,3.652,0,0,1,3.93-3.93h4.42v9.33h1.36v2.23h-3.62Z" transform="translate(245 2355)" fill="#006d69"/>
    <rect id="Rectangle_514" data-name="Rectangle 514" width="3.55" height="2.23" transform="translate(542.43 3035.35)" fill="#006d69"/>
    <path id="Path_673" data-name="Path 673" d="M304.91,687.31a1.34,1.34,0,1,1,2.68,0,1.328,1.328,0,0,1-1.32,1.36,1.343,1.343,0,0,1-1.36-1.36m-2.08,1.36a1.337,1.337,0,0,1-1.36-1.36,1.361,1.361,0,0,1,1.36-1.36,1.388,1.388,0,0,1,1.36,1.36,1.368,1.368,0,0,1-1.36,1.36m-2.02-6.09v-2.23h2.71c1.11,0,1.64-.52,1.64-1.53v-7.8h2.23v7.69c0,2.75-1.85,3.86-4.04,3.86h-2.54Z" transform="translate(245 2355)" fill="#006d69"/>
    <path id="Path_674" data-name="Path 674" d="M310.58,682.58v-2.23h6.72v-3.76c0-2.47-1.43-3.34-3.27-3.34h-1.5v-2.23h1.64a5.125,5.125,0,0,1,5.32,5.33v4h1.39v2.23Z" transform="translate(245 2355)" fill="#006d69"/>
    <rect id="Rectangle_519" data-name="Rectangle 519" width="3.76" height="2.23" transform="translate(565.71 3035.35)" fill="#006d69"/>
    <path id="Path_675" data-name="Path 675" d="M324.29,682.58v-2.23h2.65V666.33h2.19v14.02h1.39v2.23Z" transform="translate(245 2355)" fill="#006d69"/>
    <path id="Path_676" data-name="Path 676" d="M334.49,687.31a1.34,1.34,0,1,1,2.68,0,1.34,1.34,0,1,1-2.68,0m-4.11-4.73v-2.23h4.35v-9.33h2.23v9.33h1.39v2.23Z" transform="translate(245 2355)" fill="#006d69"/>
    <path id="Path_677" data-name="Path 677" d="M338.18,682.58v-2.23h.87c1.22,0,1.77-.38,1.77-1.71V666.32h2.23v12.49c0,2.19-1.18,3.76-3.93,3.76h-.94Z" transform="translate(245 2355)" fill="#006d69"/>
    <path id="Path_678" data-name="Path 678" d="M346.28,683.83v-17.5h2.27v16.25Z" transform="translate(245 2355)" fill="#006d69"/>
    <path id="Path_679" data-name="Path 679" d="M208.65,701.76v-5.51l-1.73,5.51h-1.15l-1.74-5.51v5.51h-.91v-6.63h1.44l1.78,5.81,1.79-5.81h1.42v6.63Z" transform="translate(245 2355)" fill="#81bd41"/>
    <path id="Path_680" data-name="Path 680" d="M212.44,701.68a1.623,1.623,0,0,1-.78.16.7.7,0,0,1-.77-.7v-4.09h.95v3.87c0,.16.07.26.23.26a.745.745,0,0,0,.24-.03Zm-1.07-5.56a.6.6,0,1,1,0-1.19.6.6,0,1,1,0,1.19" transform="translate(245 2355)" fill="#81bd41"/>
    <path id="Path_681" data-name="Path 681" d="M217.78,701.68a1.636,1.636,0,0,1-.77.16.7.7,0,0,1-.78-.7v-2.56c0-.61-.16-.75-.6-.75a2.731,2.731,0,0,0-1.54.68v3.25h-.95v-4.72h.95v.63a2.834,2.834,0,0,1,1.68-.71c.88,0,1.41.21,1.41,1.53v2.42c0,.16.07.26.23.26a.772.772,0,0,0,.25-.03Z" transform="translate(245 2355)" fill="#81bd41"/>
    <path id="Path_682" data-name="Path 682" d="M220.04,701.68a1.623,1.623,0,0,1-.78.16.7.7,0,0,1-.77-.7v-4.09h.95v3.87c0,.16.07.26.23.26a.745.745,0,0,0,.24-.03Zm-1.06-5.56a.6.6,0,1,1,0-1.19.6.6,0,1,1,0,1.19" transform="translate(245 2355)" fill="#81bd41"/>
    <path id="Path_683" data-name="Path 683" d="M220.8,700.8a3.784,3.784,0,0,0,1.24.28c.68,0,1.14-.14,1.14-.68,0-.87-2.45-.65-2.45-2.13,0-1.02.98-1.31,1.86-1.31a3.381,3.381,0,0,1,1.34.24l-.16.77a2.824,2.824,0,0,0-1.15-.26c-.64,0-.95.14-.95.5,0,.77,2.45.55,2.45,2.19,0,.88-.84,1.43-1.9,1.43a5.119,5.119,0,0,1-1.62-.21Z" transform="translate(245 2355)" fill="#81bd41"/>
    <path id="Path_684" data-name="Path 684" d="M227.41,701.65a2.682,2.682,0,0,1-1.05.18c-.65,0-.98-.28-.98-1.21v-2.83h-.75l.16-.75h.6v-1.26l.94-.31v1.58h.98v.75h-.98v2.72c0,.48.13.54.48.54a1.534,1.534,0,0,0,.47-.11Z" transform="translate(245 2355)" fill="#81bd41"/>
    <path id="Path_685" data-name="Path 685" d="M228.23,701.76v-4.72h.95v.61a1.06,1.06,0,0,1,.88-.7,1.792,1.792,0,0,1,.88.26l-.17.78a2.2,2.2,0,0,0-.78-.14c-.41,0-.71.44-.81.63v3.28h-.95Z" transform="translate(245 2355)" fill="#81bd41"/>
    <path id="Path_686" data-name="Path 686" d="M231.25,697.05h1.01l1.22,3.38,1.02-3.38h1.02l-1.69,4.89c-.48,1.41-.95,1.78-1.79,1.78a2.718,2.718,0,0,1-.98-.17l.18-.8a2.2,2.2,0,0,0,.78.14c.26,0,.63,0,1.01-1.24Z" transform="translate(245 2355)" fill="#81bd41"/>
    <path id="Path_687" data-name="Path 687" d="M241.49,699.42c0-1.46-.55-1.73-1.29-1.73s-1.28.27-1.28,1.73.53,1.69,1.28,1.69,1.29-.24,1.29-1.69m-3.58,0c0-1.95,1.08-2.46,2.29-2.46s2.29.51,2.29,2.46-1.08,2.42-2.29,2.42-2.29-.46-2.29-2.42" transform="translate(245 2355)" fill="#81bd41"/>
    <path id="Path_688" data-name="Path 688" d="M243.84,701.76v-3.97h-.75l.15-.75h.6v-.67c0-.84.14-1.52,1.31-1.52a2.555,2.555,0,0,1,.98.16l-.17.78a2.457,2.457,0,0,0-.64-.11c-.41,0-.54.1-.54.57v.8h1.02v.75h-1.02v3.97h-.94Z" transform="translate(245 2355)" fill="#81bd41"/>
    <path id="Path_689" data-name="Path 689" d="M254.09,701.76v-5.51l-1.73,5.51H251.2l-1.73-5.51v5.51h-.91v-6.63H250l1.77,5.81,1.79-5.81h1.42v6.63Z" transform="translate(245 2355)" fill="#81bd41"/>
    <path id="Path_690" data-name="Path 690" d="M260.84,701.68a1.7,1.7,0,0,1-.75.16.69.69,0,0,1-.78-.7,2.585,2.585,0,0,1-1.59.7c-.88,0-1.42-.21-1.42-1.53v-3.26h.95v3.15c0,.65.17.77.6.77a2.225,2.225,0,0,0,1.46-.67v-3.26h.94v3.87a.237.237,0,0,0,.24.26.863.863,0,0,0,.26-.03Z" transform="translate(245 2355)" fill="#81bd41"/>
    <path id="Path_691" data-name="Path 691" d="M266.16,701.68a1.636,1.636,0,0,1-.77.16.7.7,0,0,1-.78-.7v-2.56c0-.61-.16-.75-.6-.75a2.731,2.731,0,0,0-1.54.68v3.25h-.95v-4.72h.95v.63a2.834,2.834,0,0,1,1.68-.71c.88,0,1.41.21,1.41,1.53v2.42c0,.16.07.26.23.26a.863.863,0,0,0,.26-.03Z" transform="translate(245 2355)" fill="#81bd41"/>
    <path id="Path_692" data-name="Path 692" d="M268.42,701.68a1.623,1.623,0,0,1-.78.16.7.7,0,0,1-.77-.7v-4.09h.95v3.87c0,.16.07.26.23.26a.745.745,0,0,0,.24-.03Zm-1.06-5.56a.6.6,0,1,1,0-1.19.6.6,0,1,1,0,1.19" transform="translate(245 2355)" fill="#81bd41"/>
    <path id="Path_693" data-name="Path 693" d="M272.49,701.62a4.151,4.151,0,0,1-1.39.21,2.184,2.184,0,0,1-2.12-2.47,2.255,2.255,0,0,1,2.26-2.4,4.024,4.024,0,0,1,1.48.24l-.16.8a3.547,3.547,0,0,0-1.19-.23c-1.26,0-1.38,1.01-1.38,1.65,0,1.25.65,1.61,1.52,1.61a4.258,4.258,0,0,0,1.15-.2Z" transform="translate(245 2355)" fill="#81bd41"/>
    <path id="Path_694" data-name="Path 694" d="M275.16,701.68a1.623,1.623,0,0,1-.78.16.7.7,0,0,1-.77-.7v-4.09h.95v3.87c0,.16.07.26.23.26a.745.745,0,0,0,.24-.03Zm-1.07-5.56a.6.6,0,1,1,0-1.19.6.6,0,0,1,.6.6.587.587,0,0,1-.6.59" transform="translate(245 2355)" fill="#81bd41"/>
    <path id="Path_695" data-name="Path 695" d="M276.82,700.61a1.791,1.791,0,0,0,1.11.44c.86,0,1.32-.34,1.32-1.62,0-1.12-.28-1.64-1.16-1.64a1.229,1.229,0,0,0-1.27,1.22Zm-.95,3.03v-6.59h.95v.63a1.859,1.859,0,0,1,1.56-.71c.9,0,1.85.54,1.85,2.43,0,1.37-.63,2.44-2.09,2.44a2.262,2.262,0,0,1-1.32-.38v2.19h-.95Z" transform="translate(245 2355)" fill="#81bd41"/>
    <path id="Path_696" data-name="Path 696" d="M283.97,699.56c-.16-.01-.48-.04-.68-.04-.77,0-1.19.2-1.19.84,0,.67.6.7.84.7a1.016,1.016,0,0,0,1.04-1.02v-.48Zm1.54,2.12a1.6,1.6,0,0,1-.75.16c-.7,0-.78-.5-.78-.68a1.384,1.384,0,0,1-1.36.68c-1.02,0-1.51-.53-1.51-1.38,0-1.24,1.01-1.62,2.1-1.62a6.338,6.338,0,0,1,.77.06v-.44c0-.67-.57-.71-1.14-.71a3.862,3.862,0,0,0-1.39.26l.16-.78a4.517,4.517,0,0,1,1.51-.26c1.21,0,1.8.35,1.8,1.75v2.2c0,.17.07.26.24.26a.66.66,0,0,0,.24-.03Z" transform="translate(245 2355)" fill="#81bd41"/>
    <path id="Path_697" data-name="Path 697" d="M287.77,701.68a1.579,1.579,0,0,1-.77.16.711.711,0,0,1-.78-.7v-6.01h.95v5.78c0,.16.07.26.23.26a.863.863,0,0,0,.26-.03Z" transform="translate(245 2355)" fill="#81bd41"/>
    <path id="Path_698" data-name="Path 698" d="M291.85,698.68a1.174,1.174,0,0,0-.74,1.27c0,.88.63,1.09,1.21,1.09a1.728,1.728,0,0,0,1.18-.48c-.51-.53-1.17-1.3-1.65-1.88m4.02,3.11a2.341,2.341,0,0,1-.63.07,1.672,1.672,0,0,1-1.17-.71,2.434,2.434,0,0,1-1.8.71c-1.19,0-2.15-.51-2.15-1.8a1.971,1.971,0,0,1,1.28-2.02,2.767,2.767,0,0,1-.57-1.53,1.485,1.485,0,0,1,1.62-1.49,3.7,3.7,0,0,1,1.56.3l-.16.85a3.012,3.012,0,0,0-1.26-.28c-.5,0-.8.14-.8.64,0,.75.53,1.39,2.23,3.25a3.86,3.86,0,0,0,.3-1.93h1.73l-.14.81h-.78a3.8,3.8,0,0,1-.48,1.8c.35.43.53.57.88.57a1.718,1.718,0,0,0,.47-.07Z" transform="translate(245 2355)" fill="#81bd41"/>
    <path id="Path_699" data-name="Path 699" d="M301.3,698.45c.48,0,1.04-.24,1.04-1.21,0-.75-.41-1.25-1.04-1.25h-1.32v2.46Zm1.17,3.31-1.28-2.44h-1.21v2.44h-1.01v-6.64h2.12c1.62,0,2.29.84,2.29,2.1a1.93,1.93,0,0,1-1.18,1.92l1.41,2.61h-1.14Z" transform="translate(245 2355)" fill="#81bd41"/>
    <path id="Path_700" data-name="Path 700" d="M309.11,701.68a1.7,1.7,0,0,1-.75.16.69.69,0,0,1-.78-.7,2.585,2.585,0,0,1-1.59.7c-.88,0-1.42-.21-1.42-1.53v-3.26h.95v3.15c0,.65.17.77.6.77a2.225,2.225,0,0,0,1.46-.67v-3.26h.94v3.87a.237.237,0,0,0,.24.26.772.772,0,0,0,.25-.03Z" transform="translate(245 2355)" fill="#81bd41"/>
    <path id="Path_701" data-name="Path 701" d="M309.79,701.76v-4.72h.95v.61a1.036,1.036,0,0,1,.88-.7,1.759,1.759,0,0,1,.88.26l-.17.78a2.164,2.164,0,0,0-.78-.14c-.41,0-.71.44-.81.63v3.28h-.95Z" transform="translate(245 2355)" fill="#81bd41"/>
    <path id="Path_702" data-name="Path 702" d="M315.93,699.56c-.16-.01-.48-.04-.68-.04-.77,0-1.19.2-1.19.84,0,.67.6.7.84.7a1.016,1.016,0,0,0,1.04-1.02v-.48Zm1.54,2.12a1.6,1.6,0,0,1-.75.16c-.7,0-.78-.5-.78-.68a1.391,1.391,0,0,1-1.37.68c-1.02,0-1.51-.53-1.51-1.38,0-1.24,1.01-1.62,2.1-1.62a6.338,6.338,0,0,1,.77.06v-.44c0-.67-.57-.71-1.14-.71a3.862,3.862,0,0,0-1.39.26l.16-.78a4.517,4.517,0,0,1,1.51-.26c1.21,0,1.8.35,1.8,1.75v2.2c0,.17.07.26.24.26a.687.687,0,0,0,.24-.03Z" transform="translate(245 2355)" fill="#81bd41"/>
    <path id="Path_703" data-name="Path 703" d="M319.73,701.68a1.579,1.579,0,0,1-.77.16.711.711,0,0,1-.78-.7v-6.01h.95v5.78c0,.16.07.26.23.26a.863.863,0,0,0,.26-.03Z" transform="translate(245 2355)" fill="#81bd41"/>
    <path id="Path_704" data-name="Path 704" d="M324.59,696.41l-.97,2.98h1.9Zm1.69,5.35-.48-1.54h-2.44l-.48,1.54H321.8l2.25-6.64h1.09l2.25,6.64Z" transform="translate(245 2355)" fill="#81bd41"/>
    <path id="Path_705" data-name="Path 705" d="M331.71,701.76v-3.97h-.75l.16-.75h.6v-.67c0-.84.14-1.52,1.31-1.52a2.555,2.555,0,0,1,.98.16l-.17.78a2.457,2.457,0,0,0-.64-.11c-.41,0-.54.1-.54.57v.8h1.02v.75h-1.02v3.97h-.95Zm-3.27,0v-3.97h-.75l.16-.75h.6v-.67c0-.84.14-1.52,1.31-1.52a2.555,2.555,0,0,1,.98.16l-.17.78a2.457,2.457,0,0,0-.64-.11c-.41,0-.54.1-.54.57v.8h1.02v.75h-1.02v3.97h-.95Z" transform="translate(245 2355)" fill="#81bd41"/>
    <path id="Path_706" data-name="Path 706" d="M337.2,699.56c-.16-.01-.48-.04-.68-.04-.77,0-1.19.2-1.19.84,0,.67.6.7.84.7a1.016,1.016,0,0,0,1.04-1.02v-.48Zm1.54,2.12a1.6,1.6,0,0,1-.75.16c-.7,0-.78-.5-.78-.68a1.384,1.384,0,0,1-1.36.68c-1.02,0-1.51-.53-1.51-1.38,0-1.24,1.01-1.62,2.1-1.62a6.338,6.338,0,0,1,.77.06v-.44c0-.67-.57-.71-1.14-.71a3.862,3.862,0,0,0-1.39.26l.16-.78a4.517,4.517,0,0,1,1.51-.26c1.21,0,1.81.35,1.81,1.75v2.2c0,.17.07.26.24.26a.687.687,0,0,0,.24-.03Z" transform="translate(245 2355)" fill="#81bd41"/>
    <path id="Path_707" data-name="Path 707" d="M341,701.68a1.623,1.623,0,0,1-.78.16.7.7,0,0,1-.77-.7v-4.09h.95v3.87c0,.16.07.26.23.26a.745.745,0,0,0,.24-.03Zm-1.07-5.56a.6.6,0,1,1,0-1.19.6.6,0,1,1,0,1.19" transform="translate(245 2355)" fill="#81bd41"/>
    <path id="Path_708" data-name="Path 708" d="M341.71,701.76v-4.72h.95v.61a1.036,1.036,0,0,1,.88-.7,1.759,1.759,0,0,1,.88.26l-.17.78a2.164,2.164,0,0,0-.78-.14c-.41,0-.71.44-.81.63v3.28h-.95Z" transform="translate(245 2355)" fill="#81bd41"/>
    <path id="Path_709" data-name="Path 709" d="M345.25,700.8a3.783,3.783,0,0,0,1.24.28c.68,0,1.14-.14,1.14-.68,0-.87-2.45-.65-2.45-2.13,0-1.02.98-1.31,1.86-1.31a3.291,3.291,0,0,1,1.33.24l-.16.77a2.824,2.824,0,0,0-1.15-.26c-.64,0-.95.14-.95.5,0,.77,2.44.55,2.44,2.19,0,.88-.84,1.43-1.9,1.43a5.164,5.164,0,0,1-1.62-.21Z" transform="translate(245 2355)" fill="#81bd41"/>
    <path id="Path_710" data-name="Path 710" d="M404.57,703.71a37.023,37.023,0,0,1-36.98-36.98l.29-5.11h5.8v-7.76h.64v-1.24h2.77l.8,1.33h1.44v9.89h1.14v1.39h.42v-7.94h4.66v2.04h1.55v3.82h2.59v-3.7h3.49l1.25,1.58v4.2h7.14v1.07h-8.21v-4.9l-.7-.88h-1.89v4.98h-1.45v-1.27h-3.29v-3.82h-1.55v-2.04h-2.52v7.95H379.4v-1.39h-1.15v-9.89h-.97l-.8-1.33h-1.09v1.25h-.64v7.75h-5.86l-.23,4.07a35.91,35.91,0,0,0,71.82.13h-3.67V660.6h-2.17v-3.24h-2.53v-1.39h-3.1v.97l-.62.7v5.85h-3.14v-4.35l-.79-.89h-1.74v-1.47h-1.98v9.55h-3.21v-3.54h-2.85v3.54h-7.53v-1.07h6.46v-3.54h4.99v3.54h1.07v-9.55h4.12v1.47h1.15l1.38,1.55v3.69h1v-5.19l.62-.69V654.9h5.24v1.39h2.53v3.24h2.17v6.31h3.67v.95a37,37,0,0,1-36.98,36.92" transform="translate(245 2355)" fill="#81bd41"/>
    <path id="Path_711" data-name="Path 711" d="M390.57,688.84a1.806,1.806,0,0,0-.88.23,1.859,1.859,0,0,0-.56,2.41,1.666,1.666,0,0,0,1.16.8c.15.01.35.02.54.02,2.27,0,4.25-1.4,5.92-2.72l.32-.25.21.35a5.256,5.256,0,0,0,3.49,2.46,2.909,2.909,0,0,0,.31.01,2.186,2.186,0,0,0,2.31-1.53,1.955,1.955,0,0,0-1.05-1.96,2.389,2.389,0,0,0-1.78.15c-.17.07-.25.31-.33.65-.09.36-.22.9-.77.9a1.67,1.67,0,0,1-1.28-.78.683.683,0,0,1,.02-.74,19.314,19.314,0,0,1,4.12-4.15c.67-.54,1.36-1.11,2.01-1.72l.24-.23.24.23c.63.59,1.32,1.13,2,1.66a14.238,14.238,0,0,1,4.14,4.35.461.461,0,0,1,.02.44,1.85,1.85,0,0,1-1.25.93.569.569,0,0,1-.55-.13.8.8,0,0,1-.16-.61.87.87,0,0,0-.04-.38c-.23-.44-.66-.55-1.17-.68a1.81,1.81,0,0,0-2.06,1.4,1.551,1.551,0,0,0,.23,1.23,2.383,2.383,0,0,0,1.93.98,5.42,5.42,0,0,0,3.96-2.49l.21-.33.31.25c1.52,1.22,3.52,2.61,5.53,2.61a4.133,4.133,0,0,0,1.56-.31,1.36,1.36,0,0,0,.75-.92,1.519,1.519,0,0,0-.22-1.31,1.849,1.849,0,0,0-3.01-.01l-.16.24-.27-.1a5.473,5.473,0,0,1-2.95-2.09,1.423,1.423,0,0,1,.07-1.34c.2-.38.44-.46.6-.46a.546.546,0,0,1,.22.05,2.785,2.785,0,0,0,1.49.48,1.693,1.693,0,0,0,1.73-1.35,1.529,1.529,0,0,0-.26-1.26,1.958,1.958,0,0,0-1.14-.79,2.191,2.191,0,0,0-.29-.02,2.8,2.8,0,0,0-2.11,1,4,4,0,0,0-.65,1.4,4.994,4.994,0,0,1-.57,1.33l-.23.35-6.39-5.93.27-.26c6.92-6.65,16.18-9,23.76-9.69-.97-.08-1.95-.12-2.92-.12a33.7,33.7,0,0,0-22.29,8.13l-.22.19-.23-.17a39.756,39.756,0,0,0-12.18-6.57,36.583,36.583,0,0,0-13.38-1.45c7.59.68,16.88,3.03,23.81,9.69l.27.26-6.39,5.93-.23-.35a5.339,5.339,0,0,1-.57-1.33,3.917,3.917,0,0,0-.65-1.4,4.513,4.513,0,0,0-1.63-.99,1.772,1.772,0,0,0-2.17,1.39,1.949,1.949,0,0,0,1.05,1.95,1.552,1.552,0,0,0,.42.05,3.873,3.873,0,0,0,1.41-.39l.23-.09a.592.592,0,0,1,.21-.04.868.868,0,0,1,.73.53,1.3,1.3,0,0,1,.04,1.28,5.458,5.458,0,0,1-2.93,2.07l-.26.1-.16-.22a1.783,1.783,0,0,0-1.5-.82m.26,4.19q-.33,0-.66-.03a2.339,2.339,0,0,1-1.66-1.16,2.455,2.455,0,0,1,4.02-2.8,4.539,4.539,0,0,0,2.34-1.68.5.5,0,0,0,.01-.38.731.731,0,0,0-.18-.33l-.16.07a4.392,4.392,0,0,1-1.68.44,2.265,2.265,0,0,1-.69-.11,2.685,2.685,0,0,1-1.48-2.74,2.477,2.477,0,0,1,2.44-2.02,2.681,2.681,0,0,1,.62.07l.06.02a5.229,5.229,0,0,1,1.92,1.18,4.527,4.527,0,0,1,.81,1.67,7.706,7.706,0,0,0,.28.77l5.19-4.81c-7.9-7.4-18.86-9.23-26.7-9.45l-3.22-.09,3.16-.62a36.635,36.635,0,0,1,17.29.97,40,40,0,0,1,12.17,6.52,34.447,34.447,0,0,1,22.54-8.11,36.443,36.443,0,0,1,6.69.62l3.25.61-3.31.09c-7.84.22-18.79,2.05-26.7,9.45l5.19,4.82a7.706,7.706,0,0,0,.28-.77,4.516,4.516,0,0,1,.79-1.64,3.523,3.523,0,0,1,3.09-1.23,2.713,2.713,0,0,1,1.59,1.08,2.228,2.228,0,0,1,.36,1.84,2.408,2.408,0,0,1-2.42,1.89,3.329,3.329,0,0,1-1.67-.47.848.848,0,0,0-.1.64,4.5,4.5,0,0,0,2.34,1.7,2.527,2.527,0,0,1,1.92-.86,2.485,2.485,0,0,1,2.09,1.09,2.251,2.251,0,0,1,.32,1.91,2.078,2.078,0,0,1-1.16,1.38,4.618,4.618,0,0,1-1.84.37c-2.1,0-4.11-1.3-5.68-2.53a5.974,5.974,0,0,1-4.34,2.5,3.1,3.1,0,0,1-2.51-1.28,2.3,2.3,0,0,1-.34-1.82,2.585,2.585,0,0,1,2.4-1.98,1.861,1.861,0,0,1,.52.07,2.134,2.134,0,0,1,1.61,1.02,1.221,1.221,0,0,1,.14.76v.01a1.39,1.39,0,0,0,.54-.41,13.6,13.6,0,0,0-3.9-4.03c-.6-.47-1.22-.96-1.8-1.48-.59.54-1.21,1.04-1.8,1.52a18.151,18.151,0,0,0-3.98,3.99,1.039,1.039,0,0,0,.64.41,2.076,2.076,0,0,0,.11-.35,1.45,1.45,0,0,1,.76-1.14,2.986,2.986,0,0,1,2.34-.14,2.7,2.7,0,0,1,1.46,2.73,2.991,2.991,0,0,1-3.43,2.1,5.945,5.945,0,0,1-3.78-2.46c-1.74,1.29-3.74,2.6-6.09,2.61" transform="translate(245 2355)" fill="#81bd41"/>
    <path id="Path_712" data-name="Path 712" d="M418.04,645.36l.89.66-.64-.91c-4.14-5.92-8.78-6.09-10.25-5.97a4.283,4.283,0,0,1,1.54-1.07l.52-.2-.53-.15a4.239,4.239,0,0,0-4.01.55,5.556,5.556,0,0,0-1.03-2.55.25.25,0,0,0-.22-.05c-.36.08-.98,1.02-1.27,2.6a3.776,3.776,0,0,0-3.89-.44l-.4.2.42.14a2.951,2.951,0,0,1,1.41,1.07c-6.04.15-8.24,3.1-10.01,5.49-.13.18-.26.35-.39.52l.27.24c2.47-2.3,6.29-3.07,8.13-2.6-2.2.87-6.43,3.47-7.87,10.74l-.19.95.52-.82c2.42-3.83,4.78-6.14,7.58-7.42-1.81,2.75-4.31,7.51-3.34,11.77l.18.79.17-.79a19.755,19.755,0,0,1,5.03-9.3,20.267,20.267,0,0,0-.13,11.01l.3.8.05-.86a36.743,36.743,0,0,1,2.11-10.03l.55,3.84-.35.1.25,5.28H403l.4,5.42-.48.11.02.16c0,.03.35,3.41.47,5.31a7.248,7.248,0,0,0-1.47,1.19v.36h4.74v-.32l.02-.04a4.794,4.794,0,0,0-1.45-1.13l.51-5.67-.5.04.36-5.56-.36.05.25-5.27h-.41c.08-.47.27-1.73.47-3.89,1.03,1.74,1.91,5.36,2.39,9.9l.14,1.34.22-1.33a28.217,28.217,0,0,0-.33-11.15,28.124,28.124,0,0,1,5.14,9.64l.28,1.04.08-1.07a15.934,15.934,0,0,0-3.62-11.87,10.923,10.923,0,0,1,4.17,2.85,21.418,21.418,0,0,1,3.56,4.62l.43.82-.09-.92a13.624,13.624,0,0,0-7.79-10.79c2.7-.48,6.66,1.66,7.89,2.57" transform="translate(245 2355)" fill="#81bd41"/>
  </g>
</svg>
