<svg id="Icon_comments" data-name="Icon / comments" xmlns="http://www.w3.org/2000/svg" width="21" height="22" viewBox="0 0 21 22">
  <rect id="Rectangle" width="21" height="22" fill="#d8d8d8" opacity="0"/>
  <path id="Shape" d="M3.551,16.5H3.523a.585.585,0,0,1-.517-.31.6.6,0,0,1,.042-.626A6.388,6.388,0,0,0,4.1,12.744C1.455,11.32,0,9.305,0,7.071,0,3.172,4.215,0,9.4,0s9.394,3.172,9.394,7.071S14.575,14.143,9.4,14.143c-.292,0-.7,0-1.048,0l-.38,0A6,6,0,0,1,3.551,16.5ZM9.4,1.179c-4.533,0-8.221,2.643-8.221,5.892,0,2.519,2.372,4.086,3.785,4.8a.586.586,0,0,1,.325.527A6.545,6.545,0,0,1,4.65,15.1a4.029,4.029,0,0,0,2.467-1.817.587.587,0,0,1,.511-.309c.011,0,1.15-.009,1.767-.009,4.532,0,8.22-2.644,8.22-5.893S13.927,1.179,9.4,1.179Z" transform="translate(1.105 3.3)" fill="#046F6D"/>
</svg>
