<svg xmlns="http://www.w3.org/2000/svg" width="17.452" height="17.529" viewBox="0 0 17.452 17.529">
  <path id="Shape" d="M14.543,17.53H11.634a.723.723,0,0,1-.674-.994V11.669l-4.416.013V16.8a.73.73,0,0,1-.726.732H2.908a1.459,1.459,0,0,1-1.454-1.462V9.775l-.191.209a.725.725,0,0,1-1.028.045A.734.734,0,0,1,.191,9l8-8.771a.748.748,0,0,1,1.072,0L17.26,9a.733.733,0,0,1-.044,1.032.726.726,0,0,1-1.028-.045L16,9.775v6.294A1.46,1.46,0,0,1,14.543,17.53Zm-8-7.31h4.363a1.46,1.46,0,0,1,1.454,1.462v4.386h2.265v-7.8L8.726,1.8,2.908,8.18v7.889H5.09V11.683A1.46,1.46,0,0,1,6.544,10.22Z" fill="#40C2CC"/>
</svg>
