<svg xmlns="http://www.w3.org/2000/svg" width="16" height="19" viewBox="0 0 16 19">
  <path id="Shape" d="M14.286,19H1.715A1.751,1.751,0,0,1,0,17.219V5.343A.583.583,0,0,1,.572,4.75H2.286V.594A.584.584,0,0,1,2.858,0H15.429A.584.584,0,0,1,16,.594V17.219A1.751,1.751,0,0,1,14.286,19ZM3.429,1.187V17.219a1.819,1.819,0,0,1-.105.594H14.286a.584.584,0,0,0,.571-.594V1.187ZM1.143,5.937V17.219a.584.584,0,0,0,.572.594.584.584,0,0,0,.572-.594V5.937Zm12,7.719h-8a.594.594,0,0,1,0-1.188h8a.594.594,0,0,1,0,1.188Zm0-2.375h-8a.594.594,0,0,1,0-1.188h8a.594.594,0,0,1,0,1.188Zm0-2.375h-8a.594.594,0,0,1,0-1.188h8a.594.594,0,0,1,0,1.188ZM9.715,5.937H5.143a.594.594,0,0,1,0-1.187H9.715a.594.594,0,0,1,0,1.187Z" fill="#046F6D"/>
</svg>
