<svg xmlns="http://www.w3.org/2000/svg" width="18.201" height="18.219" viewBox="0 0 18.201 18.219">
  <path id="_" data-name="î€" d="M13.258,18.218H.959a.941.941,0,0,1-.675-.276A.919.919,0,0,1,0,17.257V15.818a.809.809,0,0,1,.48-.675l.48-.284,3.68-1.991a4.128,4.128,0,0,1-1.4-2.133,8.022,8.022,0,0,1-.391-2.114v-2.4a2.252,2.252,0,0,1,.373-1.2,4.3,4.3,0,0,1,.977-1.075,5.331,5.331,0,0,1,1.377-.782,4.18,4.18,0,0,1,3.119,0,5.208,5.208,0,0,1,1.36.782,4.23,4.23,0,0,1,.961,1.075,2.3,2.3,0,0,1,.364,1.2v2.4a8.764,8.764,0,0,1-.346,2.168,3.915,3.915,0,0,1-1.342,2.1l3.572,1.974.481.267a.789.789,0,0,1,.48.693v1.439a.919.919,0,0,1-.284.684A.943.943,0,0,1,13.258,18.218ZM7.128,4a3.345,3.345,0,0,0-2.177.8c-.643.53-.969,1.008-.969,1.422v2.4A6.312,6.312,0,0,0,4.3,10.353,3.169,3.169,0,0,0,5.349,11.98a1.184,1.184,0,0,1,.33.443,1.118,1.118,0,0,1-.507,1.44l-3.68,2.009h0a.074.074,0,0,0-.033.008.145.145,0,0,0-.036.027.486.486,0,0,0-.151.071l-.133.089v1.013H13.082V16.068a.459.459,0,0,0-.125-.089l-.142-.071a.087.087,0,0,1-.044-.018.582.582,0,0,0-.062-.036L9.135,13.881a1.208,1.208,0,0,1-.408-.381,1.056,1.056,0,0,1-.178-.525,1.045,1.045,0,0,1,.08-.551,1.121,1.121,0,0,1,.346-.443,2.886,2.886,0,0,0,1-1.626,7.442,7.442,0,0,0,.267-1.733v-2.4A2.137,2.137,0,0,0,9.3,4.8,3.251,3.251,0,0,0,7.128,4ZM17.24,15.374H15.356a6.532,6.532,0,0,0-.222-.658,1.164,1.164,0,0,0-.364-.48h2.292V13.223c-.035-.023-.076-.05-.124-.08a.473.473,0,0,0-.143-.062.094.094,0,0,0-.044-.027.587.587,0,0,1-.062-.027l-3.626-1.973a1.209,1.209,0,0,1-.408-.383,1.191,1.191,0,0,1-.1-1.075,1.121,1.121,0,0,1,.347-.445,3.113,3.113,0,0,0,1.021-1.644,6.781,6.781,0,0,0,.294-1.715v-2.4c0-.424-.323-.908-.961-1.439a3.353,3.353,0,0,0-2.2-.8,3.5,3.5,0,0,0-1.164.2,3.652,3.652,0,0,0-1.005.532,2.775,2.775,0,0,0-.71-.124l-.729-.035A5.139,5.139,0,0,1,9.046.5,4.406,4.406,0,0,1,11.055,0a4.2,4.2,0,0,1,1.572.311A5.481,5.481,0,0,1,14,1.1a4.22,4.22,0,0,1,.978,1.083,2.3,2.3,0,0,1,.373,1.209v2.4a8.205,8.205,0,0,1-.373,2.16,3.984,3.984,0,0,1-1.369,2.088l3.626,1.99h0l.48.267a.792.792,0,0,1,.481.694v1.422a.916.916,0,0,1-.285.684A.941.941,0,0,1,17.24,15.374Z" fill="#00aaba"/>
</svg>
